<svg width="68" height="74" viewBox="0 0 68 74" fill="none" xmlns="http://www.w3.org/2000/svg">
<path d="M60.5474 73.2869H6.82331C3.05506 73.2869 0 71.1364 0 68.4864V25.7317H67.3734V68.4864C67.3734 71.1475 64.3212 73.2869 60.5474 73.2869Z" fill="url(#paint0_linear)"/>
<path d="M40.8071 53.3775H38.1013V45.9685L38.1291 44.7532L38.1738 43.4213C37.7243 43.8708 37.4113 44.1658 37.2355 44.3064L35.7655 45.4886L34.4607 43.8596L38.5844 40.577H40.8044L40.8071 53.3775Z" fill="white"/>
<path d="M49.0212 45.1973C50.1048 45.1415 51.1666 45.5154 51.9762 46.2378C52.3518 46.6088 52.6446 47.055 52.8359 47.547C53.0272 48.0391 53.1124 48.5657 53.0859 49.093C53.123 49.707 53.0234 50.3217 52.7946 50.8926C52.5657 51.4636 52.2131 51.9768 51.7621 52.3952C50.6854 53.2304 49.3404 53.6421 47.9806 53.5523C46.7921 53.602 45.6086 53.365 44.531 52.8613V50.5221C45.0423 50.786 45.5838 50.9874 46.1433 51.1216C46.7123 51.2711 47.2975 51.3494 47.8858 51.3546C49.5377 51.3546 50.3639 50.6774 50.3639 49.3233C50.3639 48.0284 49.5082 47.381 47.797 47.381C47.4538 47.384 47.1117 47.4145 46.7734 47.4725C46.4662 47.5192 46.1619 47.5851 45.8629 47.6696L44.7864 47.0924L45.2694 40.5689H52.2066V42.8634H47.6365L47.4007 45.3775L47.7056 45.3165C48.1383 45.2288 48.5797 45.1889 49.0212 45.1973Z" fill="white"/>
<path d="M22.5931 53.3748H13.6439V51.4935L16.8578 48.2441C17.8104 47.2692 18.4317 46.5941 18.7221 46.2185C18.9794 45.9006 19.1915 45.5484 19.3521 45.1722C19.4803 44.8547 19.5464 44.5157 19.5466 44.1733C19.5634 43.9629 19.5339 43.7514 19.4605 43.5534C19.3872 43.3555 19.2716 43.176 19.1218 43.0274C18.8042 42.7637 18.3993 42.629 17.9871 42.6501C17.4863 42.6514 16.9924 42.768 16.5441 42.9911C16.0201 43.2561 15.529 43.5821 15.0815 43.9623L13.6107 42.2199C14.0936 41.7887 14.6194 41.4074 15.179 41.0821C15.6078 40.8542 16.0631 40.6819 16.5353 40.5689C17.0746 40.4433 17.6271 40.3826 18.1808 40.3884C18.9114 40.3737 19.6364 40.5234 20.3012 40.8267C20.8839 41.0923 21.3791 41.5176 21.73 42.0532C22.0719 42.5919 22.2488 43.219 22.2381 43.8569C22.2429 44.4268 22.1372 44.9921 21.9271 45.5218C21.6855 46.0959 21.3613 46.6316 20.9645 47.1118C20.2531 47.9372 19.4851 48.7124 18.6666 49.4317L17.0183 50.9827V51.105H22.5958L22.5931 53.3748Z" fill="white"/>
<path d="M32.76 46.9731C32.8798 48.7005 32.4944 50.4253 31.6503 51.9372C31.2728 52.4748 30.7626 52.906 30.1694 53.1884C29.5763 53.4709 28.9205 53.5952 28.2651 53.5495C27.6134 53.5844 26.9635 53.4491 26.3798 53.1573C25.796 52.8654 25.2986 52.427 24.9354 51.8847C24.0887 50.3925 23.697 48.6852 23.8088 46.9731C23.6845 45.2373 24.0652 43.5025 24.9049 41.9783C25.281 41.4428 25.7884 41.0136 26.3791 40.7321C26.9698 40.4506 27.6232 40.3265 28.2759 40.3717C28.9322 40.3369 29.5862 40.4735 30.1735 40.7683C30.7608 41.0632 31.2612 41.506 31.6253 42.0531C32.4747 43.5475 32.869 45.2577 32.76 46.9731ZM26.4976 46.9731C26.4391 48.1139 26.577 49.2559 26.9055 50.3499C26.9905 50.6468 27.1706 50.9076 27.4183 51.0921C27.6659 51.2765 27.9672 51.3746 28.2759 51.3712C28.5846 51.37 28.8847 51.2687 29.1309 51.0826C29.3771 50.8964 29.5558 50.6357 29.641 50.3391C29.9767 49.2513 30.1189 48.1128 30.0604 46.9759C30.1206 45.8312 29.9766 44.685 29.6356 43.5906C29.55 43.295 29.371 43.035 29.1255 42.8495C28.8799 42.6639 28.581 42.5625 28.2732 42.5609C27.9644 42.5596 27.6635 42.6598 27.4169 42.8458C27.1704 43.0317 26.9919 43.2934 26.9082 43.5906C26.5785 44.6862 26.4406 45.8306 26.5003 46.9731H26.4976Z" fill="white"/>
<path d="M67.3734 15.5839V18.7307H0V15.5839C0 12.5843 1.19166 9.70752 3.31275 7.58643C5.43384 5.46534 8.31109 4.27368 11.3108 4.27368H56.0633C59.063 4.27368 61.9396 5.46534 64.0607 7.58643C66.1817 9.70752 67.3734 12.5843 67.3734 15.5839Z" fill="#FEA130"/>
<path d="M56.9292 12.0656C57.4112 12.0656 57.8734 11.8741 58.2143 11.5333C58.5551 11.1924 58.7468 10.73 58.7468 10.248V2.04283C58.7468 1.56079 58.5551 1.09838 58.2143 0.757529C57.8734 0.416676 57.4112 0.22522 56.9292 0.22522C56.6906 0.225219 56.4544 0.272216 56.2341 0.36359C56.0137 0.454963 55.8133 0.588889 55.6447 0.757698C55.4762 0.926507 55.3428 1.12692 55.2518 1.34742C55.1607 1.56792 55.1139 1.80428 55.1143 2.04283V10.248C55.1139 10.4865 55.1607 10.7229 55.2518 10.9434C55.3428 11.1639 55.4762 11.3643 55.6447 11.5331C55.8133 11.7019 56.0137 11.8358 56.2341 11.9272C56.4544 12.0186 56.6906 12.0656 56.9292 12.0656Z" fill="white"/>
<path d="M34.5582 12.0656C35.0402 12.0656 35.5025 11.8741 35.8433 11.5333C36.1842 11.1924 36.3758 10.73 36.3758 10.248V2.04283C36.3758 1.56079 36.1842 1.09838 35.8433 0.757529C35.5025 0.416676 35.0402 0.22522 34.5582 0.22522C34.0762 0.22522 33.6139 0.416676 33.2731 0.757529C32.9322 1.09838 32.7406 1.56079 32.7406 2.04283V10.248C32.7406 10.73 32.9322 11.1924 33.2731 11.5333C33.6139 11.8741 34.0762 12.0656 34.5582 12.0656Z" fill="white"/>
<path d="M12.2013 12.0656C12.4398 12.0656 12.676 12.0186 12.8963 11.9272C13.1167 11.8358 13.3172 11.7019 13.4857 11.5331C13.6543 11.3643 13.7876 11.1639 13.8786 10.9434C13.9697 10.7229 14.0165 10.4865 14.0162 10.248V2.04283C14.0165 1.80428 13.9697 1.56792 13.8786 1.34742C13.7876 1.12692 13.6543 0.926507 13.4857 0.757698C13.3172 0.588889 13.1167 0.454963 12.8963 0.36359C12.676 0.272216 12.4398 0.225219 12.2013 0.22522C11.9626 0.22522 11.726 0.27225 11.5055 0.36359C11.285 0.454929 11.0849 0.588756 10.9161 0.757529C10.7474 0.926302 10.6132 1.12674 10.5219 1.34725C10.4305 1.56776 10.3837 1.80415 10.3837 2.04283V10.248C10.3837 10.4867 10.4305 10.723 10.5219 10.9435C10.6132 11.1641 10.7474 11.3645 10.9161 11.5333C11.0849 11.702 11.285 11.8359 11.5055 11.9272C11.726 12.0185 11.9626 12.0656 12.2013 12.0656Z" fill="white"/>
<path d="M14.4342 13.118C15.6699 11.8809 15.667 9.87444 14.4277 8.63652C13.1884 7.39861 11.182 7.39797 9.94626 8.6351C8.71051 9.87223 8.71339 11.8787 9.95269 13.1166C11.192 14.3545 13.1984 14.3551 14.4342 13.118Z" fill="#2B4183"/>
<path d="M59.1761 13.1146C60.4102 11.8759 60.4047 9.86945 59.1638 8.63316C57.9229 7.39687 55.9165 7.39886 54.6823 8.6376C53.4482 9.87635 53.4537 11.8828 54.6946 13.1191C55.9356 14.3554 57.942 14.3534 59.1761 13.1146Z" fill="#2B4183"/>
<path d="M36.8011 13.1163C38.0375 11.8799 38.0358 9.87345 36.7971 8.63484C35.5585 7.39623 33.5521 7.39448 32.3157 8.63092C31.0792 9.86736 31.081 11.8738 32.3196 13.1124C33.5582 14.351 35.5646 14.3528 36.8011 13.1163Z" fill="#2B4183"/>
<defs>
<linearGradient id="paint0_linear" x1="63.7865" y1="20.4149" x2="-12.4741" y2="60.4698" gradientUnits="userSpaceOnUse">
<stop stop-color="#5E95E0"/>
<stop offset="1" stop-color="#5F9CE4"/>
</linearGradient>
</defs>
</svg>
