<?xml version="1.0" encoding="utf-8"?>
<!-- Generator: Adobe Illustrator 24.0.1, SVG Export Plug-In . SVG Version: 6.00 Build 0)  -->
<svg version="1.1" id="Layer_1" xmlns="http://www.w3.org/2000/svg" xmlns:xlink="http://www.w3.org/1999/xlink" x="0px" y="0px"
	 viewBox="0 0 1445 2241.9" enable-background="new 0 0 1445 2241.9" xml:space="preserve">
<g>
	<rect fill="#FFFFFF" width="1445" height="2241.4"/>
	<rect y="115.4" fill="#F5FAFF" width="1445" height="2126"/>
	<g>
		<g>
			<defs>
				<rect id="SVGID_1_" x="1186.7" y="13.9" width="259.9" height="298.4"/>
			</defs>
			<clipPath id="SVGID_2_">
				<use xlink:href="#SVGID_1_"  overflow="visible"/>
			</clipPath>
			
				<circle opacity="5.000000e-02" clip-path="url(#SVGID_2_)" fill="#5E96E1" enable-background="new    " cx="1289.2" cy="172.2" r="102.5"/>
		</g>
		<g>
			<defs>
				<rect id="SVGID_3_" x="1186.7" y="13.9" width="259.9" height="298.4"/>
			</defs>
			<clipPath id="SVGID_4_">
				<use xlink:href="#SVGID_3_"  overflow="visible"/>
			</clipPath>
			<g opacity="0.4" clip-path="url(#SVGID_4_)">
				<path opacity="0.2" fill="#7A7A7A" enable-background="new    " d="M1435.6,305.9c3-3,3-7.9,0-10.9s-7.9-3-10.9,0s-3,7.9,0,10.9
					S1432.6,308.9,1435.6,305.9z"/>
				<path opacity="0.2" fill="#7A7A7A" enable-background="new    " d="M1392.7,263c3-3,3-7.9,0-10.9s-7.9-3-10.9,0s-3,7.9,0,10.9
					C1384.8,266,1389.7,266,1392.7,263z"/>
				<path opacity="0.2" fill="#7A7A7A" enable-background="new    " d="M1429.5,226.2c3-3,3-7.9,0-10.9s-7.9-3-10.9,0s-3,7.9,0,10.9
					S1426.5,229.2,1429.5,226.2z"/>
				<path opacity="0.2" fill="#7A7A7A" enable-background="new    " d="M1349.8,220.1c3-3,3-7.9,0-10.9s-7.9-3-10.9,0s-3,7.9,0,10.9
					C1342,223.1,1346.8,223.1,1349.8,220.1z"/>
				<path opacity="0.2" fill="#7A7A7A" enable-background="new    " d="M1386.6,183.4c3-3,3-7.9,0-10.9s-7.9-3-10.9,0s-3,7.9,0,10.9
					S1383.6,186.4,1386.6,183.4z"/>
				<path opacity="0.2" fill="#7A7A7A" enable-background="new    " d="M1307,177.2c3-3,3-7.9,0-10.9s-7.9-3-10.9,0s-3,7.9,0,10.9
					S1304,180.2,1307,177.2z"/>
				<path opacity="0.2" fill="#7A7A7A" enable-background="new    " d="M1423.3,146.6c3-3,3-7.9,0-10.9s-7.9-3-10.9,0s-3,7.9,0,10.9
					C1415.5,149.6,1420.3,149.6,1423.3,146.6z"/>
				<path opacity="0.2" fill="#7A7A7A" enable-background="new    " d="M1343.7,140.5c3-3,3-7.9,0-10.9s-7.9-3-10.9,0s-3,7.9,0,10.9
					C1335.8,143.5,1340.7,143.5,1343.7,140.5z"/>
				<path opacity="0.2" fill="#7A7A7A" enable-background="new    " d="M1460.1,109.9c3-3,3-7.9,0-10.9s-7.9-3-10.9,0s-3,7.9,0,10.9
					S1457.1,112.9,1460.1,109.9z"/>
				<path opacity="0.2" fill="#7A7A7A" enable-background="new    " d="M1380.5,103.7c3-3,3-7.9,0-10.9s-7.9-3-10.9,0s-3,7.9,0,10.9
					S1377.5,106.7,1380.5,103.7z"/>
				<path opacity="0.2" fill="#7A7A7A" enable-background="new    " d="M1417.2,67c3-3,3-7.9,0-10.9s-7.9-3-10.9,0s-3,7.9,0,10.9
					C1409.3,70,1414.2,70,1417.2,67z"/>
				<path opacity="0.2" fill="#7A7A7A" enable-background="new    " d="M1454,30.2c3-3,3-7.9,0-10.9s-7.9-3-10.9,0s-3,7.9,0,10.9
					S1451,33.2,1454,30.2z"/>
			</g>
		</g>
	</g>
	<g>
		<defs>
			<rect id="SVGID_5_" y="115.4" width="1445" height="2126"/>
		</defs>
		<clipPath id="SVGID_6_">
			<use xlink:href="#SVGID_5_"  overflow="visible"/>
		</clipPath>
		<path clip-path="url(#SVGID_6_)" fill="#FFFFFF" d="M716.7,1229.4c0,0,17.3-19.4,34.6,1.1c0,0,17.3-16.2,31.3,0
			c0,0-20-4.3-31.9,14C750.8,1244.5,734,1220.7,716.7,1229.4z"/>
		<path clip-path="url(#SVGID_6_)" fill="#FFFFFF" d="M1468.5,2075.5c-5.8,0-11.5,0.9-17,2.6c-8.6-19.1-28.6-32.5-51.9-32.5
			c-24.7,0-45.7,15.1-53.3,36c-3.8-0.9-7.8-1.4-11.7-1.4c-25.5,0-46.3,18.3-46.3,40.9c0,22.6,20.7,40.9,46.3,40.9
			c8.3,0,16.4-2,23.7-5.8c10.2,5.5,26,9,43.7,9c20,0,37.6-4.5,47.4-11.2c6.2,2.2,12.7,3.4,19.3,3.4c26.8,0,48.6-18.3,48.6-40.9
			C1517.3,2093.9,1495.4,2075.5,1468.5,2075.5z"/>
		<path clip-path="url(#SVGID_6_)" fill="#FFFFFF" d="M321.1,1979.7c-6.8,0-13.5,1-19.9,3.1c-10.1-22.4-33.5-38.1-60.8-38.1
			c-28.9,0-53.4,17.6-62.4,42.1c-4.5-1.1-9.1-1.6-13.7-1.6c-29.9,0-54.1,21.4-54.1,47.9c0,26.4,24.2,47.8,54.1,47.8
			c9.7,0,19.2-2.3,27.8-6.8c11.9,6.4,30.4,10.5,51.1,10.5c23.4,0,44-5.3,55.4-13.1c7.2,2.6,14.8,3.9,22.5,3.9
			c31.4,0,56.9-21.4,56.9-47.9C377.9,2001.1,352.5,1979.7,321.1,1979.7z"/>
		<path clip-path="url(#SVGID_6_)" fill="#FFFFFF" d="M186.6,1904c0-1.6-0.3-3.2-0.9-4.7c-0.6-1.5-1.5-2.9-2.7-4
			c-1.1-1.1-2.5-2.1-4-2.7s-3.1-0.9-4.7-0.9c-0.9,0-1.9,0.1-2.8,0.3c0.1-0.6,0.1-1.3,0.1-1.9c0-4.8-1.9-9.3-5.2-12.7
			c-3.4-3.4-7.9-5.2-12.7-5.2c-2.8,0-5.5,0.6-8,1.9c-1.2-5.4-4.3-10.3-8.6-13.8c-4.4-3.5-9.8-5.4-15.3-5.4c-5.7,0-11.2,2-15.6,5.6
			s-7.4,8.6-8.5,14.2c-2.8-1.6-5.9-2.5-9.1-2.5c-4.8,0-9.3,1.9-12.7,5.2c-3.4,3.4-5.2,7.9-5.2,12.7c0,1.1,0.1,2.2,0.3,3.3
			c-0.1,0-0.2,0-0.3,0c-3.3,0-6.4,1.3-8.7,3.6c-2.3,2.3-3.6,5.5-3.6,8.7c0,3.3,1.3,6.4,3.6,8.7c2.3,2.3,5.5,3.6,8.7,3.6
			c0.4,0,0.7,0,1.1-0.1c1.9,3.9,4.8,7.2,8.5,9.5s7.9,3.5,12.3,3.5c4.8,0,9.5-1.5,13.4-4.3c1.7,1.9,3.7,3.4,6.1,4.5
			c2.3,1,4.8,1.6,7.3,1.6c3.1,0,6.1-0.8,8.7-2.3c2.7-1.5,4.9-3.6,6.5-6.2c1.3,0.4,2.7,0.5,4,0.5c3.2,0,6.4-1,9-3
			c1.5,2,3.4,3.7,5.6,4.8c2.2,1.1,4.7,1.7,7.2,1.7c3.6,0,7-1.2,9.8-3.4s4.7-5.3,5.5-8.7c3-0.3,5.8-1.8,7.8-4
			C185.5,1910,186.6,1907.1,186.6,1904z"/>
		<path clip-path="url(#SVGID_6_)" fill="#FFFFFF" d="M220.8,1345.9c0-4-0.8-8-2.3-11.7s-3.8-7.1-6.6-9.9s-6.2-5.1-9.9-6.6
			s-7.7-2.3-11.7-2.3c-2.3,0-4.6,0.3-6.8,0.8c0.2-1.6,0.3-3.1,0.3-4.7c0-11.8-4.7-23.1-13-31.4s-19.6-13-31.4-13
			c-6.9,0-13.7,1.6-19.9,4.7c-3-13.5-10.6-25.5-21.3-34.1c-10.8-8.6-24.2-13.3-38-13.3c-14.1,0-27.7,4.9-38.6,13.8
			s-18.3,21.3-21.1,35.1c-6.8-4-14.6-6.2-22.5-6.2c-11.8,0-23.1,4.7-31.4,13s-13,19.6-13,31.4c0,2.8,0.3,5.5,0.8,8.2
			c-0.3,0-0.5,0-0.8,0c-8.1,0-15.9,3.2-21.6,9c-5.7,5.7-9,13.5-9,21.6s3.2,15.9,9,21.6c5.7,5.7,13.5,9,21.6,9c0.9,0,1.8,0,2.7-0.1
			c4.7,9.7,12,17.9,21.1,23.6s19.7,8.8,30.4,8.8c11.9,0,23.5-3.7,33.2-10.7c4.2,4.7,9.3,8.5,15,11c5.7,2.6,11.9,3.9,18.2,3.9
			c7.6,0,15-1.9,21.6-5.6c6.6-3.7,12.2-9,16.1-15.4c3.2,0.9,6.6,1.3,9.9,1.3c8,0,15.8-2.6,22.3-7.3c3.6,5,8.4,9.1,13.9,11.9
			s11.6,4.3,17.8,4.3c8.8,0,17.3-3,24.2-8.4c6.9-5.5,11.7-13.1,13.7-21.7c7.5-0.8,14.4-4.4,19.4-10
			C218.1,1360.7,220.8,1353.4,220.8,1345.9z"/>
		<path clip-path="url(#SVGID_6_)" fill="#FFFFFF" d="M437.5,1241.3c0,0,16.4-18.5,32.8,1c0,0,16.4-15.4,29.7,0
			c0,0-19-4.1-30.2,13.3C469.8,1255.6,453.9,1233.1,437.5,1241.3z"/>
	</g>
</g>
</svg>
