<svg width="92" height="82" viewBox="0 0 92 82" fill="none" xmlns="http://www.w3.org/2000/svg">
<path d="M49.8072 0.81665H9.85183C7.23892 0.81665 4.73322 2.01123 2.88562 4.13753C1.03801 6.26382 0 9.14781 0 12.1548V55.3008L9.73174 45.2169H9.84947H49.8048C52.4177 45.2169 54.9234 44.0224 56.771 41.8961C58.6186 39.7698 59.6567 36.8861 59.6567 33.8791V12.1491C59.6554 9.1435 58.6174 6.26152 56.7705 4.13651C54.9235 2.0115 52.4188 0.817386 49.8072 0.81665Z" fill="url(#paint0_linear)"/>
<path d="M51.1765 29.7527H9.96026C9.38898 29.7527 8.92587 30.2857 8.92587 30.9431V30.9459C8.92587 31.6033 9.38898 32.1363 9.96026 32.1363H51.1765C51.7478 32.1363 52.2109 31.6033 52.2109 30.9459V30.9431C52.2109 30.2857 51.7478 29.7527 51.1765 29.7527Z" fill="white"/>
<path d="M51.1765 21.4116H9.96026C9.38898 21.4116 8.92587 21.9445 8.92587 22.602V22.6047C8.92587 23.2622 9.38898 23.7952 9.96026 23.7952H51.1765C51.7478 23.7952 52.2109 23.2622 52.2109 22.6047V22.602C52.2109 21.9445 51.7478 21.4116 51.1765 21.4116Z" fill="white"/>
<path d="M79.6481 21.1287H39.6927C37.0798 21.1287 34.5735 22.3233 32.7259 24.4496C30.8783 26.5759 29.8409 29.4595 29.8409 32.4666V54.1966C29.8409 57.2036 30.8783 60.0876 32.7259 62.2139C34.5735 64.3402 37.0798 65.5344 39.6927 65.5344H79.6481H79.7682L89.4999 75.6183V32.4723C89.5006 30.9829 89.246 29.5078 88.7511 28.1316C88.2563 26.7553 87.531 25.5047 86.6161 24.4513C85.7012 23.3979 84.6147 22.5623 83.4191 21.9921C82.2234 21.422 80.9423 21.1287 79.6481 21.1287Z" fill="#FEA130" stroke="#FEFEFE" stroke-width="5"/>
<path d="M80.3782 48.1056H39.1619C38.5907 48.1056 38.1276 48.6386 38.1276 49.296V49.2988C38.1276 49.9562 38.5907 50.4892 39.1619 50.4892H80.3782C80.9495 50.4892 81.4126 49.9562 81.4126 49.2988V49.296C81.4126 48.6386 80.9495 48.1056 80.3782 48.1056Z" fill="white"/>
<path d="M80.3782 39.7617H39.1619C38.5907 39.7617 38.1276 40.2947 38.1276 40.9521V40.9549C38.1276 41.6123 38.5907 42.1453 39.1619 42.1453H80.3782C80.9495 42.1453 81.4126 41.6123 81.4126 40.9549V40.9521C81.4126 40.2947 80.9495 39.7617 80.3782 39.7617Z" fill="white"/>
<path d="M80.3782 31.4206H39.1619C38.5907 31.4206 38.1276 31.9536 38.1276 32.611V32.6138C38.1276 33.2712 38.5907 33.8042 39.1619 33.8042H80.3782C80.9495 33.8042 81.4126 33.2712 81.4126 32.6138V32.611C81.4126 31.9536 80.9495 31.4206 80.3782 31.4206Z" fill="white"/>
<path d="M51.1765 13.0677H9.96026C9.38898 13.0677 8.92587 13.6007 8.92587 14.2581V14.2609C8.92587 14.9183 9.38898 15.4513 9.96026 15.4513H51.1765C51.7478 15.4513 52.2109 14.9183 52.2109 14.2609V14.2581C52.2109 13.6007 51.7478 13.0677 51.1765 13.0677Z" fill="white"/>
<defs>
<linearGradient id="paint0_linear" x1="56.4806" y1="-5.27478" x2="-17.4858" y2="24.7505" gradientUnits="userSpaceOnUse">
<stop stop-color="#5E95E0"/>
<stop offset="1" stop-color="#5F9CE4"/>
</linearGradient>
</defs>
</svg>
