<svg width="904" height="203" viewBox="0 0 904 203" fill="none" xmlns="http://www.w3.org/2000/svg">
<path d="M230.239 127.895C230.239 123.674 229.408 119.494 227.792 115.593C226.177 111.693 223.809 108.15 220.824 105.165C217.839 102.18 214.295 99.8118 210.395 98.1963C206.495 96.5808 202.315 95.7494 198.093 95.7494C195.68 95.7503 193.274 96.0217 190.921 96.5585C191.096 94.911 191.184 93.2555 191.186 91.5987C191.186 79.2232 186.27 67.3546 177.519 58.6036C168.768 49.8527 156.9 44.9362 144.525 44.9356C137.256 44.9284 130.087 46.6272 123.595 49.8954C120.404 35.734 112.49 23.0796 101.153 14.012C89.8173 4.94433 75.7338 0.00297203 61.2172 0C46.4348 0.0023371 32.1092 5.12504 20.6773 14.497C9.24542 23.8689 1.41299 36.9115 -1.48834 51.4064C-8.66453 47.1592 -16.8522 44.9233 -25.1911 44.9336C-37.5669 44.9336 -49.4359 49.8498 -58.1869 58.6009C-66.9379 67.3519 -71.8541 79.2208 -71.8541 91.5967C-71.8536 94.5027 -71.5829 97.4023 -71.0452 100.258C-71.3183 100.258 -71.5871 100.238 -71.8541 100.238C-80.3797 100.238 -88.5562 103.625 -94.5847 109.653C-100.613 115.682 -104 123.858 -104 132.384C-103.999 140.909 -100.612 149.085 -94.584 155.113C-88.5556 161.141 -80.3793 164.527 -71.8541 164.527C-70.8892 164.527 -69.9386 164.477 -68.998 164.394C-64.0802 174.585 -56.3874 183.182 -46.8032 189.197C-37.2189 195.213 -26.1319 198.403 -14.8163 198.4C-2.28871 198.417 9.92781 194.5 20.1106 187.202C24.4816 192.141 29.8526 196.094 35.8675 198.8C41.8825 201.505 48.4038 202.9 54.9991 202.893C62.9559 202.897 70.7813 200.864 77.7302 196.988C84.6791 193.112 90.5204 187.522 94.698 180.75C98.0945 181.683 101.601 182.156 105.123 182.156C113.561 182.168 121.777 179.459 128.553 174.431C132.341 179.711 137.333 184.013 143.116 186.979C148.898 189.945 155.304 191.49 161.803 191.487C171.047 191.484 180.019 188.356 187.261 182.609C194.502 176.862 199.586 168.835 201.688 159.832C209.54 158.949 216.792 155.204 222.059 149.313C227.325 143.422 230.237 135.797 230.239 127.895Z" fill="white"/>
<path d="M788.325 184.268C788.325 184.268 801.125 169.873 813.917 185.068C813.917 185.068 826.717 173.074 837.108 185.068C837.108 185.068 822.313 181.868 813.517 195.468C813.517 195.463 801.123 177.873 788.325 184.268Z" fill="white"/>
<path d="M688 124.495C688 124.495 698.776 112.375 709.551 125.168C709.551 125.168 720.327 115.068 729.082 125.168C729.082 125.168 716.623 122.474 709.217 133.923C709.217 133.924 698.776 119.11 688 124.495Z" fill="white"/>
<path d="M854.242 92.1672C854.242 92.1672 867.042 77.7722 879.834 92.9672C879.834 92.9672 892.634 80.9672 903.025 92.9672C903.025 92.9672 888.23 89.7672 879.432 103.367C879.432 103.364 867.038 85.7712 854.242 92.1672Z" fill="white"/>
</svg>
