<svg width="1371" height="310" viewBox="0 0 1371 310" fill="none" xmlns="http://www.w3.org/2000/svg">
<path d="M1398.97 214.002C1392.78 214.004 1386.63 214.957 1380.73 216.827C1371.52 196.353 1350.1 182 1325.14 182C1298.7 182 1276.24 198.108 1268.05 220.539C1263.94 219.568 1259.73 219.072 1255.5 219.059C1228.16 219.059 1206 238.665 1206 262.851C1206 287.037 1228.16 306.632 1255.5 306.632C1264.34 306.656 1273.06 304.509 1280.89 300.377C1291.8 306.238 1308.68 310 1327.65 310C1349.08 310 1367.88 305.195 1378.36 297.988C1384.97 300.376 1391.95 301.59 1398.97 301.573C1427.7 301.573 1451 281.967 1451 257.781C1451 233.595 1427.7 214.002 1398.97 214.002Z" fill="white"/>
<path d="M254.968 138.002C248.78 138.004 242.628 138.957 236.727 140.827C227.519 120.353 206.096 106 181.137 106C154.698 106 132.238 122.108 124.053 144.539C119.938 143.568 115.726 143.072 111.499 143.059C84.1598 143.059 62 162.665 62 186.851C62 211.037 84.1582 230.632 111.497 230.632C120.343 230.656 129.06 228.509 136.89 224.377C147.802 230.238 164.685 234 183.651 234C205.085 234 223.876 229.195 234.364 221.988C240.974 224.376 247.949 225.59 254.975 225.573C283.705 225.573 307 205.967 307 181.781C307 157.595 283.698 138.002 254.968 138.002Z" fill="white"/>
<path d="M132.761 50.8004C132.761 49.1236 132.431 47.4633 131.789 45.9142C131.147 44.365 130.207 42.9575 129.021 41.7718C127.836 40.5861 126.428 39.6456 124.879 39.0039C123.33 38.3623 121.669 38.032 119.993 38.032C119.034 38.0324 118.078 38.1402 117.144 38.3534C117.213 37.699 117.248 37.0414 117.249 36.3833C117.249 31.4678 115.296 26.7535 111.82 23.2776C108.345 19.8017 103.63 17.8488 98.7149 17.8486C95.8278 17.8457 92.9804 18.5205 90.4017 19.8186C89.134 14.1937 85.9905 9.16731 81.4877 5.56561C76.985 1.96391 71.3909 0.0011805 65.6249 0C59.7532 0.000928305 54.0631 2.03568 49.5223 5.75826C44.9815 9.48083 41.8704 14.6614 40.718 20.4188C37.8676 18.7318 34.6154 17.8437 31.3032 17.8478C26.3875 17.8478 21.6731 19.8005 18.1971 23.2765C14.7212 26.7524 12.7685 31.4668 12.7685 36.3825C12.7687 37.5368 12.8762 38.6886 13.0898 39.8229C12.9813 39.8229 12.8745 39.8149 12.7685 39.8149C9.38208 39.8149 6.13432 41.1601 3.73978 43.5546C1.34524 45.9492 0 49.1969 0 52.5833C0.000213079 55.9695 1.34556 59.217 3.74007 61.6114C6.13459 64.0057 9.38222 65.3509 12.7685 65.3509C13.1517 65.3509 13.5293 65.3308 13.9029 65.2978C15.8563 69.3458 18.9119 72.7606 22.7188 75.1499C26.5257 77.5393 30.9295 78.8063 35.4241 78.8054C40.4001 78.8118 45.2526 77.256 49.2972 74.3575C51.0334 76.3193 53.1667 77.8894 55.5559 78.9639C57.9451 80.0384 60.5354 80.5926 63.155 80.5899C66.3155 80.5913 69.4238 79.7838 72.1839 78.2442C74.944 76.7047 77.2642 74.4843 78.9236 71.7945C80.2727 72.1652 81.6654 72.353 83.0645 72.3529C86.4159 72.3577 89.6795 71.2817 92.3708 69.2845C93.8756 71.3819 95.8586 73.0905 98.1553 74.2687C100.452 75.4468 102.997 76.0606 105.578 76.0592C109.25 76.0583 112.814 74.8156 115.69 72.5329C118.566 70.2502 120.586 67.0619 121.42 63.4861C124.539 63.1351 127.42 61.6476 129.512 59.3076C131.604 56.9676 132.76 53.9391 132.761 50.8004Z" fill="white"/>
<path opacity="0.4" d="M12.8866 34.3064C12.8357 34.7654 12.802 35.2293 12.7854 35.698C12.8882 35.698 12.9902 35.7028 13.0923 35.7052C13.0055 35.2456 12.9396 34.7772 12.8866 34.3064Z" fill="white"/>
</svg>
