<svg width="1440" height="509" viewBox="0 0 1440 509" fill="none" xmlns="http://www.w3.org/2000/svg">
<path opacity="0.5" d="M1441.03 423.055H1.02686C57.9729 378.632 119.444 342.241 188.434 336.402C251.324 331.077 313.693 352.136 376.773 352.602C509.173 353.575 632.023 264.545 764.373 268.475C845.119 270.875 921.425 307.804 1001.22 321.375C1123.75 342.206 1257.07 308.899 1367.81 369.266C1394.03 383.558 1417.9 402.655 1441.03 423.055Z" fill="#FBFBFB"/>
<g opacity="0.85">
<path opacity="0.85" d="M1340.8 293.613C1340.94 293.816 1347.06 302.523 1355.76 316.605C1356.04 317.064 1356.33 317.528 1356.62 317.997C1359.59 322.854 1362.85 328.3 1366.26 334.227C1366.51 334.68 1366.77 335.133 1367.03 335.587C1370.73 342.061 1374.58 349.078 1378.44 356.491C1378.67 356.948 1378.91 357.406 1379.15 357.867C1382.1 363.586 1385.04 369.533 1387.91 375.64C1388.13 376.12 1388.36 376.601 1388.58 377.085C1391.49 383.35 1394.32 389.773 1396.97 396.291C1397.17 396.781 1397.37 397.272 1397.56 397.764C1399.83 403.402 1401.97 409.1 1403.93 414.818C1404.1 415.312 1404.26 415.807 1404.43 416.303C1406.44 422.265 1408.25 428.246 1409.79 434.186C1409.92 434.686 1410.05 435.187 1410.18 435.689C1411.95 442.583 1413.34 449.573 1414.33 456.627C1414.41 457.141 1414.47 457.654 1414.54 458.167C1415.71 466.69 1415.97 475.324 1415.32 483.929L1443.9 475.198C1443.9 475.198 1442.24 466.908 1438.58 453.759C1438.44 453.266 1438.3 452.767 1438.15 452.259C1436.29 445.677 1433.95 437.975 1431.1 429.546C1430.93 429.058 1430.76 428.568 1430.6 428.076C1428.78 422.791 1426.77 417.23 1424.55 411.502C1424.36 411.019 1424.17 410.536 1423.98 410.051C1421.81 404.496 1419.43 398.786 1416.85 393.004C1416.65 392.528 1416.43 392.055 1416.21 391.581C1413.47 385.498 1410.51 379.346 1407.3 373.221C1407.05 372.744 1406.8 372.267 1406.55 371.791C1402.52 364.177 1398.12 356.619 1393.33 349.306C1393.05 348.87 1392.76 348.437 1392.48 348.008C1388.41 341.87 1384.06 335.917 1379.43 330.256C1379.09 329.843 1378.76 329.43 1378.41 329.023C1374.13 323.846 1369.54 318.922 1364.67 314.275C1364.26 313.879 1363.84 313.485 1363.42 313.095C1360.55 310.436 1357.61 307.907 1354.57 305.506L1340.8 293.613Z" fill="url(#paint0_linear)"/>
<g opacity="0.3">
<path opacity="0.3" d="M1414.82 458.397C1415.14 458.337 1415.45 458.281 1415.76 458.224L1438.45 454.062C1438.32 453.584 1438.19 453.1 1438.05 452.607L1415.51 456.739L1414.62 456.903C1414.69 457.401 1414.76 457.899 1414.82 458.397Z" fill="white"/>
<path opacity="0.3" d="M1410.31 435.844C1417.3 434.285 1424.17 432.269 1430.9 429.81C1430.74 429.336 1430.58 428.859 1430.42 428.38C1423.73 430.831 1416.89 432.836 1409.94 434.382C1410.06 434.869 1410.19 435.357 1410.31 435.844Z" fill="white"/>
<path opacity="0.3" d="M1404.01 414.968C1404.17 415.448 1404.33 415.927 1404.5 416.408C1411.16 415.176 1417.77 413.604 1424.28 411.7C1424.1 411.233 1423.92 410.764 1423.74 410.294C1417.24 412.188 1410.66 413.748 1404.01 414.968Z" fill="white"/>
<path opacity="0.3" d="M1396.99 396.379C1397.19 396.855 1397.38 397.331 1397.57 397.808C1399.64 397.456 1401.7 397.054 1403.75 396.604C1408.07 395.659 1412.34 394.502 1416.55 393.137C1416.35 392.674 1416.14 392.215 1415.93 391.757C1409.73 393.758 1403.4 395.303 1396.99 396.379Z" fill="white"/>
<path opacity="0.3" d="M1406.23 371.875L1387.9 375.653C1388.12 376.118 1388.33 376.584 1388.55 377.053L1406.96 373.26C1406.72 372.798 1406.48 372.336 1406.23 371.875Z" fill="white"/>
<path opacity="0.3" d="M1378.34 356.394C1378.57 356.842 1378.8 357.293 1379.03 357.747C1383.85 355.157 1388.54 352.323 1393.06 349.259C1392.79 348.831 1392.51 348.405 1392.22 347.98C1387.74 351.017 1383.11 353.826 1378.34 356.394Z" fill="white"/>
<path opacity="0.3" d="M1378.18 328.886C1374.24 330.713 1370.24 332.428 1366.19 334.032C1366.44 334.476 1366.69 334.919 1366.95 335.363C1371.07 333.724 1375.15 331.968 1379.18 330.093C1378.85 329.689 1378.52 329.285 1378.18 328.886Z" fill="white"/>
<path opacity="0.3" d="M1355.71 316.322C1355.98 316.772 1356.26 317.227 1356.55 317.687C1356.67 317.636 1356.79 317.584 1356.91 317.531C1359.47 316.418 1362 315.24 1364.5 313.997C1364.1 313.609 1363.69 313.224 1363.27 312.842C1360.78 314.066 1358.26 315.226 1355.71 316.322Z" fill="white"/>
</g>
<path opacity="0.85" d="M1278.86 363.89C1278.86 363.89 1294.63 362.417 1312.65 352.419L1308.47 348.315L1315.34 350.868C1325.63 344.77 1334.65 336.783 1341.93 327.346L1337.66 323.69L1343.06 325.856C1346.81 320.762 1350.06 315.325 1352.76 309.623C1353.03 309.068 1353.29 308.507 1353.55 307.94C1353.84 307.295 1354.13 306.642 1354.42 305.982C1354.62 305.497 1354.83 305.004 1355.04 304.511C1355.63 303.071 1356.21 301.598 1356.76 300.093C1357.35 298.462 1357.92 296.789 1358.45 295.075C1358.46 295.061 1358.46 295.05 1358.47 295.036L1358.42 295.038C1358.07 295.039 1355.69 295.077 1351.94 295.412C1350.15 295.572 1348.04 295.803 1345.69 296.13C1345.61 296.144 1345.51 296.156 1345.43 296.167L1344.13 296.358C1334.59 297.748 1325.24 300.351 1316.34 304.101C1309.58 306.956 1303.28 310.815 1297.68 315.543L1303.78 319.861L1296.17 316.88C1290.46 322.086 1285.98 328.466 1283.04 335.556L1290.31 340.69L1282.27 337.536C1279.29 346.02 1278.13 354.996 1278.86 363.89Z" fill="url(#paint1_linear)"/>
<path opacity="0.2" d="M1346.08 303.369C1340.1 306.708 1334.3 310.378 1328.72 314.362C1327.33 315.368 1325.95 316.379 1324.57 317.394L1320.49 320.529L1316.49 323.769L1312.57 327.099L1308.74 330.533L1305 334.051L1301.35 337.67C1300.16 338.898 1298.97 340.132 1297.79 341.372C1293.1 346.354 1288.7 351.592 1284.61 357.06C1289.11 351.916 1293.73 346.899 1298.52 342.054C1299.74 340.858 1300.95 339.658 1302.15 338.453L1305.85 334.92L1309.6 331.449L1313.43 328.055L1317.3 324.722L1321.25 321.467L1325.25 318.278C1326.61 317.247 1327.96 316.208 1329.31 315.161C1334.77 311.053 1340.37 307.143 1346.08 303.369Z" fill="white"/>
<path opacity="0.85" d="M1334.56 274.148C1336.99 281.832 1340.28 289.216 1344.36 296.167C1344.47 296.348 1344.58 296.535 1344.69 296.717C1345.54 298.157 1346.44 299.6 1347.38 301.047C1347.61 301.411 1347.85 301.776 1348.1 302.141C1348.94 303.41 1349.82 304.676 1350.73 305.938C1351.24 306.648 1351.77 307.359 1352.31 308.07C1352.6 308.456 1352.88 308.839 1353.19 309.223C1353.19 309.223 1353.9 308.148 1355.04 306.186C1355.12 306.068 1355.19 305.937 1355.26 305.807C1356.24 304.122 1357.49 301.857 1358.85 299.116C1359.05 298.707 1359.26 298.287 1359.47 297.857C1363.13 290.378 1366.02 282.569 1368.1 274.547C1371.72 260.357 1372.85 243.629 1366.11 228.011L1356.46 229.251L1363.3 222.386C1358.43 213.851 1350.9 205.796 1339.78 198.859C1339.78 198.859 1335.06 207.57 1332.13 221.581L1339.9 219.915L1331.35 225.712C1330.07 233.256 1329.61 240.902 1329.98 248.517L1334.93 247.454L1330.11 250.726C1330.67 258.69 1332.16 266.55 1334.56 274.148Z" fill="url(#paint2_linear)"/>
<path opacity="0.85" d="M1345.1 305.503C1345.1 305.503 1346.48 305.716 1348.91 305.934C1349.44 305.982 1350.01 306.031 1350.64 306.079C1351.38 306.136 1352.19 306.191 1353.06 306.237C1353.65 306.27 1354.26 306.3 1354.9 306.325C1355.13 306.336 1355.37 306.347 1355.61 306.353C1365.4 306.698 1380.61 306.101 1395.09 300.95L1395.12 295.076L1397.24 300.153C1406.95 296.365 1416.2 290.42 1423.09 281.206L1421.12 272.337L1427.49 274.244C1431.38 266.62 1433.74 258.341 1434.43 249.873C1434.43 249.873 1416.85 248.753 1396.05 257.208L1397.71 262.672L1393.9 258.108C1384.33 262.249 1375.51 267.947 1367.81 274.964C1362.45 279.86 1357.66 285.329 1353.53 291.265C1352.53 292.691 1351.55 294.165 1350.59 295.687C1349.74 297.051 1348.9 298.456 1348.08 299.905C1347.82 300.346 1347.57 300.792 1347.33 301.241C1347.11 301.647 1346.89 302.056 1346.67 302.468C1346.63 302.527 1346.6 302.59 1346.57 302.652C1346.07 303.585 1345.58 304.536 1345.1 305.503Z" fill="url(#paint3_linear)"/>
<path opacity="0.2" d="M1429.63 254.462C1422.76 257.824 1415.96 261.296 1409.17 264.807C1402.38 268.319 1395.62 271.864 1388.87 275.485C1385.52 277.322 1382.17 279.191 1378.9 281.188C1375.63 283.185 1372.42 285.293 1369.34 287.586C1363.25 292.215 1357.43 297.179 1351.9 302.453C1357.84 297.658 1363.71 292.759 1369.93 288.392C1371.49 287.301 1373.07 286.246 1374.67 285.214C1376.27 284.181 1377.89 283.192 1379.53 282.226C1382.8 280.275 1386.13 278.424 1389.49 276.61C1392.84 274.782 1396.21 272.991 1399.57 271.174C1402.93 269.357 1406.3 267.538 1409.64 265.689C1416.33 262.005 1423.01 258.289 1429.63 254.462Z" fill="white"/>
<path opacity="0.85" d="M1263.35 280.75L1267.57 277.298L1266.16 283.634C1268.03 285.469 1270.16 287.413 1272.54 289.382L1275.52 285.935L1273.7 290.327C1283.86 298.522 1295.68 304.501 1308.39 307.88C1318.62 310.527 1329.25 311.468 1339.84 310.662C1339.91 310.66 1339.97 310.654 1340.04 310.647C1340.47 310.617 1340.91 310.583 1341.35 310.545C1342.11 310.481 1342.86 310.408 1343.62 310.328C1345.36 310.144 1347.13 309.914 1348.92 309.637C1350.04 309.467 1351.16 309.276 1352.3 309.064C1352.72 308.988 1353.15 308.907 1353.59 308.823C1353.59 308.823 1353.41 308.501 1353.08 307.907C1352.71 307.228 1352.12 306.199 1351.32 304.896C1351.31 304.883 1351.31 304.868 1351.3 304.853C1350.51 303.579 1349.55 302.042 1348.38 300.324C1343.69 293.33 1338.24 286.862 1332.15 281.031C1323.57 272.937 1312.61 265.525 1299.63 262.771L1296.24 270.46L1296.99 262.282C1284.92 260.356 1271.19 262.521 1256.08 271.781C1258.25 274.965 1260.68 277.964 1263.35 280.75Z" fill="url(#paint4_linear)"/>
<path opacity="0.2" d="M1342.56 204.368C1343.68 212.471 1344.94 220.545 1346.25 228.62C1346.88 232.657 1347.57 236.686 1348.24 240.72L1350.3 252.802C1351.01 256.828 1351.72 260.849 1352.38 264.877C1353.05 268.901 1353.62 272.938 1354.08 276.988C1355.08 285.092 1355.09 293.299 1354.11 301.437C1354.92 297.394 1355.38 293.298 1355.5 289.191C1355.61 285.081 1355.48 280.971 1355.12 276.881C1354.79 272.79 1354.23 268.725 1353.63 264.675C1353.01 260.626 1352.3 256.599 1351.62 252.57L1349.48 240.497C1348.74 236.482 1348.03 232.452 1347.27 228.436C1345.77 220.401 1344.23 212.372 1342.56 204.368Z" fill="white"/>
<path opacity="0.2" d="M1345.23 303.34C1339.64 299.151 1333.78 295.34 1327.67 291.934C1326.13 291.098 1324.59 290.266 1323.05 289.438L1318.35 287.083L1313.58 284.873L1308.75 282.797L1303.84 280.882L1298.88 279.104L1293.87 277.485C1292.18 276.987 1290.49 276.498 1288.8 276.017C1282.03 274.149 1275.13 272.735 1268.15 271.784C1275.02 273.246 1281.81 274.954 1288.51 276.982C1290.17 277.521 1291.83 278.049 1293.5 278.567L1298.46 280.262L1303.37 282.064L1308.23 283.993L1313.05 286.025L1317.81 288.181L1322.52 290.441C1324.06 291.24 1325.61 292.031 1327.17 292.814C1333.34 296.051 1339.35 299.583 1345.23 303.34Z" fill="white"/>
</g>
<g opacity="0.85">
<path opacity="0.85" d="M147.207 320.424C147.207 320.424 132.091 325.239 111.722 323.051L114.057 317.617L108.654 322.673C96.8847 321.06 85.573 317.209 75.3399 311.331L77.9229 306.277L73.7457 310.394C68.3796 307.154 63.353 303.399 58.737 299.184C58.2832 298.775 57.8331 298.358 57.3866 297.934C56.8731 297.453 56.3632 296.962 55.8571 296.462C55.4861 296.095 55.1068 295.721 54.7361 295.344C53.6502 294.246 52.5739 293.108 51.5072 291.93C50.3505 290.655 49.2054 289.329 48.0719 287.954C48.0617 287.943 48.0551 287.934 48.0449 287.923L48.087 287.907C48.4129 287.771 50.6294 286.872 54.2105 285.715C55.9296 285.159 57.9623 284.548 60.253 283.93C60.3391 283.909 60.4276 283.884 60.5131 283.86L61.7811 283.529C71.1155 281.075 80.7142 279.823 90.3387 279.802C97.6467 279.793 104.897 280.897 111.835 283.074L107.794 289.461L113.71 283.724C120.924 286.303 127.445 290.447 132.799 295.855L127.994 303.453L134.249 297.384C140.152 304.067 144.565 311.914 147.207 320.424Z" fill="url(#paint5_linear)"/>
<path opacity="0.2" d="M62.5961 290.802C69.3714 291.545 76.0932 292.669 82.7288 294.168C84.3854 294.556 86.0406 294.948 87.6945 295.347L92.6279 296.649L97.5234 298.081L102.387 299.625L107.2 301.303L111.97 303.09L116.687 305.004C118.246 305.672 119.802 306.349 121.353 307.034C127.539 309.807 133.556 312.928 139.374 316.384C133.304 313.388 127.169 310.557 120.934 307.955C119.366 307.325 117.801 306.689 116.24 306.047L111.511 304.226L106.752 302.486L101.955 300.844L97.1324 299.28L92.2752 297.816L87.3917 296.433C85.7529 296.012 84.1158 295.581 82.4805 295.141C75.9127 293.477 69.2789 292.056 62.5961 290.802Z" fill="white"/>
<path opacity="0.85" d="M64.2806 279.126C64.2207 279.371 61.8226 289.804 59.0587 306.208C58.9684 306.743 58.8778 307.283 58.7867 307.829C57.8516 313.479 56.8816 319.782 55.9513 326.588C55.8825 327.108 55.8116 327.628 55.7428 328.148C54.7508 335.571 53.8128 343.561 53.0233 351.916C52.9768 352.429 52.9307 352.945 52.8849 353.463C52.298 359.899 51.7997 366.545 51.4387 373.305C51.4098 373.837 51.3823 374.37 51.356 374.904C51.0087 381.83 50.8014 388.868 50.7886 395.927C50.7866 396.459 50.7871 396.99 50.7904 397.52C50.8019 403.616 50.9559 409.718 51.2881 415.765C51.314 416.288 51.3447 416.811 51.3767 417.334C51.7497 423.628 52.3155 429.862 53.1092 435.956C53.1737 436.47 53.243 436.983 53.3135 437.496C54.2547 444.56 55.5856 451.562 57.3002 458.473C57.4266 458.975 57.5558 459.477 57.6879 459.976C59.7965 468.312 62.7844 476.396 66.6033 484.099L36.9558 487.154C36.9558 487.154 35.3913 478.842 33.8634 465.258C33.808 464.748 33.7505 464.233 33.6913 463.707C32.951 456.897 32.2325 448.866 31.7192 439.961C31.6896 439.445 31.6616 438.927 31.6302 438.407C31.331 432.814 31.1123 426.894 31.0213 420.728C31.0152 420.208 31.0085 419.688 31.0013 419.166C30.9344 413.183 30.9926 406.979 31.2149 400.629C31.2258 400.109 31.2498 399.587 31.2717 399.065C31.5294 392.374 31.967 385.532 32.6409 378.62C32.692 378.082 32.7451 377.544 32.8013 377.005C33.6768 368.396 34.9141 359.696 36.6015 351.07C36.6978 350.558 36.7988 350.047 36.9047 349.538C38.366 342.28 40.1513 335.084 42.3138 328.047C42.4695 327.534 42.6263 327.021 42.7936 326.51C44.8145 320.056 47.2097 313.717 49.9674 307.525C50.2028 306.997 50.4422 306.471 50.6856 305.945C52.333 302.374 54.1104 298.887 56.0177 295.484L64.2806 279.126Z" fill="url(#paint6_linear)"/>
<path opacity="0.85" d="M63.774 291.809C63.774 291.809 62.5723 292.549 60.4129 293.702C59.9423 293.954 59.4273 294.225 58.8681 294.514C58.2019 294.857 57.4737 295.225 56.688 295.608C56.1581 295.869 55.6048 296.136 55.024 296.409C54.8096 296.511 54.5953 296.614 54.3726 296.716C45.4602 300.864 31.1841 306.266 15.8849 307.169L13.6771 301.742L13.6076 307.27C3.22541 307.565 -7.52825 305.685 -17.3293 299.863L-18.8147 290.889L-23.9885 295.146C-30.4197 289.618 -35.678 282.884 -39.4674 275.324C-39.4674 275.324 -23.6486 267.409 -1.27964 267.088L-0.780398 272.793L1.04049 267.08C11.4276 267.161 21.7014 268.978 31.4281 272.453C38.1995 274.887 44.6617 278.07 50.6924 281.943C52.144 282.872 53.596 283.853 55.0485 284.886C56.3487 285.811 57.6476 286.783 58.9452 287.802C59.3438 288.111 59.7393 288.426 60.1318 288.746C60.4899 289.034 60.8473 289.325 61.204 289.62C61.2564 289.663 61.3093 289.708 61.362 289.752C62.1659 290.416 62.97 291.102 63.774 291.809Z" fill="url(#paint7_linear)"/>
<g opacity="0.3">
<path opacity="0.3" d="M58.1643 460.027C57.8468 460.095 57.5347 460.166 57.2253 460.234L34.6861 465.214C34.633 464.721 34.5798 464.221 34.524 463.713L56.9104 458.766L57.7917 458.572C57.9124 459.059 58.0367 459.544 58.1643 460.027Z" fill="white"/>
<path opacity="0.3" d="M53.6728 437.459C46.6346 438.747 39.5251 439.571 32.3934 439.927C32.3667 439.427 32.3414 438.923 32.3139 438.418C39.4079 438.069 46.4798 437.25 53.4797 435.964C53.5439 436.463 53.6068 436.961 53.6728 437.459Z" fill="white"/>
<path opacity="0.3" d="M51.5343 415.778C51.5574 416.286 51.5852 416.791 51.6142 417.297C44.9873 418.752 38.2935 419.869 31.5607 420.643C31.5571 420.14 31.553 419.636 31.5484 419.132C38.2592 418.356 44.9306 417.236 51.5343 415.778Z" fill="white"/>
<path opacity="0.3" d="M50.8935 395.918C50.8891 396.434 50.8872 396.948 50.8879 397.462C48.8443 397.943 46.7889 398.375 44.7217 398.757C40.3772 399.565 35.9979 400.158 31.6008 400.535C31.614 400.031 31.6401 399.526 31.6641 399.019C38.1349 398.457 44.5631 397.42 50.8935 395.918Z" fill="white"/>
<path opacity="0.3" d="M32.9995 376.931L51.3634 373.298C51.3325 373.812 51.3028 374.328 51.2743 374.845L32.8341 378.495C32.8878 377.974 32.9407 377.453 32.9995 376.931Z" fill="white"/>
<path opacity="0.3" d="M52.7632 351.806C52.7151 352.312 52.6674 352.819 52.6203 353.33C47.2171 352.843 41.8499 352.079 36.5408 351.04C36.638 350.535 36.7399 350.032 36.8466 349.531C42.1019 350.562 47.4147 351.321 52.7632 351.806Z" fill="white"/>
<path opacity="0.3" d="M42.47 326.491C46.7916 326.622 51.121 326.631 55.4581 326.517C55.388 327.027 55.3161 327.537 55.246 328.047C50.8252 328.16 46.4066 328.145 41.9905 328.001C42.147 327.496 42.3033 326.99 42.47 326.491Z" fill="white"/>
<path opacity="0.3" d="M58.3664 306.161C58.2751 306.687 58.1834 307.218 58.0913 307.755C57.9588 307.756 57.8291 307.755 57.6973 307.754C54.9217 307.738 52.1486 307.65 49.3779 307.49C49.6124 306.971 49.8508 306.452 50.0933 305.935C52.8465 306.08 55.6043 306.155 58.3664 306.161Z" fill="white"/>
</g>
<path opacity="0.2" d="M-33.3665 277.656C-25.7667 278.082 -18.1814 278.633 -10.6004 279.229C-3.01942 279.824 4.55233 280.46 12.1311 281.175C15.9167 281.563 19.7041 281.985 23.4727 282.553C27.2413 283.121 30.9937 283.817 34.6899 284.736C42.044 286.638 49.2764 288.955 56.3518 291.674C49.0718 289.561 41.8263 287.321 34.4462 285.714C32.6005 285.314 30.746 284.956 28.886 284.625C27.026 284.294 25.1538 284.015 23.28 283.761C19.532 283.234 15.7628 282.824 11.9862 282.457C8.21067 282.074 4.42111 281.739 0.641039 281.37C-3.13903 281.002 -6.9272 280.634 -10.7044 280.23C-18.2676 279.441 -25.8239 278.61 -33.3665 277.656Z" fill="white"/>
<path opacity="0.85" d="M61.5476 259.06C62.1654 267.115 61.8846 275.224 60.7101 283.243C60.6801 283.452 60.6493 283.667 60.6166 283.878C60.3686 285.541 60.0791 287.225 59.7481 288.931C59.6666 289.36 59.5808 289.79 59.4906 290.223C59.1861 291.718 58.8482 293.228 58.477 294.754C58.2681 295.611 58.0485 296.472 57.8181 297.339C57.6953 297.809 57.5719 298.276 57.4371 298.748C57.4371 298.748 56.3755 298.033 54.588 296.665C54.4778 296.584 54.3624 296.491 54.2443 296.4C52.7152 295.223 50.7202 293.615 48.4379 291.613C48.0963 291.314 47.7478 291.007 47.3924 290.692C41.2294 285.202 35.647 279.111 30.7286 272.509C22.0992 260.798 14.8102 245.776 15.2061 228.705L24.5784 226.087L15.6975 222.409C17.0101 212.618 20.9549 202.234 28.6337 191.482C28.6337 191.482 36.238 197.697 44.171 209.508L36.3756 210.999L46.433 213.023C50.4287 219.5 53.706 226.39 56.2092 233.574L51.2358 234.525L56.9114 235.668C59.3669 243.25 60.9226 251.1 61.5476 259.06Z" fill="url(#paint8_linear)"/>
<path opacity="0.85" d="M130.156 237.606L124.976 236.067L128.632 241.377C127.59 243.805 126.35 246.437 124.876 249.194L120.843 247.173L124.159 250.521C117.818 262.086 109.128 272.247 98.6429 280.355C90.1807 286.813 80.7131 291.849 70.627 295.257C70.5658 295.281 70.504 295.301 70.4419 295.32C70.0271 295.463 69.6118 295.603 69.1888 295.74C68.4715 295.975 67.7499 296.203 67.0184 296.426C65.3407 296.941 63.6268 297.419 61.8656 297.866C60.7722 298.143 59.6616 298.408 58.5337 298.66C58.1117 298.757 57.684 298.85 57.2559 298.941C57.2559 298.941 57.2936 298.576 57.3778 297.897C57.4726 297.122 57.6345 295.939 57.887 294.421C57.8905 294.406 57.8907 294.39 57.8946 294.372C58.1428 292.886 58.4658 291.085 58.9001 289.041C60.6379 280.731 63.2623 272.616 66.7288 264.832C71.6416 253.983 79.0049 242.833 89.9704 235.197L95.9642 240.979L92.2288 233.71C102.659 227.197 116.146 223.819 133.55 226.459C132.724 230.255 131.59 233.983 130.156 237.606Z" fill="url(#paint9_linear)"/>
<path opacity="0.2" d="M62.9194 290.577C66.518 284.513 70.5191 278.69 74.8958 273.144C76.0039 271.769 77.1166 270.395 78.2339 269.025L81.6961 265.006L85.2834 261.094L88.9796 257.278L92.7975 253.584L96.7156 249.996L100.746 246.533C102.117 245.412 103.494 244.297 104.877 243.19C110.439 238.807 116.286 234.795 122.38 231.18C116.579 235.226 110.938 239.467 105.511 243.966C104.172 245.111 102.829 246.25 101.482 247.384L97.5369 250.893L93.6696 254.486L89.8969 258.176L86.2034 261.943L82.6079 265.802L79.0984 269.739C77.9671 271.084 76.8283 272.424 75.6821 273.758C71.1875 279.175 66.9518 284.797 62.9194 290.577Z" fill="white"/>
<path opacity="0.2" d="M27.9052 197.708C29.9239 205.633 31.8146 213.587 33.6601 221.55C34.5944 225.529 35.4824 229.518 36.3926 233.503L39.0525 245.472C39.9183 249.466 40.7756 253.459 41.6916 257.435C42.5904 261.415 43.5921 265.366 44.6969 269.287C46.833 277.165 49.923 284.757 53.9025 291.905C51.6288 288.476 49.6538 284.866 47.998 281.111C46.3423 277.353 44.9066 273.504 43.6975 269.583C42.4591 265.672 41.4339 261.701 40.4603 257.724C39.5035 253.743 38.6353 249.747 37.7484 245.758L35.1611 233.773C34.3225 229.773 33.4608 225.778 32.6463 221.772C30.9924 213.767 29.3838 205.752 27.9052 197.708Z" fill="white"/>
</g>
<path d="M1054.78 128.268C1054.78 128.268 1067.58 113.873 1080.38 129.068C1080.38 129.068 1093.18 117.074 1103.57 129.068C1103.57 129.068 1088.77 125.868 1079.98 139.468C1079.98 139.463 1067.58 121.873 1054.78 128.268Z" fill="white"/>
<path d="M954.46 68.4954C954.46 68.4954 965.236 56.3754 976.011 69.1684C976.011 69.1684 986.787 59.0684 995.542 69.1684C995.542 69.1684 983.083 66.4744 975.677 77.9234C975.677 77.9244 965.236 63.1104 954.46 68.4954Z" fill="white"/>
<path d="M1120.7 36.1672C1120.7 36.1672 1133.5 21.7722 1146.29 36.9672C1146.29 36.9672 1159.09 24.9672 1169.48 36.9672C1169.48 36.9672 1154.69 33.7672 1145.89 47.3672C1145.89 47.3642 1133.5 29.7712 1120.7 36.1672Z" fill="white"/>
<g clip-path="url(#clip0)">
<path d="M763.262 379.874C792.88 382.407 835.788 380.634 858.318 354.163C878.253 330.796 877.873 293.876 857.242 244.418C855.407 240.111 850.47 238.022 846.167 239.858C841.863 241.695 839.775 246.634 841.61 250.94C859.583 294.003 860.849 324.97 845.407 343.145C816.296 377.341 736.302 358.723 735.543 358.533C730.986 357.456 726.43 360.243 725.354 364.802C724.278 369.362 727.063 373.922 731.619 374.998C732.948 375.378 745.795 378.354 763.262 379.874Z" fill="#FCB064"/>
<path d="M710.482 364.549C710.355 365.246 710.229 365.879 709.912 366.576C708.077 370.882 703.141 372.972 698.837 371.135C691.939 368.222 685.294 365.816 679.029 363.789C666.498 359.736 655.17 357.393 645.107 356.823C637.766 356.38 631.185 356.823 625.236 358.216C623.843 358.533 622.451 358.913 621.122 359.356C615.616 361.129 610.806 363.789 606.693 367.336C601.187 372.022 597.01 378.038 593.972 384.814C593.719 385.32 593.529 385.827 593.276 386.397C588.72 397.289 586.758 410.018 586.188 422.493H569.291C570.177 400.582 575.176 377.025 589.416 360.56C591.314 358.343 593.403 356.317 595.681 354.353C596.441 353.72 597.2 353.087 597.959 352.517C604.794 347.261 612.642 343.651 621.565 341.625C628.084 340.105 635.172 339.472 642.829 339.725C660.676 340.232 681.56 345.488 705.356 355.43C709.026 357.013 711.051 360.813 710.482 364.549Z" fill="#FCB064"/>
<path d="M828.573 350.807C828.573 351.377 828.573 352.01 828.51 352.58C828.51 353.087 828.51 353.53 828.447 354.037C828.447 354.544 828.383 355.113 828.383 355.62C828.32 356.887 828.257 358.153 828.194 359.356C828.194 359.863 828.13 360.306 828.067 360.813C828.067 361.193 828.004 361.573 828.004 361.953C827.94 362.649 827.877 363.346 827.814 364.043C827.497 367.526 827.054 371.009 826.485 374.492C826.105 376.645 825.725 378.734 825.282 380.888C825.156 381.521 825.029 382.217 824.839 382.851C824.776 383.294 824.65 383.674 824.586 384.054C824.523 384.307 824.46 384.561 824.396 384.814C824.207 385.574 824.017 386.397 823.827 387.157C823.637 387.98 823.447 388.74 823.257 389.5C823.194 389.88 823.067 390.197 823.004 390.513C822.814 391.147 822.688 391.78 822.498 392.413C822.308 393.11 822.118 393.806 821.928 394.503C821.738 395.2 821.549 395.896 821.295 396.593C821.169 397.036 821.042 397.416 820.916 397.859C820.726 398.556 820.473 399.316 820.283 400.012C819.777 401.722 819.207 403.369 818.637 405.015C817.941 407.105 817.245 409.131 816.486 411.158C816.232 411.791 816.043 412.424 815.79 413.058C815.536 413.754 815.283 414.451 815.03 415.148C814.84 415.591 814.65 416.034 814.524 416.541C814.334 416.984 814.207 417.427 814.018 417.807C813.891 418.061 813.828 418.314 813.701 418.567C813.574 418.947 813.385 419.264 813.258 419.644C812.878 420.594 812.435 421.544 811.992 422.43H606.313C606.123 422.05 605.933 421.67 605.744 421.29C605.427 420.657 605.111 420.024 604.794 419.327C604.731 419.264 604.731 419.137 604.668 419.074C604.351 418.441 604.098 417.807 603.782 417.237C603.718 417.174 603.718 417.047 603.655 416.984C603.402 416.414 603.149 415.907 602.896 415.338C602.706 414.958 602.516 414.514 602.326 414.071C602.073 413.564 601.883 413.058 601.63 412.488C601.503 412.234 601.44 411.981 601.314 411.728C601.124 411.285 600.997 410.905 600.807 410.461C600.364 409.385 599.985 408.372 599.542 407.295C599.225 406.535 598.972 405.775 598.719 405.015C597.833 402.609 597.073 400.202 596.314 397.796C596.061 396.973 595.808 396.149 595.555 395.326C595.428 394.883 595.301 394.44 595.175 393.996C594.922 393.11 594.669 392.223 594.415 391.273C594.352 391.02 594.289 390.767 594.226 390.513C594.099 390.07 594.036 389.69 593.909 389.247C593.783 388.74 593.656 388.17 593.529 387.664C593.466 387.474 593.466 387.284 593.403 387.094C593.34 386.904 593.34 386.714 593.276 386.524V386.46C593.276 386.397 593.276 386.334 593.213 386.334C593.086 385.827 592.96 385.257 592.833 384.751C592.833 384.687 592.833 384.687 592.833 384.624C592.643 383.801 592.454 382.977 592.327 382.154C592.327 382.091 592.327 382.091 592.327 382.027C592.137 381.204 592.011 380.381 591.821 379.558C591.631 378.734 591.504 377.911 591.378 377.088C591.378 376.961 591.314 376.835 591.314 376.708C591.188 375.948 591.061 375.188 590.935 374.428C590.935 374.365 590.935 374.302 590.935 374.238C590.808 373.415 590.682 372.592 590.555 371.768C590.555 371.705 590.555 371.642 590.555 371.579C590.492 371.009 590.365 370.375 590.302 369.805C590.239 369.489 590.239 369.109 590.175 368.792C590.112 368.412 590.049 367.969 590.049 367.589C589.985 367.146 589.922 366.639 589.922 366.196C589.859 365.436 589.796 364.676 589.732 363.916C589.606 362.776 589.542 361.636 589.479 360.496C589.416 360.053 589.416 359.61 589.416 359.166C589.289 357.33 589.226 355.43 589.163 353.467C589.099 352.264 589.099 351.061 589.099 349.857C589.036 346.248 589.036 342.511 589.226 338.775C589.732 323.957 591.694 308.378 595.238 292.863C599.288 275.131 605.364 257.59 613.654 241.695C616.945 235.362 620.552 229.346 624.539 223.647C630.995 214.401 638.399 206.105 646.69 199.139C647.449 198.506 648.272 197.872 649.031 197.239C655.613 192.046 662.701 187.677 670.422 184.32C674.092 182.674 677.89 181.344 681.877 180.204C690.61 177.671 699.786 176.658 708.9 177.101C718.013 176.658 727.189 177.671 735.923 180.204C749.149 184.004 760.857 190.59 771.11 199.139C779.463 206.105 786.805 214.401 793.26 223.647C796.487 228.269 799.525 233.209 802.31 238.275C812.752 257.273 819.966 278.931 824.207 300.526C826.738 313.508 828.194 326.426 828.637 338.838C828.637 342.955 828.7 346.944 828.573 350.807Z" fill="#FCB064"/>
<path d="M632.703 368.539C639.973 368.539 645.867 360.685 645.867 350.997C645.867 341.309 639.973 333.456 632.703 333.456C625.433 333.456 619.54 341.309 619.54 350.997C619.54 360.685 625.433 368.539 632.703 368.539Z" fill="#EF994C"/>
<path d="M737.758 214.971C740.939 214.971 743.517 212.816 743.517 210.158C743.517 207.5 740.939 205.345 737.758 205.345C734.577 205.345 731.999 207.5 731.999 210.158C731.999 212.816 734.577 214.971 737.758 214.971Z" fill="#EF994C"/>
<path d="M672.763 415.717C677.307 415.717 680.991 411.861 680.991 407.105C680.991 402.348 677.307 398.492 672.763 398.492C668.22 398.492 664.536 402.348 664.536 407.105C664.536 411.861 668.22 415.717 672.763 415.717Z" fill="#EF994C"/>
<path d="M769.401 405.902C773.7 405.902 777.185 402.216 777.185 397.669C777.185 393.123 773.7 389.437 769.401 389.437C765.102 389.437 761.617 393.123 761.617 397.669C761.617 402.216 765.102 405.902 769.401 405.902Z" fill="#EF994C"/>
<path d="M816.739 368.792C819.465 368.792 821.675 366.042 821.675 362.649C821.675 359.257 819.465 356.507 816.739 356.507C814.013 356.507 811.802 359.257 811.802 362.649C811.802 366.042 814.013 368.792 816.739 368.792Z" fill="#EF994C"/>
<path d="M828.573 350.807C828.573 351.377 828.573 352.01 828.51 352.58C828.51 353.087 828.51 353.53 828.447 354.037C828.447 354.543 828.383 355.113 828.383 355.62C828.32 356.886 828.257 358.153 828.194 359.356C828.194 359.863 828.13 360.306 828.067 360.813C828.067 361.193 828.004 361.573 828.004 361.953C827.94 362.649 827.877 363.346 827.814 364.042C827.497 367.525 827.054 371.008 826.485 374.491C826.105 376.644 825.725 378.734 825.282 380.887C825.156 381.521 825.029 382.217 824.839 382.851C824.776 383.294 824.65 383.674 824.586 384.054C824.523 384.307 824.46 384.56 824.396 384.814C824.207 385.574 824.017 386.397 823.827 387.157C823.637 387.98 823.447 388.74 823.257 389.5C823.194 389.88 823.067 390.196 823.004 390.513C822.814 391.146 822.688 391.78 822.498 392.413C822.308 393.11 822.118 393.806 821.928 394.503C821.738 395.199 821.549 395.896 821.295 396.592C821.169 397.036 821.042 397.416 820.916 397.859C820.726 398.556 820.473 399.316 820.283 400.012C819.777 401.659 819.207 403.368 818.637 405.015C817.941 407.105 817.245 409.131 816.486 411.158C816.232 411.791 816.043 412.424 815.79 413.058C815.536 413.754 815.283 414.451 815.03 415.147C814.84 415.591 814.65 416.034 814.524 416.54C814.334 416.984 814.207 417.427 814.017 417.807C813.891 418.06 813.828 418.314 813.701 418.567C813.574 418.947 813.385 419.264 813.258 419.644C812.878 420.593 812.435 421.543 811.992 422.43H606.313C606.376 422.557 606.44 422.683 606.503 422.81C606.44 422.683 606.376 422.557 606.313 422.43C606.123 422.05 605.933 421.67 605.744 421.29C605.427 420.657 605.111 420.023 604.794 419.327C604.731 419.264 604.731 419.137 604.668 419.074C604.351 418.44 604.098 417.807 603.782 417.237C603.718 417.174 603.718 417.047 603.655 416.984C603.402 416.414 603.149 415.907 602.896 415.337C602.706 414.957 602.516 414.514 602.326 414.071C602.073 413.564 601.883 413.058 601.63 412.488C601.503 412.234 601.44 411.981 601.314 411.728C601.124 411.284 600.997 410.904 600.807 410.461C600.364 409.385 599.985 408.371 599.542 407.295C599.225 406.535 598.972 405.775 598.719 405.015C597.833 402.609 597.073 400.202 596.314 397.796C596.061 396.972 595.808 396.149 595.555 395.326C595.428 394.883 595.301 394.439 595.175 393.996C594.922 393.11 594.669 392.223 594.415 391.273C594.352 391.02 594.289 390.766 594.226 390.513C594.099 390.07 594.036 389.69 593.909 389.247C593.783 388.74 593.656 388.17 593.529 387.663C593.466 387.473 593.466 387.283 593.403 387.093C593.34 386.903 593.34 386.713 593.276 386.524V386.46C593.276 386.397 593.276 386.334 593.213 386.334C593.086 385.827 592.96 385.257 592.833 384.75C592.833 384.687 592.833 384.687 592.833 384.624C592.643 383.8 592.454 382.977 592.327 382.154C592.327 382.091 592.327 382.091 592.327 382.027C592.137 381.204 592.011 380.381 591.821 379.558C591.631 378.734 591.504 377.911 591.378 377.088C591.378 376.961 591.314 376.834 591.314 376.708C591.188 375.948 591.061 375.188 590.935 374.428C590.935 374.365 590.935 374.301 590.935 374.238C590.808 373.415 590.682 372.592 590.555 371.768C590.555 371.705 590.555 371.642 590.555 371.578C590.492 371.008 590.365 370.375 590.302 369.805C590.239 369.489 590.239 369.109 590.175 368.792C590.112 368.412 590.049 367.969 590.049 367.589C589.985 367.145 589.922 366.639 589.922 366.196C589.859 365.436 589.796 364.676 589.732 363.916C589.606 362.776 589.542 361.636 589.479 360.496C589.416 360.053 589.416 359.61 589.416 359.166C589.289 357.33 589.226 355.43 589.163 353.467C589.099 352.264 589.099 351.06 589.099 349.857C591.947 350.744 594.985 351.567 598.086 352.39C604.921 354.163 612.452 355.81 620.552 357.203C622.135 357.52 623.717 357.773 625.299 358.026C631.184 358.976 637.323 359.863 643.652 360.623C654.79 361.953 666.688 362.966 679.029 363.599C689.091 364.106 699.47 364.359 710.165 364.359H710.482C715.545 364.359 720.544 364.296 725.417 364.169C737.505 363.852 749.149 363.219 760.288 362.269C787.058 360.179 810.537 356.127 828.573 350.807Z" fill="#FACA78"/>
<path d="M824.46 384.814C822.878 391.59 820.852 398.429 818.637 405.078H598.782C596.377 398.429 594.415 391.653 592.897 384.814H824.46Z" fill="#FFDEA6"/>
<path d="M774.654 255.247C774.654 255.247 774.717 255.247 774.654 255.247C775.476 255.247 776.046 255.88 776.046 256.64C775.919 263.162 772.375 275.638 759.971 275.701C759.908 275.701 759.845 275.701 759.781 275.701C747.504 275.701 743.96 263.226 743.833 256.64C743.833 255.88 744.403 255.247 745.162 255.247C745.859 255.247 746.555 255.817 746.555 256.576C746.555 257.273 747.061 272.915 759.718 272.915C759.781 272.915 759.781 272.915 759.845 272.915C772.692 272.788 773.198 257.21 773.198 256.576C773.325 255.88 773.894 255.247 774.654 255.247Z" fill="#3A110C"/>
<path d="M647.639 255.247C648.398 255.247 649.031 255.817 649.031 256.576C649.031 257.273 649.601 272.915 662.195 272.915C662.258 272.915 662.258 272.915 662.321 272.915C675.105 272.788 675.674 257.21 675.674 256.576C675.674 255.817 676.307 255.247 677.067 255.247C677.826 255.247 678.459 255.88 678.396 256.64C678.269 263.162 674.725 275.638 662.321 275.701C662.258 275.701 662.195 275.701 662.195 275.701C649.917 275.701 646.373 263.226 646.247 256.64C646.247 255.943 646.879 255.31 647.639 255.247Z" fill="#3A110C"/>
<g opacity="0.43">
<path opacity="0.43" d="M675.485 291.027C675.485 295.143 669.599 298.499 662.384 298.499C655.17 298.499 649.284 295.143 649.284 291.027C649.284 286.91 655.17 283.554 662.384 283.554C669.599 283.554 675.485 286.91 675.485 291.027Z" fill="url(#paint10_linear)"/>
</g>
<g opacity="0.43">
<path opacity="0.43" d="M773.072 291.027C773.072 295.143 767.186 298.499 759.971 298.499C752.757 298.499 746.871 295.143 746.871 291.027C746.871 286.91 752.757 283.554 759.971 283.554C767.186 283.554 773.072 286.91 773.072 291.027Z" fill="url(#paint11_linear)"/>
</g>
<path d="M712.95 299.449C700.293 299.449 690.04 296.093 689.408 295.903C688.838 295.713 688.585 295.143 688.775 294.573C688.965 294.003 689.534 293.75 690.104 293.94C690.357 294.003 713.393 301.539 732.885 293.94C733.391 293.75 734.024 294.003 734.214 294.509C734.404 295.016 734.151 295.649 733.644 295.839C726.746 298.562 719.532 299.449 712.95 299.449Z" fill="#3A110C"/>
<path d="M841.61 288.683C841.547 287.164 841.484 285.644 841.357 284.124C841.357 284.06 841.357 283.997 841.357 283.934C840.281 268.735 836.864 253.98 831.295 240.238C824.713 223.9 815.03 208.828 802.626 195.909C777.438 169.502 743.897 155 708.203 155C672.51 155 638.969 169.502 613.781 195.846C601.314 208.828 591.694 223.9 585.049 240.365C579.986 252.967 576.695 266.329 575.366 280.134C575.176 282.224 574.987 284.314 574.923 286.404C574.86 287.1 574.86 287.733 574.86 288.43C574.797 290.393 574.733 292.356 574.733 294.319C574.733 295.459 574.733 296.599 574.797 297.739C576.062 300.146 578.151 302.109 580.872 303.122C581.442 303.312 582.011 303.502 582.581 303.629C582.391 300.589 582.264 297.486 582.264 294.319C582.264 292.42 582.328 290.52 582.391 288.683C583.087 271.838 586.821 255.753 593.023 241.125C594.226 238.212 595.555 235.425 597.01 232.639C597.327 232.069 597.58 231.499 597.896 230.929C619.287 190.147 660.739 162.536 708.203 162.536C755.984 162.536 797.626 190.526 818.954 231.626C819.017 231.689 819.017 231.752 819.08 231.816C820.662 234.919 822.181 238.085 823.51 241.315C829.586 255.753 833.256 271.585 834.016 288.177C834.142 290.203 834.142 292.23 834.142 294.256C834.142 297.422 834.016 300.589 833.826 303.692C834.649 303.565 835.471 303.375 836.294 303.059C838.509 302.235 840.281 300.779 841.547 299.006C841.61 297.422 841.61 295.839 841.61 294.256C841.737 292.42 841.673 290.52 841.61 288.683Z" fill="#DB8B49"/>
<path d="M576.316 288.937L574.797 288.367C567.835 285.77 564.228 277.918 566.823 270.952L575.05 248.851C577.645 241.885 585.492 238.275 592.454 240.871L593.972 241.441C597.896 242.898 599.921 247.331 598.402 251.194L585.998 284.44C584.669 288.367 580.239 290.393 576.316 288.937Z" fill="#FEA130"/>
<path d="M613.528 241.568C613.528 242.898 613.275 244.228 612.832 245.558L593.783 296.663C591.757 302.045 586.125 305.022 580.746 303.882C580.176 303.755 579.606 303.628 579.037 303.375C576.252 302.362 574.164 300.335 572.898 297.929C571.443 295.143 571.126 291.786 572.329 288.62L572.455 288.367L573.151 286.594L590.302 240.618L591.441 237.578C592.264 235.425 593.593 233.715 595.301 232.449C598.339 230.169 602.389 229.473 606.187 230.866C610.68 232.449 613.528 236.882 613.528 241.568Z" fill="url(#paint12_linear)"/>
<path d="M840.851 288.937L842.37 288.367C849.331 285.77 852.938 277.918 850.344 270.952L842.116 248.851C839.522 241.885 831.674 238.275 824.713 240.871L823.194 241.441C819.27 242.898 817.245 247.331 818.764 251.194L831.168 284.44C832.56 288.367 836.927 290.393 840.851 288.937Z" fill="#FEA130"/>
<path d="M841.61 299.259C840.344 301.096 838.509 302.552 836.294 303.375C835.471 303.692 834.649 303.882 833.826 304.009C828.637 304.705 823.447 301.729 821.549 296.663L802.499 245.558C801.993 244.228 801.803 242.898 801.803 241.568C801.803 236.882 804.651 232.512 809.271 230.803C812.562 229.536 816.106 229.979 818.954 231.626C821.169 232.892 823.004 234.982 824.017 237.579L825.156 240.618L841.357 284.124L842.939 288.43L843.066 288.683C844.395 292.293 843.762 296.219 841.61 299.259Z" fill="url(#paint13_linear)"/>
<path d="M606.503 422.873C606.44 422.747 606.376 422.62 606.313 422.493C606.376 422.62 606.44 422.747 606.503 422.873Z" fill="white" stroke="black" stroke-miterlimit="10"/>
</g>
<path d="M261.46 126.495C261.46 126.495 272.236 114.375 283.011 127.168C283.011 127.168 293.787 117.068 302.542 127.168C302.542 127.168 290.083 124.474 282.677 135.923C282.677 135.924 272.236 121.11 261.46 126.495Z" fill="white"/>
<path d="M392.702 100.167C392.702 100.167 405.502 85.7722 418.294 100.967C418.294 100.967 431.094 88.9672 441.485 100.967C441.485 100.967 426.69 97.7672 417.892 111.367C417.892 111.364 405.498 93.7712 392.702 100.167Z" fill="white"/>
<path d="M211 15.5228C211 15.5228 219.262 -1.87715 235.8 9.13585C235.8 9.13585 244.733 -5.95615 258.066 2.65485C258.066 2.65485 242.966 3.71685 238.32 19.2289C238.312 19.2289 221.5 5.80084 211 15.5228Z" fill="white"/>
<defs>
<linearGradient id="paint0_linear" x1="1390.45" y1="512.488" x2="1476.71" y2="483.515" gradientUnits="userSpaceOnUse">
<stop stop-color="#5E95E0"/>
<stop offset="1" stop-color="#5F9CE4"/>
</linearGradient>
<linearGradient id="paint1_linear" x1="1341.93" y1="268.693" x2="1340.4" y2="363.255" gradientUnits="userSpaceOnUse">
<stop stop-color="#522EB5"/>
<stop offset="1" stop-color="#60A1E5"/>
</linearGradient>
<linearGradient id="paint2_linear" x1="1353.86" y1="334.456" x2="1409.63" y2="261.926" gradientUnits="userSpaceOnUse">
<stop stop-color="#522EB5"/>
<stop offset="1" stop-color="#60A1E5"/>
</linearGradient>
<linearGradient id="paint3_linear" x1="1309.99" y1="318.729" x2="1359.02" y2="235.94" gradientUnits="userSpaceOnUse">
<stop stop-color="#522EB5"/>
<stop offset="1" stop-color="#60A1E5"/>
</linearGradient>
<linearGradient id="paint4_linear" x1="1422.29" y1="351.442" x2="1311.79" y2="225.62" gradientUnits="userSpaceOnUse">
<stop stop-color="#522EB5"/>
<stop offset="1" stop-color="#60A1E5"/>
</linearGradient>
<linearGradient id="paint5_linear" x1="53.5222" y1="257.075" x2="91.7123" y2="343.242" gradientUnits="userSpaceOnUse">
<stop stop-color="#522EB5"/>
<stop offset="1" stop-color="#60A1E5"/>
</linearGradient>
<linearGradient id="paint6_linear" x1="57.0211" y1="257.509" x2="-29.9947" y2="283.613" gradientUnits="userSpaceOnUse">
<stop stop-color="#5E95E0"/>
<stop offset="1" stop-color="#5F9CE4"/>
</linearGradient>
<linearGradient id="paint7_linear" x1="101.131" y1="290.307" x2="24.8333" y2="233.162" gradientUnits="userSpaceOnUse">
<stop stop-color="#522EB5"/>
<stop offset="1" stop-color="#60A1E5"/>
</linearGradient>
<linearGradient id="paint8_linear" x1="66.2263" y1="322.341" x2="-12.2826" y2="276.974" gradientUnits="userSpaceOnUse">
<stop stop-color="#522EB5"/>
<stop offset="1" stop-color="#60A1E5"/>
</linearGradient>
<linearGradient id="paint9_linear" x1="9.63881" y1="365.293" x2="63.4749" y2="205.12" gradientUnits="userSpaceOnUse">
<stop stop-color="#522EB5"/>
<stop offset="1" stop-color="#60A1E5"/>
</linearGradient>
<linearGradient id="paint10_linear" x1="649.272" y1="291.019" x2="675.477" y2="291.019" gradientUnits="userSpaceOnUse">
<stop stop-color="#FAFCFC"/>
<stop offset="1" stop-color="#FAFCFC" stop-opacity="0.3"/>
</linearGradient>
<linearGradient id="paint11_linear" x1="746.857" y1="291.019" x2="773.061" y2="291.019" gradientUnits="userSpaceOnUse">
<stop stop-color="#FAFCFC"/>
<stop offset="1" stop-color="#FAFCFC" stop-opacity="0.3"/>
</linearGradient>
<linearGradient id="paint12_linear" x1="659.697" y1="293.313" x2="572.257" y2="259.179" gradientUnits="userSpaceOnUse">
<stop stop-color="#522EB5"/>
<stop offset="1" stop-color="#60A1E5"/>
</linearGradient>
<linearGradient id="paint13_linear" x1="757.31" y1="304.55" x2="845.12" y2="254.302" gradientUnits="userSpaceOnUse">
<stop stop-color="#522EB5"/>
<stop offset="1" stop-color="#60A1E5"/>
</linearGradient>
<clipPath id="clip0">
<rect x="566" y="155" width="307" height="268" fill="white"/>
</clipPath>
</defs>
</svg>
