<?xml version="1.0" encoding="utf-8"?>
<!-- Generator: Adobe Illustrator 24.0.1, SVG Export Plug-In . SVG Version: 6.00 Build 0)  -->
<svg version="1.1" id="Layer_1" xmlns="http://www.w3.org/2000/svg" xmlns:xlink="http://www.w3.org/1999/xlink" x="0px" y="0px"
	 viewBox="0 0 1440 422.4" enable-background="new 0 0 1440 422.4" xml:space="preserve">
<rect fill="#F5FAFF" width="1440" height="422.4"/>
<g>
	<defs>
		<rect id="SVGID_1_" y="0" width="1440" height="422.4"/>
	</defs>
	<clipPath id="SVGID_2_">
		<use xlink:href="#SVGID_1_"  overflow="visible"/>
	</clipPath>
	<path opacity="0.5" clip-path="url(#SVGID_2_)" fill="#FBFBFB" enable-background="new    " d="M1441,423.1H1
		c56.9-44.4,118.4-80.8,187.4-86.7c62.9-5.3,125.3,15.7,188.3,16.2c132.4,1,255.3-88.1,387.6-84.1c80.7,2.4,157.1,39.3,236.8,52.9
		c122.5,20.8,255.8-12.5,366.6,47.9C1394,383.6,1417.9,402.7,1441,423.1z"/>
	<g opacity="0.85" clip-path="url(#SVGID_2_)">
		
			<linearGradient id="SVGID_3_" gradientUnits="userSpaceOnUse" x1="1351.9836" y1="112.0362" x2="1438.2437" y2="141.0092" gradientTransform="matrix(1 0 0 -1 0 510)">
			<stop  offset="0" style="stop-color:#5E95E0"/>
			<stop  offset="1" style="stop-color:#5F9CE4"/>
		</linearGradient>
		<path opacity="0.85" fill="url(#SVGID_3_)" enable-background="new    " d="M1340.8,293.6c0.1,0.2,6.3,8.9,15,23
			c0.3,0.5,0.6,0.9,0.9,1.4c3,4.9,6.2,10.3,9.6,16.2c0.3,0.5,0.5,0.9,0.8,1.4c3.7,6.5,7.5,13.5,11.4,20.9c0.2,0.5,0.5,0.9,0.7,1.4
			c2.9,5.7,5.9,11.7,8.8,17.8c0.2,0.5,0.4,1,0.7,1.4c2.9,6.3,5.7,12.7,8.4,19.2c0.2,0.5,0.4,1,0.6,1.5c2.3,5.6,4.4,11.3,6.4,17.1
			c0.2,0.5,0.3,1,0.5,1.5c2,6,3.8,11.9,5.4,17.9c0.1,0.5,0.3,1,0.4,1.5c1.8,6.9,3.2,13.9,4.1,20.9c0.1,0.5,0.1,1,0.2,1.5
			c1.2,8.5,1.4,17.2,0.8,25.8l28.6-8.7c0,0-1.7-8.3-5.3-21.4c-0.1-0.5-0.3-1-0.4-1.5c-1.9-6.6-4.2-14.3-7.1-22.7
			c-0.2-0.5-0.3-1-0.5-1.5c-1.8-5.3-3.8-10.8-6-16.6c-0.2-0.5-0.4-1-0.6-1.5c-2.2-5.6-4.5-11.3-7.1-17c-0.2-0.5-0.4-0.9-0.6-1.4
			c-2.7-6.1-5.7-12.2-8.9-18.4c-0.3-0.5-0.5-1-0.8-1.4c-4-7.6-8.4-15.2-13.2-22.5c-0.3-0.4-0.6-0.9-0.8-1.3
			c-4.1-6.1-8.4-12.1-13-17.8c-0.3-0.4-0.7-0.8-1-1.2c-4.3-5.2-8.9-10.1-13.7-14.7c-0.4-0.4-0.8-0.8-1.3-1.2
			c-2.9-2.7-5.8-5.2-8.9-7.6L1340.8,293.6z"/>
		<g opacity="0.3">
			<path opacity="0.3" fill="#FFFFFF" enable-background="new    " d="M1414.8,458.4c0.3-0.1,0.6-0.1,0.9-0.2l22.7-4.2
				c-0.1-0.5-0.3-1-0.4-1.5l-22.5,4.1l-0.9,0.2C1414.7,457.4,1414.8,457.9,1414.8,458.4z"/>
			<path opacity="0.3" fill="#FFFFFF" enable-background="new    " d="M1410.3,435.8c7-1.6,13.9-3.6,20.6-6c-0.2-0.5-0.3-1-0.5-1.4
				c-6.7,2.5-13.5,4.5-20.5,6C1410.1,434.9,1410.2,435.4,1410.3,435.8z"/>
			<path opacity="0.3" fill="#FFFFFF" enable-background="new    " d="M1404,415c0.2,0.5,0.3,1,0.5,1.4c6.7-1.2,13.3-2.8,19.8-4.7
				c-0.2-0.5-0.4-0.9-0.5-1.4C1417.2,412.2,1410.7,413.7,1404,415z"/>
			<path opacity="0.3" fill="#FFFFFF" enable-background="new    " d="M1397,396.4c0.2,0.5,0.4,1,0.6,1.4c2.1-0.4,4.1-0.8,6.2-1.2
				c4.3-0.9,8.6-2.1,12.8-3.5c-0.2-0.5-0.4-0.9-0.6-1.4C1409.7,393.8,1403.4,395.3,1397,396.4z"/>
			<path opacity="0.3" fill="#FFFFFF" enable-background="new    " d="M1406.2,371.9l-18.3,3.8c0.2,0.5,0.4,0.9,0.7,1.4l18.4-3.8
				C1406.7,372.8,1406.5,372.3,1406.2,371.9z"/>
			<path opacity="0.3" fill="#FFFFFF" enable-background="new    " d="M1378.3,356.4c0.2,0.4,0.5,0.9,0.7,1.4
				c4.8-2.6,9.5-5.4,14-8.5c-0.3-0.4-0.6-0.9-0.8-1.3C1387.7,351,1383.1,353.8,1378.3,356.4z"/>
			<path opacity="0.3" fill="#FFFFFF" enable-background="new    " d="M1378.2,328.9c-3.9,1.8-7.9,3.5-12,5.1
				c0.3,0.4,0.5,0.9,0.8,1.3c4.1-1.6,8.2-3.4,12.2-5.3C1378.8,329.7,1378.5,329.3,1378.2,328.9z"/>
			<path opacity="0.3" fill="#FFFFFF" enable-background="new    " d="M1355.7,316.3c0.3,0.5,0.6,0.9,0.8,1.4
				c0.1-0.1,0.2-0.1,0.4-0.2c2.6-1.1,5.1-2.3,7.6-3.5c-0.4-0.4-0.8-0.8-1.2-1.2C1360.8,314.1,1358.3,315.2,1355.7,316.3z"/>
		</g>
		
			<linearGradient id="SVGID_4_" gradientUnits="userSpaceOnUse" x1="1319.5021" y1="241.6699" x2="1317.972" y2="147.1079" gradientTransform="matrix(1 0 0 -1 0 510)">
			<stop  offset="0" style="stop-color:#522EB5"/>
			<stop  offset="1" style="stop-color:#60A1E5"/>
		</linearGradient>
		<path opacity="0.85" fill="url(#SVGID_4_)" enable-background="new    " d="M1278.9,363.9c0,0,15.8-1.5,33.8-11.5l-4.2-4.1
			l6.9,2.6c10.3-6.1,19.3-14.1,26.6-23.5l-4.3-3.7l5.4,2.2c3.8-5.1,7-10.5,9.7-16.2c0.3-0.6,0.5-1.1,0.8-1.7c0.3-0.6,0.6-1.3,0.9-2
			c0.2-0.5,0.4-1,0.6-1.5c0.6-1.4,1.2-2.9,1.7-4.4c0.6-1.6,1.2-3.3,1.7-5c0,0,0,0,0,0l0,0c-0.4,0-2.7,0-6.5,0.4
			c-1.8,0.2-3.9,0.4-6.3,0.7c-0.1,0-0.2,0-0.3,0l-1.3,0.2c-9.5,1.4-18.9,4-27.8,7.7c-6.8,2.9-13.1,6.7-18.7,11.4l6.1,4.3l-7.6-3
			c-5.7,5.2-10.2,11.6-13.1,18.7l7.3,5.1l-8-3.2C1279.3,346,1278.1,355,1278.9,363.9z"/>
		<path opacity="0.2" fill="#FFFFFF" enable-background="new    " d="M1346.1,303.4c-6,3.3-11.8,7-17.4,11c-1.4,1-2.8,2-4.2,3
			l-4.1,3.1l-4,3.2l-3.9,3.3l-3.8,3.4l-3.7,3.5l-3.7,3.6c-1.2,1.2-2.4,2.5-3.6,3.7c-4.7,5-9.1,10.2-13.2,15.7
			c4.5-5.1,9.1-10.2,13.9-15c1.2-1.2,2.4-2.4,3.6-3.6l3.7-3.5l3.8-3.5l3.8-3.4l3.9-3.3l3.9-3.3l4-3.2c1.4-1,2.7-2.1,4.1-3.1
			C1334.8,311.1,1340.4,307.1,1346.1,303.4z"/>
		
			<linearGradient id="SVGID_5_" gradientUnits="userSpaceOnUse" x1="1310.3669" y1="208.9868" x2="1366.137" y2="281.5168" gradientTransform="matrix(1 0 0 -1 0 510)">
			<stop  offset="0" style="stop-color:#522EB5"/>
			<stop  offset="1" style="stop-color:#60A1E5"/>
		</linearGradient>
		<path opacity="0.85" fill="url(#SVGID_5_)" enable-background="new    " d="M1334.6,274.1c2.4,7.7,5.7,15.1,9.8,22
			c0.1,0.2,0.2,0.4,0.3,0.6c0.9,1.4,1.8,2.9,2.7,4.3c0.2,0.4,0.5,0.7,0.7,1.1c0.8,1.3,1.7,2.5,2.6,3.8c0.5,0.7,1,1.4,1.6,2.1
			c0.3,0.4,0.6,0.8,0.9,1.2c0,0,0.7-1.1,1.9-3c0.1-0.1,0.1-0.2,0.2-0.4c1-1.7,2.2-4,3.6-6.7c0.2-0.4,0.4-0.8,0.6-1.3
			c3.7-7.5,6.6-15.3,8.6-23.3c3.6-14.2,4.8-30.9-2-46.5l-9.7,1.2l6.8-6.9c-4.9-8.5-12.4-16.6-23.5-23.5c0,0-4.7,8.7-7.7,22.7
			l7.8-1.7l-8.6,5.8c-1.3,7.5-1.7,15.2-1.4,22.8l5-1.1l-4.8,3.3C1330.7,258.7,1332.2,266.5,1334.6,274.1z"/>
		
			<linearGradient id="SVGID_6_" gradientUnits="userSpaceOnUse" x1="1353.6965" y1="165.3867" x2="1402.7266" y2="248.1757" gradientTransform="matrix(1 0 0 -1 0 510)">
			<stop  offset="0" style="stop-color:#522EB5"/>
			<stop  offset="1" style="stop-color:#60A1E5"/>
		</linearGradient>
		<path opacity="0.85" fill="url(#SVGID_6_)" enable-background="new    " d="M1345.1,305.5c0,0,1.4,0.2,3.8,0.4
			c0.5,0,1.1,0.1,1.7,0.1c0.7,0.1,1.5,0.1,2.4,0.2c0.6,0,1.2,0.1,1.8,0.1c0.2,0,0.5,0,0.7,0c9.8,0.3,25-0.3,39.5-5.4l0-5.9l2.1,5.1
			c9.7-3.8,19-9.7,25.8-18.9l-2-8.9l6.4,1.9c3.9-7.6,6.3-15.9,6.9-24.4c0,0-17.6-1.1-38.4,7.3l1.7,5.5l-3.8-4.6
			c-9.6,4.1-18.4,9.8-26.1,16.9c-5.4,4.9-10.2,10.4-14.3,16.3c-1,1.4-2,2.9-2.9,4.4c-0.8,1.4-1.7,2.8-2.5,4.2
			c-0.3,0.4-0.5,0.9-0.8,1.3c-0.2,0.4-0.4,0.8-0.7,1.2c0,0.1-0.1,0.1-0.1,0.2C1346.1,303.6,1345.6,304.5,1345.1,305.5z"/>
		<path opacity="0.2" fill="#FFFFFF" enable-background="new    " d="M1429.6,254.5c-6.9,3.4-13.7,6.8-20.5,10.3
			c-6.8,3.5-13.6,7.1-20.3,10.7c-3.3,1.8-6.7,3.7-10,5.7c-3.3,2-6.5,4.1-9.6,6.4c-6.1,4.6-11.9,9.6-17.4,14.9
			c5.9-4.8,11.8-9.7,18-14.1c1.6-1.1,3.1-2.1,4.7-3.2c1.6-1,3.2-2,4.9-3c3.3-2,6.6-3.8,10-5.6c3.3-1.8,6.7-3.6,10.1-5.4
			c3.4-1.8,6.7-3.6,10.1-5.5C1416.3,262,1423,258.3,1429.6,254.5z"/>
		
			<linearGradient id="SVGID_7_" gradientUnits="userSpaceOnUse" x1="1387.1002" y1="127.6535" x2="1276.6002" y2="253.4755" gradientTransform="matrix(1 0 0 -1 0 510)">
			<stop  offset="0" style="stop-color:#522EB5"/>
			<stop  offset="1" style="stop-color:#60A1E5"/>
		</linearGradient>
		<path opacity="0.85" fill="url(#SVGID_7_)" enable-background="new    " d="M1263.3,280.8l4.2-3.5l-1.4,6.3c1.9,1.8,4,3.8,6.4,5.7
			l3-3.4l-1.8,4.4c10.2,8.2,22,14.2,34.7,17.6c10.2,2.6,20.9,3.6,31.4,2.8c0.1,0,0.1,0,0.2,0c0.4,0,0.9-0.1,1.3-0.1
			c0.8-0.1,1.5-0.1,2.3-0.2c1.7-0.2,3.5-0.4,5.3-0.7c1.1-0.2,2.2-0.4,3.4-0.6c0.4-0.1,0.8-0.2,1.3-0.2c0,0-0.2-0.3-0.5-0.9
			c-0.4-0.7-1-1.7-1.8-3c0,0,0,0,0,0c-0.8-1.3-1.8-2.8-2.9-4.5c-4.7-7-10.1-13.5-16.2-19.3c-8.6-8.1-19.5-15.5-32.5-18.3l-3.4,7.7
			l0.8-8.2c-12.1-1.9-25.8,0.2-40.9,9.5C1258.3,275,1260.7,278,1263.3,280.8z"/>
		<path opacity="0.2" fill="#FFFFFF" enable-background="new    " d="M1342.6,204.4c1.1,8.1,2.4,16.2,3.7,24.3c0.6,4,1.3,8.1,2,12.1
			l2.1,12.1c0.7,4,1.4,8,2.1,12.1c0.7,4,1.2,8.1,1.7,12.1c1,8.1,1,16.3,0,24.4c0.8-4,1.3-8.1,1.4-12.2c0.1-4.1,0-8.2-0.4-12.3
			c-0.3-4.1-0.9-8.2-1.5-12.2c-0.6-4-1.3-8.1-2-12.1l-2.1-12.1c-0.7-4-1.4-8-2.2-12.1C1345.8,220.4,1344.2,212.4,1342.6,204.4z"/>
		<path opacity="0.2" fill="#FFFFFF" enable-background="new    " d="M1345.2,303.3c-5.6-4.2-11.4-8-17.6-11.4
			c-1.5-0.8-3.1-1.7-4.6-2.5l-4.7-2.4l-4.8-2.2l-4.8-2.1l-4.9-1.9l-5-1.8l-5-1.6c-1.7-0.5-3.4-1-5.1-1.5c-6.8-1.9-13.7-3.3-20.7-4.2
			c6.9,1.5,13.7,3.2,20.4,5.2c1.7,0.5,3.3,1.1,5,1.6l5,1.7l4.9,1.8l4.9,1.9l4.8,2l4.8,2.2l4.7,2.3c1.5,0.8,3.1,1.6,4.7,2.4
			C1333.3,296.1,1339.3,299.6,1345.2,303.3z"/>
	</g>
	<g opacity="0.85" clip-path="url(#SVGID_2_)">
		
			<linearGradient id="SVGID_8_" gradientUnits="userSpaceOnUse" x1="73.1318" y1="261.6161" x2="111.3219" y2="175.4492" gradientTransform="matrix(1 0 0 -1 0 510)">
			<stop  offset="0" style="stop-color:#522EB5"/>
			<stop  offset="1" style="stop-color:#60A1E5"/>
		</linearGradient>
		<path opacity="0.85" fill="url(#SVGID_8_)" enable-background="new    " d="M147.2,320.4c0,0-15.1,4.8-35.5,2.6l2.3-5.4l-5.4,5.1
			c-11.8-1.6-23.1-5.5-33.3-11.3l2.6-5.1l-4.2,4.1c-5.4-3.2-10.4-7-15-11.2c-0.5-0.4-0.9-0.8-1.4-1.3c-0.5-0.5-1-1-1.5-1.5
			c-0.4-0.4-0.8-0.7-1.1-1.1c-1.1-1.1-2.2-2.2-3.2-3.4c-1.2-1.3-2.3-2.6-3.4-4c0,0,0,0,0,0l0,0c0.3-0.1,2.5-1,6.1-2.2
			c1.7-0.6,3.8-1.2,6-1.8c0.1,0,0.2,0,0.3-0.1l1.3-0.3c9.3-2.5,18.9-3.7,28.6-3.7c7.3,0,14.6,1.1,21.5,3.3l-4,6.4l5.9-5.7
			c7.2,2.6,13.7,6.7,19.1,12.1l-4.8,7.6l6.3-6.1C140.2,304.1,144.6,311.9,147.2,320.4z"/>
		<path opacity="0.2" fill="#FFFFFF" enable-background="new    " d="M62.6,290.8c6.8,0.7,13.5,1.9,20.1,3.4c1.7,0.4,3.3,0.8,5,1.2
			l4.9,1.3l4.9,1.4l4.9,1.5l4.8,1.7l4.8,1.8l4.7,1.9c1.6,0.7,3.1,1.3,4.7,2c6.2,2.8,12.2,5.9,18,9.4c-6.1-3-12.2-5.8-18.4-8.4
			c-1.6-0.6-3.1-1.3-4.7-1.9l-4.7-1.8l-4.8-1.7l-4.8-1.6l-4.8-1.6l-4.9-1.5l-4.9-1.4c-1.6-0.4-3.3-0.9-4.9-1.3
			C75.9,293.5,69.3,292.1,62.6,290.8z"/>
		
			<linearGradient id="SVGID_9_" gradientUnits="userSpaceOnUse" x1="91.8725" y1="136.3164" x2="4.8567" y2="110.2124" gradientTransform="matrix(1 0 0 -1 0 510)">
			<stop  offset="0" style="stop-color:#5E95E0"/>
			<stop  offset="1" style="stop-color:#5F9CE4"/>
		</linearGradient>
		<path opacity="0.85" fill="url(#SVGID_9_)" enable-background="new    " d="M64.3,279.1c-0.1,0.2-2.5,10.7-5.2,27.1
			c-0.1,0.5-0.2,1.1-0.3,1.6c-0.9,5.6-1.9,12-2.8,18.8c-0.1,0.5-0.1,1-0.2,1.6c-1,7.4-1.9,15.4-2.7,23.8c0,0.5-0.1,1-0.1,1.5
			c-0.6,6.4-1.1,13.1-1.4,19.8c0,0.5-0.1,1.1-0.1,1.6c-0.3,6.9-0.6,14-0.6,21c0,0.5,0,1.1,0,1.6c0,6.1,0.2,12.2,0.5,18.2
			c0,0.5,0.1,1,0.1,1.6c0.4,6.3,0.9,12.5,1.7,18.6c0.1,0.5,0.1,1,0.2,1.5c0.9,7.1,2.3,14.1,4,21c0.1,0.5,0.3,1,0.4,1.5
			c2.1,8.3,5.1,16.4,8.9,24.1L37,487.2c0,0-1.6-8.3-3.1-21.9c-0.1-0.5-0.1-1-0.2-1.6c-0.7-6.8-1.5-14.8-2-23.7c0-0.5-0.1-1-0.1-1.6
			c-0.3-5.6-0.5-11.5-0.6-17.7c0-0.5,0-1,0-1.6c-0.1-6,0-12.2,0.2-18.5c0-0.5,0-1,0.1-1.6c0.3-6.7,0.7-13.5,1.4-20.4
			c0.1-0.5,0.1-1.1,0.2-1.6c0.9-8.6,2.1-17.3,3.8-25.9c0.1-0.5,0.2-1,0.3-1.5c1.5-7.3,3.2-14.5,5.4-21.5c0.2-0.5,0.3-1,0.5-1.5
			c2-6.5,4.4-12.8,7.2-19c0.2-0.5,0.5-1.1,0.7-1.6c1.6-3.6,3.4-7.1,5.3-10.5L64.3,279.1z"/>
		
			<linearGradient id="SVGID_10_" gradientUnits="userSpaceOnUse" x1="70.5172" y1="178.8187" x2="-5.7805" y2="235.9637" gradientTransform="matrix(1 0 0 -1 0 510)">
			<stop  offset="0" style="stop-color:#522EB5"/>
			<stop  offset="1" style="stop-color:#60A1E5"/>
		</linearGradient>
		<path opacity="0.85" fill="url(#SVGID_10_)" enable-background="new    " d="M63.8,291.8c0,0-1.2,0.7-3.4,1.9
			c-0.5,0.3-1,0.5-1.5,0.8c-0.7,0.3-1.4,0.7-2.2,1.1c-0.5,0.3-1.1,0.5-1.7,0.8c-0.2,0.1-0.4,0.2-0.7,0.3
			c-8.9,4.1-23.2,9.5-38.5,10.5l-2.2-5.4l-0.1,5.5c-10.4,0.3-21.1-1.6-30.9-7.4l-1.5-9l-5.2,4.3c-6.4-5.5-11.7-12.3-15.5-19.8
			c0,0,15.8-7.9,38.2-8.2l0.5,5.7l1.8-5.7c10.4,0.1,20.7,1.9,30.4,5.4c6.8,2.4,13.2,5.6,19.3,9.5c1.5,0.9,2.9,1.9,4.4,2.9
			c1.3,0.9,2.6,1.9,3.9,2.9c0.4,0.3,0.8,0.6,1.2,0.9c0.4,0.3,0.7,0.6,1.1,0.9c0.1,0,0.1,0.1,0.2,0.1C62.2,290.4,63,291.1,63.8,291.8
			z"/>
		<g opacity="0.3">
			<path opacity="0.3" fill="#FFFFFF" enable-background="new    " d="M58.2,460c-0.3,0.1-0.6,0.1-0.9,0.2l-22.5,5
				c-0.1-0.5-0.1-1-0.2-1.5l22.4-4.9l0.9-0.2C57.9,459.1,58,459.5,58.2,460z"/>
			<path opacity="0.3" fill="#FFFFFF" enable-background="new    " d="M53.7,437.5c-7,1.3-14.1,2.1-21.3,2.5c0-0.5-0.1-1-0.1-1.5
				c7.1-0.3,14.2-1.2,21.2-2.5C53.5,436.5,53.6,437,53.7,437.5z"/>
			<path opacity="0.3" fill="#FFFFFF" enable-background="new    " d="M51.5,415.8c0,0.5,0.1,1,0.1,1.5c-6.6,1.5-13.3,2.6-20.1,3.3
				c0-0.5,0-1,0-1.5C38.3,418.4,44.9,417.2,51.5,415.8z"/>
			<path opacity="0.3" fill="#FFFFFF" enable-background="new    " d="M50.9,395.9c0,0.5,0,1,0,1.5c-2,0.5-4.1,0.9-6.2,1.3
				c-4.3,0.8-8.7,1.4-13.1,1.8c0-0.5,0-1,0.1-1.5C38.1,398.5,44.6,397.4,50.9,395.9z"/>
			<path opacity="0.3" fill="#FFFFFF" enable-background="new    " d="M33,376.9l18.4-3.6c0,0.5-0.1,1-0.1,1.5l-18.4,3.6
				C32.9,378,32.9,377.5,33,376.9z"/>
			<path opacity="0.3" fill="#FFFFFF" enable-background="new    " d="M52.8,351.8c0,0.5-0.1,1-0.1,1.5c-5.4-0.5-10.8-1.3-16.1-2.3
				c0.1-0.5,0.2-1,0.3-1.5C42.1,350.6,47.4,351.3,52.8,351.8z"/>
			<path opacity="0.3" fill="#FFFFFF" enable-background="new    " d="M42.5,326.5c4.3,0.1,8.7,0.1,13,0c-0.1,0.5-0.1,1-0.2,1.5
				c-4.4,0.1-8.8,0.1-13.3,0C42.1,327.5,42.3,327,42.5,326.5z"/>
			<path opacity="0.3" fill="#FFFFFF" enable-background="new    " d="M58.4,306.2c-0.1,0.5-0.2,1.1-0.3,1.6c-0.1,0-0.3,0-0.4,0
				c-2.8,0-5.5-0.1-8.3-0.3c0.2-0.5,0.5-1,0.7-1.6C52.8,306.1,55.6,306.2,58.4,306.2z"/>
		</g>
		<path opacity="0.2" fill="#FFFFFF" enable-background="new    " d="M-33.4,277.7c7.6,0.4,15.2,1,22.8,1.6
			c7.6,0.6,15.2,1.2,22.7,1.9c3.8,0.4,7.6,0.8,11.3,1.4c3.8,0.6,7.5,1.3,11.2,2.2c7.4,1.9,14.6,4.2,21.7,6.9
			c-7.3-2.1-14.5-4.4-21.9-6c-1.8-0.4-3.7-0.8-5.6-1.1s-3.7-0.6-5.6-0.9c-3.7-0.5-7.5-0.9-11.3-1.3c-3.8-0.4-7.6-0.7-11.3-1.1
			c-3.8-0.4-7.6-0.7-11.3-1.1C-18.3,279.4-25.8,278.6-33.4,277.7z"/>
		
			<linearGradient id="SVGID_11_" gradientUnits="userSpaceOnUse" x1="93.8755" y1="235.5067" x2="15.3666" y2="280.8737" gradientTransform="matrix(1 0 0 -1 0 510)">
			<stop  offset="0" style="stop-color:#522EB5"/>
			<stop  offset="1" style="stop-color:#60A1E5"/>
		</linearGradient>
		<path opacity="0.85" fill="url(#SVGID_11_)" enable-background="new    " d="M61.5,259.1c0.6,8.1,0.3,16.2-0.8,24.2
			c0,0.2-0.1,0.4-0.1,0.6c-0.2,1.7-0.5,3.3-0.9,5.1c-0.1,0.4-0.2,0.9-0.3,1.3c-0.3,1.5-0.6,3-1,4.5c-0.2,0.9-0.4,1.7-0.7,2.6
			c-0.1,0.5-0.2,0.9-0.4,1.4c0,0-1.1-0.7-2.8-2.1c-0.1-0.1-0.2-0.2-0.3-0.3c-1.5-1.2-3.5-2.8-5.8-4.8c-0.3-0.3-0.7-0.6-1-0.9
			c-6.2-5.5-11.7-11.6-16.7-18.2c-8.6-11.7-15.9-26.7-15.5-43.8l9.4-2.6l-8.9-3.7c1.3-9.8,5.3-20.2,12.9-30.9c0,0,7.6,6.2,15.5,18
			l-7.8,1.5l10.1,2c4,6.5,7.3,13.4,9.8,20.6l-5,1l5.7,1.1C59.4,243.3,60.9,251.1,61.5,259.1z"/>
		
			<linearGradient id="SVGID_12_" gradientUnits="userSpaceOnUse" x1="54.7702" y1="129.5378" x2="108.6063" y2="289.7108" gradientTransform="matrix(1 0 0 -1 0 510)">
			<stop  offset="0" style="stop-color:#522EB5"/>
			<stop  offset="1" style="stop-color:#60A1E5"/>
		</linearGradient>
		<path opacity="0.85" fill="url(#SVGID_12_)" enable-background="new    " d="M130.2,237.6l-5.2-1.5l3.7,5.3
			c-1,2.4-2.3,5.1-3.8,7.8l-4-2l3.3,3.3c-6.3,11.6-15,21.7-25.5,29.8c-8.5,6.5-17.9,11.5-28,14.9c-0.1,0-0.1,0-0.2,0.1
			c-0.4,0.1-0.8,0.3-1.3,0.4c-0.7,0.2-1.4,0.5-2.2,0.7c-1.7,0.5-3.4,1-5.2,1.4c-1.1,0.3-2.2,0.5-3.3,0.8c-0.4,0.1-0.8,0.2-1.3,0.3
			c0,0,0-0.4,0.1-1c0.1-0.8,0.3-2,0.5-3.5c0,0,0,0,0,0c0.2-1.5,0.6-3.3,1-5.3c1.7-8.3,4.4-16.4,7.8-24.2c4.9-10.8,12.3-22,23.2-29.6
			l6,5.8l-3.7-7.3c10.4-6.5,23.9-9.9,41.3-7.3C132.7,230.3,131.6,234,130.2,237.6z"/>
		<path opacity="0.2" fill="#FFFFFF" enable-background="new    " d="M62.9,290.6c3.6-6.1,7.6-11.9,12-17.4c1.1-1.4,2.2-2.7,3.3-4.1
			l3.5-4l3.6-3.9l3.7-3.8l3.8-3.7l3.9-3.6l4-3.5c1.4-1.1,2.7-2.2,4.1-3.3c5.6-4.4,11.4-8.4,17.5-12c-5.8,4-11.4,8.3-16.9,12.8
			c-1.3,1.1-2.7,2.3-4,3.4l-3.9,3.5l-3.9,3.6l-3.8,3.7l-3.7,3.8l-3.6,3.9l-3.5,3.9c-1.1,1.3-2.3,2.7-3.4,4
			C71.2,279.2,67,284.8,62.9,290.6z"/>
		<path opacity="0.2" fill="#FFFFFF" enable-background="new    " d="M27.9,197.7c2,7.9,3.9,15.9,5.8,23.8c0.9,4,1.8,8,2.7,12
			l2.7,12c0.9,4,1.7,8,2.6,12c0.9,4,1.9,7.9,3,11.9c2.1,7.9,5.2,15.5,9.2,22.6c-2.3-3.4-4.2-7-5.9-10.8c-1.7-3.8-3.1-7.6-4.3-11.5
			c-1.2-3.9-2.3-7.9-3.2-11.9c-1-4-1.8-8-2.7-12l-2.6-12c-0.8-4-1.7-8-2.5-12C31,213.8,29.4,205.8,27.9,197.7z"/>
	</g>
	<path clip-path="url(#SVGID_2_)" fill="#FFFFFF" d="M1054.8,128.3c0,0,12.8-14.4,25.6,0.8c0,0,12.8-12,23.2,0
		c0,0-14.8-3.2-23.6,10.4C1080,139.5,1067.6,121.9,1054.8,128.3z"/>
	<path clip-path="url(#SVGID_2_)" fill="#FFFFFF" d="M954.5,68.5c0,0,10.8-12.1,21.6,0.7c0,0,10.8-10.1,19.5,0
		c0,0-12.5-2.7-19.9,8.8C975.7,77.9,965.2,63.1,954.5,68.5z"/>
	<path clip-path="url(#SVGID_2_)" fill="#FFFFFF" d="M1120.7,36.2c0,0,12.8-14.4,25.6,0.8c0,0,12.8-12,23.2,0
		c0,0-14.8-3.2-23.6,10.4C1145.9,47.4,1133.5,29.8,1120.7,36.2z"/>
	<g clip-path="url(#SVGID_2_)">
		<defs>
			<rect id="SVGID_13_" x="566" y="155" width="307" height="268"/>
		</defs>
		<clipPath id="SVGID_14_">
			<use xlink:href="#SVGID_13_"  overflow="visible"/>
		</clipPath>
		<g clip-path="url(#SVGID_14_)">
			<path fill="#FCB064" d="M763.3,379.9c29.6,2.5,72.5,0.8,95.1-25.7c19.9-23.4,19.6-60.3-1.1-109.7c-1.8-4.3-6.8-6.4-11.1-4.6
				c-4.3,1.8-6.4,6.8-4.6,11.1c18,43.1,19.2,74,3.8,92.2c-29.1,34.2-109.1,15.6-109.9,15.4c-4.6-1.1-9.1,1.7-10.2,6.3
				c-1.1,4.6,1.7,9.1,6.3,10.2C732.9,375.4,745.8,378.4,763.3,379.9z"/>
			<path fill="#FCB064" d="M710.5,364.5c-0.1,0.7-0.3,1.3-0.6,2c-1.8,4.3-6.8,6.4-11.1,4.6c-6.9-2.9-13.5-5.3-19.8-7.3
				c-12.5-4.1-23.9-6.4-33.9-7c-7.3-0.4-13.9,0-19.9,1.4c-1.4,0.3-2.8,0.7-4.1,1.1c-5.5,1.8-10.3,4.4-14.4,8
				c-5.5,4.7-9.7,10.7-12.7,17.5c-0.3,0.5-0.4,1-0.7,1.6c-4.6,10.9-6.5,23.6-7.1,36.1h-16.9c0.9-21.9,5.9-45.5,20.1-61.9
				c1.9-2.2,4-4.2,6.3-6.2c0.8-0.6,1.5-1.3,2.3-1.8c6.8-5.3,14.7-8.9,23.6-10.9c6.5-1.5,13.6-2.2,21.3-1.9
				c17.8,0.5,38.7,5.8,62.5,15.7C709,357,711.1,360.8,710.5,364.5z"/>
			<path fill="#FCB064" d="M828.6,350.8c0,0.6,0,1.2-0.1,1.8c0,0.5,0,1-0.1,1.5c0,0.5-0.1,1.1-0.1,1.6c-0.1,1.3-0.1,2.5-0.2,3.7
				c0,0.5-0.1,1-0.1,1.5c0,0.4-0.1,0.8-0.1,1.1c-0.1,0.7-0.1,1.4-0.2,2.1c-0.3,3.5-0.8,7-1.3,10.4c-0.4,2.2-0.8,4.2-1.2,6.4
				c-0.1,0.6-0.3,1.3-0.4,2c-0.1,0.4-0.2,0.8-0.3,1.2c-0.1,0.3-0.1,0.5-0.2,0.8c-0.2,0.8-0.4,1.6-0.6,2.3c-0.2,0.8-0.4,1.6-0.6,2.3
				c-0.1,0.4-0.2,0.7-0.3,1c-0.2,0.6-0.3,1.3-0.5,1.9c-0.2,0.7-0.4,1.4-0.6,2.1c-0.2,0.7-0.4,1.4-0.6,2.1c-0.1,0.4-0.3,0.8-0.4,1.3
				c-0.2,0.7-0.4,1.5-0.6,2.2c-0.5,1.7-1.1,3.4-1.6,5c-0.7,2.1-1.4,4.1-2.2,6.1c-0.3,0.6-0.4,1.3-0.7,1.9c-0.3,0.7-0.5,1.4-0.8,2.1
				c-0.2,0.4-0.4,0.9-0.5,1.4c-0.2,0.4-0.3,0.9-0.5,1.3c-0.1,0.3-0.2,0.5-0.3,0.8c-0.1,0.4-0.3,0.7-0.4,1.1
				c-0.4,0.9-0.8,1.9-1.3,2.8H606.3c-0.2-0.4-0.4-0.8-0.6-1.1c-0.3-0.6-0.6-1.3-1-2c-0.1-0.1-0.1-0.2-0.1-0.3
				c-0.3-0.6-0.6-1.3-0.9-1.8c-0.1-0.1-0.1-0.2-0.1-0.3c-0.3-0.6-0.5-1.1-0.8-1.6c-0.2-0.4-0.4-0.8-0.6-1.3c-0.3-0.5-0.4-1-0.7-1.6
				c-0.1-0.3-0.2-0.5-0.3-0.8c-0.2-0.4-0.3-0.8-0.5-1.3c-0.4-1.1-0.8-2.1-1.3-3.2c-0.3-0.8-0.6-1.5-0.8-2.3
				c-0.9-2.4-1.6-4.8-2.4-7.2c-0.3-0.8-0.5-1.6-0.8-2.5c-0.1-0.4-0.3-0.9-0.4-1.3c-0.3-0.9-0.5-1.8-0.8-2.7
				c-0.1-0.3-0.1-0.5-0.2-0.8c-0.1-0.4-0.2-0.8-0.3-1.3c-0.1-0.5-0.3-1.1-0.4-1.6c-0.1-0.2-0.1-0.4-0.1-0.6s-0.1-0.4-0.1-0.6v-0.1
				c0-0.1,0-0.1-0.1-0.1c-0.1-0.5-0.3-1.1-0.4-1.6c0-0.1,0-0.1,0-0.1c-0.2-0.8-0.4-1.6-0.5-2.5c0-0.1,0-0.1,0-0.1
				c-0.2-0.8-0.3-1.6-0.5-2.5c-0.2-0.8-0.3-1.6-0.4-2.5c0-0.1-0.1-0.3-0.1-0.4c-0.1-0.8-0.3-1.5-0.4-2.3c0-0.1,0-0.1,0-0.2
				c-0.1-0.8-0.3-1.6-0.4-2.5c0-0.1,0-0.1,0-0.2c-0.1-0.6-0.2-1.2-0.3-1.8c-0.1-0.3-0.1-0.7-0.1-1c-0.1-0.4-0.1-0.8-0.1-1.2
				c-0.1-0.4-0.1-0.9-0.1-1.4c-0.1-0.8-0.1-1.5-0.2-2.3c-0.1-1.1-0.2-2.3-0.3-3.4c-0.1-0.4-0.1-0.9-0.1-1.3
				c-0.1-1.8-0.2-3.7-0.3-5.7c-0.1-1.2-0.1-2.4-0.1-3.6c-0.1-3.6-0.1-7.3,0.1-11.1c0.5-14.8,2.5-30.4,6-45.9
				c4.1-17.7,10.1-35.3,18.4-51.2c3.3-6.3,6.9-12.3,10.9-18c6.5-9.2,13.9-17.5,22.2-24.5c0.8-0.6,1.6-1.3,2.3-1.9
				c6.6-5.2,13.7-9.6,21.4-12.9c3.7-1.6,7.5-3,11.5-4.1c8.7-2.5,17.9-3.5,27-3.1c9.1-0.4,18.3,0.6,27,3.1
				c13.2,3.8,24.9,10.4,35.2,18.9c8.4,7,15.7,15.3,22.2,24.5c3.2,4.6,6.3,9.6,9,14.6c10.4,19,17.7,40.7,21.9,62.3
				c2.5,13,4,25.9,4.4,38.3C828.6,343,828.7,346.9,828.6,350.8z"/>
			<path fill="#EF994C" d="M632.7,368.5c7.3,0,13.2-7.9,13.2-17.5c0-9.7-5.9-17.5-13.2-17.5s-13.2,7.9-13.2,17.5
				C619.5,360.7,625.4,368.5,632.7,368.5z"/>
			<path fill="#EF994C" d="M737.8,215c3.2,0,5.8-2.2,5.8-4.8c0-2.7-2.6-4.8-5.8-4.8c-3.2,0-5.8,2.2-5.8,4.8
				C732,212.8,734.6,215,737.8,215z"/>
			<path fill="#EF994C" d="M672.8,415.7c4.5,0,8.2-3.9,8.2-8.6c0-4.8-3.7-8.6-8.2-8.6c-4.5,0-8.2,3.9-8.2,8.6
				C664.5,411.9,668.2,415.7,672.8,415.7z"/>
			<path fill="#EF994C" d="M769.4,405.9c4.3,0,7.8-3.7,7.8-8.2c0-4.5-3.5-8.2-7.8-8.2s-7.8,3.7-7.8,8.2
				C761.6,402.2,765.1,405.9,769.4,405.9z"/>
			<path fill="#EF994C" d="M816.7,368.8c2.7,0,4.9-2.8,4.9-6.1c0-3.4-2.2-6.1-4.9-6.1s-4.9,2.8-4.9,6.1
				C811.8,366,814,368.8,816.7,368.8z"/>
			<path fill="#FACA78" d="M828.6,350.8c0,0.6,0,1.2-0.1,1.8c0,0.5,0,1-0.1,1.5c0,0.5-0.1,1.1-0.1,1.6c-0.1,1.3-0.1,2.5-0.2,3.7
				c0,0.5-0.1,1-0.1,1.5c0,0.4-0.1,0.8-0.1,1.1c-0.1,0.7-0.1,1.4-0.2,2.1c-0.3,3.5-0.8,7-1.3,10.4c-0.4,2.2-0.8,4.2-1.2,6.4
				c-0.1,0.6-0.3,1.3-0.4,2c-0.1,0.4-0.2,0.8-0.3,1.2c-0.1,0.3-0.1,0.5-0.2,0.8c-0.2,0.8-0.4,1.6-0.6,2.3c-0.2,0.8-0.4,1.6-0.6,2.3
				c-0.1,0.4-0.2,0.7-0.3,1c-0.2,0.6-0.3,1.3-0.5,1.9c-0.2,0.7-0.4,1.4-0.6,2.1c-0.2,0.7-0.4,1.4-0.6,2.1c-0.1,0.4-0.3,0.8-0.4,1.3
				c-0.2,0.7-0.4,1.5-0.6,2.2c-0.5,1.6-1.1,3.4-1.6,5c-0.7,2.1-1.4,4.1-2.2,6.1c-0.3,0.6-0.4,1.3-0.7,1.9c-0.3,0.7-0.5,1.4-0.8,2.1
				c-0.2,0.4-0.4,0.9-0.5,1.4c-0.2,0.4-0.3,0.9-0.5,1.3c-0.1,0.3-0.2,0.5-0.3,0.8c-0.1,0.4-0.3,0.7-0.4,1.1
				c-0.4,0.9-0.8,1.9-1.3,2.8H606.3c0.1,0.1,0.1,0.3,0.2,0.4c-0.1-0.1-0.1-0.3-0.2-0.4c-0.2-0.4-0.4-0.8-0.6-1.1
				c-0.3-0.6-0.6-1.3-1-2c-0.1-0.1-0.1-0.2-0.1-0.3c-0.3-0.6-0.6-1.3-0.9-1.8c-0.1-0.1-0.1-0.2-0.1-0.3c-0.3-0.6-0.5-1.1-0.8-1.6
				c-0.2-0.4-0.4-0.8-0.6-1.3c-0.3-0.5-0.4-1-0.7-1.6c-0.1-0.3-0.2-0.5-0.3-0.8c-0.2-0.4-0.3-0.8-0.5-1.3c-0.4-1.1-0.8-2.1-1.3-3.2
				c-0.3-0.8-0.6-1.5-0.8-2.3c-0.9-2.4-1.6-4.8-2.4-7.2c-0.3-0.8-0.5-1.6-0.8-2.5c-0.1-0.4-0.3-0.9-0.4-1.3
				c-0.3-0.9-0.5-1.8-0.8-2.7c-0.1-0.3-0.1-0.5-0.2-0.8c-0.1-0.4-0.2-0.8-0.3-1.3c-0.1-0.5-0.3-1.1-0.4-1.6
				c-0.1-0.2-0.1-0.4-0.1-0.6c-0.1-0.2-0.1-0.4-0.1-0.6v-0.1c0-0.1,0-0.1-0.1-0.1c-0.1-0.5-0.3-1.1-0.4-1.6c0-0.1,0-0.1,0-0.1
				c-0.2-0.8-0.4-1.6-0.5-2.5c0-0.1,0-0.1,0-0.1c-0.2-0.8-0.3-1.6-0.5-2.5c-0.2-0.8-0.3-1.6-0.4-2.5c0-0.1-0.1-0.3-0.1-0.4
				c-0.1-0.8-0.3-1.5-0.4-2.3c0-0.1,0-0.1,0-0.2c-0.1-0.8-0.3-1.6-0.4-2.5c0-0.1,0-0.1,0-0.2c-0.1-0.6-0.2-1.2-0.3-1.8
				c-0.1-0.3-0.1-0.7-0.1-1c-0.1-0.4-0.1-0.8-0.1-1.2c-0.1-0.4-0.1-0.9-0.1-1.4c-0.1-0.8-0.1-1.5-0.2-2.3c-0.1-1.1-0.2-2.3-0.3-3.4
				c-0.1-0.4-0.1-0.9-0.1-1.3c-0.1-1.8-0.2-3.7-0.3-5.7c-0.1-1.2-0.1-2.4-0.1-3.6c2.8,0.9,5.9,1.7,9,2.5c6.8,1.8,14.4,3.4,22.5,4.8
				c1.6,0.3,3.2,0.6,4.7,0.8c5.9,1,12,1.8,18.4,2.6c11.1,1.3,23,2.3,35.4,3c10.1,0.5,20.4,0.8,31.1,0.8h0.3c5.1,0,10.1-0.1,14.9-0.2
				c12.1-0.3,23.7-1,34.9-1.9C787.1,360.2,810.5,356.1,828.6,350.8z"/>
			<path fill="#FFDEA6" d="M824.5,384.8c-1.6,6.8-3.6,13.6-5.8,20.3H598.8c-2.4-6.6-4.4-13.4-5.9-20.3H824.5z"/>
			<path fill="#3A110C" d="M774.7,255.2C774.7,255.2,774.7,255.2,774.7,255.2c0.8,0,1.4,0.6,1.4,1.4c-0.1,6.5-3.7,19-16.1,19.1
				c-0.1,0-0.1,0-0.2,0c-12.3,0-15.8-12.5-15.9-19.1c0-0.8,0.6-1.4,1.3-1.4c0.7,0,1.4,0.6,1.4,1.3c0,0.7,0.5,16.3,13.2,16.3
				c0.1,0,0.1,0,0.1,0c12.8-0.1,13.4-15.7,13.4-16.3C773.3,255.9,773.9,255.2,774.7,255.2z"/>
			<path fill="#3A110C" d="M647.6,255.2c0.8,0,1.4,0.6,1.4,1.3c0,0.7,0.6,16.3,13.2,16.3c0.1,0,0.1,0,0.1,0
				c12.8-0.1,13.4-15.7,13.4-16.3c0-0.8,0.6-1.3,1.4-1.3c0.8,0,1.4,0.6,1.3,1.4c-0.1,6.5-3.7,19-16.1,19.1c-0.1,0-0.1,0-0.1,0
				c-12.3,0-15.8-12.5-15.9-19.1C646.2,255.9,646.9,255.3,647.6,255.2z"/>
			<g opacity="0.43">
				
					<linearGradient id="SVGID_15_" gradientUnits="userSpaceOnUse" x1="649.284" y1="218.9735" x2="675.485" y2="218.9735" gradientTransform="matrix(1 0 0 -1 0 510)">
					<stop  offset="0" style="stop-color:#FAFCFC"/>
					<stop  offset="1" style="stop-color:#FAFCFC;stop-opacity:0.3"/>
				</linearGradient>
				<path opacity="0.43" fill="url(#SVGID_15_)" enable-background="new    " d="M675.5,291c0,4.1-5.9,7.5-13.1,7.5
					c-7.2,0-13.1-3.4-13.1-7.5c0-4.1,5.9-7.5,13.1-7.5C669.6,283.6,675.5,286.9,675.5,291z"/>
			</g>
			<g opacity="0.43">
				
					<linearGradient id="SVGID_16_" gradientUnits="userSpaceOnUse" x1="746.871" y1="218.9735" x2="773.072" y2="218.9735" gradientTransform="matrix(1 0 0 -1 0 510)">
					<stop  offset="0" style="stop-color:#FAFCFC"/>
					<stop  offset="1" style="stop-color:#FAFCFC;stop-opacity:0.3"/>
				</linearGradient>
				<path opacity="0.43" fill="url(#SVGID_16_)" enable-background="new    " d="M773.1,291c0,4.1-5.9,7.5-13.1,7.5
					c-7.2,0-13.1-3.4-13.1-7.5c0-4.1,5.9-7.5,13.1-7.5C767.2,283.6,773.1,286.9,773.1,291z"/>
			</g>
			<path fill="#3A110C" d="M713,299.4c-12.7,0-22.9-3.4-23.5-3.5c-0.6-0.2-0.8-0.8-0.6-1.3s0.8-0.8,1.3-0.6c0.3,0.1,23.3,7.6,42.8,0
				c0.5-0.2,1.1,0.1,1.3,0.6c0.2,0.5-0.1,1.1-0.6,1.3C726.7,298.6,719.5,299.4,713,299.4z"/>
			<path fill="#DB8B49" d="M841.6,288.7c-0.1-1.5-0.1-3-0.3-4.6c0-0.1,0-0.1,0-0.2c-1.1-15.2-4.5-30-10.1-43.7
				c-6.6-16.3-16.3-31.4-28.7-44.3c-25.2-26.4-58.7-40.9-94.4-40.9c-35.7,0-69.2,14.5-94.4,40.8c-12.5,13-22.1,28.1-28.7,44.5
				c-5.1,12.6-8.4,26-9.7,39.8c-0.2,2.1-0.4,4.2-0.4,6.3c-0.1,0.7-0.1,1.3-0.1,2c-0.1,2-0.1,3.9-0.1,5.9c0,1.1,0,2.3,0.1,3.4
				c1.3,2.4,3.4,4.4,6.1,5.4c0.6,0.2,1.1,0.4,1.7,0.5c-0.2-3-0.3-6.1-0.3-9.3c0-1.9,0.1-3.8,0.1-5.6c0.7-16.8,4.4-32.9,10.6-47.6
				c1.2-2.9,2.5-5.7,4-8.5c0.3-0.6,0.6-1.1,0.9-1.7c21.4-40.8,62.8-68.4,110.3-68.4c47.8,0,89.4,28,110.8,69.1
				c0.1,0.1,0.1,0.1,0.1,0.2c1.6,3.1,3.1,6.3,4.4,9.5c6.1,14.4,9.7,30.3,10.5,46.9c0.1,2,0.1,4.1,0.1,6.1c0,3.2-0.1,6.3-0.3,9.4
				c0.8-0.1,1.6-0.3,2.5-0.6c2.2-0.8,4-2.3,5.3-4.1c0.1-1.6,0.1-3.2,0.1-4.8C841.7,292.4,841.7,290.5,841.6,288.7z"/>
			<path fill="#FEA130" d="M576.3,288.9l-1.5-0.6c-7-2.6-10.6-10.4-8-17.4l8.2-22.1c2.6-7,10.4-10.6,17.4-8l1.5,0.6
				c3.9,1.5,5.9,5.9,4.4,9.8L586,284.4C584.7,288.4,580.2,290.4,576.3,288.9z"/>
			
				<linearGradient id="SVGID_17_" gradientUnits="userSpaceOnUse" x1="659.6986" y1="216.6911" x2="572.2586" y2="250.8251" gradientTransform="matrix(1 0 0 -1 0 510)">
				<stop  offset="0" style="stop-color:#522EB5"/>
				<stop  offset="1" style="stop-color:#60A1E5"/>
			</linearGradient>
			<path fill="url(#SVGID_17_)" d="M613.5,241.6c0,1.3-0.3,2.7-0.7,4l-19,51.1c-2,5.4-7.7,8.4-13,7.2c-0.6-0.1-1.1-0.3-1.7-0.5
				c-2.8-1-4.9-3-6.1-5.4c-1.5-2.8-1.8-6.1-0.6-9.3l0.1-0.3l0.7-1.8l17.2-46l1.1-3c0.8-2.2,2.2-3.9,3.9-5.1c3-2.3,7.1-3,10.9-1.6
				C610.7,232.4,613.5,236.9,613.5,241.6z"/>
			<path fill="#FEA130" d="M840.9,288.9l1.5-0.6c7-2.6,10.6-10.4,8-17.4l-8.2-22.1c-2.6-7-10.4-10.6-17.4-8l-1.5,0.6
				c-3.9,1.5-5.9,5.9-4.4,9.8l12.4,33.2C832.6,288.4,836.9,290.4,840.9,288.9z"/>
			
				<linearGradient id="SVGID_18_" gradientUnits="userSpaceOnUse" x1="757.3109" y1="205.4484" x2="845.1209" y2="255.6964" gradientTransform="matrix(1 0 0 -1 0 510)">
				<stop  offset="0" style="stop-color:#522EB5"/>
				<stop  offset="1" style="stop-color:#60A1E5"/>
			</linearGradient>
			<path fill="url(#SVGID_18_)" d="M841.6,299.3c-1.3,1.8-3.1,3.3-5.3,4.1c-0.8,0.3-1.6,0.5-2.5,0.6c-5.2,0.7-10.4-2.3-12.3-7.3
				l-19-51.1c-0.5-1.3-0.7-2.7-0.7-4c0-4.7,2.8-9.1,7.5-10.8c3.3-1.3,6.8-0.8,9.7,0.8c2.2,1.3,4.1,3.4,5.1,6l1.1,3l16.2,43.5
				l1.6,4.3l0.1,0.3C844.4,292.3,843.8,296.2,841.6,299.3z"/>
			<path fill="#FFFFFF" stroke="#000000" stroke-miterlimit="10" d="M606.5,422.9c-0.1-0.1-0.1-0.3-0.2-0.4
				C606.4,422.6,606.4,422.7,606.5,422.9z"/>
		</g>
	</g>
	<path clip-path="url(#SVGID_2_)" fill="#FFFFFF" d="M261.5,126.5c0,0,10.8-12.1,21.6,0.7c0,0,10.8-10.1,19.5,0
		c0,0-12.5-2.7-19.9,8.8C282.7,135.9,272.2,121.1,261.5,126.5z"/>
	<path clip-path="url(#SVGID_2_)" fill="#FFFFFF" d="M392.7,100.2c0,0,12.8-14.4,25.6,0.8c0,0,12.8-12,23.2,0
		c0,0-14.8-3.2-23.6,10.4C417.9,111.4,405.5,93.8,392.7,100.2z"/>
	<path clip-path="url(#SVGID_2_)" fill="#FFFFFF" d="M211,15.5c0,0,8.3-17.4,24.8-6.4c0,0,8.9-15.1,22.3-6.5c0,0-15.1,1.1-19.7,16.6
		C238.3,19.2,221.5,5.8,211,15.5z"/>
</g>
</svg>
