<?xml version="1.0" encoding="utf-8"?>
<!-- Generator: Adobe Illustrator 24.0.1, SVG Export Plug-In . SVG Version: 6.00 Build 0)  -->
<svg version="1.1" id="Layer_1" xmlns="http://www.w3.org/2000/svg" xmlns:xlink="http://www.w3.org/1999/xlink" x="0px" y="0px"
	 viewBox="0 0 1444.7 750" enable-background="new 0 0 1444.7 750" xml:space="preserve">
<g>
	<defs>
		<rect id="SVGID_1_" width="1444.7" height="675"/>
	</defs>
	<clipPath id="SVGID_2_">
		<use xlink:href="#SVGID_1_"  overflow="visible"/>
	</clipPath>
	<g clip-path="url(#SVGID_2_)">
		
			<linearGradient id="SVGID_3_" gradientUnits="userSpaceOnUse" x1="1206.7965" y1="427.855" x2="1209.1675" y2="-60.69" gradientTransform="matrix(1 0 0 -1 0 676)">
			<stop  offset="0" style="stop-color:#FAFCFC"/>
			<stop  offset="1" style="stop-color:#FAFCFC;stop-opacity:0"/>
		</linearGradient>
		<path opacity="0.51" fill="url(#SVGID_3_)" enable-background="new    " d="M1273.5,59.5c-58.9,22.2-125.6,30-184.8,8.6
			c-31.6-11.4-62.4-31.2-95.9-27.7C958.6,44,931.8,71,912,99c-19.8,28-36.5,59.4-64,79.9c-29.5,22-71.6,32.1-86.5,65.8
			c-12.3,27.8,0.1,60.4,17.2,85.6c17.1,25.2,39.3,47.6,49.4,76.3c9.2,25.9,7.6,54.2,9.9,81.6c2.3,27.4,9.9,56.8,31.7,73.5
			c26,19.9,62.7,15.3,94.6,8.1c66.3-15,137.4-36.8,199.9-10.2c32.8,14,63.3,41.1,98.6,36.3c36.2-4.9,58.9-41.4,71.1-75.9
			c12.2-34.4,20.3-72.7,47.3-97.4c42.4-38.7,105.2-26.1,157-35.7c57.8-10.7,97.9-57.6,112.6-114.6
			c32.1-124.3-69.2-235.6-182.1-266.6C1387.1-16.7,1345.2,32.5,1273.5,59.5z"/>
		
			<linearGradient id="SVGID_4_" gradientUnits="userSpaceOnUse" x1="1112.97" y1="944.862" x2="1257.137" y2="65.778" gradientTransform="matrix(1 0 0 -1 0 676)">
			<stop  offset="0" style="stop-color:#F6F7F7"/>
			<stop  offset="1" style="stop-color:#FAFCFC;stop-opacity:0"/>
		</linearGradient>
		<path fill="url(#SVGID_4_)" d="M1275.6,132.8c-58.9,22.2-125.6,30-184.8,8.6c-31.6-11.4-62.4-31.2-95.9-27.7
			c-34.1,3.6-60.9,30.6-80.7,58.6c-19.8,28-36.5,59.4-64,79.9c-29.5,22-71.6,32.1-86.5,65.8c-12.3,27.8,0.1,60.4,17.2,85.6
			c17.1,25.2,39.3,47.6,49.4,76.3c9.2,25.9,7.6,54.2,9.9,81.6c2.3,27.4,9.9,56.8,31.7,73.5c26,19.9,62.7,15.3,94.6,8.1
			c66.3-15,137.4-36.8,199.9-10.2c32.8,14,63.3,41.1,98.6,36.3c36.2-4.9,58.9-41.4,71.1-75.9c12.2-34.4,20.3-72.7,47.3-97.4
			c42.4-38.7,105.2-26.1,157-35.7c57.8-10.7,97.9-57.6,112.6-114.6c32.1-124.3-69.2-235.6-182.1-266.6
			C1389.2,56.5,1347.3,105.8,1275.6,132.8z"/>
		
			<linearGradient id="SVGID_5_" gradientUnits="userSpaceOnUse" x1="811.206" y1="298.82" x2="2338.606" y2="329.348" gradientTransform="matrix(1 0 0 -1 0 676)">
			<stop  offset="0" style="stop-color:#61ADEA"/>
			<stop  offset="1" style="stop-color:#522EB5"/>
		</linearGradient>
		<path fill="url(#SVGID_5_)" d="M1737.5,339.4c-4,15.6-10.1,30.6-18.1,44.5c-9.4,16.5-21.9,31-36.8,42.7
			c-11.8,9.2-25.1,16.2-39.4,20.8c-5.2,1.7-10.4,3-15.7,4c-21.9,4.1-45.7,4.1-69.1,5.8c-25.6,1.9-50.6,5.9-71.8,19.5
			c-4.4,2.8-8.6,6.1-12.5,9.6c-2.1,1.9-4.1,3.9-6,6c-21.7,24-29.3,58.2-40.3,89.1c-11.9,33.6-34.1,69.3-69.4,74.1
			c-23.2,3.2-44.3-7.8-65.4-19.5c-0.4-0.2-0.8-0.5-1.2-0.7c-9.8-5.5-19.6-11-29.7-15.3c-56.8-24.2-120.8-7.4-181.6,6.8
			c-4.6,1.1-9.1,2.1-13.6,3.1c-31.2,7-67,11.5-92.4-7.9c-11.9-9.1-19.5-22.1-24.3-36.4c-1.5-4.7-2.8-9.4-3.8-14.2
			c-0.1-0.4-0.2-0.7-0.2-1.1c0-0.1-0.1-0.3-0.1-0.4c-1.2-6.5-2.1-13-2.7-19.6c-1.3-15.8-1.3-32-2.9-47.8c-0.1-1.4-0.3-2.8-0.5-4.2
			c-0.4-3.6-1-7.1-1.7-10.7c0-0.3-0.1-0.5-0.1-0.7c-0.2-1.1-0.4-2.2-0.7-3.2c-0.5-2.4-1.1-4.7-1.8-7c-0.5-1.6-1-3.3-1.5-4.9
			c-0.1-0.4-0.3-0.8-0.4-1.2c-0.2-0.7-0.5-1.3-0.7-2c-4.4-11.8-10.9-22.5-18.2-32.8c-5.8-8.2-12-16.2-18.1-24.3
			c-3.9-5.1-7.7-10.2-11.2-15.5c-16.7-24.6-28.8-56.4-16.8-83.6c11.2-25.5,38.3-37.1,63.4-51c7.3-3.9,14.3-8.4,21.1-13.2
			c4.2-3.1,8.2-6.5,11.9-10.1c0.3-0.3,0.7-0.6,1-1c0.3-0.3,0.6-0.6,0.9-0.9c7.9-8.1,15.1-16.8,21.6-26c6.1-8.5,11.9-17.4,17.7-26.2
			c3.1-4.7,6.2-9.3,9.5-13.9c4.5-6.4,9.3-12.6,14.5-18.5c17.3-19.8,38.7-36.1,64.4-38.8c9.5-0.9,19-0.2,28.2,2.1
			c16.7,3.9,33,11.6,49.3,18.5c2.9,1.2,5.8,2.4,8.6,3.6c2.5,1,5,2,7.5,2.9c7.9,2.9,16,5.2,24.2,7c5.6,1.3,11.3,2.3,17.1,3.1
			c10.2,1.4,20.5,2.2,30.8,2.2c27.2,0.2,54.7-4.1,81.1-11.6c0.5-0.1,0.9-0.3,1.4-0.4c8.8-2.6,17.5-5.4,26.1-8.7
			c8.7-3.3,16.9-6.9,24.8-10.6c12.9-6.1,24.9-12.6,36.6-18.8c19.7-10.4,38.6-19.9,59.3-24.9c11.9-2.9,24.1-4.2,36.3-3.7
			c11.4,0.5,22.8,2.3,33.8,5.5c4.7,1.3,9.4,2.7,14,4.3c10.6,3.6,21,7.9,31.1,12.8C1695,139.8,1764.5,234.9,1737.5,339.4z"/>
		
			<linearGradient id="SVGID_6_" gradientUnits="userSpaceOnUse" x1="856.5676" y1="130.0511" x2="1062.7115" y2="390.6321" gradientTransform="matrix(1 0 0 -1 0 676)">
			<stop  offset="0" style="stop-color:#FAFCFC"/>
			<stop  offset="1" style="stop-color:#FAFCFC;stop-opacity:0.302"/>
		</linearGradient>
		<path opacity="0.2" fill="url(#SVGID_6_)" enable-background="new    " d="M1212.3,146.9c-1.7,20.1-3.5,40.3-5.2,60.4
			c-4.6,53.5-11.9,112.5-52.3,147.8c-24.4,21.4-57,30.2-86.9,42.7c-48.9,20.3-92.7,51.7-129.5,89.9c0-0.3-0.1-0.5-0.1-0.7
			c-0.2-1.1-0.4-2.2-0.7-3.2c-0.5-2.4-1.1-4.7-1.8-7c-0.5-1.6-1-3.2-1.5-4.9c-0.1-0.4-0.3-0.8-0.4-1.2c-0.2-0.7-0.5-1.3-0.7-2
			c-4.4-11.8-10.9-22.5-18.2-32.8c20.4-38.5,25.1-84.3,22.3-128.2c-1-15.5-2.8-30.9-5.1-46.3c7.3-3.9,14.3-8.4,21.1-13.2
			c4.2-3.1,8.2-6.5,11.9-10.1c0.3-0.3,0.7-0.6,1-1c0.3-0.3,0.6-0.6,0.9-0.9c7.9-8.1,15.1-16.8,21.6-26c10.1,12.7,22.8,23,38,29.3
			c37.4,15.7,82.9,3.4,112.4-24.4c21.8-20.7,35.4-48.5,41.9-78c2.5,1,5,2,7.5,2.9C1196.1,142.7,1204.1,145.1,1212.3,146.9z"/>
		<g opacity="0.4">
			<path opacity="0.25" fill="#FFFFFF" enable-background="new    " d="M1179.7,470c-16,15.5-37,27.6-65.8,38.1
				c-18,6.6-36.9,11.7-55.1,16.7c-22.1,6-44.9,12.3-66.4,21c-16.4,6.6-31.8,15.2-46.1,25.7c-0.1-0.4-0.2-0.7-0.2-1.1
				c14.2-10.4,29.6-18.9,45.9-25.5c21.6-8.8,44.4-15,66.6-21.1c18.2-5,37-10.1,55-16.6c28.7-10.4,49.5-22.4,65.4-37.8
				c19.8-19.1,31-43.6,30.5-67.2c-0.6-32.3-21.5-63.6-62.2-92.8c-53.2-38.3-117-63.1-182.3-71.3c0.3-0.3,0.7-0.6,1-1
				c27.5,3.5,54.6,9.8,80.9,19c36,12.5,70.1,30.1,101.1,52.4c18.1,13,32.5,26.7,42.9,40.7c12.8,17.3,19.4,35.1,19.8,53
				C1211,425.9,1199.8,450.7,1179.7,470z"/>
			<path opacity="0.25" fill="#FFFFFF" enable-background="new    " d="M1457.3,406.5c-2.9,16.1-9.3,31.4-18.8,44.7
				c-9.5,13.4-21.9,24.4-36.2,32.4c-12.2,6.7-26,11.2-39.4,15.6c-23.6,7.7-45.9,15.1-60.9,33.4c-12.5,15.3-18.2,37.9-16.1,63.7
				c1.1,13.4,4,26.7,7.2,39.7c-0.4-0.2-0.8-0.5-1.2-0.7c-3.1-12.7-5.9-25.8-7-38.9c-2.2-26,3.6-48.9,16.3-64.4
				c15.2-18.6,38.7-26.3,61.4-33.7c13.3-4.4,27.1-8.9,39.2-15.5c28.2-15.4,49.1-44.7,54.5-76.4s-4.5-66.2-25.9-90.2
				c-12.2-13.6-28.1-24.5-43.5-35.1c-26-17.8-50.5-34.6-59.1-63.4c-7.8-26.3,1.4-53.7,13.5-77.1c0.5-0.1,0.9-0.3,1.4-0.4
				c-12.2,23.4-21.7,50.9-13.9,77.2c8.5,28.4,32.8,45.1,58.7,62.8c15.5,10.6,31.4,21.6,43.7,35.3c10.9,12.3,18.8,26.8,23.3,42.6
				C1459,373.8,1460,390.3,1457.3,406.5z"/>
		</g>
		<g opacity="0.1">
			<path opacity="0.1" fill="#FFFFFF" enable-background="new    " d="M1047.6,485.5c-0.6,0.7-1.2,2-1.8,2.6
				c-2.7,3.4-5.8,5.4-10.2,5.5c-4.4,0.2-7.7-1.7-10.7-4.8c-0.1-0.1-0.3-0.4-0.4-0.5c-2.2-2.3-4.6-3.6-7.9-3.5
				c-3.2,0.1-5.6,1.6-7.6,4.1c-0.1,0.2-0.3,0.5-0.5,0.7c-2.8,3.4-6,5.4-10.4,5.6s-7.9-1.6-10.9-4.8c-0.3-0.3-0.7-0.9-1-1.2
				c-1-1.1-2.2-2.1-3.6-2.7s-2.9-0.9-4.4-0.8c-1.5,0.1-3,0.5-4.3,1.2c-1.3,0.7-2.5,1.7-3.4,2.9c-0.2,0.2-0.4,0.7-0.6,0.9
				c-1.3,1.7-2.8,3-4.7,4c-1.8,1-3.9,1.5-5.9,1.7h0c-2.1,0-4.1-0.4-6-1.2c-1.9-0.8-3.6-2.1-5-3.6c-0.3-0.3-0.6-0.8-0.9-1.1
				c-1-1.2-2.3-2.1-3.7-2.7c-1.4-0.6-2.9-0.9-4.5-0.8c-0.4,0-0.7,0-1,0.1c-0.2-1.1-0.4-2.2-0.7-3.2c0.5-0.1,1.1-0.1,1.6-0.1
				c4.5-0.2,7.9,1.6,11.1,4.8c0.3,0.3,0.6,0.8,0.9,1.1c1,1.1,2.3,2.1,3.7,2.7c1.4,0.6,2.9,0.9,4.4,0.8c1.5-0.1,3-0.5,4.4-1.2
				c1.3-0.7,2.5-1.7,3.4-2.9c0.2-0.2,0.4-0.7,0.6-0.9c2.8-3.4,6.1-5.4,10.5-5.6c4.5-0.2,7.9,1.6,10.9,4.8c0.3,0.3,0.7,0.9,1,1.3
				c1,1.1,2.2,2.1,3.6,2.7c1.4,0.6,2.9,0.9,4.4,0.8c3.3-0.1,5.6-1.6,7.6-4.1c0.1-0.2,0.4-0.6,0.5-0.7c1.5-1.9,8.5-9.9,10.4-5.7
				c2,0,4.1,0.4,5.9,1.3c1.9,0.9,3.5,2.1,4.9,3.6c0.1,0.1,0.3,0.4,0.4,0.5c2.2,2.3,4.6,3.7,7.8,3.6c3.2-0.1,5.5-1.5,7.5-4.1
				c0.5-0.7,1.2-1.9,1.8-2.6C1045.7,484.2,1046.7,484.8,1047.6,485.5z"/>
		</g>
		<g opacity="0.1">
			<path opacity="0.1" fill="#FFFFFF" enable-background="new    " d="M1046.9,469.2c-0.5,0.7-1.2,1.9-1.8,2.6
				c-2.7,3.4-5.8,5.4-10.2,5.5c-4.4,0.2-7.7-1.7-10.7-4.8c-0.1-0.1-0.3-0.4-0.4-0.5c-2.2-2.3-4.7-3.6-7.9-3.5
				c-3.2,0.1-5.6,1.6-7.6,4.1c-0.1,0.2-0.3,0.5-0.5,0.7c-2.8,3.4-5.9,5.4-10.4,5.6c-4.4,0.2-7.9-1.6-10.9-4.8
				c-0.3-0.3-0.7-0.9-1-1.3c-1-1.1-2.2-2-3.6-2.7c-1.4-0.6-2.9-0.9-4.4-0.8c-1.5,0.1-3,0.5-4.3,1.2c-1.3,0.7-2.5,1.7-3.4,2.9
				c-0.2,0.2-0.5,0.7-0.6,0.9c-1.3,1.6-2.8,3-4.7,4c-1.8,1-3.8,1.5-5.9,1.7c-2.1,0-4.1-0.4-6-1.2c-1.9-0.8-3.6-2.1-5-3.6
				c-0.3-0.3-0.6-0.8-0.9-1.1c-1-1.1-2.2-2.1-3.6-2.7c-1.4-0.6-2.9-0.9-4.4-0.8c-1.6,0-3.1,0.4-4.5,1.2c-0.1-0.4-0.3-0.8-0.4-1.2
				c-0.2-0.7-0.5-1.3-0.7-2c1.7-0.8,3.6-1.3,5.5-1.3c4.5-0.2,7.9,1.6,11,4.8c0.3,0.3,0.6,0.8,0.9,1.1c1,1.1,2.2,2.1,3.6,2.7
				c1.4,0.6,2.9,0.9,4.4,0.8c1.5-0.1,3-0.5,4.3-1.2c1.3-0.7,2.5-1.7,3.4-2.9c0.2-0.2,0.5-0.7,0.6-0.9c2.8-3.4,6-5.4,10.5-5.6
				c4.5-0.2,7.9,1.6,10.9,4.8c0.3,0.3,0.7,0.9,1,1.3c1,1.1,2.2,2,3.6,2.6c1.4,0.6,2.9,0.9,4.4,0.8c1.5-0.1,3-0.5,4.3-1.2
				c1.3-0.7,2.5-1.7,3.3-2.9c0.1-0.2,0.4-0.6,0.5-0.7c1.5-1.9,8.5-9.9,10.4-5.7v0c2,0,4.1,0.4,5.9,1.2s3.5,2.1,4.9,3.6
				c0.1,0.1,0.3,0.4,0.4,0.5c2.2,2.3,4.6,3.7,7.9,3.5c1.5,0,2.9-0.4,4.2-1.1c1.3-0.7,2.4-1.7,3.3-2.9c0.5-0.7,1.2-1.9,1.8-2.6
				C1045.1,467.9,1046,468.6,1046.9,469.2z"/>
		</g>
		
			<linearGradient id="SVGID_7_" gradientUnits="userSpaceOnUse" x1="939.9845" y1="131.0926" x2="1468.0935" y2="131.0926" gradientTransform="matrix(1 0 0 -1 0 676)">
			<stop  offset="9.800000e-02" style="stop-color:#000000"/>
			<stop  offset="1" style="stop-color:#FFFFFF;stop-opacity:0"/>
		</linearGradient>
		<path opacity="0.15" fill="url(#SVGID_7_)" enable-background="new    " d="M1468.1,492.3c-21.7,24-29.3,58.2-40.3,89.1
			c-11.9,33.6-34.1,69.3-69.4,74.1c-23.2,3.2-44.3-7.8-65.4-19.5c-0.4-0.2-0.8-0.5-1.2-0.7c-9.8-5.5-19.6-11-29.7-15.3
			c-56.8-24.2-120.8-7.4-181.6,6.8c-4.6,1.1-9.1,2.1-13.6,3.1c-31.2,7-67,11.5-92.4-7.9c-11.9-9.1-19.5-22.1-24.3-36.4
			c-1.5-4.7-2.8-9.4-3.8-14.2c-0.1-0.4-0.2-0.7-0.2-1.1c0-0.1-0.1-0.3-0.1-0.4c-1.2-6.5-2.1-13-2.7-19.6c-1.3-15.8-1.3-32-2.9-47.8
			c-0.1-1.4-0.3-2.8-0.5-4.2c11.4-0.3,22.8,0.6,34,2.6c25.2,4.3,50.5,11.7,75.8,8.7c35.2-4.1,64.7-27.3,94.4-46.7
			c29.7-19.4,65.6-36.3,99.6-26.1c26.6,8,45.6,30.7,65,50.7c19.4,20,43.9,39.3,71.7,36.9c18-1.5,33.7-11.9,49.6-20.4
			C1441.8,497.7,1455.1,492.3,1468.1,492.3z"/>
		<g opacity="0.1">
			<path opacity="0.1" fill="#FFFFFF" enable-background="new    " d="M1409.2,327.2c-0.2-0.2-0.4-0.4-0.6-0.7
				c-0.1-0.3-0.2-0.5-0.3-0.8c0-0.3,0-0.6,0.1-0.9c0.1-0.3,0.2-0.5,0.4-0.8c0.2-0.2,0.4-0.4,0.7-0.6c0.3-0.1,0.5-0.2,0.8-0.3
				c0.3,0,0.6,0,0.9,0.1c0.3,0.1,0.5,0.2,0.8,0.4c0.2,0.2,0.4,0.4,0.6,0.7c0.1,0.3,0.2,0.5,0.3,0.8c0,0.3,0,0.6-0.1,0.9
				c-0.1,0.3-0.2,0.5-0.4,0.8c-0.4,0.5-0.9,0.7-1.5,0.8C1410.3,327.7,1409.7,327.6,1409.2,327.2z"/>
			<g opacity="0.1">
				<g opacity="0.1">
					<g opacity="0.1">
						<path opacity="0.1" fill="#FFFFFF" enable-background="new    " d="M1420.6,329.2c-0.2-0.2-0.4-0.4-0.6-0.6s-0.2-0.5-0.3-0.8
							c0-0.3,0-0.6,0.1-0.9c0.1-0.3,0.2-0.5,0.4-0.8c0.2-0.2,0.4-0.4,0.7-0.6c0.3-0.1,0.5-0.2,0.8-0.3c0.3,0,0.6,0,0.9,0.1
							c0.3,0.1,0.5,0.2,0.8,0.4c0.5,0.4,0.7,0.9,0.8,1.5c0.1,0.6-0.1,1.2-0.5,1.6c-0.4,0.5-0.9,0.7-1.5,0.8
							C1421.6,329.7,1421.1,329.5,1420.6,329.2z M1413.7,337.9c-0.2-0.2-0.4-0.4-0.6-0.7c-0.1-0.3-0.2-0.5-0.3-0.8
							c0-0.3,0-0.6,0.1-0.9c0.1-0.3,0.2-0.5,0.4-0.8c0.2-0.2,0.4-0.4,0.7-0.6c0.3-0.1,0.5-0.2,0.8-0.3c0.3,0,0.6,0,0.9,0.1
							c0.3,0.1,0.5,0.2,0.8,0.4c0.5,0.4,0.7,0.9,0.8,1.5c0.1,0.6-0.1,1.2-0.5,1.6c-0.4,0.5-0.9,0.7-1.5,0.8
							C1414.7,338.4,1414.1,338.3,1413.7,337.9L1413.7,337.9z"/>
					</g>
				</g>
				<g opacity="0.1">
					<g opacity="0.1">
						<path opacity="0.1" fill="#FFFFFF" enable-background="new    " d="M1437,328c-0.2-0.2-0.4-0.4-0.6-0.7s-0.2-0.5-0.3-0.8
							c0-0.3,0-0.6,0.1-0.9s0.2-0.5,0.4-0.8c0.4-0.5,0.9-0.7,1.5-0.8c0.6-0.1,1.2,0.1,1.6,0.5c0.5,0.4,0.7,0.9,0.8,1.5
							c0.1,0.6-0.1,1.2-0.5,1.6c-0.4,0.5-0.9,0.7-1.5,0.8C1438,328.5,1437.5,328.3,1437,328z M1430.1,336.7
							c-0.2-0.2-0.4-0.4-0.6-0.7c-0.1-0.3-0.2-0.5-0.3-0.8c0-0.3,0-0.6,0.1-0.9s0.2-0.5,0.4-0.8c0.2-0.2,0.4-0.4,0.7-0.6
							c0.3-0.1,0.5-0.2,0.8-0.3c0.3,0,0.6,0,0.9,0.1c0.3,0.1,0.5,0.2,0.8,0.4c0.5,0.4,0.7,0.9,0.8,1.5c0.1,0.6-0.1,1.2-0.5,1.6
							c-0.4,0.5-0.9,0.7-1.5,0.8C1431.1,337.2,1430.5,337,1430.1,336.7z M1423.1,345.4c-0.2-0.2-0.4-0.4-0.6-0.7
							c-0.1-0.3-0.2-0.5-0.3-0.8c0-0.3,0-0.6,0.1-0.9c0.1-0.3,0.2-0.5,0.4-0.8c0.2-0.2,0.4-0.4,0.7-0.6c0.3-0.1,0.5-0.2,0.8-0.3
							c0.3,0,0.6,0,0.9,0.1c0.3,0.1,0.5,0.2,0.8,0.4c0.2,0.2,0.4,0.4,0.6,0.7c0.1,0.3,0.2,0.5,0.3,0.8c0,0.3,0,0.6-0.1,0.9
							c-0.1,0.3-0.2,0.5-0.4,0.8c-0.4,0.5-0.9,0.7-1.5,0.8C1424.1,345.9,1423.5,345.8,1423.1,345.4L1423.1,345.4z M1416.1,354.1
							c-0.5-0.4-0.7-0.9-0.8-1.5c-0.1-0.6,0.1-1.2,0.5-1.6c0.2-0.2,0.4-0.4,0.7-0.6c0.3-0.1,0.5-0.2,0.8-0.3c0.3,0,0.6,0,0.9,0.1
							c0.3,0.1,0.5,0.2,0.8,0.4c0.5,0.4,0.7,0.9,0.8,1.5c0.1,0.6-0.1,1.2-0.5,1.6c-0.4,0.5-0.9,0.7-1.5,0.8
							C1417.2,354.7,1416.6,354.5,1416.1,354.1L1416.1,354.1z"/>
					</g>
				</g>
				<g opacity="0.1">
					<g opacity="0.1">
						<path opacity="0.1" fill="#FFFFFF" enable-background="new    " d="M1453.1,326.5c-0.2-0.2-0.4-0.4-0.6-0.7
							c-0.1-0.3-0.2-0.5-0.3-0.8c0-0.3,0-0.6,0.1-0.9c0.1-0.3,0.2-0.5,0.4-0.8c0.4-0.5,0.9-0.7,1.5-0.8c0.6-0.1,1.2,0.1,1.6,0.5
							c0.2,0.2,0.4,0.4,0.6,0.7c0.1,0.3,0.2,0.5,0.3,0.8c0,0.3,0,0.6-0.1,0.9c-0.1,0.3-0.2,0.5-0.4,0.8c-0.2,0.2-0.4,0.4-0.7,0.6
							c-0.3,0.1-0.5,0.2-0.8,0.3c-0.3,0-0.6,0-0.9-0.1C1453.6,326.8,1453.3,326.7,1453.1,326.5z M1446.1,335.2
							c-0.2-0.2-0.4-0.4-0.6-0.7c-0.1-0.3-0.2-0.5-0.3-0.8c0-0.3,0-0.6,0.1-0.9c0.1-0.3,0.2-0.5,0.4-0.8c0.4-0.5,0.9-0.7,1.5-0.8
							c0.6-0.1,1.2,0.1,1.6,0.5c0.2,0.2,0.4,0.4,0.6,0.7c0.1,0.3,0.2,0.5,0.3,0.8c0,0.3,0,0.6-0.1,0.9c-0.1,0.3-0.2,0.5-0.4,0.8
							c-0.2,0.2-0.4,0.4-0.7,0.6c-0.3,0.1-0.5,0.2-0.8,0.3c-0.3,0-0.6,0-0.9-0.1C1446.6,335.6,1446.4,335.4,1446.1,335.2
							L1446.1,335.2z M1439.2,344c-0.5-0.4-0.7-0.9-0.8-1.5c-0.1-0.6,0.1-1.2,0.5-1.6c0.2-0.2,0.4-0.4,0.7-0.6
							c0.3-0.1,0.5-0.2,0.8-0.3c0.3,0,0.6,0,0.9,0.1c0.3,0.1,0.5,0.2,0.8,0.4c0.2,0.2,0.4,0.4,0.6,0.7c0.1,0.3,0.2,0.5,0.3,0.8
							c0,0.3,0,0.6-0.1,0.9c-0.1,0.3-0.2,0.5-0.4,0.8c-0.2,0.2-0.4,0.4-0.7,0.6c-0.3,0.1-0.5,0.2-0.8,0.3c-0.3,0-0.6,0-0.9-0.1
							C1439.7,344.3,1439.4,344.2,1439.2,344L1439.2,344z M1432.2,352.7c-0.5-0.4-0.7-0.9-0.8-1.5c-0.1-0.6,0.1-1.2,0.5-1.6
							c0.4-0.5,0.9-0.7,1.5-0.8c0.6-0.1,1.2,0.1,1.6,0.5c0.2,0.2,0.4,0.4,0.6,0.7c0.1,0.3,0.2,0.5,0.3,0.8s0,0.6-0.1,0.9
							s-0.2,0.5-0.4,0.8c-0.2,0.2-0.4,0.4-0.7,0.6c-0.3,0.1-0.5,0.2-0.8,0.3c-0.3,0-0.6,0-0.9-0.1
							C1432.7,353,1432.4,352.9,1432.2,352.7z M1425.3,361.4c-0.5-0.4-0.7-0.9-0.8-1.5c-0.1-0.6,0.1-1.2,0.5-1.6
							c0.4-0.5,0.9-0.7,1.5-0.8c0.6-0.1,1.2,0.1,1.6,0.5c0.2,0.2,0.4,0.4,0.6,0.7c0.1,0.3,0.2,0.5,0.3,0.8c0,0.3,0,0.6-0.1,0.9
							c-0.1,0.3-0.2,0.5-0.4,0.8c-0.4,0.5-0.9,0.7-1.5,0.8C1426.3,362,1425.7,361.8,1425.3,361.4L1425.3,361.4z M1418.3,370.1
							c-0.5-0.4-0.7-0.9-0.8-1.5c-0.1-0.6,0.1-1.2,0.5-1.6c0.4-0.5,0.9-0.7,1.5-0.8c0.6-0.1,1.2,0.1,1.6,0.5
							c0.5,0.4,0.7,0.9,0.8,1.5c0.1,0.6-0.1,1.2-0.5,1.6c-0.4,0.5-0.9,0.7-1.5,0.8C1419.3,370.7,1418.8,370.5,1418.3,370.1
							L1418.3,370.1z"/>
					</g>
				</g>
				<g opacity="0.1">
					<g opacity="0.1">
						<path opacity="0.1" fill="#FFFFFF" enable-background="new    " d="M1469.5,325.3c-0.2-0.2-0.4-0.4-0.6-0.7
							c-0.1-0.3-0.2-0.5-0.3-0.8c0-0.3,0-0.6,0.1-0.9c0.1-0.3,0.2-0.5,0.4-0.8c0.2-0.2,0.4-0.4,0.7-0.6c0.3-0.1,0.5-0.2,0.8-0.3
							c0.3,0,0.6,0,0.9,0.1c0.3,0.1,0.5,0.2,0.8,0.4c0.5,0.4,0.7,0.9,0.8,1.5c0.1,0.6-0.1,1.2-0.5,1.6c-0.4,0.5-0.9,0.7-1.5,0.8
							C1470.5,325.9,1469.9,325.7,1469.5,325.3z M1462.5,334c-0.2-0.2-0.4-0.4-0.6-0.7c-0.1-0.3-0.2-0.5-0.3-0.8
							c0-0.3,0-0.6,0.1-0.9c0.1-0.3,0.2-0.5,0.4-0.8c0.2-0.2,0.4-0.4,0.7-0.6c0.3-0.1,0.5-0.2,0.8-0.3c0.3,0,0.6,0,0.9,0.1
							c0.3,0.1,0.5,0.2,0.8,0.4c0.5,0.4,0.7,0.9,0.8,1.5c0.1,0.6-0.1,1.2-0.5,1.6c-0.2,0.2-0.4,0.4-0.7,0.6
							c-0.3,0.1-0.5,0.2-0.8,0.3c-0.3,0-0.6,0-0.9-0.1C1463,334.4,1462.8,334.2,1462.5,334L1462.5,334z M1455.6,342.8
							c-0.2-0.2-0.4-0.4-0.6-0.7c-0.1-0.3-0.2-0.5-0.3-0.8c0-0.3,0-0.6,0.1-0.9c0.1-0.3,0.2-0.5,0.4-0.8c0.4-0.5,0.9-0.7,1.5-0.8
							s1.2,0.1,1.6,0.5c0.5,0.4,0.7,0.9,0.8,1.5c0.1,0.6-0.1,1.2-0.5,1.6c-0.2,0.2-0.4,0.4-0.7,0.6c-0.3,0.1-0.5,0.2-0.8,0.3
							c-0.3,0-0.6,0-0.9-0.1S1455.8,343,1455.6,342.8L1455.6,342.8z M1448.6,351.5c-0.5-0.4-0.7-0.9-0.8-1.5
							c-0.1-0.6,0.1-1.2,0.5-1.6c0.2-0.2,0.4-0.4,0.7-0.6c0.3-0.1,0.5-0.2,0.8-0.3c0.3,0,0.6,0,0.9,0.1c0.3,0.1,0.5,0.2,0.8,0.4
							c0.5,0.4,0.7,0.9,0.8,1.5c0.1,0.6-0.1,1.2-0.5,1.6c-0.4,0.5-0.9,0.7-1.5,0.8C1449.6,352,1449.1,351.9,1448.6,351.5
							L1448.6,351.5z M1441.7,360.2c-0.5-0.4-0.7-0.9-0.8-1.5c-0.1-0.6,0.1-1.2,0.5-1.6c0.2-0.2,0.4-0.4,0.7-0.6
							c0.3-0.1,0.5-0.2,0.8-0.3c0.3,0,0.6,0,0.9,0.1c0.3,0.1,0.5,0.2,0.8,0.4c0.5,0.4,0.7,0.9,0.8,1.5c0.1,0.6-0.1,1.2-0.5,1.6
							c-0.4,0.5-0.9,0.7-1.5,0.8C1442.7,360.8,1442.1,360.6,1441.7,360.2L1441.7,360.2z M1434.7,368.9c-0.2-0.2-0.4-0.4-0.6-0.7
							c-0.1-0.3-0.2-0.5-0.3-0.8c0-0.3,0-0.6,0.1-0.9c0.1-0.3,0.2-0.5,0.4-0.8c0.2-0.2,0.4-0.4,0.7-0.6c0.3-0.1,0.5-0.2,0.8-0.3
							c0.3,0,0.6,0,0.9,0.1c0.3,0.1,0.5,0.2,0.8,0.4c0.5,0.4,0.7,0.9,0.8,1.5c0.1,0.6-0.1,1.2-0.5,1.6c-0.4,0.5-0.9,0.7-1.5,0.8
							C1435.7,369.5,1435.2,369.3,1434.7,368.9L1434.7,368.9z M1427.7,377.7c-0.2-0.2-0.4-0.4-0.6-0.7c-0.1-0.3-0.2-0.5-0.3-0.8
							c0-0.3,0-0.6,0.1-0.9c0.1-0.3,0.2-0.5,0.4-0.8c0.2-0.2,0.4-0.4,0.7-0.6c0.3-0.1,0.5-0.2,0.8-0.3c0.3,0,0.6,0,0.9,0.1
							c0.3,0.1,0.5,0.2,0.8,0.4c0.5,0.4,0.7,0.9,0.8,1.5c0.1,0.6-0.1,1.2-0.5,1.6c-0.2,0.2-0.4,0.4-0.7,0.6
							c-0.3,0.1-0.5,0.2-0.8,0.3c-0.3,0-0.6,0-0.9-0.1C1428.2,378,1428,377.8,1427.7,377.7L1427.7,377.7z M1420.8,386.4
							c-0.2-0.2-0.4-0.4-0.6-0.7c-0.1-0.3-0.2-0.5-0.3-0.8c0-0.3,0-0.6,0.1-0.9c0.1-0.3,0.2-0.5,0.4-0.8c0.2-0.2,0.4-0.4,0.7-0.6
							c0.3-0.1,0.5-0.2,0.8-0.3c0.3,0,0.6,0,0.9,0.1c0.3,0.1,0.5,0.2,0.8,0.4c0.5,0.4,0.7,0.9,0.8,1.5c0.1,0.6-0.1,1.2-0.5,1.6
							c-0.2,0.2-0.4,0.4-0.7,0.6c-0.3,0.1-0.5,0.2-0.8,0.3c-0.3,0-0.6,0-0.9-0.1C1421.3,386.7,1421,386.6,1420.8,386.4L1420.8,386.4
							z"/>
					</g>
				</g>
				<g opacity="0.1">
					<g opacity="0.1">
						<path opacity="0.1" fill="#FFFFFF" enable-background="new    " d="M1485,323.4c-0.5-0.4-0.7-0.9-0.8-1.5
							c-0.1-0.6,0.1-1.2,0.5-1.6c0.2-0.2,0.4-0.4,0.7-0.6c0.3-0.1,0.5-0.2,0.8-0.3c0.3,0,0.6,0,0.9,0.1c0.3,0.1,0.5,0.2,0.8,0.4
							c0.2,0.2,0.4,0.4,0.6,0.7c0.1,0.3,0.2,0.5,0.3,0.8c0,0.3,0,0.6-0.1,0.9c-0.1,0.3-0.2,0.5-0.4,0.8c-0.2,0.2-0.4,0.4-0.7,0.6
							s-0.5,0.2-0.8,0.3c-0.3,0-0.6,0-0.9-0.1C1485.5,323.7,1485.2,323.6,1485,323.4z M1478.1,332.2c-0.5-0.4-0.7-0.9-0.8-1.5
							c-0.1-0.6,0.1-1.2,0.5-1.6c0.2-0.2,0.4-0.4,0.7-0.6c0.3-0.1,0.5-0.2,0.8-0.3c0.3,0,0.6,0,0.9,0.1c0.3,0.1,0.5,0.2,0.8,0.4
							c0.2,0.2,0.4,0.4,0.6,0.7c0.1,0.3,0.2,0.5,0.3,0.8c0,0.3,0,0.6-0.1,0.9c-0.1,0.3-0.2,0.5-0.4,0.8c-0.2,0.2-0.4,0.4-0.7,0.6
							c-0.3,0.1-0.5,0.2-0.8,0.3c-0.3,0-0.6,0-0.9-0.1C1478.5,332.5,1478.3,332.3,1478.1,332.2L1478.1,332.2z M1471.1,340.9
							c-0.5-0.4-0.7-0.9-0.8-1.5c-0.1-0.6,0.1-1.2,0.5-1.6c0.4-0.5,0.9-0.7,1.5-0.8c0.6-0.1,1.2,0.1,1.6,0.5
							c0.5,0.4,0.7,0.9,0.8,1.5c0.1,0.6-0.1,1.2-0.5,1.6c-0.2,0.2-0.4,0.4-0.7,0.6c-0.3,0.1-0.5,0.2-0.8,0.3c-0.3,0-0.6,0-0.9-0.1
							C1471.6,341.2,1471.3,341.1,1471.1,340.9L1471.1,340.9z M1464.1,349.6c-0.2-0.2-0.4-0.4-0.6-0.7c-0.1-0.3-0.2-0.5-0.3-0.8
							c0-0.3,0-0.6,0.1-0.9c0.1-0.3,0.2-0.5,0.4-0.8c0.4-0.5,0.9-0.7,1.5-0.8c0.6-0.1,1.2,0.1,1.6,0.5c0.2,0.2,0.4,0.4,0.6,0.7
							c0.1,0.3,0.2,0.5,0.3,0.8c0,0.3,0,0.6-0.1,0.9c-0.1,0.3-0.2,0.5-0.4,0.8c-0.2,0.2-0.4,0.4-0.7,0.6c-0.3,0.1-0.5,0.2-0.8,0.3
							c-0.3,0-0.6,0-0.9-0.1C1464.6,349.9,1464.4,349.8,1464.1,349.6L1464.1,349.6z M1457.2,358.3c-0.5-0.4-0.7-0.9-0.8-1.5
							c-0.1-0.6,0.1-1.2,0.5-1.6c0.4-0.5,0.9-0.7,1.5-0.8c0.6-0.1,1.2,0.1,1.6,0.5c0.2,0.2,0.4,0.4,0.6,0.6c0.1,0.3,0.2,0.5,0.3,0.8
							s0,0.6-0.1,0.9c-0.1,0.3-0.2,0.5-0.4,0.8c-0.2,0.2-0.4,0.4-0.7,0.6c-0.3,0.1-0.5,0.2-0.8,0.3c-0.3,0-0.6,0-0.9-0.1
							C1457.7,358.6,1457.4,358.5,1457.2,358.3L1457.2,358.3z M1450.2,367.1c-0.5-0.4-0.7-0.9-0.8-1.5c-0.1-0.6,0.1-1.2,0.5-1.6
							c0.4-0.5,0.9-0.7,1.5-0.8s1.2,0.1,1.6,0.5c0.2,0.2,0.4,0.4,0.6,0.7c0.1,0.3,0.2,0.5,0.3,0.8c0,0.3,0,0.6-0.1,0.9
							c-0.1,0.3-0.2,0.5-0.4,0.8c-0.2,0.2-0.4,0.4-0.7,0.6c-0.3,0.1-0.5,0.2-0.8,0.3c-0.3,0-0.6,0-0.9-0.1
							C1450.7,367.4,1450.4,367.2,1450.2,367.1L1450.2,367.1z M1443.3,375.8c-0.5-0.4-0.7-0.9-0.8-1.5c-0.1-0.6,0.1-1.2,0.5-1.6
							c0.2-0.2,0.4-0.4,0.7-0.6c0.3-0.1,0.5-0.2,0.8-0.3c0.3,0,0.6,0,0.9,0.1c0.3,0.1,0.5,0.2,0.8,0.4c0.2,0.2,0.4,0.4,0.6,0.7
							c0.1,0.3,0.2,0.5,0.3,0.8c0,0.3,0,0.6-0.1,0.9c-0.1,0.3-0.2,0.5-0.4,0.8c-0.4,0.5-0.9,0.7-1.5,0.8
							C1444.3,376.3,1443.7,376.1,1443.3,375.8L1443.3,375.8z M1436.3,384.5c-0.2-0.2-0.4-0.4-0.6-0.7c-0.1-0.3-0.2-0.5-0.3-0.8
							c0-0.3,0-0.6,0.1-0.9c0.1-0.3,0.2-0.5,0.4-0.8c0.4-0.5,0.9-0.7,1.5-0.8c0.6-0.1,1.2,0.1,1.6,0.5c0.5,0.4,0.7,0.9,0.8,1.5
							c0.1,0.6-0.1,1.2-0.5,1.6c-0.2,0.2-0.4,0.4-0.7,0.6c-0.3,0.1-0.5,0.2-0.8,0.3c-0.3,0-0.6,0-0.9-0.1
							C1436.8,384.8,1436.5,384.7,1436.3,384.5L1436.3,384.5z M1429.3,393.2c-0.2-0.2-0.4-0.4-0.6-0.7c-0.1-0.3-0.2-0.5-0.3-0.8
							c0-0.3,0-0.6,0.1-0.9c0.1-0.3,0.2-0.5,0.4-0.8c0.4-0.5,0.9-0.7,1.5-0.8s1.2,0.1,1.6,0.5c0.2,0.2,0.4,0.4,0.6,0.7
							c0.1,0.3,0.2,0.5,0.3,0.8c0,0.3,0,0.6-0.1,0.9c-0.1,0.3-0.2,0.5-0.4,0.8c-0.2,0.2-0.4,0.4-0.7,0.6c-0.3,0.1-0.5,0.2-0.8,0.3
							c-0.3,0-0.6,0-0.9-0.1C1429.8,393.5,1429.6,393.4,1429.3,393.2L1429.3,393.2z M1422.4,401.9c-0.5-0.4-0.7-0.9-0.8-1.5
							c-0.1-0.6,0.1-1.2,0.5-1.6c0.4-0.5,0.9-0.7,1.5-0.8c0.6-0.1,1.2,0.1,1.6,0.5c0.2,0.2,0.4,0.4,0.6,0.7c0.1,0.3,0.2,0.5,0.3,0.8
							c0,0.3,0,0.6-0.1,0.9c-0.1,0.3-0.2,0.5-0.4,0.8c-0.2,0.2-0.4,0.4-0.7,0.5s-0.5,0.2-0.8,0.3c-0.3,0-0.6,0-0.8-0.1
							C1422.9,402.3,1422.6,402.1,1422.4,401.9L1422.4,401.9z"/>
					</g>
				</g>
			</g>
		</g>
		<g opacity="0.1">
			<path opacity="0.1" fill="#FFFFFF" enable-background="new    " d="M1231.4,277.2c0.2,0.3,0.3,0.7,0.3,1.1c0,0.4,0,0.7-0.1,1.1
				c-0.1,0.4-0.3,0.7-0.6,1c-0.2,0.3-0.5,0.5-0.9,0.7c-0.3,0.2-0.7,0.3-1.1,0.3c-0.4,0-0.7,0-1.1-0.1c-0.4-0.1-0.7-0.3-1-0.6
				c-0.3-0.2-0.5-0.5-0.7-0.9c-0.2-0.3-0.3-0.7-0.3-1.1c0-0.4,0-0.7,0.1-1.1c0.1-0.4,0.3-0.7,0.6-1c0.2-0.3,0.5-0.5,0.9-0.7
				c0.7-0.3,1.5-0.4,2.2-0.1C1230.5,276,1231.1,276.5,1231.4,277.2z"/>
			<g opacity="0.1">
				<g opacity="0.1">
					<g opacity="0.1">
						<path opacity="0.1" fill="#FFFFFF" enable-background="new    " d="M1219.1,268.6c0.2,0.3,0.3,0.7,0.3,1.1
							c0,0.4,0,0.7-0.1,1.1c-0.1,0.4-0.3,0.7-0.5,1c-0.2,0.3-0.5,0.5-0.9,0.7c-0.3,0.2-0.7,0.3-1.1,0.3c-0.4,0-0.7,0-1.1-0.1
							c-0.4-0.1-0.7-0.3-1-0.6c-0.3-0.2-0.5-0.5-0.7-0.9c-0.3-0.7-0.4-1.5-0.1-2.2s0.8-1.3,1.4-1.6c0.7-0.3,1.5-0.4,2.2-0.1
							C1218.2,267.5,1218.8,268,1219.1,268.6z M1232.1,262.2c0.2,0.3,0.3,0.7,0.3,1.1c0,0.4,0,0.7-0.1,1.1c-0.1,0.4-0.3,0.7-0.6,1
							c-0.2,0.3-0.5,0.5-0.9,0.7c-0.3,0.2-0.7,0.3-1.1,0.3c-0.4,0-0.7,0-1.1-0.1c-0.4-0.1-0.7-0.3-1-0.6c-0.3-0.2-0.5-0.5-0.7-0.9
							c-0.3-0.7-0.4-1.5-0.1-2.2c0.2-0.7,0.8-1.3,1.4-1.6c0.7-0.3,1.5-0.4,2.2-0.1C1231.2,261,1231.8,261.6,1232.1,262.2
							L1232.1,262.2z"/>
					</g>
				</g>
				<g opacity="0.1">
					<g opacity="0.1">
						<path opacity="0.1" fill="#FFFFFF" enable-background="new    " d="M1199.2,261c0.2,0.3,0.3,0.7,0.3,1.1c0,0.4,0,0.7-0.1,1.1
							c-0.1,0.4-0.3,0.7-0.6,1c-0.2,0.3-0.5,0.5-0.9,0.7c-0.7,0.3-1.5,0.4-2.2,0.1c-0.7-0.2-1.3-0.8-1.6-1.4
							c-0.3-0.7-0.4-1.5-0.1-2.2c0.2-0.7,0.8-1.3,1.4-1.6c0.7-0.3,1.5-0.4,2.2-0.1S1198.9,260.3,1199.2,261z M1212.2,254.6
							c0.2,0.3,0.3,0.7,0.3,1.1c0,0.4,0,0.7-0.1,1.1c-0.1,0.4-0.3,0.7-0.6,1c-0.2,0.3-0.5,0.5-0.9,0.7c-0.3,0.2-0.7,0.3-1.1,0.3
							c-0.4,0-0.7,0-1.1-0.1s-0.7-0.3-1-0.6c-0.3-0.2-0.5-0.5-0.7-0.9c-0.3-0.7-0.4-1.5-0.1-2.2c0.2-0.7,0.8-1.3,1.4-1.6
							c0.7-0.3,1.5-0.4,2.2-0.1C1211.3,253.4,1211.8,253.9,1212.2,254.6L1212.2,254.6z M1225.2,248.2c0.2,0.3,0.3,0.7,0.3,1.1
							c0,0.4,0,0.7-0.1,1.1c-0.1,0.4-0.3,0.7-0.6,1c-0.2,0.3-0.5,0.5-0.9,0.7c-0.3,0.2-0.7,0.3-1.1,0.3c-0.4,0-0.7,0-1.1-0.1
							c-0.4-0.1-0.7-0.3-1-0.6c-0.3-0.2-0.5-0.5-0.7-0.9c-0.2-0.3-0.3-0.7-0.3-1.1c0-0.4,0-0.7,0.1-1.1c0.1-0.4,0.3-0.7,0.6-1
							c0.2-0.3,0.5-0.5,0.9-0.7c0.7-0.3,1.5-0.4,2.2-0.1C1224.2,247,1224.8,247.5,1225.2,248.2z M1238.1,241.8
							c0.3,0.7,0.4,1.5,0.1,2.2c-0.2,0.7-0.8,1.3-1.4,1.6c-0.3,0.2-0.7,0.3-1.1,0.3c-0.4,0-0.7,0-1.1-0.1c-0.4-0.1-0.7-0.3-1-0.6
							c-0.3-0.2-0.5-0.5-0.7-0.9c-0.3-0.7-0.4-1.5-0.1-2.2c0.2-0.7,0.8-1.3,1.4-1.6c0.7-0.3,1.5-0.4,2.2-0.1
							C1237.2,240.6,1237.8,241.1,1238.1,241.8L1238.1,241.8z"/>
					</g>
				</g>
				<g opacity="0.1">
					<g opacity="0.1">
						<path opacity="0.1" fill="#FFFFFF" enable-background="new    " d="M1179.5,253.8c0.2,0.3,0.3,0.7,0.3,1.1
							c0,0.4,0,0.7-0.1,1.1c-0.1,0.4-0.3,0.7-0.6,1c-0.2,0.3-0.5,0.5-0.9,0.7c-0.7,0.3-1.5,0.4-2.2,0.1c-0.7-0.2-1.3-0.8-1.6-1.4
							c-0.2-0.3-0.3-0.7-0.3-1.1c0-0.4,0-0.7,0.1-1.1c0.1-0.4,0.3-0.7,0.6-1c0.2-0.3,0.5-0.5,0.9-0.7c0.3-0.2,0.7-0.3,1.1-0.3
							c0.4,0,0.7,0,1.1,0.1c0.4,0.1,0.7,0.3,1,0.6C1179.1,253.2,1179.3,253.5,1179.5,253.8z M1192.5,247.4c0.2,0.3,0.3,0.7,0.3,1.1
							c0,0.4,0,0.7-0.1,1.1c-0.1,0.4-0.3,0.7-0.6,1c-0.2,0.3-0.5,0.5-0.9,0.7c-0.7,0.3-1.5,0.4-2.2,0.1c-0.7-0.2-1.3-0.8-1.6-1.4
							c-0.2-0.3-0.3-0.7-0.3-1.1c0-0.4,0-0.7,0.1-1.1c0.1-0.4,0.3-0.7,0.6-1c0.2-0.3,0.5-0.5,0.9-0.7c0.3-0.2,0.7-0.3,1.1-0.3
							c0.4,0,0.7,0,1.1,0.1c0.4,0.1,0.7,0.3,1,0.6C1192.1,246.8,1192.3,247.1,1192.5,247.4L1192.5,247.4z M1205.5,241
							c0.3,0.7,0.4,1.5,0.1,2.2c-0.2,0.7-0.8,1.3-1.4,1.6c-0.3,0.2-0.7,0.3-1.1,0.3c-0.4,0-0.7,0-1.1-0.1c-0.4-0.1-0.7-0.3-1-0.6
							c-0.3-0.2-0.5-0.5-0.7-0.9c-0.2-0.3-0.3-0.7-0.3-1.1c0-0.4,0-0.7,0.1-1.1c0.1-0.4,0.3-0.7,0.6-1c0.2-0.3,0.5-0.5,0.9-0.7
							c0.3-0.2,0.7-0.3,1.1-0.3c0.4,0,0.7,0,1.1,0.1c0.4,0.1,0.7,0.3,1,0.6C1205.1,240.4,1205.3,240.7,1205.5,241L1205.5,241z
							 M1218.5,234.6c0.3,0.7,0.4,1.5,0.1,2.2c-0.2,0.7-0.8,1.3-1.4,1.6c-0.3,0.2-0.7,0.3-1.1,0.3c-0.4,0-0.7,0-1.1-0.1
							c-0.4-0.1-0.7-0.3-1-0.6s-0.5-0.5-0.7-0.9c-0.2-0.3-0.3-0.7-0.3-1.1c0-0.4,0-0.7,0.1-1.1c0.1-0.4,0.3-0.7,0.6-1
							c0.2-0.3,0.5-0.5,0.9-0.7c0.3-0.2,0.7-0.3,1.1-0.3c0.4,0,0.7,0,1.1,0.1c0.4,0.1,0.7,0.3,1,0.6
							C1218.1,234,1218.3,234.3,1218.5,234.6L1218.5,234.6z M1231.4,228.2c0.3,0.7,0.4,1.5,0.1,2.2c-0.2,0.7-0.8,1.3-1.4,1.6
							c-0.7,0.3-1.5,0.4-2.2,0.1s-1.3-0.8-1.6-1.4c-0.2-0.3-0.3-0.7-0.3-1.1c0-0.4,0-0.7,0.1-1.1c0.1-0.4,0.3-0.7,0.6-1
							c0.2-0.3,0.5-0.5,0.9-0.7c0.7-0.3,1.5-0.4,2.2-0.1C1230.5,227,1231.1,227.5,1231.4,228.2L1231.4,228.2z M1244.4,221.8
							c0.3,0.7,0.4,1.5,0.1,2.2c-0.2,0.7-0.8,1.3-1.4,1.6c-0.7,0.3-1.5,0.4-2.2,0.1c-0.7-0.2-1.3-0.8-1.6-1.4
							c-0.3-0.7-0.4-1.5-0.1-2.2c0.2-0.7,0.8-1.3,1.4-1.6c0.7-0.3,1.5-0.4,2.2-0.1C1243.5,220.6,1244.1,221.1,1244.4,221.8
							L1244.4,221.8z"/>
					</g>
				</g>
				<g opacity="0.1">
					<g opacity="0.1">
						<path opacity="0.1" fill="#FFFFFF" enable-background="new    " d="M1159.6,246.2c0.2,0.3,0.3,0.7,0.3,1.1
							c0,0.4,0,0.7-0.1,1.1c-0.1,0.4-0.3,0.7-0.6,1c-0.2,0.3-0.5,0.5-0.9,0.7c-0.3,0.2-0.7,0.3-1.1,0.3c-0.4,0-0.7,0-1.1-0.1
							c-0.4-0.1-0.7-0.3-1-0.6s-0.5-0.5-0.7-0.9c-0.3-0.7-0.4-1.5-0.1-2.2c0.2-0.7,0.8-1.3,1.4-1.6c0.7-0.3,1.5-0.4,2.2-0.1
							C1158.7,245,1159.3,245.5,1159.6,246.2z M1172.6,239.8c0.2,0.3,0.3,0.7,0.3,1.1c0,0.4,0,0.7-0.1,1.1c-0.1,0.4-0.3,0.7-0.6,1
							c-0.2,0.3-0.5,0.5-0.9,0.7c-0.3,0.2-0.7,0.3-1.1,0.3c-0.4,0-0.7,0-1.1-0.1c-0.4-0.1-0.7-0.3-1-0.6c-0.3-0.2-0.5-0.5-0.7-0.9
							c-0.3-0.7-0.4-1.5-0.1-2.2c0.2-0.7,0.8-1.3,1.4-1.6c0.3-0.2,0.7-0.3,1.1-0.3c0.4,0,0.7,0,1.1,0.1c0.4,0.1,0.7,0.3,1,0.6
							S1172.4,239.5,1172.6,239.8L1172.6,239.8z M1185.5,233.4c0.2,0.3,0.3,0.7,0.3,1.1c0,0.4,0,0.7-0.1,1.1c-0.1,0.4-0.3,0.7-0.6,1
							s-0.5,0.5-0.9,0.7c-0.3,0.2-0.7,0.3-1.1,0.3c-0.4,0-0.7,0-1.1-0.1s-0.7-0.3-1-0.6c-0.3-0.2-0.5-0.5-0.7-0.9
							c-0.3-0.7-0.4-1.5-0.1-2.2c0.2-0.7,0.8-1.3,1.4-1.6c0.7-0.3,1.5-0.4,2.2-0.1C1184.6,232.2,1185.2,232.7,1185.5,233.4z
							 M1198.5,227c0.2,0.3,0.3,0.7,0.3,1.1c0,0.4,0,0.7-0.1,1.1c-0.1,0.4-0.3,0.7-0.6,1c-0.2,0.3-0.5,0.5-0.9,0.7
							c-0.3,0.2-0.7,0.3-1.1,0.3c-0.4,0-0.7,0-1.1-0.1c-0.4-0.1-0.7-0.3-1-0.6c-0.3-0.2-0.5-0.5-0.7-0.9c-0.3-0.7-0.4-1.5-0.1-2.2
							c0.2-0.7,0.8-1.3,1.4-1.6c0.7-0.3,1.5-0.4,2.2-0.1C1197.6,225.8,1198.2,226.3,1198.5,227L1198.5,227z M1211.5,220.6
							c0.3,0.7,0.4,1.5,0.1,2.2c-0.2,0.7-0.8,1.3-1.4,1.6c-0.3,0.2-0.7,0.3-1.1,0.3c-0.4,0-0.7,0-1.1-0.1c-0.4-0.1-0.7-0.3-1-0.6
							c-0.3-0.2-0.5-0.5-0.7-0.9c-0.3-0.7-0.4-1.5-0.1-2.2c0.2-0.7,0.8-1.3,1.4-1.6c0.7-0.3,1.5-0.4,2.2-0.1
							C1210.6,219.4,1211.2,219.9,1211.5,220.6L1211.5,220.6z M1224.5,214.2c0.2,0.3,0.3,0.7,0.3,1.1c0,0.4,0,0.7-0.1,1.1
							c-0.1,0.4-0.3,0.7-0.6,1c-0.2,0.3-0.5,0.5-0.9,0.7c-0.3,0.2-0.7,0.3-1.1,0.3c-0.4,0-0.7,0-1.1-0.1c-0.4-0.1-0.7-0.3-1-0.6
							c-0.3-0.2-0.5-0.5-0.7-0.9c-0.3-0.7-0.4-1.5-0.1-2.2c0.2-0.7,0.8-1.3,1.4-1.6c0.7-0.3,1.5-0.4,2.2-0.1
							C1223.6,213,1224.2,213.5,1224.5,214.2L1224.5,214.2z M1237.5,207.7c0.2,0.3,0.3,0.7,0.3,1.1c0,0.4,0,0.7-0.1,1.1
							c-0.1,0.4-0.3,0.7-0.6,1c-0.2,0.3-0.5,0.5-0.9,0.7c-0.3,0.2-0.7,0.3-1.1,0.3c-0.4,0-0.7,0-1.1-0.1c-0.4-0.1-0.7-0.3-1-0.6
							c-0.3-0.2-0.5-0.5-0.7-0.9c-0.3-0.7-0.4-1.5-0.1-2.2c0.2-0.7,0.8-1.3,1.4-1.6c0.3-0.2,0.7-0.3,1.1-0.3c0.4,0,0.7,0,1.1,0.1
							c0.4,0.1,0.7,0.3,1,0.6C1237.1,207.1,1237.3,207.4,1237.5,207.7L1237.5,207.7z M1250.4,201.3c0.2,0.3,0.3,0.7,0.3,1.1
							c0,0.4,0,0.7-0.1,1.1s-0.3,0.7-0.6,1c-0.2,0.3-0.5,0.5-0.9,0.7c-0.3,0.2-0.7,0.3-1.1,0.3c-0.4,0-0.7,0-1.1-0.1
							c-0.4-0.1-0.7-0.3-1-0.6s-0.5-0.5-0.7-0.9c-0.3-0.7-0.4-1.5-0.1-2.2c0.2-0.7,0.8-1.3,1.4-1.6c0.3-0.2,0.7-0.3,1.1-0.3
							c0.4,0,0.7,0,1.1,0.1s0.7,0.3,1,0.6C1250.1,200.7,1250.3,201,1250.4,201.3L1250.4,201.3z"/>
					</g>
				</g>
				<g opacity="0.1">
					<g opacity="0.1">
						<path opacity="0.1" fill="#FFFFFF" enable-background="new    " d="M1140.3,239.9c0.3,0.7,0.4,1.5,0.1,2.2
							c-0.2,0.7-0.8,1.3-1.4,1.6c-0.3,0.2-0.7,0.3-1.1,0.3c-0.4,0-0.7,0-1.1-0.1c-0.4-0.1-0.7-0.3-1-0.6c-0.3-0.2-0.5-0.5-0.7-0.9
							c-0.2-0.3-0.3-0.7-0.3-1.1s0-0.7,0.1-1.1c0.1-0.4,0.3-0.7,0.6-1c0.2-0.3,0.5-0.5,0.9-0.7c0.3-0.2,0.7-0.3,1.1-0.3
							c0.4,0,0.7,0,1.1,0.1c0.4,0.1,0.7,0.3,1,0.6C1139.9,239.3,1140.2,239.6,1140.3,239.9z M1153.3,233.5c0.3,0.7,0.4,1.5,0.1,2.2
							c-0.2,0.7-0.8,1.3-1.4,1.6c-0.3,0.2-0.7,0.3-1.1,0.3c-0.4,0-0.7,0-1.1-0.1c-0.4-0.1-0.7-0.3-1-0.6c-0.3-0.2-0.5-0.5-0.7-0.9
							c-0.2-0.3-0.3-0.7-0.3-1.1c0-0.4,0-0.7,0.1-1.1c0.1-0.4,0.3-0.7,0.6-1c0.2-0.3,0.5-0.5,0.9-0.7c0.3-0.2,0.7-0.3,1.1-0.3
							c0.4,0,0.7,0,1.1,0.1c0.4,0.1,0.7,0.3,1,0.6C1152.9,232.8,1153.1,233.1,1153.3,233.5z M1166.3,227.1c0.3,0.7,0.4,1.5,0.1,2.2
							c-0.2,0.7-0.8,1.3-1.4,1.6c-0.7,0.3-1.5,0.4-2.2,0.1c-0.7-0.2-1.3-0.8-1.6-1.4c-0.3-0.7-0.4-1.5-0.1-2.2
							c0.2-0.7,0.8-1.3,1.4-1.6c0.3-0.2,0.7-0.3,1.1-0.3c0.4,0,0.7,0,1.1,0.1c0.4,0.1,0.7,0.3,1,0.6
							C1165.9,226.4,1166.1,226.7,1166.3,227.1L1166.3,227.1z M1179.3,220.7c0.2,0.3,0.3,0.7,0.3,1.1c0,0.4,0,0.7-0.1,1.1
							c-0.1,0.4-0.3,0.7-0.6,1c-0.2,0.3-0.5,0.5-0.9,0.7c-0.7,0.3-1.5,0.4-2.2,0.1c-0.7-0.2-1.3-0.8-1.6-1.4
							c-0.3-0.7-0.4-1.5-0.1-2.2c0.2-0.7,0.8-1.3,1.4-1.6c0.3-0.2,0.7-0.3,1.1-0.3c0.4,0,0.7,0,1.1,0.1c0.4,0.1,0.7,0.3,1,0.6
							S1179.1,220.3,1179.3,220.7z M1192.2,214.2c0.3,0.7,0.4,1.5,0.1,2.2c-0.2,0.7-0.8,1.3-1.4,1.6c-0.7,0.3-1.5,0.4-2.2,0.1
							c-0.7-0.2-1.3-0.8-1.6-1.4c-0.2-0.3-0.3-0.7-0.3-1.1c0-0.4,0-0.7,0.1-1.1c0.1-0.4,0.3-0.7,0.6-1c0.2-0.3,0.5-0.5,0.9-0.7
							c0.3-0.2,0.7-0.3,1.1-0.3s0.7,0,1.1,0.1c0.4,0.1,0.7,0.3,1,0.6C1191.8,213.6,1192.1,213.9,1192.2,214.2z M1205.2,207.8
							c0.3,0.7,0.4,1.5,0.1,2.2c-0.2,0.7-0.8,1.3-1.4,1.6c-0.7,0.3-1.5,0.4-2.2,0.1c-0.7-0.2-1.3-0.8-1.6-1.4
							c-0.2-0.3-0.3-0.7-0.3-1.1c0-0.4,0-0.7,0.1-1.1c0.1-0.4,0.3-0.7,0.6-1c0.2-0.3,0.5-0.5,0.9-0.7c0.7-0.3,1.5-0.4,2.2-0.1
							C1204.3,206.6,1204.9,207.2,1205.2,207.8L1205.2,207.8z M1218.2,201.4c0.3,0.7,0.4,1.5,0.1,2.2c-0.2,0.7-0.8,1.3-1.4,1.6
							c-0.7,0.3-1.5,0.4-2.2,0.1s-1.3-0.8-1.6-1.4c-0.2-0.3-0.3-0.7-0.3-1.1c0-0.4,0-0.7,0.1-1.1c0.1-0.4,0.3-0.7,0.6-1
							c0.2-0.3,0.5-0.5,0.9-0.7c0.3-0.2,0.7-0.3,1.1-0.3c0.4,0,0.7,0,1.1,0.1s0.7,0.3,1,0.6C1217.8,200.8,1218,201.1,1218.2,201.4
							L1218.2,201.4z M1231.2,195c0.2,0.3,0.3,0.7,0.3,1.1c0,0.4,0,0.7-0.1,1.1c-0.1,0.4-0.3,0.7-0.6,1c-0.2,0.3-0.5,0.5-0.9,0.7
							c-0.7,0.3-1.5,0.4-2.2,0.1c-0.7-0.2-1.3-0.8-1.6-1.4c-0.3-0.7-0.4-1.5-0.1-2.2c0.2-0.7,0.8-1.3,1.4-1.6
							c0.3-0.2,0.7-0.3,1.1-0.3c0.4,0,0.7,0,1.1,0.1c0.4,0.1,0.7,0.3,1,0.6C1230.8,194.4,1231,194.7,1231.2,195L1231.2,195z
							 M1244.2,188.6c0.3,0.7,0.4,1.5,0.1,2.2c-0.2,0.7-0.8,1.3-1.4,1.6c-0.7,0.3-1.5,0.4-2.2,0.1s-1.3-0.8-1.6-1.4
							c-0.2-0.3-0.3-0.7-0.3-1.1c0-0.4,0-0.7,0.1-1.1c0.1-0.4,0.3-0.7,0.6-1c0.2-0.3,0.5-0.5,0.9-0.7c0.3-0.2,0.7-0.3,1.1-0.3
							c0.4,0,0.7,0,1.1,0.1c0.4,0.1,0.7,0.3,1,0.6C1243.8,188,1244,188.3,1244.2,188.6L1244.2,188.6z M1257.1,182.2
							c0.3,0.7,0.4,1.5,0.1,2.2c-0.2,0.7-0.8,1.3-1.4,1.6c-0.7,0.3-1.5,0.4-2.2,0.1c-0.7-0.2-1.3-0.8-1.6-1.4
							c-0.2-0.3-0.3-0.7-0.3-1.1c0-0.4,0-0.7,0.1-1.1c0.1-0.4,0.3-0.7,0.6-1c0.2-0.3,0.5-0.5,0.9-0.7c0.3-0.2,0.7-0.3,1.1-0.3
							c0.4,0,0.7,0,1.1,0.1c0.4,0.1,0.7,0.3,1,0.6C1256.7,181.6,1257,181.8,1257.1,182.2L1257.1,182.2z"/>
					</g>
				</g>
			</g>
		</g>
		
			<linearGradient id="SVGID_8_" gradientUnits="userSpaceOnUse" x1="1142.2092" y1="17.5868" x2="1155.3602" y2="28.0528" gradientTransform="matrix(1 0 0 -1 0 676)">
			<stop  offset="0" style="stop-color:#FE7F40"/>
			<stop  offset="1" style="stop-color:#FE9640"/>
		</linearGradient>
		<path fill="url(#SVGID_8_)" d="M1140.8,675c8.5,0,15.4-6.9,15.4-15.4c0-8.5-6.9-15.4-15.4-15.4c-8.5,0-15.4,6.9-15.4,15.4
			C1125.3,668.1,1132.2,675,1140.8,675z"/>
		
			<linearGradient id="SVGID_9_" gradientUnits="userSpaceOnUse" x1="890.453" y1="54.065" x2="830.9376" y2="5.0161" gradientTransform="matrix(1 0 0 -1 0 676)">
			<stop  offset="0" style="stop-color:#61ADEA"/>
			<stop  offset="1" style="stop-color:#522EB5"/>
		</linearGradient>
		<path fill="url(#SVGID_9_)" d="M873.4,655.1c10.5,0,19.1-8.6,19.1-19.1c0-10.5-8.6-19.1-19.1-19.1c-10.5,0-19.1,8.6-19.1,19.1
			C854.3,646.6,862.8,655.1,873.4,655.1z"/>
		<path opacity="0.5" fill="#FAFCFC" enable-background="new    " d="M1291.8,583.2c0,0-0.6,12.6,10.4,14c0,0-10.6,2.1-10.5,13
			c0,0,0.2-11.5-9.8-13.4C1281.9,596.9,1292.7,595.1,1291.8,583.2z"/>
		<path opacity="0.5" fill="#FAFCFC" enable-background="new    " d="M974.2,541.3c0,0-0.6,12.6,10.4,14c0,0-10.6,2.1-10.5,13
			c0,0,0.2-11.5-9.8-13.4C964.2,555,975.1,553.3,974.2,541.3z"/>
		<path fill="#0084C4" d="M1163.1,555.9l-7-4.7c-1.5-1-3-2.1-4.4-3.1c-0.8-0.6-1.6-1.2-2.4-1.7l0.9-1.3c0.8,0.6,1.6,1.2,2.4,1.7
			c1.4,1,2.9,2.1,4.4,3.1l7,4.7L1163.1,555.9z"/>
		<path fill="#0084C4" d="M1161.6,554c-1.8,1.4-3.7,2.7-5.7,3.8c-1.3,0.7-2.7,1.2-4.2,1.4c-0.3,0-0.6,0-0.8,0
			c-0.3-0.1-0.5-0.2-0.8-0.4c-0.2-0.2-0.4-0.4-0.6-0.6c-0.1-0.2-0.2-0.5-0.3-0.8c-0.2-1.1,0.5-1.8,1.6-2.3c0.6-0.3,1.3-0.5,2-0.6
			c0.8-0.2,1.5-0.3,2.3-0.3C1157.3,553.9,1159.5,553.8,1161.6,554z"/>
		<path fill="#0084C4" d="M1161.1,553.4c-1.7,1.4-3.4,2.6-5.3,3.7c-2.3,1.3-4.6,2-5.5,0.7c-1.1-1.7,1.3-2.4,4.3-2.7
			c2.3-0.3,4.7-0.3,7-0.2c0.2,0,0.4-0.1,0.6-0.2c0.2-0.1,0.2-0.3,0.3-0.5c0-0.2-0.1-0.4-0.2-0.6c-0.1-0.2-0.3-0.3-0.5-0.3
			c-2.8-0.2-5.7-0.1-8.5,0.3c-3.2,0.5-5.7,1.7-4.5,4.7c0.2,0.6,0.6,1,1.1,1.4c0.5,0.3,1.1,0.5,1.7,0.5c1.4,0,2.8-0.4,4-1
			c2.4-1.2,4.6-2.7,6.7-4.4C1162.9,553.9,1161.9,552.7,1161.1,553.4z"/>
		<path fill="#0084C4" d="M1161.6,554c0.6-2.2,1.1-4.4,1.3-6.7c0.2-1.4,0.2-2.9-0.2-4.3c-0.1-0.3-0.2-0.5-0.3-0.7
			c-0.2-0.2-0.4-0.4-0.6-0.5c-0.2-0.1-0.5-0.2-0.8-0.3s-0.5,0-0.8,0c-1.1,0.2-1.5,1.1-1.6,2.3c0,0.7,0,1.4,0.1,2
			c0.1,0.8,0.3,1.5,0.5,2.2C1159.9,550,1160.7,552,1161.6,554"/>
		<path fill="#0084C4" d="M1162.4,554.2c0.8-2.6,1.3-5.2,1.6-7.8c0.2-1.3,0-2.7-0.4-4c-0.2-0.5-0.5-1-1-1.3c-0.5-0.3-1-0.5-1.6-0.5
			c-3-0.1-3.4,2.6-2.9,5.8c0.6,2.7,1.6,5.4,2.8,7.9c0.1,0.2,0.3,0.3,0.4,0.4c0.2,0.1,0.4,0.1,0.6,0
			C1162.1,554.6,1162.3,554.4,1162.4,554.2c0-0.2,0-0.4,0-0.6c-1-2.1-1.7-4.3-2.3-6.5c-0.7-2.7-0.8-5.3,1.1-4.9
			c1.5,0.3,1.6,2.7,1.2,5.2c-0.3,2.1-0.8,4.2-1.4,6.3C1160.6,554.7,1162.1,555.2,1162.4,554.2z"/>
		<path fill="#0084C4" d="M1149.3,546.4l-1.7-1.2l-5-3.8c-1.9-1.4-3.8-3-5.7-4.4l-0.9-0.8l1-1.2l0.9,0.8c1.8,1.5,3.7,3,5.6,4.4
			l5,3.8l1.7,1.2L1149.3,546.4z"/>
		<path fill="#0084C4" d="M1147.8,544.4c-1.8,1.3-3.8,2.5-5.8,3.5c-3,1.4-6.2,2-6.6-0.8c-0.3-2.2,2.8-2.8,6-2.9
			C1143.6,544,1145.7,544.1,1147.8,544.4z"/>
		<path fill="#0084C4" d="M1147.3,543.7c-1.7,1.3-3.5,2.4-5.5,3.4c-2.3,1.1-4.7,1.8-5.5,0.4c-1-1.7,1.5-2.3,4.4-2.5
			c2.3-0.1,4.7-0.1,7,0.1c0.2,0,0.4-0.1,0.6-0.2c0.2-0.1,0.2-0.3,0.3-0.5c0-0.2,0-0.4-0.2-0.6c-0.1-0.2-0.3-0.3-0.5-0.3
			c-2.8-0.4-5.6-0.4-8.4-0.2c-1.4,0.1-2.8,0.5-4,1.2c-0.5,0.4-0.8,0.9-1,1.5c-0.1,0.6,0,1.2,0.2,1.7c1,2.6,3.8,2.4,6.7,1.2
			c2.4-1.1,4.8-2.4,6.9-4.1c0.1-0.1,0.2-0.1,0.2-0.2c0.1-0.1,0.1-0.2,0.1-0.3c0-0.1,0-0.2,0-0.3c0-0.1-0.1-0.2-0.2-0.3
			c-0.1-0.1-0.1-0.2-0.2-0.2c-0.1-0.1-0.2-0.1-0.3-0.1c-0.1,0-0.2,0-0.3,0C1147.5,543.6,1147.4,543.7,1147.3,543.7z"/>
		<path fill="#0084C4" d="M1147.8,544.4c0.7-2.2,1.3-4.4,1.7-6.6c0.5-3.2,0.4-6.3-2.3-6c-2.2,0.3-2.1,3.4-1.4,6.5
			C1146.3,540.3,1147,542.4,1147.8,544.4"/>
		<path fill="#0084C4" d="M1148.6,544.6c0.9-2.5,1.6-5.1,2-7.8c0.4-3,0-5.7-2.7-5.9c-0.6-0.1-1.2,0-1.7,0.3
			c-0.5,0.3-0.9,0.7-1.2,1.3c-0.4,1.3-0.5,2.7-0.3,4.1c0.5,2.8,1.3,5.5,2.4,8c0,0.1,0.1,0.2,0.2,0.3c0.1,0.1,0.2,0.1,0.3,0.2
			c0.1,0,0.2,0.1,0.3,0.1c0.1,0,0.2,0,0.3-0.1c0.1,0,0.2-0.1,0.3-0.2C1148.5,544.8,1148.5,544.7,1148.6,544.6c0-0.1,0-0.2,0-0.3
			c0-0.1,0-0.2-0.1-0.3c-0.9-2.2-1.5-4.4-2-6.7c-0.5-2.8-0.5-5.3,1.3-4.8c1.5,0.4,1.5,2.8,1,5.3c-0.4,2.1-1,4.2-1.8,6.2
			c0,0.1-0.1,0.2,0,0.3c0,0.1,0,0.2,0.1,0.3c0,0.1,0.1,0.2,0.2,0.2c0.1,0.1,0.2,0.1,0.3,0.2c0.1,0,0.2,0.1,0.3,0.1s0.2,0,0.3-0.1
			c0.1,0,0.2-0.1,0.2-0.2C1148.5,544.8,1148.5,544.7,1148.6,544.6z"/>
		<path fill="#0084C4" d="M1136,536.2l-3.3-2.6l-4.1-3.5c-1.8-1.5-3.7-3.1-5.4-4.7l1.1-1.2c1.7,1.6,3.6,3.2,5.4,4.7l4.1,3.5l3.3,2.6
			L1136,536.2z"/>
		<path fill="#0084C4" d="M1134.6,534.1c0,0-0.7,0.5-1.9,1.1c-1.3,0.8-2.7,1.5-4.2,2c-3.1,1.2-6.2,1.7-6.5-1.2
			c-0.2-2.2,3-2.7,6.1-2.6c1.5,0,2.9,0.1,4.4,0.3C1133.8,533.9,1134.6,534.1,1134.6,534.1z"/>
		<path fill="#0084C4" d="M1134.1,533.4c-1.8,1.2-3.7,2.2-5.6,3.1c-2.4,1-4.8,1.5-5.5,0.1c-0.9-1.8,1.6-2.2,4.5-2.3
			c1.5,0,3,0.1,4.3,0.2c1.3,0.1,2.3,0.2,2.7,0.3c0.2,0,0.4,0,0.6-0.1s0.3-0.3,0.3-0.5c0-0.2,0-0.4-0.1-0.6c-0.1-0.2-0.3-0.3-0.5-0.3
			c-2.8-0.5-5.6-0.7-8.4-0.6c-3.2,0.2-5.9,1.2-4.9,4.2c0.9,2.7,3.7,2.6,6.6,1.6c2.5-1,4.9-2.2,7.1-3.7
			C1135.9,534.1,1135,532.9,1134.1,533.4z"/>
		<path fill="#0084C4" d="M1134.6,534.1c0,0,0.3-0.8,0.7-2c0.5-1.5,0.9-2.9,1.3-4.4c0.7-3.2,0.7-6.3-2-6.1c-2.2,0.2-2.2,3.3-1.7,6.4
			c0.3,1.4,0.6,2.9,1,4.3C1134.3,533.3,1134.6,534.1,1134.6,534.1"/>
		<path fill="#0084C4" d="M1135.3,534.4c1-2.5,1.8-5,2.3-7.6c0.5-3,0.3-5.7-2.4-6c-3-0.4-3.7,2.3-3.4,5.5c0.3,2.8,1,5.5,2,8.2
			c0.1,0.2,0.2,0.3,0.4,0.4c0.2,0.1,0.4,0.1,0.6,0C1135,534.7,1135.2,534.5,1135.3,534.4c0-0.2,0.1-0.4,0-0.6
			c-0.1-0.4-0.5-1.3-0.8-2.6c-0.4-1.4-0.7-2.8-0.9-4.2c-0.4-2.8-0.2-5.3,1.6-4.7c1.5,0.5,1.3,2.8,0.7,5.4c-0.6,2.1-1.2,4.1-2.1,6.1
			C1133.5,534.7,1134.9,535.3,1135.3,534.4z"/>
		<path fill="#0084C4" d="M1123.1,525.3c-4.5-4-8.7-8-12.3-11.5l1.1-1.1c3.6,3.5,7.8,7.5,12.2,11.4L1123.1,525.3z"/>
		<path fill="#0084C4" d="M1121.9,523.1c-2,1.1-4,2.1-6.2,2.9c-0.8,0.3-1.5,0.5-2.3,0.6c-0.7,0.1-1.4,0.2-2,0.1
			c-0.3,0-0.6-0.1-0.8-0.2c-0.3-0.1-0.5-0.3-0.7-0.5c-0.2-0.2-0.3-0.4-0.4-0.7c-0.1-0.3-0.2-0.5-0.1-0.8c-0.1-2.2,3.1-2.5,6.3-2.3
			c1.6,0.1,3.2,0.3,4.4,0.5C1121.1,522.9,1121.9,523.1,1121.9,523.1z"/>
		<path fill="#0084C4" d="M1121.4,522.4c-1.8,1.1-3.8,2.1-5.8,2.9c-2.5,0.9-4.8,1.3-5.5-0.2c-0.8-1.8,1.7-2.1,4.6-2
			c1.4,0.1,3,0.2,4.3,0.4c1.3,0.2,2.3,0.3,2.7,0.4c0.2,0,0.4,0,0.6-0.1c0.2-0.1,0.3-0.3,0.3-0.5c0-0.2,0-0.4-0.1-0.6
			c-0.1-0.2-0.3-0.3-0.5-0.3c-0.7-0.1-2-0.4-3.5-0.6c-1.6-0.3-3.2-0.4-4.9-0.4c-3.2,0-5.9,0.9-5.1,4c0.7,2.7,3.5,2.8,6.5,1.9
			c2.5-0.8,5-2,7.3-3.4C1123.2,523.3,1122.3,521.9,1121.4,522.4z"/>
		<path fill="#0084C4" d="M1121.9,523.1c0.9-2.1,1.7-4.2,2.3-6.4c0.2-0.8,0.4-1.5,0.5-2.3c0.1-0.7,0.1-1.3,0-2
			c0-0.3-0.1-0.5-0.2-0.8c-0.1-0.2-0.3-0.5-0.5-0.6c-0.2-0.2-0.4-0.3-0.7-0.4c-0.3-0.1-0.5-0.1-0.8-0.1c-2.2,0.1-2.4,3.2-2,6.3
			c0.2,1.4,0.5,2.9,0.8,4.3C1121.6,522.3,1121.9,523.1,1121.9,523.1"/>
		<path fill="#0084C4" d="M1122.6,523.5c1.1-2.4,2-4.9,2.7-7.5c0.6-2.9,0.5-5.7-2.1-6.2c-3-0.5-3.8,2.1-3.7,5.3
			c0.1,1.6,0.3,3.2,0.7,4.8c0.3,1.5,0.7,2.7,1,3.4c0.1,0.2,0.2,0.3,0.4,0.4c0.2,0.1,0.4,0.1,0.6,0
			C1122.3,523.8,1122.4,523.6,1122.6,523.5c0.1-0.2,0.1-0.4,0-0.6c-0.1-0.4-0.4-1.4-0.7-2.6c-0.3-1.4-0.5-2.8-0.7-4.2
			c-0.3-2.9,0-5.3,1.8-4.7c1.5,0.5,1.1,2.9,0.4,5.4c-0.6,2-1.4,4-2.3,6C1120.7,523.7,1122.2,524.4,1122.6,523.5z"/>
		<path fill="#0084C4" d="M1110.8,513.8l-5.9-6l-5.8-6.1l1.1-1.1l5.8,6.1l5.9,5.9L1110.8,513.8z"/>
		<path fill="#0084C4" d="M1109.7,511.5c-2,1-4.1,1.9-6.3,2.6c-3.2,0.9-6.4,1.1-6.4-1.8c0-2.2,3.2-2.3,6.4-2
			C1105.5,510.6,1107.6,511,1109.7,511.5z"/>
		<path fill="#0084C4" d="M1109.3,510.9c-1.9,1-3.9,1.9-5.9,2.6c-2.5,0.8-4.9,1.1-5.5-0.4c-0.7-1.9,1.8-2,4.7-1.8
			c2.3,0.2,4.7,0.6,6.9,1.1c0.2,0,0.4,0,0.6-0.1c0.2-0.1,0.3-0.3,0.4-0.5c0.1-0.2,0-0.4-0.1-0.6c-0.1-0.2-0.3-0.3-0.5-0.4
			c-0.7-0.2-2-0.5-3.5-0.8c-1.6-0.3-3.2-0.5-4.9-0.6c-3.2-0.1-5.9,0.6-5.3,3.7c0.6,2.8,3.4,2.9,6.4,2.2c2.6-0.7,5.1-1.7,7.4-3
			C1111,511.8,1110.2,510.4,1109.3,510.9z"/>
		<path fill="#0084C4" d="M1109.7,511.5c1-2,1.9-4.1,2.6-6.3c1-3.1,1.3-6.2-1.4-6.2c-2.2-0.1-2.6,3.1-2.3,6.2
			C1108.8,507.4,1109.2,509.5,1109.7,511.5z"/>
		<path fill="#0084C4" d="M1110.4,511.9c1.3-2.4,2.3-4.8,3.1-7.4c0.8-2.9,0.8-5.6-1.8-6.2c-3-0.7-3.9,1.9-4,5.1
			c0,1.6,0.1,3.2,0.4,4.8c0.3,1.5,0.6,2.8,0.8,3.5c0.1,0.2,0.2,0.4,0.4,0.5c0.2,0.1,0.4,0.1,0.6,0.1
			C1110.1,512.2,1110.3,512.1,1110.4,511.9c0.1-0.2,0.1-0.4,0.1-0.6c-0.5-2.3-0.9-4.6-1-6.9c-0.1-2.9,0.3-5.3,2-4.6
			c1.4,0.6,1,2.9,0.2,5.4c-0.7,2-1.6,4-2.6,5.9C1108.5,512,1109.9,512.8,1110.4,511.9z"/>
		<path fill="#0084C4" d="M1099.1,501.7c-3.3-3.7-7.3-8.1-11.1-12.7l1.2-1c3.8,4.6,7.7,8.9,11,12.6L1099.1,501.7z"/>
		<path fill="#0084C4" d="M1098.1,499.4c-2.1,0.9-4.2,1.7-6.4,2.2c-3.2,0.8-6.4,0.7-6.3-2.1c0.1-1.1,0.9-1.7,2.1-1.9
			c1.5-0.2,2.9-0.1,4.4,0.2C1094,498.2,1096.1,498.8,1098.1,499.4z"/>
		<path fill="#0084C4" d="M1097.8,498.7c-1.9,0.9-4,1.7-6,2.3c-2.5,0.7-4.9,0.8-5.5-0.7c-0.7-1.9,1.9-2,4.8-1.6
			c2.3,0.3,4.6,0.8,6.9,1.5c0.2,0.1,0.4,0,0.6-0.1c0.2-0.1,0.3-0.3,0.4-0.5c0.1-0.2,0-0.4,0-0.6c-0.1-0.2-0.3-0.3-0.4-0.4
			c-2.7-0.9-5.4-1.5-8.3-1.8c-3.2-0.3-6,0.3-5.5,3.4c0.5,2.7,3.3,3.1,6.3,2.5c2.6-0.6,5.1-1.5,7.5-2.6
			C1099.4,499.7,1098.7,498.3,1097.8,498.7z"/>
		<path fill="#0084C4" d="M1098.1,499.4c1.1-2,2.1-4,3-6.1c1.1-3.1,1.6-6.1-1.1-6.3c-1.1-0.1-1.8,0.6-2.2,1.8
			c-0.4,1.4-0.5,2.8-0.4,4.3C1097.4,495.2,1097.7,497.3,1098.1,499.4"/>
		<path fill="#0084C4" d="M1098.8,499.8c1.4-2.3,2.5-4.7,3.5-7.2c0.9-2.9,1.1-5.6-1.5-6.3c-2.9-0.9-4,1.7-4.2,4.9
			c-0.1,2.8,0.2,5.6,0.8,8.4c0,0.2,0.2,0.4,0.3,0.5s0.4,0.2,0.6,0.1C1098.5,500.1,1098.6,500,1098.8,499.8c0.1-0.2,0.1-0.4,0.1-0.6
			c-0.4-2.3-0.6-4.6-0.6-6.9c0-2.9,0.5-5.3,2.2-4.4c1.4,0.7,0.9,3-0.1,5.4c-0.8,2-1.8,3.9-2.9,5.7
			C1096.9,499.8,1098.3,500.7,1098.8,499.8z"/>
		<path fill="#0084C4" d="M1088.1,489.1c-1.6-1.8-3.1-3.7-4.6-5.6l-3.4-4.2l-2.5-3.4l1.3-0.9l2.5,3.4l3.3,4.2c1.5,1.8,3,3.7,4.5,5.5
			L1088.1,489.1z"/>
		<path fill="#0084C4" d="M1087.1,486.7c0,0-0.8,0.3-2.1,0.7c-1.5,0.5-3,0.9-4.5,1.2c-3.2,0.6-6.4,0.4-6.2-2.4
			c0.2-2.2,3.4-2,6.5-1.4c1.4,0.3,2.8,0.7,4.2,1.2L1087.1,486.7z"/>
		<path fill="#0084C4" d="M1086.8,486c-2,0.8-4,1.5-6.1,2c-2.5,0.5-5,0.6-5.4-1c-0.6-1.9,2-1.9,4.8-1.3c2.3,0.5,4.6,1.1,6.8,1.8
			c0.2,0.1,0.4,0.1,0.6,0c0.2-0.1,0.3-0.2,0.4-0.4c0.1-0.2,0.1-0.4,0-0.6c-0.1-0.2-0.2-0.3-0.4-0.4c-2.6-1-5.3-1.8-8.1-2.3
			c-3.2-0.4-6,0-5.6,3.2c0.3,2.8,3.1,3.2,6.1,2.8c2.6-0.5,5.2-1.2,7.7-2.3C1088.4,487,1087.7,485.6,1086.8,486z"/>
		<path fill="#0084C4" d="M1087.1,486.7c0,0,0.5-0.7,1.1-1.9c0.8-1.3,1.5-2.7,2.1-4.1c1.3-3,2-6.1-0.8-6.4c-2.2-0.2-2.8,2.8-2.9,5.9
			c0,1.5,0,2.9,0.2,4.4C1087,485.9,1087.1,486.7,1087.1,486.7"/>
		<path fill="#0084C4" d="M1087.8,487.2c1.5-2.2,2.8-4.6,3.8-7c1.1-2.8,1.4-5.5-1.2-6.4c-2.9-1-4.1,1.5-4.4,4.7
			c-0.2,2.8-0.1,5.6,0.4,8.4c0,0.2,0.2,0.4,0.3,0.5c0.2,0.1,0.4,0.2,0.6,0.1C1087.5,487.4,1087.6,487.3,1087.8,487.2
			c0.1-0.2,0.2-0.4,0.1-0.6c-0.3-2.3-0.4-4.6-0.3-7c0.2-2.9,0.8-5.2,2.5-4.3c1.4,0.7,0.7,3-0.4,5.4c-1,1.9-2,3.8-3.2,5.6
			C1085.9,487.1,1087.2,488,1087.8,487.2z"/>
		<path fill="#0084C4" d="M1077.6,475.9l-0.7-1c-1.4-1.9-2.9-3.8-4.2-5.8l-3.6-5.1l-1.2-1.8l1.3-0.9l1.2,1.7l3.6,5.1
			c1.3,2,2.8,3.9,4.2,5.8l0.7,1L1077.6,475.9z"/>
		<path fill="#0084C4" d="M1076.8,473.5c-2.2,0.7-4.4,1.3-6.6,1.6c-3.3,0.4-6.4,0.1-6-2.7c0.3-2.2,3.5-1.9,6.6-1
			c1.5,0.4,3,1,4.2,1.4C1076.1,473.1,1076.8,473.5,1076.8,473.5z"/>
		<path fill="#0084C4" d="M1076.5,472.7c-2,0.7-4.1,1.3-6.2,1.7c-2.6,0.4-5,0.3-5.4-1.3c-0.5-1.9,2.1-1.8,4.9-1.1
			c2.3,0.6,4.5,1.3,6.7,2.2c0.2,0.1,0.4,0.1,0.6,0c0.2-0.1,0.3-0.2,0.4-0.4s0.1-0.4,0-0.6c-0.1-0.2-0.2-0.3-0.4-0.4
			c-0.7-0.3-1.9-0.8-3.3-1.3c-1.5-0.6-3.1-1-4.7-1.4c-3.2-0.6-6-0.3-5.8,2.9c0.2,2.8,2.9,3.4,6,3.1c2.7-0.3,5.3-1,7.8-1.9
			C1078.1,473.9,1077.5,472.4,1076.5,472.7z"/>
		<path fill="#0084C4" d="M1076.8,473.5c1.3-1.8,2.5-3.8,3.5-5.8c1.4-2.9,2.3-6-0.4-6.4c-2.1-0.4-3,2.6-3.2,5.8
			c-0.1,1.5-0.1,2.9,0,4.4C1076.7,472.7,1076.8,473.5,1076.8,473.5"/>
		<path fill="#0084C4" d="M1077.5,474c1.6-2.1,3-4.4,4.1-6.8c1.2-2.8,1.7-5.5-0.8-6.4c-2.8-1.1-4.2,1.3-4.7,4.5
			c-0.2,1.6-0.3,3.2-0.3,4.8c0,1.5,0.2,2.8,0.3,3.6c0,0.2,0.1,0.4,0.3,0.5c0.2,0.1,0.4,0.2,0.6,0.2
			C1077.1,474.2,1077.3,474.1,1077.5,474c0.1-0.2,0.2-0.4,0.2-0.6c-0.2-2.3-0.2-4.6,0-7c0.3-2.9,1.1-5.2,2.7-4.2
			c1.3,0.8,0.6,3.1-0.7,5.4c-1,1.9-2.2,3.7-3.5,5.4C1075.6,473.8,1076.9,474.8,1077.5,474z"/>
		<path fill="#0084C4" d="M1067.8,462.2c-0.5-0.8-1.1-1.6-1.6-2.5c-1-1.5-2-3-3-4.5l-4.5-7.1l1.3-0.8l4.4,7.1c1,1.5,2,3,3,4.5
			c0.6,0.8,1.1,1.7,1.7,2.5L1067.8,462.2z"/>
		<path fill="#0084C4" d="M1067.2,459.7c-2.2,0.6-4.4,1-6.7,1.3c-1.5,0.2-3,0.1-4.4-0.4c-0.3-0.1-0.5-0.2-0.8-0.4
			c-0.2-0.2-0.4-0.4-0.5-0.6c-0.1-0.2-0.2-0.5-0.3-0.8c0-0.3,0-0.6,0.1-0.8c0.5-2.2,3.6-1.7,6.6-0.7
			C1063.2,458,1065.2,458.8,1067.2,459.7z"/>
		<path fill="#0084C4" d="M1066.9,459c-2.1,0.6-4.2,1.1-6.3,1.4c-1.2,0.2-2.4,0.2-3.5,0c-1-0.2-1.6-0.7-1.8-1.5
			c-0.4-2,2.2-1.7,4.9-0.8c2.3,0.7,4.5,1.5,6.6,2.5c0.2,0.1,0.4,0.1,0.6,0s0.4-0.2,0.4-0.4c0.1-0.2,0.1-0.4,0-0.6
			c-0.1-0.2-0.2-0.4-0.4-0.5c-2.5-1.3-5.2-2.3-7.9-3c-3.1-0.8-5.9-0.6-5.9,2.6c0,0.6,0.1,1.2,0.4,1.7c0.3,0.5,0.8,0.9,1.3,1.1
			c1.3,0.5,2.7,0.7,4.1,0.6c2.7-0.2,5.3-0.7,7.9-1.5C1068.4,460.2,1067.9,458.7,1066.9,459z"/>
		<path fill="#0084C4" d="M1067.2,459.7c1.4-1.8,2.7-3.7,3.8-5.6c0.8-1.2,1.3-2.6,1.5-4c0.1-0.3,0.1-0.5,0-0.8
			c-0.1-0.3-0.2-0.5-0.3-0.7c-0.2-0.2-0.4-0.4-0.6-0.5c-0.2-0.1-0.5-0.2-0.8-0.3c-2.1-0.5-3.1,2.5-3.5,5.6
			C1067.1,455.5,1067.1,457.6,1067.2,459.7"/>
		<path fill="#0084C4" d="M1067.8,460.3c1.7-2.1,3.2-4.3,4.5-6.6c0.7-1.2,1.1-2.5,1.1-3.8c0-0.6-0.1-1.1-0.4-1.6
			c-0.3-0.5-0.7-0.8-1.3-1.1c-2.8-1.3-4.2,1.1-4.9,4.2c-0.5,2.8-0.7,5.6-0.5,8.4c0,0.2,0.1,0.4,0.3,0.5c0.2,0.1,0.4,0.2,0.6,0.2
			C1067.4,460.5,1067.6,460.4,1067.8,460.3c0.1-0.2,0.2-0.4,0.2-0.6c-0.1-2.3,0-4.6,0.4-6.9c0.5-2.8,1.4-5.2,2.9-4.1
			c0.3,0.3,0.5,0.6,0.6,1c0.1,0.4,0.1,0.8-0.1,1.2c-0.3,1.1-0.8,2.2-1.4,3.1c-1.1,1.8-2.4,3.6-3.7,5.2
			C1065.9,460,1067.1,461.1,1067.8,460.3z"/>
		<path fill="#0084C4" d="M1060.7,449.6c-0.5-2.2-1.2-4.4-2-6.5c-0.5-1.4-1.3-2.6-2.2-3.7c-0.2-0.2-0.4-0.4-0.6-0.5
			c-0.2-0.1-0.5-0.2-0.8-0.2c-0.3,0-0.5,0-0.8,0.1s-0.5,0.2-0.7,0.4c-1.7,1.4,0,4,2.2,6.3C1057.3,447,1058.9,448.4,1060.7,449.6"/>
		<path fill="#0084C4" d="M1061.5,449.4c-0.6-2.6-1.4-5.2-2.4-7.6c-0.5-1.2-1.3-2.4-2.3-3.3c-0.4-0.4-0.9-0.6-1.5-0.7
			c-0.6-0.1-1.1,0.1-1.6,0.3c-2.7,1.4-1.7,4,0.3,6.4c1.8,2.1,4,4,6.3,5.5c0.2,0.1,0.4,0.2,0.6,0.1c0.2,0,0.4-0.1,0.5-0.3
			C1061.4,449.9,1061.5,449.7,1061.5,449.4c0-0.2-0.2-0.4-0.3-0.5c-1.9-1.4-3.6-2.9-5.2-4.6c-1.9-2.1-3.2-4.3-1.4-4.8
			c0.7-0.2,1.4,0.2,2,0.9c0.7,0.9,1.2,2,1.6,3.1c0.7,2,1.3,4.1,1.8,6.2C1060.1,450.7,1061.7,450.4,1061.5,449.4z"/>
		
			<linearGradient id="SVGID_10_" gradientUnits="userSpaceOnUse" x1="908.3882" y1="214.1375" x2="929.0182" y2="240.4845" gradientTransform="matrix(1 0 0 -1 0 676)">
			<stop  offset="0" style="stop-color:#FE7F40"/>
			<stop  offset="1" style="stop-color:#FE9640"/>
		</linearGradient>
		<path fill="url(#SVGID_10_)" d="M919.9,472c13.7,0,24.9-11.1,24.9-24.9c0-13.7-11.1-24.9-24.9-24.9c-13.7,0-24.9,11.1-24.9,24.9
			C895.1,460.8,906.2,472,919.9,472z"/>
		<path fill="#FEA130" d="M1238.9,549.2l7.5-5.6c1.6-1.2,3.2-2.5,4.8-3.7c0.9-0.7,1.7-1.4,2.6-2.1l-1.1-1.4
			c-0.9,0.7-1.7,1.4-2.6,2.1c-1.5,1.2-3.1,2.5-4.7,3.7l-7.5,5.6L1238.9,549.2z"/>
		<path fill="#FEA130" d="M1240.5,546.9c2.1,1.5,4.2,2.8,6.5,3.9c1.5,0.8,3.1,1.2,4.7,1.3c0.3,0,0.6,0,0.9-0.1
			c0.3-0.1,0.6-0.2,0.8-0.5c0.2-0.2,0.4-0.5,0.6-0.7c0.1-0.3,0.2-0.6,0.2-0.9c0.2-1.2-0.6-2-1.9-2.5c-0.7-0.3-1.5-0.4-2.2-0.5
			c-0.9-0.1-1.7-0.2-2.6-0.2C1245.3,546.6,1242.9,546.7,1240.5,546.9z"/>
		<path fill="#FEA130" d="M1241,546.2c1.9,1.4,3.9,2.7,6.1,3.8c2.6,1.3,5.2,2,6.2,0.4c1.1-1.9-1.6-2.5-4.9-2.8
			c-2.6-0.1-5.2-0.1-7.8,0.1c-0.2,0-0.5-0.1-0.6-0.2c-0.2-0.1-0.3-0.4-0.3-0.6c0-0.2,0-0.5,0.2-0.6c0.1-0.2,0.4-0.3,0.6-0.3
			c3.1-0.4,6.3-0.4,9.4-0.2c3.5,0.4,6.4,1.6,5.2,4.9c-0.2,0.6-0.6,1.2-1.1,1.6c-0.5,0.4-1.2,0.6-1.8,0.7c-1.5,0-3.1-0.3-4.5-0.9
			c-2.7-1.2-5.3-2.7-7.7-4.5C1239,547,1240.1,545.6,1241,546.2z"/>
		<path fill="#FEA130" d="M1240.5,546.9c-0.8-2.4-1.4-4.8-1.9-7.3c-0.3-1.6-0.3-3.2,0-4.8c0-0.3,0.2-0.6,0.3-0.8
			c0.2-0.3,0.4-0.5,0.6-0.6c0.2-0.2,0.5-0.3,0.8-0.3c0.3-0.1,0.6-0.1,0.9,0c1.2,0.2,1.8,1.1,1.9,2.4c0.1,0.8,0.1,1.5,0,2.3
			c-0.1,0.8-0.2,1.7-0.4,2.5C1242.2,542.5,1241.4,544.7,1240.5,546.9"/>
		<path fill="#FEA130" d="M1239.7,547.3c-1-2.8-1.7-5.7-2.2-8.6c-0.3-1.5-0.2-3,0.2-4.4c0.2-0.6,0.6-1.1,1-1.5
			c0.5-0.4,1.1-0.6,1.7-0.6c3.4-0.3,4,2.7,3.5,6.3c-0.5,3.1-1.5,6.1-2.7,8.9c-0.1,0.2-0.3,0.4-0.5,0.4c-0.2,0.1-0.4,0.1-0.7,0
			C1240,547.6,1239.8,547.4,1239.7,547.3c-0.1-0.2-0.1-0.5,0-0.7c1-2.4,1.7-4.9,2.2-7.4c0.6-3.1,0.6-5.9-1.5-5.3
			c-1.7,0.4-1.6,3.1-1.1,5.9c0.5,2.3,1.1,4.6,1.9,6.9C1241.7,547.7,1240,548.3,1239.7,547.3z"/>
		<path fill="#FEA130" d="M1253.7,537.9l1.8-1.4l5.4-4.5c2.1-1.7,4.1-3.5,6.1-5.2l1-0.9l-1.2-1.3l-1,0.9c-1.9,1.7-4,3.5-6,5.2
			l-5.4,4.5l-1.8,1.4L1253.7,537.9z"/>
		<path fill="#FEA130" d="M1255.2,535.5c2.1,1.4,4.4,2.5,6.7,3.5c3.4,1.3,6.9,1.9,7.3-1.3c0.3-2.5-3.3-3-6.8-2.9
			C1260,534.9,1257.6,535.1,1255.2,535.5z"/>
		<path fill="#FEA130" d="M1255.7,534.8c2,1.3,4.1,2.5,6.2,3.5c2.6,1.1,5.3,1.7,6.2,0.1c1-1.9-1.8-2.5-5-2.5c-2.6,0-5.2,0.2-7.8,0.5
			c-0.2,0-0.5,0-0.6-0.2c-0.2-0.1-0.3-0.3-0.3-0.6c0-0.2,0-0.5,0.2-0.6c0.1-0.2,0.3-0.3,0.6-0.4c3.1-0.5,6.2-0.8,9.4-0.7
			c1.6,0,3.1,0.4,4.5,1.2c0.6,0.4,1,0.9,1.1,1.6c0.2,0.6,0.1,1.3-0.2,1.9c-1,2.9-4.1,2.8-7.3,1.7c-2.8-1.1-5.4-2.5-7.9-4.1
			c-0.1-0.1-0.2-0.1-0.2-0.2c-0.1-0.1-0.1-0.2-0.1-0.3c0-0.1,0-0.2,0-0.3c0-0.1,0.1-0.2,0.2-0.3c0.1-0.1,0.1-0.2,0.2-0.3
			c0.1-0.1,0.2-0.1,0.3-0.1c0.1,0,0.2,0,0.3,0C1255.5,534.7,1255.7,534.7,1255.7,534.8z"/>
		<path fill="#FEA130" d="M1255.2,535.5c-0.9-2.4-1.7-4.8-2.2-7.2c-0.8-3.6-0.8-7,2.3-6.7c2.4,0.2,2.5,3.7,1.9,7.1
			C1256.7,531,1256,533.3,1255.2,535.5z"/>
		<path fill="#FEA130" d="M1254.4,535.9c-1.1-2.7-2-5.6-2.6-8.5c-0.6-3.3-0.3-6.3,2.7-6.7c0.6-0.2,1.3-0.1,1.9,0.2
			c0.6,0.3,1.1,0.8,1.4,1.4c0.6,1.4,0.8,3,0.5,4.5c-0.4,3.1-1.1,6.1-2.2,9.1c-0.1,0.2-0.2,0.4-0.5,0.5c-0.2,0.1-0.4,0.1-0.7,0
			C1254.7,536.2,1254.6,536.1,1254.4,535.9c-0.1-0.2-0.1-0.4,0-0.7c0.8-2.5,1.4-5,1.8-7.5c0.5-3.1,0.3-5.9-1.7-5.3
			c-1.7,0.5-1.5,3.1-0.8,5.9c0.6,2.3,1.4,4.6,2.3,6.8c0,0.1,0.1,0.2,0.1,0.3c0,0.1,0,0.2-0.1,0.3c0,0.1-0.1,0.2-0.2,0.3
			c-0.1,0.1-0.2,0.1-0.3,0.2c-0.1,0.1-0.2,0.1-0.3,0.1c-0.1,0-0.2,0-0.3-0.1c-0.1,0-0.2-0.1-0.3-0.2
			C1254.5,536.1,1254.5,536,1254.4,535.9z"/>
		<path fill="#FEA130" d="M1268,525.8l3.5-3.1l4.4-4.1c1.9-1.8,3.9-3.6,5.8-5.6l-1.2-1.2c-1.9,1.9-3.8,3.7-5.7,5.5l-4.4,4.1
			l-3.5,3.1L1268,525.8z"/>
		<path fill="#FEA130" d="M1269.4,523.3c0,0,0.8,0.5,2.1,1.2c1.5,0.8,3.1,1.5,4.7,2c3.5,1.2,7,1.5,7.2-1.6c0.1-2.5-3.4-2.8-7-2.6
			c-1.6,0.1-3.2,0.3-4.9,0.6C1270.3,523.1,1269.4,523.3,1269.4,523.3z"/>
		<path fill="#FEA130" d="M1269.9,522.6c2,1.2,4.2,2.3,6.4,3.2c2.7,1,5.4,1.4,6.1-0.2c0.9-2-1.9-2.4-5.1-2.3
			c-1.6,0.1-3.3,0.3-4.7,0.5c-1.4,0.2-2.6,0.4-3,0.5c-0.2,0-0.5,0-0.6-0.1c-0.2-0.1-0.3-0.3-0.4-0.5c0-0.2,0-0.5,0.1-0.6
			c0.1-0.2,0.3-0.3,0.5-0.4c3.1-0.7,6.2-1.1,9.3-1.1c3.6,0,6.6,1,5.7,4.4c-0.8,3-4,3.1-7.2,2.1c-2.8-0.9-5.6-2.2-8.1-3.8
			C1267.9,523.5,1268.9,522,1269.9,522.6z"/>
		<path fill="#FEA130" d="M1269.4,523.3c0,0-0.4-0.9-0.9-2.2c-0.6-1.6-1.2-3.2-1.6-4.9c-0.9-3.5-1.2-7,1.9-6.9
			c2.4,0.1,2.7,3.5,2.2,7c-0.2,1.6-0.5,3.2-0.9,4.8C1269.7,522.5,1269.4,523.3,1269.4,523.3"/>
		<path fill="#FEA130" d="M1268.6,523.7c-1.3-2.7-2.3-5.5-3-8.3c-0.7-3.3-0.6-6.3,2.3-6.8c3.4-0.6,4.2,2.3,4.1,5.9
			c-0.2,3.1-0.8,6.2-1.8,9.2c-0.1,0.2-0.2,0.4-0.4,0.5s-0.4,0.1-0.7,0.1C1268.9,524.1,1268.7,523.9,1268.6,523.7
			c-0.1-0.2-0.1-0.4,0-0.7c0.1-0.4,0.4-1.5,0.8-2.9c0.3-1.5,0.6-3.1,0.7-4.7c0.3-3.2,0-5.9-2-5.2c-1.6,0.6-1.3,3.2-0.5,6
			c0.7,2.3,1.6,4.5,2.6,6.7C1270.6,523.9,1269,524.8,1268.6,523.7z"/>
		<path fill="#FEA130" d="M1281.6,513c4.8-4.6,9.2-9.4,13-13.4l-1.3-1.2c-3.8,4-8.2,8.8-13,13.4L1281.6,513z"/>
		<path fill="#FEA130" d="M1282.9,510.5c2.3,1.2,4.6,2.1,7,2.9c0.9,0.3,1.7,0.4,2.6,0.6c0.8,0.1,1.5,0.1,2.3,0
			c0.3,0,0.6-0.1,0.9-0.2c0.3-0.1,0.5-0.3,0.7-0.6c0.2-0.2,0.4-0.5,0.5-0.8c0.1-0.3,0.1-0.6,0.1-0.9c0-2.5-3.6-2.6-7.1-2.2
			c-1.7,0.2-3.5,0.5-4.8,0.8C1283.8,510.2,1282.9,510.5,1282.9,510.5z"/>
		<path fill="#FEA130" d="M1283.3,509.7c2.1,1.1,4.3,2.1,6.6,2.9c2.8,0.9,5.4,1.2,6.1-0.5c0.8-2-2-2.3-5.2-2
			c-1.6,0.2-3.3,0.4-4.7,0.7c-1.4,0.2-2.5,0.5-3,0.6c-0.2,0.1-0.5,0-0.7-0.1c-0.2-0.1-0.3-0.3-0.4-0.5c-0.1-0.2,0-0.5,0.1-0.7
			c0.1-0.2,0.3-0.3,0.5-0.4c0.8-0.2,2.2-0.6,3.9-0.9c1.8-0.4,3.6-0.6,5.4-0.7c3.6-0.1,6.6,0.6,5.9,4.1c-0.7,3-3.8,3.3-7.1,2.5
			c-2.9-0.8-5.6-1.9-8.3-3.4C1281.5,510.7,1282.3,509.2,1283.3,509.7z"/>
		<path fill="#FEA130" d="M1282.9,510.5c-1.1-2.2-2.1-4.6-2.9-6.9c-0.3-0.8-0.5-1.7-0.6-2.5c-0.1-0.7-0.2-1.5-0.1-2.2
			c0-0.3,0.1-0.6,0.2-0.9c0.1-0.3,0.3-0.5,0.5-0.7c0.2-0.2,0.5-0.4,0.8-0.5c0.3-0.1,0.6-0.1,0.9-0.1c2.4,0,2.8,3.4,2.6,6.9
			c-0.1,1.6-0.4,3.2-0.7,4.8C1283.1,509.6,1282.9,510.5,1282.9,510.5z"/>
		<path fill="#FEA130" d="M1282.1,510.9c-1.4-2.6-2.5-5.3-3.4-8.2c-0.9-3.2-0.9-6.3,2-6.9c3.3-0.8,4.3,2.1,4.4,5.7
			c0,1.8-0.2,3.6-0.5,5.4c-0.3,1.7-0.7,3.1-0.9,3.9c-0.1,0.2-0.2,0.4-0.4,0.5c-0.2,0.1-0.4,0.1-0.7,0.1
			C1282.5,511.2,1282.3,511.1,1282.1,510.9c-0.1-0.2-0.1-0.4-0.1-0.7c0.1-0.4,0.4-1.5,0.6-3c0.3-1.5,0.5-3.1,0.5-4.7
			c0.1-3.2-0.3-5.9-2.3-5.1c-1.6,0.7-1.1,3.3-0.2,6c0.8,2.2,1.8,4.4,2.9,6.5C1284.2,511,1282.6,511.9,1282.1,510.9z"/>
		<path fill="#FEA130" d="M1294.6,499.5l6.2-6.9l6.1-7.1l-1.3-1.1l-6,7.1l-6.2,6.9L1294.6,499.5z"/>
		<path fill="#FEA130" d="M1295.8,497c2.3,1,4.7,1.9,7.2,2.5c3.6,0.8,7.2,0.9,7-2.3c-0.1-2.5-3.7-2.4-7.2-1.9
			C1300.4,495.7,1298,496.2,1295.8,497z"/>
		<path fill="#FEA130" d="M1296.2,496.2c2.2,1,4.4,1.9,6.7,2.5c2.8,0.7,5.5,0.9,6.1-0.8c0.7-2.1-2.1-2.2-5.3-1.7
			c-2.6,0.4-5.1,0.9-7.7,1.6c-0.2,0.1-0.5,0-0.6-0.1c-0.2-0.1-0.3-0.3-0.4-0.5c-0.1-0.2,0-0.4,0.1-0.7c0.1-0.2,0.3-0.4,0.5-0.4
			c0.8-0.2,2.2-0.7,3.8-1.1c1.8-0.4,3.6-0.8,5.4-1c3.5-0.3,6.6,0.3,6.1,3.8c-0.5,3.1-3.7,3.4-7,2.8c-2.9-0.7-5.7-1.6-8.4-2.9
			C1294.3,497.3,1295.1,495.7,1296.2,496.2z"/>
		<path fill="#FEA130" d="M1295.8,497c-1.3-2.2-2.4-4.5-3.3-6.8c-1.3-3.4-1.8-6.8,1.2-7c2.4-0.2,3,3.3,2.9,6.8
			C1296.5,492.3,1296.2,494.6,1295.8,497z"/>
		<path fill="#FEA130" d="M1295,497.4c-1.5-2.5-2.8-5.2-3.8-8c-1.1-3.2-1.2-6.2,1.6-7c3.3-0.9,4.4,1.9,4.7,5.4
			c0.1,1.8,0,3.6-0.2,5.4c-0.2,1.7-0.5,3.1-0.7,3.9c0,0.2-0.2,0.4-0.4,0.6c-0.2,0.1-0.4,0.2-0.7,0.1
			C1295.4,497.8,1295.2,497.6,1295,497.4c-0.1-0.2-0.2-0.4-0.1-0.7c0.5-2.5,0.7-5.1,0.7-7.7c0-3.2-0.6-5.9-2.5-5
			c-1.5,0.8-1,3.3,0.1,6c0.9,2.2,2,4.3,3.3,6.4C1297.1,497.4,1295.6,498.4,1295,497.4z"/>
		<path fill="#FEA130" d="M1306.9,485.4c3.5-4.3,7.6-9.4,11.6-14.7l-1.4-1c-3.9,5.3-8,10.4-11.5,14.6L1306.9,485.4z"/>
		<path fill="#FEA130" d="M1308,482.8c2.3,0.9,4.8,1.6,7.3,2.1c3.6,0.7,7.2,0.5,6.9-2.7c-0.1-1.2-1.1-1.8-2.4-2
			c-1.6-0.1-3.3,0-4.9,0.4C1312.5,481.3,1310.2,482,1308,482.8z"/>
		<path fill="#FEA130" d="M1308.3,482c2.2,0.9,4.5,1.6,6.8,2.2c2.8,0.6,5.5,0.6,6.1-1.1c0.6-2.1-2.2-2.1-5.4-1.5
			c-2.6,0.5-5.1,1.2-7.5,2c-0.2,0.1-0.5,0.1-0.7,0c-0.2-0.1-0.4-0.3-0.4-0.5c-0.1-0.2-0.1-0.5,0-0.7s0.3-0.4,0.5-0.5
			c2.9-1.1,6-2,9.1-2.5c3.6-0.5,6.6-0.1,6.3,3.5c-0.4,3.1-3.5,3.6-6.9,3.1c-2.9-0.5-5.8-1.3-8.5-2.5
			C1306.6,483.2,1307.3,481.6,1308.3,482z"/>
		<path fill="#FEA130" d="M1308,482.8c-1.4-2.1-2.6-4.3-3.6-6.6c-1.4-3.4-2.2-6.7,0.9-7c1.2-0.1,2,0.6,2.5,1.9
			c0.5,1.5,0.8,3.1,0.7,4.7C1308.5,478.1,1308.3,480.5,1308,482.8"/>
		<path fill="#FEA130" d="M1307.3,483.4c-1.7-2.5-3.1-5.1-4.2-7.8c-1.2-3.2-1.5-6.1,1.3-7.1c3.2-1.1,4.5,1.7,4.9,5.2
			c0.2,3.1,0.1,6.2-0.4,9.3c0,0.1-0.1,0.2-0.1,0.3s-0.1,0.2-0.2,0.3c-0.1,0.1-0.2,0.1-0.3,0.1c-0.1,0-0.2,0-0.3,0
			c-0.1,0-0.2-0.1-0.3-0.1C1307.4,483.5,1307.3,483.4,1307.3,483.4c-0.1-0.1-0.1-0.2-0.1-0.3c0-0.1,0-0.2,0-0.3
			c0.3-2.6,0.4-5.2,0.3-7.7c-0.2-3.2-0.9-5.8-2.7-4.8c-1.5,0.8-0.8,3.4,0.4,6c1.1,2.1,2.2,4.2,3.6,6.2
			C1309.3,483.3,1307.9,484.3,1307.3,483.4z"/>
		<path fill="#FEA130" d="M1318.5,470.8c1.6-2.1,3.2-4.3,4.7-6.5l3.5-4.9l2.6-3.9l-1.4-1l-2.6,3.9l-3.5,4.9
			c-1.5,2.1-3.1,4.3-4.7,6.4L1318.5,470.8z"/>
		<path fill="#FEA130" d="M1319.4,468.1c0,0,0.9,0.3,2.3,0.7c1.7,0.5,3.3,0.8,5,1.1c3.6,0.5,7.2,0.1,6.7-3c-0.4-2.4-3.9-2.1-7.3-1.1
			c-1.6,0.4-3.1,1-4.6,1.6L1319.4,468.1z"/>
		<path fill="#FEA130" d="M1319.8,467.3c2.2,0.8,4.6,1.4,6.9,1.8c2.8,0.5,5.6,0.4,6-1.4c0.5-2.1-2.3-2-5.5-1.2
			c-2.5,0.7-5,1.5-7.4,2.4c-0.2,0.1-0.5,0.1-0.7,0c-0.2-0.1-0.4-0.3-0.5-0.5c-0.1-0.2-0.1-0.5,0-0.7c0.1-0.2,0.3-0.4,0.5-0.5
			c2.9-1.3,5.8-2.3,8.9-3c3.5-0.7,6.7-0.3,6.4,3.2c-0.2,3.1-3.3,3.8-6.7,3.5c-3-0.4-5.9-1.1-8.7-2.1
			C1318,468.6,1318.7,466.9,1319.8,467.3z"/>
		<path fill="#FEA130" d="M1319.4,468.1c0,0-0.6-0.8-1.4-2c-0.9-1.4-1.8-2.9-2.6-4.5c-1.6-3.3-2.5-6.6,0.5-7.1
			c2.4-0.4,3.3,2.9,3.6,6.4c0.1,1.6,0.1,3.3,0,4.9C1319.6,467.2,1319.4,468.1,1319.4,468.1"/>
		<path fill="#FEA130" d="M1318.7,468.7c-1.8-2.4-3.3-4.9-4.6-7.6c-1.4-3.1-1.8-6.1,0.9-7.2c3.2-1.2,4.6,1.5,5.2,4.9
			c0.4,3.1,0.4,6.2,0.1,9.4c0,0.2-0.1,0.4-0.3,0.6c-0.2,0.1-0.4,0.2-0.6,0.2C1319.1,469,1318.9,468.9,1318.7,468.7
			c-0.1-0.2-0.2-0.4-0.2-0.6c0.2-2.6,0.2-5.2,0-7.7c-0.3-3.2-1.2-5.8-3-4.7c-1.5,0.9-0.6,3.4,0.7,6c1.2,2.1,2.5,4.1,3.9,6
			C1320.8,468.5,1319.4,469.6,1318.7,468.7z"/>
		<path fill="#FEA130" d="M1329.4,455.5l0.8-1.1c1.5-2.2,3-4.4,4.4-6.7l3.7-5.9l1.2-2l-1.5-0.9l-1.2,2l-3.7,5.9
			c-1.4,2.2-2.9,4.5-4.3,6.6l-0.8,1.1L1329.4,455.5z"/>
		<path fill="#FEA130" d="M1330.2,452.9c2.4,0.7,4.9,1.2,7.5,1.4c3.6,0.3,7.2-0.3,6.5-3.4c-0.5-2.4-4-1.9-7.4-0.8
			c-1.7,0.6-3.3,1.3-4.6,1.8C1331,452.5,1330.2,452.9,1330.2,452.9z"/>
		<path fill="#FEA130" d="M1330.4,452c2.3,0.7,4.6,1.2,7,1.5c2.9,0.3,5.5,0.1,5.9-1.7c0.4-2.2-2.4-1.9-5.5-0.9
			c-2.5,0.8-4.9,1.7-7.3,2.8c-0.2,0.1-0.4,0.1-0.6,0c-0.2-0.1-0.4-0.2-0.5-0.4c-0.1-0.2-0.1-0.4,0-0.6c0.1-0.2,0.2-0.4,0.4-0.5
			c0.7-0.4,2.1-1,3.6-1.6c1.7-0.7,3.4-1.3,5.1-1.8c3.5-0.8,6.6-0.7,6.6,2.9c0,3.1-3.1,3.9-6.5,3.8c-3-0.2-5.9-0.8-8.8-1.7
			C1328.8,453.4,1329.4,451.7,1330.4,452z"/>
		<path fill="#FEA130" d="M1330.2,452.9c-1.6-2-3-4.1-4.2-6.2c-1.8-3.2-2.9-6.5,0.1-7.1c2.4-0.5,3.4,2.8,3.9,6.3
			c0.2,1.6,0.3,3.2,0.3,4.9C1330.2,451.9,1330.2,452.9,1330.2,452.9"/>
		<path fill="#FEA130" d="M1329.5,453.4c-1.9-2.3-3.5-4.7-5-7.3c-1.5-3-2.2-6,0.6-7.2c3.1-1.4,4.7,1.2,5.4,4.7
			c0.4,1.8,0.6,3.6,0.6,5.4c0.1,1.7,0,3.1-0.1,4c0,0.2-0.1,0.5-0.3,0.6c-0.2,0.2-0.4,0.2-0.6,0.2
			C1329.9,453.7,1329.7,453.6,1329.5,453.4c-0.1-0.2-0.2-0.4-0.2-0.6c0.1-2.6,0-5.2-0.4-7.7c-0.5-3.1-1.5-5.7-3.2-4.5
			c-1.4,1-0.5,3.5,1,5.9c1.3,2,2.6,4,4.1,5.8C1331.5,453.1,1330.2,454.3,1329.5,453.4z"/>
		<path fill="#FEA130" d="M1339.5,439.8c0.6-0.9,1.1-1.9,1.7-2.8c1-1.7,2.1-3.5,3.1-5.2l4.5-8.2l-1.5-0.9l-4.5,8.1
			c-1,1.7-2,3.5-3,5.2c-0.6,0.9-1.1,1.9-1.7,2.8L1339.5,439.8z"/>
		<path fill="#FEA130" d="M1340.1,437.1c2.5,0.6,5,0.9,7.5,1c1.7,0.1,3.3-0.1,4.9-0.6c0.3-0.1,0.6-0.3,0.8-0.5
			c0.2-0.2,0.4-0.5,0.6-0.7s0.2-0.6,0.2-0.9c0-0.3,0-0.6-0.1-0.9c-0.6-2.4-4.1-1.7-7.4-0.4C1344.4,434.9,1342.2,435.9,1340.1,437.1z
			"/>
		<path fill="#FEA130" d="M1340.3,436.2c2.3,0.6,4.7,1,7.1,1.1c1.3,0.1,2.6,0,3.9-0.2c1.1-0.3,1.8-0.9,1.9-1.8
			c0.3-2.2-2.5-1.7-5.5-0.6c-2.5,0.9-4.9,1.9-7.2,3.1c-0.2,0.1-0.4,0.1-0.6,0c-0.2-0.1-0.4-0.2-0.5-0.4c-0.1-0.2-0.1-0.4-0.1-0.6
			c0.1-0.2,0.2-0.4,0.4-0.5c2.7-1.5,5.6-2.8,8.6-3.8c3.4-1,6.6-1,6.7,2.5c0.1,0.7-0.1,1.3-0.4,1.9c-0.3,0.6-0.8,1-1.4,1.3
			c-1.4,0.6-2.9,0.9-4.5,0.9c-3-0.1-5.9-0.5-8.8-1.2C1338.8,437.7,1339.3,436,1340.3,436.2z"/>
		<path fill="#FEA130" d="M1340.1,437.1c-1.7-1.9-3.2-3.9-4.5-6c-0.9-1.3-1.6-2.8-1.9-4.4c-0.1-0.3-0.1-0.6-0.1-0.9
			c0-0.3,0.1-0.6,0.3-0.8c0.2-0.3,0.4-0.5,0.6-0.6c0.2-0.2,0.5-0.3,0.8-0.3c2.3-0.6,3.6,2.6,4.2,6.1
			C1340,432.3,1340.1,434.7,1340.1,437.1"/>
		<path fill="#FEA130" d="M1339.5,437.7c-2-2.2-3.8-4.6-5.3-7.1c-0.8-1.3-1.3-2.7-1.5-4.2c-0.1-0.6,0-1.2,0.4-1.8
			c0.3-0.5,0.8-1,1.3-1.2c3-1.6,4.7,1,5.7,4.4c0.7,3,1,6.2,1,9.3c0,0.2-0.1,0.4-0.3,0.6c-0.2,0.2-0.4,0.2-0.6,0.2
			C1339.9,437.9,1339.7,437.8,1339.5,437.7c-0.1-0.2-0.2-0.4-0.2-0.6c0-2.6-0.3-5.1-0.8-7.7c-0.7-3.1-1.8-5.7-3.5-4.4
			c-0.7,0.5-0.7,1.4-0.4,2.4c0.4,1.2,1,2.4,1.7,3.4c1.4,2,2.8,3.8,4.4,5.6C1341.5,437.3,1340.2,438.5,1339.5,437.7z"/>
		<path fill="#FEA130" d="M1346.8,425.4c0.5-2.5,1.1-4.9,1.9-7.3c0.5-1.5,1.3-3,2.3-4.2c0.2-0.2,0.4-0.4,0.7-0.6
			c0.3-0.2,0.6-0.2,0.8-0.3c0.3,0,0.6,0,0.9,0.1c0.3,0.1,0.6,0.2,0.8,0.4c1.9,1.4,0.2,4.4-2.1,7.1
			C1350.4,422.4,1348.6,424,1346.8,425.4"/>
		<path fill="#FEA130" d="M1345.9,425.3c0.5-2.9,1.2-5.8,2.3-8.6c0.5-1.4,1.3-2.7,2.4-3.8c0.4-0.4,1-0.7,1.6-0.8
			c0.6-0.1,1.2,0,1.8,0.3c3.1,1.4,2.2,4.3,0.1,7.2c-1.9,2.5-4.2,4.6-6.7,6.5c-0.2,0.1-0.4,0.2-0.6,0.2c-0.2,0-0.4-0.1-0.6-0.3
			C1346,425.8,1345.9,425.6,1345.9,425.3c0.1-0.2,0.2-0.4,0.3-0.6c2-1.6,3.9-3.4,5.5-5.4c2-2.5,3.3-4.9,1.3-5.4
			c-0.8-0.2-1.6,0.3-2.2,1.2c-0.7,1.1-1.2,2.3-1.6,3.5c-0.7,2.3-1.2,4.6-1.6,6.9C1347.4,426.7,1345.7,426.4,1345.9,425.3z"/>
		<path fill="#FEA130" d="M1382.8,543.6c-53.3,88.5-145.7,70.4-196.6,61.5l-3.2-8.8c0,0,50-25.3,101.1-43.6
			C1335.2,534.4,1382.8,543.6,1382.8,543.6z"/>
		<path fill="#D77500" d="M1188.9,599.7c18-1.4,36-3.9,53.7-7.6l8.9-20.8c0.1-0.3,0.4-0.5,0.7-0.7c0.3-0.1,0.6-0.1,0.9,0
			c0.1,0.1,0.3,0.2,0.4,0.3c0.1,0.1,0.2,0.3,0.3,0.4c0.1,0.2,0.1,0.3,0.1,0.5c0,0.2,0,0.3-0.1,0.5l-8.2,19.2
			c10.3-2.2,20.8-4.8,31.3-7.7l8.9-23c0.1-0.2,0.1-0.3,0.3-0.4c0.1-0.1,0.2-0.2,0.4-0.3c0.1-0.1,0.3-0.1,0.5-0.1
			c0.2,0,0.3,0,0.5,0.1c0.2,0.1,0.3,0.1,0.4,0.3c0.1,0.1,0.2,0.2,0.3,0.4c0.1,0.1,0.1,0.3,0.1,0.5c0,0.2,0,0.3-0.1,0.5l-8.2,21.3
			c8.9-2.5,17.8-5.3,26.8-8.4l9.5-19.1c0.1-0.3,0.4-0.5,0.7-0.6c0.3-0.1,0.6-0.1,0.9,0.1c0.1,0.1,0.3,0.2,0.4,0.3
			c0.1,0.1,0.2,0.3,0.2,0.4c0.1,0.2,0.1,0.3,0.1,0.5c0,0.2-0.1,0.3-0.1,0.5l-8.4,16.8c9.1-3.2,18.2-6.6,27.3-10.2l7.6-12.9
			c0.1-0.1,0.2-0.3,0.3-0.4c0.1-0.1,0.3-0.2,0.4-0.2c0.2,0,0.3,0,0.5,0c0.2,0,0.3,0.1,0.5,0.2c0.1,0.1,0.3,0.2,0.4,0.3
			c0.1,0.1,0.2,0.3,0.2,0.4c0,0.2,0.1,0.3,0,0.5c0,0.2-0.1,0.3-0.2,0.5l-6,10.2c9.7-4,19.4-8.2,29.1-12.8c0.3-0.1,0.6-0.2,0.9,0
			c0.3,0.1,0.6,0.3,0.7,0.6c0.1,0.3,0.2,0.6,0,0.9s-0.3,0.6-0.6,0.7c-3.9,1.8-7.8,3.6-11.7,5.3l2.9,1c0.3,0.1,0.6,0.3,0.7,0.6
			c0.1,0.3,0.2,0.6,0,0.9c-0.1,0.3-0.3,0.6-0.6,0.7c-0.3,0.1-0.6,0.2-0.9,0l-5.3-1.9c-5.8,2.6-11.7,5-17.5,7.4
			c-0.1,0.1-0.2,0.1-0.3,0.1c-3.1,1.2-6.2,2.5-9.3,3.6l13.5,5.4c0.2,0.1,0.3,0.2,0.4,0.3c0.1,0.1,0.2,0.2,0.3,0.4
			c0.1,0.1,0.1,0.3,0.1,0.5c0,0.2,0,0.3-0.1,0.5c-0.1,0.1-0.2,0.3-0.3,0.4c-0.1,0.1-0.2,0.2-0.4,0.3c-0.1,0.1-0.3,0.1-0.5,0.1
			c-0.2,0-0.3,0-0.5-0.1l-16-6.4c-5.9,2.2-11.8,4.3-17.6,6.3c-0.1,0.1-0.3,0.1-0.5,0.2c-4,1.4-8,2.7-12,3.9l21.8,10.4
			c0.1,0.1,0.3,0.2,0.4,0.3s0.2,0.3,0.2,0.4c0.1,0.2,0.1,0.3,0.1,0.5s0,0.3-0.1,0.5c-0.1,0.1-0.2,0.3-0.3,0.4
			c-0.1,0.1-0.3,0.2-0.4,0.2s-0.3,0.1-0.5,0.1c-0.2,0-0.3,0-0.5-0.1l-24.2-11.5c-4.6,1.4-9.3,2.8-13.9,4.1c-0.2,0.1-0.3,0.1-0.5,0.2
			c-7.1,2-14.1,3.8-21.1,5.4l24.5,13c0.1,0.1,0.3,0.2,0.4,0.3c0.1,0.1,0.2,0.3,0.2,0.4s0.1,0.3,0,0.5c0,0.2-0.1,0.3-0.1,0.5
			c-0.2,0.3-0.4,0.5-0.7,0.6c-0.3,0.1-0.7,0.1-0.9-0.1l-27-14.3c-3,0.7-6.1,1.3-9.1,2c-0.2,0.1-0.3,0.1-0.5,0.1
			c-17.9,3.7-36.1,6.3-54.4,7.7c-0.2,0-0.5,0-0.7-0.2c-0.2-0.1-0.3-0.2-0.4-0.4c-0.1-0.2-0.2-0.4-0.2-0.6c0-0.2,0-0.3,0.1-0.5
			c0-0.2,0.1-0.3,0.2-0.4c0.1-0.1,0.2-0.2,0.4-0.3C1188.6,599.7,1188.8,599.7,1188.9,599.7z"/>
		
			<linearGradient id="SVGID_11_" gradientUnits="userSpaceOnUse" x1="1171.7976" y1="6.0392" x2="1344.1606" y2="229.5163" gradientTransform="matrix(1 0 0 -1 0 676)">
			<stop  offset="0" style="stop-color:#006291"/>
			<stop  offset="1" style="stop-color:#0084C4"/>
		</linearGradient>
		<path fill="url(#SVGID_11_)" d="M1222.7,531.4c1.1,0.1,2.2,0.1,3.3-0.1c8.2-1.2,13.2-9.7,20.6-13.5c12.3-6.3,28.6,1.7,40.6-5.2
			c8.8-5.1,12.4-16.7,21.6-21c7.4-3.5,15.9-2.7,23.5-5.8c16.2-6.7,17.2-29.8,36.8-31.4c6.6-0.5,11.9,1.7,18.1-1.7
			c5.6-3,9.5-7.7,15.8-9.5c5.6-1.7,14.1-1.7,15.8,5.3c2.9,11.7-12.8,18.6-12.3,29.7c0.2,3.9,1.1,7.9,0.3,11.8
			c-3.3,16-23.5,8.6-33.6,15.5c-7.4,5.1-8.4,15.2-13.2,22.2c-4.6,6.6-10.9,10.5-18.6,12.6c-10.5,2.8-20,1.8-27.4,11
			c-2.7,3.4-5,7.2-7.9,10.5c-9.5,10.7-22.5,8-33.3,15.2c-7.6,5.1-10.3,15-16.8,21.5c-4.6,4.6-10.9,7.1-17.2,8.6
			c-17.9,4.1-37.9,0-51.9-11.9c-11.6-9.8-25.7-34.9-16.5-50.1c7.3-12,26.9-20.4,40.7-16.6C1214.9,529.4,1218.8,531.1,1222.7,531.4z"
			/>
		
			<linearGradient id="SVGID_12_" gradientUnits="userSpaceOnUse" x1="1202.4576" y1="163.0067" x2="1393.9998" y2="163.0067" gradientTransform="matrix(1 0 0 -1 0 676)">
			<stop  offset="0" style="stop-color:#FAFCFC"/>
			<stop  offset="1" style="stop-color:#FAFCFC;stop-opacity:0.302"/>
		</linearGradient>
		<path opacity="0.2" fill="url(#SVGID_12_)" enable-background="new    " d="M1203.3,566.4c0.2,0.1,0.4,0.1,0.6,0
			c72.3-15.2,138.4-51.8,189.7-104.9c0.1-0.1,0.2-0.3,0.3-0.4s0.1-0.3,0.1-0.5c0-0.2,0-0.3-0.1-0.5c-0.1-0.1-0.2-0.3-0.3-0.4
			c-0.2-0.2-0.5-0.3-0.9-0.3c-0.3,0-0.6,0.1-0.8,0.4c-51,52.8-116.6,89.1-188.5,104.2c-0.2,0-0.3,0.1-0.4,0.2
			c-0.1,0.1-0.2,0.2-0.3,0.3s-0.1,0.3-0.2,0.4c0,0.2,0,0.3,0,0.5c0,0.2,0.1,0.4,0.3,0.6C1202.9,566.3,1203.1,566.4,1203.3,566.4z"/>
		
			<linearGradient id="SVGID_13_" gradientUnits="userSpaceOnUse" x1="1242.7058" y1="368.2111" x2="1288.1259" y2="446.6151" gradientTransform="matrix(1 0 0 -1 0 676)">
			<stop  offset="0" style="stop-color:#006291"/>
			<stop  offset="1" style="stop-color:#0084C4"/>
		</linearGradient>
		<path fill="url(#SVGID_13_)" d="M1160.1,541.4c-0.7,0.1-1.4,0-2-0.1c-5.1-0.8-8.2-6.1-12.9-8.5c-7.7-4-17.9,1-25.4-3.3
			c-5.5-3.2-7.8-10.5-13.5-13.2c-4.7-2.2-10-1.7-14.7-3.7c-10.1-4.2-10.8-18.7-23-19.6c-4.1-0.3-7.5,1-11.4-1.1
			c-3.5-1.9-5.9-4.8-9.9-6c-3.5-1-8.8-1.1-9.9,3.3c-1.8,7.3,8,11.6,7.7,18.6c-0.1,2.5-0.7,5-0.2,7.4c2.1,10,14.7,5.4,21,9.7
			c4.6,3.2,5.2,9.5,8.3,13.9c2.8,4,6.9,6.7,11.6,7.9c6.6,1.8,12.5,1.1,17.2,6.9c1.7,2.1,3.1,4.5,4.9,6.6c5.9,6.7,14.1,5,20.8,9.5
			c4.7,3.2,6.4,9.4,10.5,13.4c2.9,2.9,6.8,4.4,10.8,5.4c11.2,2.6,23.7,0,32.5-7.4c7.3-6.1,16.1-21.9,10.3-31.3
			c-4.6-7.5-16.8-12.8-25.4-10.4C1165,540.2,1162.5,541.2,1160.1,541.4z"/>
		
			<linearGradient id="SVGID_14_" gradientUnits="userSpaceOnUse" x1="1650.4135" y1="146.1127" x2="1770.2466" y2="146.1127" gradientTransform="matrix(1 0 0 -1 0 676)">
			<stop  offset="0" style="stop-color:#FAFCFC"/>
			<stop  offset="1" style="stop-color:#FAFCFC;stop-opacity:0.302"/>
		</linearGradient>
		<path opacity="0.2" fill="url(#SVGID_14_)" enable-background="new    " d="M1172.2,563.3c-0.1,0-0.3,0-0.4,0
			c-45.2-9.5-86.6-32.4-118.7-65.6c-0.1-0.1-0.1-0.2-0.2-0.2c0-0.1-0.1-0.2-0.1-0.3c0-0.1,0-0.2,0.1-0.3c0-0.1,0.1-0.2,0.2-0.2
			c0.1-0.1,0.3-0.2,0.5-0.2c0.2,0,0.4,0.1,0.5,0.2c31.9,33,73,55.8,117.9,65.2c0.2,0,0.4,0.2,0.5,0.3c0.1,0.2,0.1,0.4,0.1,0.6
			c0,0.1-0.1,0.3-0.2,0.4C1172.5,563.2,1172.4,563.3,1172.2,563.3z"/>
		<path opacity="0.5" fill="#FAFCFC" enable-background="new    " d="M1228,226.8c0,0-0.6,12.6,10.4,14c0,0-10.6,2.1-10.5,13
			c0,0,0.2-11.5-9.8-13.4C1218,240.5,1228.9,238.8,1228,226.8z"/>
		
			<linearGradient id="SVGID_15_" gradientUnits="userSpaceOnUse" x1="914.139" y1="522.0484" x2="865.0901" y2="471.2044" gradientTransform="matrix(1 0 0 -1 0 676)">
			<stop  offset="0" style="stop-color:#61ADEA"/>
			<stop  offset="1" style="stop-color:#522EB5"/>
		</linearGradient>
		<path fill="url(#SVGID_15_)" d="M895.3,192.5c10.5,0,19.1-8.6,19.1-19.1c0-10.5-8.6-19.1-19.1-19.1c-10.5,0-19.1,8.6-19.1,19.1
			C876.2,184,884.8,192.5,895.3,192.5z"/>
		
			<linearGradient id="SVGID_16_" gradientUnits="userSpaceOnUse" x1="1129.5867" y1="681.5411" x2="1183.1666" y2="801.2722" gradientTransform="matrix(1 0 0 -1 0 676)">
			<stop  offset="0" style="stop-color:#FAFCFC"/>
			<stop  offset="1" style="stop-color:#FAFCFC;stop-opacity:0.302"/>
		</linearGradient>
		<path opacity="0.2" fill="url(#SVGID_16_)" enable-background="new    " d="M1044.2,376.5c6.7,7.7,15.1,13.7,24.7,17.4
			c4,1.6,1.9,7.5-1.8,7.7c-17.7,1-39.5-4.1-54.9-15.8c-15.2,5.6-31.7,9-46.5,0.6c-8.1-4.6-13.2-12.3-17.7-20.2
			c-6.3-11.1-12-22.6-17.4-34.2c-10.9-23.8-19.8-48.4-26.6-73.6c-4-14.8-11.1-36.4,4.3-47.3c8.9-6.3,21.4-9.2,31.6-12.8
			c13.3-4.6,26.7-8.8,40.2-12.6c12.9-3.6,25.8-6.8,38.9-9.7c9.8-2.1,20.7-5.3,30.7-2.7c18.5,4.7,23,26,27.3,41.8
			c6.9,25.7,13.9,51.4,20.9,77.1c5.2,19.1,11.5,42.2-1.4,59.7C1085.1,367.2,1063.4,373.7,1044.2,376.5z"/>
		
			<linearGradient id="SVGID_17_" gradientUnits="userSpaceOnUse" x1="1480.4849" y1="506.4036" x2="897.4949" y2="333.0166" gradientTransform="matrix(1 0 0 -1 0 676)">
			<stop  offset="0" style="stop-color:#D4D6D6"/>
			<stop  offset="1" style="stop-color:#FAFCFC"/>
		</linearGradient>
		<path fill="url(#SVGID_17_)" d="M1033.1,391.7c6.7,7.7,15.1,13.7,24.7,17.4c4,1.6,1.9,7.5-1.8,7.7c-17.7,1-39.5-4.1-54.9-15.8
			c-15.2,5.6-31.7,9-46.5,0.6c-8.1-4.6-13.2-12.3-17.7-20.2c-6.3-11.1-12-22.6-17.4-34.2c-10.9-23.8-19.8-48.4-26.6-73.6
			c-4-14.8-11.1-36.4,4.3-47.3c8.9-6.3,21.4-9.2,31.6-12.8c13.3-4.6,26.7-8.8,40.2-12.6c12.9-3.6,25.8-6.8,38.9-9.7
			c9.8-2.1,20.7-5.3,30.7-2.7c18.5,4.7,23,26,27.3,41.8c6.9,25.7,13.9,51.4,20.9,77.1c5.2,19.1,11.5,42.2-1.4,59.7
			C1073.9,382.4,1052.2,388.9,1033.1,391.7z"/>
		<path fill="#5E94DF" d="M1019.9,299.4c-0.7,0.1-1.3,0.3-1.8,0.6c-0.5,0.3-0.8,0.8-1,1.4c-0.2,0.6-0.2,1.2,0,1.7
			c0.2,0.6,0.6,1,1.1,1.3c0.5,0.3,1.1,0.5,1.7,0.4c0.7-0.1,1.3-0.3,1.8-0.7c0.5-0.3,0.8-0.8,1-1.4c0.2-0.6,0.2-1.2,0-1.7
			c-0.2-0.5-0.6-1-1.1-1.3C1021,299.5,1020.5,299.4,1019.9,299.4z"/>
		<path fill="#5E94DF" d="M978.2,292.6c-2.7-6.5-5.2-13.3-8.8-19.4c-0.9-1.5-3.5-0.5-3.2,1.2c1.4,7.4,4.4,14.4,7.2,21.3
			c0.3,0.7,0.5,1.3,0.8,2c-2.2,0.7-4.4,1.7-6.5,2.6c-2,0.8-4.1,1.5-6.1,2.5c-2.7-7.4-6-14.6-10-21.4c-1.2-2-3.8-0.1-3.3,1.7
			c1.9,7.3,4.8,14.4,7.3,21.5c2.5,7.1,4.6,14.5,7.3,21.5c1.3,3.3,5.8,1.4,5-1.8c-1.4-5.9-3-11.7-5-17.4c2.1-0.5,4.2-1.4,6.3-2
			c2.3-0.7,4.6-1.4,6.8-2.3c1.8,4.8,4,9.4,6.6,13.7c1.6,2.5,5.1,0.3,4.4-2.3C985.1,306.6,981.2,299.6,978.2,292.6z"/>
		<path fill="#5E94DF" d="M991.1,287.5c-2.6-6.6-4.7-14.3-8.9-20.1c-0.2-0.3-0.5-0.5-0.8-0.6s-0.7-0.1-1,0c-0.3,0.1-0.6,0.3-0.8,0.6
			c-0.2,0.3-0.3,0.6-0.3,1c0.7,7.1,4.1,14.2,6.6,20.9c2.8,7.5,5.6,15,8.4,22.5c1.3,3.4,6.7,1.5,5.4-2
			C996.8,302.4,994,295,991.1,287.5z"/>
		<path fill="#5E94DF" d="M1002.9,257.4c-0.2-0.3-0.6-0.5-1-0.6c-0.4-0.1-0.8,0-1.2,0.2c-0.4,0.2-0.6,0.5-0.8,0.9
			c-0.1,0.4-0.2,0.8,0,1.2c3,10.7,8.6,21,12.3,31.5c1.2,3.4,6.6,1.5,5.3-2C1013.7,278.1,1009.7,266.3,1002.9,257.4z"/>
		<path opacity="0.57" fill="#FFFFFF" enable-background="new    " d="M1064.7,259c2.7,2.8,3.6,6.8,4.5,10.6l2.2,9.6
			c0.2,0.6,0.2,1.3,0.1,2c-0.4,1.1-1.7,1.6-2.9,1.7c-2.1,0.2-4.2-0.4-5.9-1.7c-3.3-2.3-4.6-6.5-5.1-10.5c-0.4-3-2.3-9.5-1-12.3
			C1058,254.9,1062.6,256.9,1064.7,259z"/>
		<path opacity="0.57" fill="#FFFFFF" enable-background="new    " d="M1047.1,213.3c6.5,7.3,9.3,17.2,11.7,26.7
			c0.4,1.5,0.7,3.2,0,4.5c-1.2,2.3-4.6,2.1-6.9,0.9c-7.4-4-8.6-14-13.3-20.9c-2-2.9-4.7-5.3-7.8-6.9c-3.1-1.6-6.6-2.5-10.1-2.5
			c-3.3,0-6.8,0.8-10-0.2c-4.7-1.3-6.2-5.6-2.8-8.5c3.2-2.7,9.7-3.4,13.6-3.5C1031,202.5,1040.7,206.2,1047.1,213.3z"/>
		<path opacity="0.5" fill="#FAFCFC" enable-background="new    " d="M1040.6,173.5c0,0-0.6,12.6,10.4,14c0,0-10.6,2.1-10.5,13
			c0,0,0.2-11.5-9.8-13.4C1030.7,187.2,1041.5,185.4,1040.6,173.5z"/>
		
			<linearGradient id="SVGID_18_" gradientUnits="userSpaceOnUse" x1="1389.0498" y1="300.4691" x2="1385.9917" y2="799.4431" gradientTransform="matrix(1 0 0 -1 0 676)">
			<stop  offset="0" style="stop-color:#FAFCFC"/>
			<stop  offset="1" style="stop-color:#FAFCFC;stop-opacity:0.302"/>
		</linearGradient>
		<path opacity="0.2" fill="url(#SVGID_18_)" enable-background="new    " d="M1387.8,291.4c70.4,0,127.4-57,127.4-127.4
			c0-70.4-57-127.4-127.4-127.4c-70.4,0-127.4,57-127.4,127.4C1260.3,234.4,1317.4,291.4,1387.8,291.4z"/>
		
			<linearGradient id="SVGID_19_" gradientUnits="userSpaceOnUse" x1="1388.6823" y1="360.4071" x2="1386.4913" y2="717.9869" gradientTransform="matrix(1 0 0 -1 0 676)">
			<stop  offset="0" style="stop-color:#FAFCFC"/>
			<stop  offset="1" style="stop-color:#FAFCFC;stop-opacity:0.302"/>
		</linearGradient>
		<path opacity="0.2" fill="url(#SVGID_19_)" enable-background="new    " d="M1387.8,255.3c50.4,0,91.3-40.9,91.3-91.3
			c0-50.4-40.9-91.3-91.3-91.3c-50.4,0-91.3,40.9-91.3,91.3C1296.4,214.4,1337.3,255.3,1387.8,255.3z"/>
		<path fill="#545454" d="M1098.2,542.7l114.1-289.1c1-2.5,2.3-4.8,4-6.9c1.6-2,3.4-3.7,5.5-5.1c1.9-1.3,4.1-2.3,6.4-2.9
			c2.1-0.6,4.4-0.6,6.6-0.2l121.8,25.6c2.4,0.5,4.6,1.5,6.6,3.1c1.8,1.5,3.3,3.4,4.2,5.6c1,2.3,1.5,4.8,1.5,7.3
			c0,2.8-0.5,5.6-1.6,8.3l-124.5,323.3c-1.1,2.8-2.6,5.3-4.5,7.6c-1.8,2-3.9,3.7-6.3,4.9c-2.2,1.1-4.7,1.8-7.2,1.8
			c-2.5,0.1-5-0.5-7.3-1.6l-112.6-55.8c-2-1-3.7-2.4-4.9-4.2c-1.3-1.9-2.3-4-2.9-6.3c-0.6-2.4-0.8-5-0.6-7.5
			C1096.6,547.9,1097.2,545.3,1098.2,542.7z"/>
		<path fill="#545454" d="M1226.5,627.2c2.5-0.4,4.8-1.2,6.9-2.5c2.3-1.4,4.3-3.1,6-5.2c1.8-2.3,3.3-4.8,4.4-7.5l124.3-322.8
			c0.8-2,1.3-4.1,1.6-6.2c0.2-1.9,0.2-3.9-0.1-5.9c-0.3-1.8-0.8-3.6-1.6-5.2c-0.8-1.6-1.8-3-3-4.3l3,3.1c1.2,1.3,2.2,2.7,3,4.3
			c0.8,1.6,1.3,3.4,1.6,5.2c0.3,1.9,0.3,3.9,0.1,5.8c-0.3,2.1-0.8,4.2-1.5,6.2l-123.6,321.1c-1,2.7-2.5,5.2-4.3,7.5
			c-1.7,2-3.7,3.8-6,5.1c-2.1,1.3-4.5,2.1-6.9,2.5c-2.4,0.3-4.8,0.2-7.2-0.5l-3.9-1.2C1221.7,627.4,1224.1,627.5,1226.5,627.2z"/>
		<path fill="#52504F" d="M1356.6,263.2c2.6,0.5,5,1.7,7,3.3c2,1.6,3.5,3.7,4.5,6c1.1,2.5,1.6,5.2,1.6,7.9c0,3-0.6,6-1.7,8.9
			L1243.8,612c-1.1,3-2.8,5.7-4.9,8.1c-1.9,2.2-4.2,4-6.8,5.3c-2.4,1.2-5,1.9-7.7,1.9c-2.7,0.1-5.4-0.5-7.8-1.8l-112.3-55.8
			c-2.1-1.1-3.9-2.6-5.3-4.6c-1.4-2-2.5-4.3-3.1-6.7c-0.7-2.6-0.9-5.3-0.7-8c0.2-2.9,0.9-5.7,1.9-8.4l113.7-288.2
			c1-2.6,2.5-5.1,4.3-7.3c1.7-2.1,3.7-4,5.9-5.5c2.1-1.4,4.4-2.5,6.9-3.1c2.3-0.6,4.7-0.7,7-0.2L1356.6,263.2z M1098.8,542.2
			c-1,2.5-1.6,5.2-1.8,7.9c-0.2,2.5,0,5,0.6,7.5c0.6,2.3,1.5,4.4,2.9,6.3c1.3,1.8,3,3.2,4.9,4.2l112.4,55.7c2.3,1.1,4.7,1.7,7.3,1.6
			c2.5-0.1,5-0.7,7.2-1.8c2.4-1.2,4.5-2.9,6.3-4.9c1.9-2.2,3.5-4.8,4.5-7.6l124.3-322.6c1-2.6,1.6-5.4,1.6-8.2c0-2.5-0.5-5-1.5-7.3
			c-0.9-2.2-2.4-4.1-4.2-5.6c-1.9-1.5-4.1-2.6-6.5-3.1l-121.6-25.5c-2.2-0.4-4.4-0.4-6.6,0.2c-2.3,0.6-4.4,1.6-6.4,2.9
			c-2.1,1.4-4,3.1-5.5,5.1c-1.7,2.1-3,4.4-4,6.8L1098.8,542.2"/>
		<path fill="#606060" d="M1233.6,241.7c-1.7-0.3-3.5-0.3-5.1,0.1c-1.8,0.5-3.5,1.2-5,2.3c-1.6,1.1-3.1,2.5-4.3,4
			c-1.3,1.6-2.4,3.4-3.1,5.4L1102.5,541c-0.9,2.4-1.5,4.8-1.7,7.4c-0.2,2.4,0,4.7,0.6,7c0.5,2.1,1.4,4.1,2.7,5.9
			c1.2,1.7,2.8,3,4.6,4l107.2,52.7c2.1,1,4.4,1.6,6.8,1.5c2.3-0.1,4.6-0.7,6.7-1.7c2.2-1.1,4.2-2.7,5.9-4.6c1.8-2.1,3.2-4.5,4.2-7
			l123.3-319.8c0.8-2,1.2-4.2,1.2-6.4c0-2-0.4-3.9-1.2-5.7c-0.7-1.7-1.9-3.2-3.3-4.4c-1.5-1.2-3.2-2-5.1-2.4L1233.6,241.7z"/>
		
			<linearGradient id="SVGID_20_" gradientUnits="userSpaceOnUse" x1="1251.3579" y1="425.987" x2="1249.616" y2="426.922" gradientTransform="matrix(1 0 0 -1 0 676)">
			<stop  offset="0" style="stop-color:#FAFCFC"/>
			<stop  offset="1" style="stop-color:#FAFCFC;stop-opacity:0.302"/>
		</linearGradient>
		<path opacity="0.65" fill="url(#SVGID_20_)" enable-background="new    " d="M1250.7,250.8l-1.2-2.4l1.4,0.3L1250.7,250.8z"/>
		
			<linearGradient id="SVGID_21_" gradientUnits="userSpaceOnUse" x1="1125.7401" y1="138.2118" x2="1330.9071" y2="356.5737" gradientTransform="matrix(1 0 0 -1 0 676)">
			<stop  offset="0" style="stop-color:#D4D6D6"/>
			<stop  offset="1" style="stop-color:#FAFCFC"/>
		</linearGradient>
		<path fill="url(#SVGID_21_)" d="M1359.3,287.8l-12.8,33.1l-26.5,68.9l-31.3,81.2l-5.6,14.6h0l-3.8,10l-6.7,17.5l-9.9,25.6
			l-2.2,5.7l-7.8,20.1l-0.6,1.6c0,0,0,0,0,0l-6.4,16.5l-1.2,3.1l-6.7,17.4c-0.8,2-1.8,3.8-3.2,5.4c-0.3,0.3-0.5,0.6-0.8,0.9
			c-1.6,1.8-3.6,3.2-5.7,4.4c-2,1-4.2,1.7-6.4,1.9c-2.1,0.2-4.2-0.2-6.1-1.1l-13.4-6.6l-11.8-5.8l-24.7-12.1l0,0c0,0,0,0,0,0
			l-25.1-12.3l-14.3-7h0l-6.5-3.2l-10.4-5.1c-1.5-0.8-2.8-2-3.6-3.4c-1-1.6-1.6-3.5-1.9-5.4c-0.4-2.1-0.4-4.3-0.1-6.5
			c0-0.1,0-0.1,0-0.2v0c0.1-1,0.3-1.9,0.5-2.9c0.3-1.3,0.7-2.6,1.2-3.8l0.1-0.2l0.9-2.4l0.3-0.8l2.1-5.3l9.4-23.9l28.9-73.2l0.3-0.8
			c0,0,0,0,0,0l0.2-0.6l0.1-0.2c0,0,0,0,0,0l2.5-6.5l29.7-75.4l11.3-28.7l0.2-0.5l6.1-15.5l19.9-50.4c0.7-1.9,1.7-3.7,3-5.3
			c1.1-1.4,2.4-2.7,4-3.7c1.4-0.9,3-1.6,4.7-1.9c1.7-0.3,3.4-0.3,5.1,0.1l15.2,3.3l1.4,0.3l-0.2,2.1l-0.1,0.7
			c-0.1,1.3,0,2.6,0.2,3.9c0.3,1.2,0.7,2.3,1.3,3.3c0.6,1,1.3,1.8,2.2,2.5c0.6,0.5,1.3,0.8,2,1.1c0.3,0.1,0.6,0.2,1,0.3l55.7,12.5
			c1.2,0.3,2.5,0.3,3.8,0.1c1.4-0.2,2.7-0.6,3.9-1.2c0.5-0.2,1-0.5,1.5-0.8c0.8-0.5,1.6-1,2.3-1.5c1.2-1,2.3-2.1,3.2-3.3l2-2.7
			l18.9,4.1l0.2,0c2.1,0.4,4,1.3,5.8,2.4c1.6,1.1,3,2.5,4,4.2c0.6,1,1,2,1.3,3.1c0.2,0.7,0.3,1.5,0.4,2.3
			C1360.4,283.7,1360.1,285.8,1359.3,287.8z"/>
		
			<linearGradient id="SVGID_22_" gradientUnits="userSpaceOnUse" x1="1310.0183" y1="196.6987" x2="1147.0663" y2="257.9177" gradientTransform="matrix(1 0 0 -1 0 676)">
			<stop  offset="0" style="stop-color:#FAFCFC"/>
			<stop  offset="1" style="stop-color:#FAFCFC;stop-opacity:0.302"/>
		</linearGradient>
		<path opacity="0.82" fill="url(#SVGID_22_)" enable-background="new    " d="M1288.7,470.9l-9.5,24.6l-26.6,68.9l-7,18.1l-1.2,3.1
			l-94.2-159.3l29.7-75.4l17.6-44.7L1288.7,470.9z"/>
		
			<linearGradient id="SVGID_23_" gradientUnits="userSpaceOnUse" x1="1358.1406" y1="318.0139" x2="1275.2485" y2="377.4719" gradientTransform="matrix(1 0 0 -1 0 676)">
			<stop  offset="0" style="stop-color:#FAFCFC"/>
			<stop  offset="1" style="stop-color:#FAFCFC;stop-opacity:0.302"/>
		</linearGradient>
		<path opacity="0.82" fill="url(#SVGID_23_)" enable-background="new    " d="M1346.6,320.9l-26.5,68.9l-63.6-127.6
			c0.3,0.1,0.6,0.2,1,0.3l55.7,12.5c1.2,0.3,2.5,0.3,3.8,0.1c1.4-0.2,2.7-0.6,3.9-1.2c0.5-0.2,1-0.5,1.5-0.8L1346.6,320.9z"/>
		
			<linearGradient id="SVGID_24_" gradientUnits="userSpaceOnUse" x1="1111.8177" y1="155.7115" x2="1039.1248" y2="259.0745" gradientTransform="matrix(1 0 0 -1 0 676)">
			<stop  offset="0" style="stop-color:#FCA464"/>
			<stop  offset="0.389" style="stop-color:#FCB064"/>
			<stop  offset="1" style="stop-color:#FCC064"/>
		</linearGradient>
		<path fill="url(#SVGID_24_)" d="M1126.1,541.8c-23.6,0-51.7-4.2-73.6-20.2c-21.1-15.4-32.9-39-35-70c-0.1-1.2,0.1-2.5,0.5-3.6
			c0.4-1.2,1-2.3,1.8-3.2c0.8-0.9,1.8-1.7,2.9-2.2c1.1-0.5,2.3-0.9,3.5-1c2.5-0.2,4.9,0.7,6.8,2.3c1.9,1.6,3,4,3.2,6.5
			c1.7,25.2,10.8,44,27.2,56c38.3,28,104.4,12.1,105,11.9c2.4-0.6,5-0.2,7.1,1.1s3.7,3.4,4.3,5.8c0.6,2.4,0.2,5-1.1,7.1
			c-1.3,2.1-3.4,3.7-5.8,4.3C1157.7,540.1,1141.9,541.8,1126.1,541.8z"/>
		
			<linearGradient id="SVGID_25_" gradientUnits="userSpaceOnUse" x1="1303.1892" y1="224.9533" x2="1066.1771" y2="214.2633" gradientTransform="matrix(1 0 0 -1 0 676)">
			<stop  offset="0" style="stop-color:#FCA464"/>
			<stop  offset="0.389" style="stop-color:#FCB064"/>
			<stop  offset="1" style="stop-color:#FCC064"/>
		</linearGradient>
		<path fill="url(#SVGID_25_)" d="M1283.1,485.6c-9.8,25.3-21.3,55.3-31,80.4c0,0,0,0,0,0c-22,20.7-55.5,31.3-86.5,24l0,0
			c-9.1-4.5-30.6-15-39.4-19.3c-3.2-2.5-6.2-5.2-9.1-8h0c-4.9-4.8-9.4-10.1-13.5-15.7v0c-0.6-0.9,0.1,0.3-3.3-4.9
			c-57.3-75.6,10.7-278.2,123.2-206.1c13.2,11.4,20.4,30.3,27.8,45.8C1266.3,414.7,1279.4,448.6,1283.1,485.6z"/>
		<path fill="#EF994C" d="M1215.8,529.4c4,0,7.2-3.4,7.2-7.6c0-4.2-3.2-7.6-7.2-7.6c-4,0-7.2,3.4-7.2,7.6
			C1208.6,526,1211.8,529.4,1215.8,529.4z"/>
		<path fill="#EF994C" d="M1131.2,520.8c3.8,0,6.8-3.2,6.8-7.2c0-4-3.1-7.2-6.8-7.2s-6.8,3.2-6.8,7.2
			C1124.4,517.6,1127.5,520.8,1131.2,520.8z"/>
		<path fill="#EF994C" d="M1089.9,488.4c2.4,0,4.3-2.4,4.3-5.4c0-3-1.9-5.4-4.3-5.4s-4.3,2.4-4.3,5.4
			C1085.6,486,1087.5,488.4,1089.9,488.4z"/>
		<path fill="#EF994C" d="M1243.1,473.5c6.4,0,11.5-6.9,11.5-15.3c0-8.5-5.2-15.3-11.5-15.3c-6.4,0-11.5,6.9-11.5,15.3
			C1231.6,466.7,1236.7,473.5,1243.1,473.5z"/>
		
			<linearGradient id="SVGID_26_" gradientUnits="userSpaceOnUse" x1="1158.6012" y1="64.1657" x2="1177.4683" y2="243.5517" gradientTransform="matrix(1 0 0 -1 0 676)">
			<stop  offset="9.800000e-02" style="stop-color:#000000"/>
			<stop  offset="1" style="stop-color:#FFFFFF;stop-opacity:0"/>
		</linearGradient>
		<path opacity="0.15" fill="url(#SVGID_26_)" enable-background="new    " d="M1252.7,564.4l-0.6,1.6c0,0,0,0,0,0c0,0,0,0,0,0
			c-0.6,0.5-1.2,1.1-1.8,1.6c-0.4,0.4-0.9,0.8-1.4,1.2c-0.3,0.3-0.6,0.5-1,0.8c-0.5,0.4-1,0.8-1.5,1.3c-0.5,0.4-1,0.8-1.6,1.2
			c-1,0.7-2,1.5-3,2.2c-0.2,0.1-0.4,0.3-0.5,0.4c-0.1,0-0.1,0.1-0.2,0.1c-0.9,0.6-1.8,1.3-2.8,1.9l0,0c-0.5,0.3-1,0.6-1.5,1
			c-0.6,0.4-1.3,0.8-2,1.2c-0.4,0.2-0.7,0.4-1.1,0.6c-0.1,0.1-0.2,0.1-0.3,0.2c-0.3,0.2-0.6,0.3-0.9,0.5c-0.8,0.5-1.7,0.9-2.5,1.3
			c-0.3,0.2-0.7,0.4-1,0.5c-0.1,0-0.2,0.1-0.2,0.1c-0.3,0.2-0.7,0.3-1,0.5c-0.4,0.2-0.9,0.4-1.3,0.6c-0.2,0.1-0.5,0.2-0.7,0.3
			c-0.2,0.1-0.5,0.2-0.7,0.3l-0.8,0.3c-0.1,0.1-0.2,0.1-0.4,0.1c-0.4,0.2-0.8,0.4-1.2,0.5c-0.7,0.3-1.3,0.5-2,0.8
			c-2.2,0.8-4.4,1.6-6.6,2.3c-1,0.3-2,0.6-3.1,0.9c-0.1,0-0.2,0-0.2,0.1c-0.4,0.1-0.7,0.2-1.1,0.3c-0.7,0.2-1.5,0.4-2.2,0.5
			c-2.2,0.5-4.4,0.9-6.5,1.3c-1,0.2-2.1,0.3-3.1,0.5c-3.9,0.5-7.9,0.8-11.9,0.8c-0.5,0-1,0-1.5,0c-0.2,0-0.3,0-0.5,0
			c-0.5,0-1,0-1.5,0l-0.4,0l-1,0c-0.2,0-0.4,0-0.6,0c-0.4,0-0.9-0.1-1.3-0.1l-1-0.1c0,0-0.1,0-0.1,0c-0.3,0-0.5,0-0.8-0.1h0
			c-0.1,0-0.2,0-0.4,0c-0.7-0.1-1.3-0.1-2-0.2c-0.3,0-0.5-0.1-0.8-0.1c0,0-0.1,0-0.1,0c-0.2,0-0.5-0.1-0.7-0.1c0,0-0.1,0-0.1,0
			l-0.6-0.1c0,0,0,0-0.1,0c-0.2,0-0.5-0.1-0.7-0.1l-0.1,0c-0.2,0-0.4-0.1-0.6-0.1c0,0-0.1,0-0.1,0c-0.1,0-0.3,0-0.4-0.1
			c-0.1,0-0.3-0.1-0.4-0.1h0c0,0-0.1,0-0.1,0c-0.1,0-0.2,0-0.3,0c-0.3,0-0.5-0.1-0.8-0.1c-0.1,0-0.1,0-0.2,0c0,0,0,0-0.1,0
			c-0.9-0.2-1.9-0.4-2.8-0.6l-0.4-0.1l0,0c0,0,0,0,0,0l-25.1-12.3l-14.3-7h0c-0.2-0.2-0.4-0.3-0.6-0.5l-0.2-0.1c0,0,0,0-0.1-0.1
			c-0.1-0.1-0.1-0.1-0.2-0.2c-0.1-0.1-0.2-0.1-0.2-0.2c-0.1,0-0.1-0.1-0.1-0.1c0,0-0.1,0-0.1-0.1c-0.2-0.1-0.3-0.2-0.4-0.4
			c-0.2-0.2-0.4-0.4-0.7-0.6c-0.1-0.1-0.2-0.2-0.4-0.3c-0.1-0.1-0.2-0.1-0.3-0.2c0,0,0,0,0,0c0,0-0.1-0.1-0.1-0.1
			c0,0-0.1-0.1-0.1-0.1l-0.3-0.3c-0.3-0.3-0.6-0.6-1-0.8c-0.1-0.1-0.1-0.1-0.2-0.2c-0.7-0.6-1.4-1.3-2.1-2c-0.4-0.4-0.8-0.7-1.1-1.1
			c-0.3-0.2-0.5-0.5-0.8-0.8h0c-0.1-0.1-0.2-0.2-0.3-0.3l-0.3-0.3c-0.2-0.2-0.3-0.3-0.5-0.5c-0.2-0.2-0.4-0.4-0.6-0.6
			c-0.1-0.1-0.2-0.2-0.3-0.3c-0.3-0.3-0.5-0.5-0.8-0.8c0,0-0.1-0.1-0.1-0.1c-0.1-0.1-0.1-0.1-0.2-0.2c-0.3-0.3-0.5-0.5-0.8-0.8
			c-0.2-0.2-0.4-0.4-0.5-0.6c-0.3-0.3-0.5-0.6-0.8-0.9c-0.1-0.1-0.2-0.2-0.3-0.3c-0.2-0.2-0.4-0.4-0.5-0.6c-0.3-0.3-0.5-0.6-0.8-0.9
			c-0.1-0.1-0.3-0.3-0.4-0.4c-0.1-0.1-0.3-0.3-0.4-0.4c-0.2-0.3-0.5-0.6-0.7-0.9c-0.2-0.3-0.5-0.6-0.7-0.8c-0.3-0.3-0.5-0.6-0.8-1
			c-0.1-0.1-0.2-0.2-0.3-0.4c-0.1-0.1-0.1-0.1-0.2-0.2c-0.1-0.1-0.1-0.2-0.2-0.2c-0.1-0.1-0.2-0.2-0.3-0.3c-0.1-0.2-0.3-0.3-0.4-0.5
			c-0.2-0.2-0.4-0.5-0.6-0.7c-0.2-0.2-0.3-0.4-0.5-0.7c-0.3-0.4-0.6-0.8-0.9-1.2c-0.2-0.2-0.3-0.5-0.5-0.7c0,0,0,0-0.1-0.1v0
			c-0.1-0.2-0.3-0.4-0.4-0.5c0,0,0-0.1-0.1-0.1c-0.3-0.4-0.6-0.8-0.8-1.2c-0.1-0.1-0.2-0.3-0.3-0.4c-0.1-0.2-0.3-0.4-0.4-0.6
			c-0.1-0.2-0.3-0.4-0.4-0.6c-0.3-0.5-0.6-1-1-1.4c0,0,0,0,0,0c-0.1-0.1-0.1-0.2-0.2-0.3c-0.1-0.2-0.2-0.3-0.3-0.5
			c-0.1-0.1-0.2-0.3-0.3-0.4c0-0.1-0.1-0.2-0.1-0.2c-0.3-0.5-0.6-1-0.9-1.5c-0.1-0.2-0.2-0.3-0.3-0.5c-0.2-0.3-0.4-0.7-0.6-1
			c-0.1-0.1-0.1-0.2-0.2-0.3c-0.1-0.1-0.2-0.3-0.2-0.4c-0.2-0.3-0.3-0.6-0.5-0.9c-0.2-0.4-0.5-0.8-0.7-1.2c0-0.1-0.1-0.1-0.1-0.2
			c-0.1-0.1-0.1-0.2-0.2-0.3c-0.2-0.3-0.4-0.7-0.5-1c0-0.1-0.1-0.2-0.1-0.2c-0.2-0.4-0.4-0.8-0.6-1.2c0,0,0,0,0,0
			c-0.3-0.6-0.6-1.1-0.9-1.7c-0.1-0.2-0.2-0.3-0.2-0.5c0-0.1-0.1-0.1-0.1-0.2c0-0.1-0.1-0.1-0.1-0.2c-0.1-0.1-0.1-0.2-0.2-0.3v0h0
			c-0.1-0.1-0.1-0.3-0.2-0.4c0-0.1-0.1-0.1-0.1-0.2c0-0.1-0.1-0.2-0.1-0.3c-0.1-0.3-0.3-0.5-0.4-0.8c-0.2-0.5-0.4-0.9-0.6-1.4
			c0-0.1-0.1-0.1-0.1-0.2c-0.1-0.2-0.2-0.4-0.3-0.6c-0.1-0.2-0.2-0.4-0.3-0.6c0,0,0-0.1-0.1-0.1c0,0,0-0.1,0-0.1l-0.2-0.4
			c0,0,0,0,0-0.1c0-0.1-0.1-0.2-0.1-0.2c-0.1-0.2-0.2-0.4-0.3-0.7c-0.2-0.3-0.3-0.7-0.5-1.1c0-0.1-0.1-0.2-0.1-0.3
			c0-0.1-0.1-0.2-0.1-0.3c0,0,0,0,0,0c0,0,0,0,0,0l-0.3-0.8c-0.1-0.2-0.2-0.4-0.3-0.7c-0.2-0.5-0.4-1.1-0.6-1.6c0,0,0,0,0,0
			c-0.2-0.6-0.5-1.2-0.7-1.8c-0.3-0.8-0.6-1.5-0.8-2.3c-0.2-0.7-0.5-1.3-0.7-2c-0.2-0.7-0.5-1.4-0.7-2.1c-0.2-0.7-0.4-1.4-0.6-2.1
			c-0.2-0.6-0.4-1.3-0.6-1.9c0-0.1-0.1-0.2-0.1-0.3c-0.2-0.7-0.4-1.3-0.5-2c-0.2-0.6-0.3-1.3-0.5-2c0-0.2-0.1-0.4-0.1-0.5
			c-0.1-0.5-0.2-1-0.3-1.5c-0.1-0.2-0.1-0.5-0.1-0.7c-0.1-0.5-0.2-1-0.3-1.4c-0.1-0.6-0.2-1.1-0.3-1.7c-0.1-0.3-0.1-0.7-0.2-1
			c0,0,0-0.1,0-0.1c-0.2-1.2-0.4-2.3-0.6-3.5c0,0,0,0,0,0c-0.1-0.5-0.2-1-0.2-1.5c0-0.1,0-0.2,0-0.4c-0.1-0.4-0.1-0.7-0.1-1.1
			c-0.1-0.6-0.2-1.2-0.2-1.8c-0.1-0.7-0.2-1.5-0.2-2.2c-0.1-0.6-0.1-1.2-0.2-1.9c-0.2-2.5-0.3-5-0.4-7.6c-0.1-4.1-0.1-8.2,0-12.5
			c0.1,3.1,0.3,6.1,0.6,9c1.5,15.8,5.9,31.2,13,45.3c2.4,4.8,5.1,9.5,8.2,14c1.6,2.4,3.3,4.8,5.1,7.1c0.4,0.6,0.9,1.1,1.3,1.7
			c6,7.4,12.8,14.1,20.4,19.8c2.3,1.7,4.7,3.4,7.1,5c5.8,3.7,12.1,6.8,18.6,9.3c20.3,7.6,43.2,8.4,66.9-0.7c4.7-1.8,9.2-4,13.5-6.5
			c9.9-5.8,18.8-13.2,26.2-21.9L1252.7,564.4z"/>
		<path fill="#3A110C" d="M1139.1,435.3c-4.8,0-9.6-0.7-14.3-2.1c-0.1,0-0.2-0.1-0.2-0.1c-0.1-0.1-0.1-0.1-0.2-0.2s-0.1-0.2-0.1-0.2
			c0-0.1,0-0.2,0-0.2c0.1-0.2,0.2-0.3,0.3-0.4c0.1-0.1,0.3-0.1,0.5,0c0.1,0,14.1,4.6,25.9,0c0.1,0,0.2,0,0.2,0c0.1,0,0.2,0,0.2,0.1
			c0.1,0,0.1,0.1,0.2,0.1c0.1,0.1,0.1,0.1,0.1,0.2c0,0.1,0,0.2,0,0.2c0,0.1,0,0.2-0.1,0.2c0,0.1-0.1,0.1-0.1,0.2
			c-0.1,0.1-0.1,0.1-0.2,0.1C1147.6,434.6,1143.4,435.3,1139.1,435.3z"/>
		
			<linearGradient id="SVGID_27_" gradientUnits="userSpaceOnUse" x1="1159.6135" y1="245.842" x2="1175.4685" y2="245.842" gradientTransform="matrix(1 0 0 -1 0 676)">
			<stop  offset="0" style="stop-color:#FAFCFC"/>
			<stop  offset="1" style="stop-color:#FAFCFC;stop-opacity:0.302"/>
		</linearGradient>
		<path opacity="0.43" fill="url(#SVGID_27_)" enable-background="new    " d="M1175.5,430.2c0,2.5-3.6,4.5-7.9,4.5
			c-4.4,0-7.9-2-7.9-4.5c0-2.5,3.5-4.5,7.9-4.5C1171.9,425.6,1175.5,427.7,1175.5,430.2z"/>
		
			<linearGradient id="SVGID_28_" gradientUnits="userSpaceOnUse" x1="1100.5675" y1="245.842" x2="1116.4235" y2="245.842" gradientTransform="matrix(1 0 0 -1 0 676)">
			<stop  offset="0" style="stop-color:#FAFCFC"/>
			<stop  offset="1" style="stop-color:#FAFCFC;stop-opacity:0.302"/>
		</linearGradient>
		<path opacity="0.43" fill="url(#SVGID_28_)" enable-background="new    " d="M1116.4,430.2c0,2.5-3.5,4.5-7.9,4.5s-7.9-2-7.9-4.5
			c0-2.5,3.5-4.5,7.9-4.5C1112.9,425.6,1116.4,427.7,1116.4,430.2z"/>
		<path fill="#3A110C" d="M1176.4,420.9c-0.2,0-0.4-0.1-0.6-0.2c-0.2-0.2-0.2-0.4-0.2-0.6c0-0.4-0.3-9.9-8-9.9h-0.1
			c-7.7,0.1-8.1,9.5-8.1,9.9c0,0.2-0.1,0.4-0.3,0.6c-0.2,0.2-0.4,0.2-0.6,0.2c-0.1,0-0.2,0-0.3-0.1c-0.1,0-0.2-0.1-0.3-0.2
			c-0.1-0.1-0.1-0.2-0.2-0.3c0-0.1-0.1-0.2-0.1-0.3c0.1-4,2.2-11.5,9.7-11.5h0.1c7.4,0,9.6,7.5,9.6,11.5c0,0.1,0,0.2-0.1,0.3
			c0,0.1-0.1,0.2-0.2,0.3c-0.1,0.1-0.2,0.1-0.3,0.2C1176.7,420.9,1176.6,420.9,1176.4,420.9L1176.4,420.9z"/>
		<path fill="#3A110C" d="M1099.6,420.9L1099.6,420.9c-0.1,0-0.2,0-0.3-0.1c-0.1,0-0.2-0.1-0.3-0.2c-0.1-0.1-0.1-0.2-0.2-0.3
			c0-0.1-0.1-0.2-0.1-0.3c0.1-4,2.2-11.5,9.7-11.5h0.1c7.4,0,9.6,7.5,9.6,11.5c0,0.1,0,0.2-0.1,0.3c0,0.1-0.1,0.2-0.2,0.3
			c-0.1,0.1-0.2,0.1-0.3,0.2c-0.1,0-0.2,0.1-0.3,0.1c-0.2,0-0.4-0.1-0.6-0.2c-0.2-0.2-0.3-0.4-0.3-0.6c0-0.4-0.3-9.9-8-9.9h-0.1
			c-7.8,0.1-8.1,9.5-8.1,9.9c0,0.2-0.1,0.4-0.3,0.6C1100,420.8,1099.8,420.9,1099.6,420.9z"/>
		<path fill="#EF994C" d="M1233.7,384.8c2.8,0,5-1.9,5-4.2c0-2.3-2.3-4.2-5-4.2c-2.8,0-5,1.9-5,4.2
			C1228.7,382.9,1231,384.8,1233.7,384.8z"/>
		
			<linearGradient id="SVGID_29_" gradientUnits="userSpaceOnUse" x1="1112.0232" y1="316.2451" x2="1128.5912" y2="301.5691" gradientTransform="matrix(1 0 0 -1 0 676)">
			<stop  offset="0" style="stop-color:#FAFCFC"/>
			<stop  offset="1" style="stop-color:#FAFCFC;stop-opacity:0.302"/>
		</linearGradient>
		<path opacity="0.43" fill="url(#SVGID_29_)" enable-background="new    " d="M1117.6,372.2c-3.3,0.1-3.4-3.5-2.6-5.8
			c0.4-1.2,1.1-2.2,1.9-3.1c0.9-0.9,1.9-1.5,3.1-2c0.6-0.2,1.2-0.3,1.8-0.3c0.6,0,1.2,0.2,1.8,0.5c2.7,1.6,1.3,6.1-0.3,8
			c-0.7,0.8-1.6,1.5-2.6,2C1119.8,371.9,1118.7,372.2,1117.6,372.2z"/>
		
			<linearGradient id="SVGID_30_" gradientUnits="userSpaceOnUse" x1="1137.2175" y1="343.9019" x2="1148.2936" y2="320.8229" gradientTransform="matrix(1 0 0 -1 0 676)">
			<stop  offset="0" style="stop-color:#FAFCFC"/>
			<stop  offset="1" style="stop-color:#FAFCFC;stop-opacity:0.302"/>
		</linearGradient>
		<path opacity="0.43" fill="url(#SVGID_30_)" enable-background="new    " d="M1150.1,333.4c4.1-1.4,8.3-1.4,11,2.3
			c4.1,5.7-3.2,11.2-7.8,13.6c-5.6,2.9-11.1,5.7-16.5,8.7c-1.9,1-6.2,2.8-8.2,1.1C1120.3,352.2,1144.9,335.2,1150.1,333.4z"/>
		<path fill="#EF994C" d="M1219.8,333c-2.5,6.4-7.6,10.8-13.4,10.8c-8.3,0-15.1-9-15.1-20.1c0-0.7,0-1.4,0.1-2
			c0.9,0.1,1.8,0.3,2.6,0.4C1203.3,323.8,1212.1,327.5,1219.8,333z"/>
		
			<linearGradient id="SVGID_31_" gradientUnits="userSpaceOnUse" x1="1221.0906" y1="32.863" x2="1184.1487" y2="184.756" gradientTransform="matrix(1 0 0 -1 0 676)">
			<stop  offset="0" style="stop-color:#FABD55"/>
			<stop  offset="1" style="stop-color:#FACA78"/>
		</linearGradient>
		<path fill="url(#SVGID_31_)" d="M1283.1,485.6L1283.1,485.6c-35.9,89-24.3,73.8-37.5,85.9c-21.6,17.2-53.2,25.1-80,18.4
			c-10.3-5.1-30.5-14.9-39.3-19.2c-3.2-2.5-6.2-5.2-9.1-8h0c-4.9-4.8-9.4-10.1-13.5-15.7v0c-0.6-0.9,0.1,0.3-3.3-4.9
			c-4.9-7.5-8.9-15.4-12.2-23.7c62.5-22.8,126.3-42.6,189.8-63.1C1280.5,465.2,1282.2,475.4,1283.1,485.6z"/>
		<path opacity="0.41" fill="#FFFFFF" enable-background="new    " d="M1283,485.4c0,0.1,0,0.1,0,0.2h0c-2.4,6.2-8.2,21.2-10.6,27.4
			c-31,9.9-123.4,39.5-155.3,49.7c-6.3-6.2-12-13.1-16.8-20.6c-0.1-0.1-0.1-0.2-0.2-0.3c50-16,133-42.5,182.8-58.4
			C1282.9,483.9,1282.9,483.3,1283,485.4z"/>
		<path opacity="0.41" fill="#FFFFFF" enable-background="new    " d="M1262.6,538.6c-15.9,41-6.1,26.4-45.7,41
			c-48.7,14.7-35.6,18.1-76.4-1.9C1164.7,569.9,1239,546.2,1262.6,538.6z"/>
		
			<linearGradient id="SVGID_32_" gradientUnits="userSpaceOnUse" x1="1265.474" y1="187.5963" x2="1136.853" y2="52.6033" gradientTransform="matrix(1 0 0 -1 0 676)">
			<stop  offset="0" style="stop-color:#FCA464"/>
			<stop  offset="0.389" style="stop-color:#FCB064"/>
			<stop  offset="1" style="stop-color:#FCC064"/>
		</linearGradient>
		<path fill="url(#SVGID_32_)" d="M1171.3,602.1c-2.3,0-4.5-0.8-6.2-2.3c-1.7-1.5-2.8-3.6-3.1-5.8c-0.3-2.5,0.3-5,1.9-7
			c1.5-2,3.8-3.3,6.2-3.6c34.1-4.5,55-14.8,60.5-29.8c7-19.3-11.8-45.8-19.6-54.3c-1.7-1.8-2.6-4.3-2.5-6.8c0.1-2.5,1.2-4.8,3-6.5
			c1.8-1.7,4.3-2.6,6.8-2.5c2.5,0.1,4.8,1.2,6.5,3c1.5,1.6,35.8,39.4,23.5,73.5c-8.1,22.3-33.6,36.5-75.7,42.1
			C1172.2,602.1,1171.8,602.1,1171.3,602.1z"/>
		
			<linearGradient id="SVGID_33_" gradientUnits="userSpaceOnUse" x1="1388.3843" y1="409.0511" x2="1386.8962" y2="651.8779" gradientTransform="matrix(1 0 0 -1 0 676)">
			<stop  offset="0" style="stop-color:#FAFCFC"/>
			<stop  offset="1" style="stop-color:#FAFCFC;stop-opacity:0.302"/>
		</linearGradient>
		<path opacity="0.2" fill="url(#SVGID_33_)" enable-background="new    " d="M1387.8,226c34.2,0,62-27.8,62-62
			c0-34.2-27.8-62-62-62c-34.2,0-62,27.8-62,62C1325.7,198.3,1353.5,226,1387.8,226z"/>
	</g>
	<g clip-path="url(#SVGID_2_)">
		<defs>
			<rect id="SVGID_34_" y="182.5" width="169" height="310"/>
		</defs>
		<clipPath id="SVGID_35_">
			<use xlink:href="#SVGID_34_"  overflow="visible"/>
		</clipPath>
		<g opacity="0.4" clip-path="url(#SVGID_35_)">
			<path opacity="0.2" fill="#7A7A7A" enable-background="new    " d="M9.6,485.8c3.1-3.1,3.1-8.2,0-11.3c-3.1-3.1-8.2-3.1-11.3,0
				c-3.1,3.1-3.1,8.2,0,11.3C1.4,489,6.5,489,9.6,485.8z"/>
			<path opacity="0.2" fill="#7A7A7A" enable-background="new    " d="M47.8,447.7c3.1-3.1,3.1-8.2,0-11.3c-3.1-3.1-8.2-3.1-11.3,0
				c-3.1,3.1-3.1,8.2,0,11.3C39.6,450.8,44.7,450.8,47.8,447.7z"/>
			<path opacity="0.2" fill="#7A7A7A" enable-background="new    " d="M86,409.5c3.1-3.1,3.1-8.2,0-11.3c-3.1-3.1-8.2-3.1-11.3,0
				c-3.1,3.1-3.1,8.2,0,11.3C77.8,412.6,82.9,412.6,86,409.5z"/>
			<path opacity="0.2" fill="#7A7A7A" enable-background="new    " d="M3.2,403.1c3.1-3.1,3.1-8.2,0-11.3c-3.1-3.1-8.2-3.1-11.3,0
				c-3.1,3.1-3.1,8.2,0,11.3C-4.9,406.2,0.1,406.2,3.2,403.1z"/>
			<path opacity="0.2" fill="#7A7A7A" enable-background="new    " d="M124.2,371.3c3.1-3.1,3.1-8.2,0-11.3c-3.1-3.1-8.2-3.1-11.3,0
				c-3.1,3.1-3.1,8.2,0,11.3C116,374.4,121,374.4,124.2,371.3z"/>
			<path opacity="0.2" fill="#7A7A7A" enable-background="new    " d="M41.4,364.9c3.1-3.1,3.1-8.2,0-11.3c-3.1-3.1-8.2-3.1-11.3,0
				c-3.1,3.1-3.1,8.2,0,11.3C33.2,368.1,38.3,368.1,41.4,364.9z"/>
			<path opacity="0.2" fill="#7A7A7A" enable-background="new    " d="M162.3,333.1c3.1-3.1,3.1-8.2,0-11.3c-3.1-3.1-8.2-3.1-11.3,0
				c-3.1,3.1-3.1,8.2,0,11.3C154.2,336.2,159.2,336.2,162.3,333.1z"/>
			<path opacity="0.2" fill="#7A7A7A" enable-background="new    " d="M79.6,326.8c3.1-3.1,3.1-8.2,0-11.3s-8.2-3.1-11.3,0
				c-3.1,3.1-3.1,8.2,0,11.3C71.4,329.9,76.5,329.9,79.6,326.8z"/>
			<path opacity="0.2" fill="#7A7A7A" enable-background="new    " d="M-3.1,320.4c3.1-3.1,3.1-8.2,0-11.3c-3.1-3.1-8.2-3.1-11.3,0
				s-3.1,8.2,0,11.3C-11.3,323.5-6.2,323.5-3.1,320.4z"/>
			<path opacity="0.2" fill="#7A7A7A" enable-background="new    " d="M117.8,288.6c3.1-3.1,3.1-8.2,0-11.3c-3.1-3.1-8.2-3.1-11.3,0
				c-3.1,3.1-3.1,8.2,0,11.3C109.6,291.7,114.7,291.7,117.8,288.6z"/>
			<path opacity="0.2" fill="#7A7A7A" enable-background="new    " d="M35.1,282.2c3.1-3.1,3.1-8.2,0-11.3c-3.1-3.1-8.2-3.1-11.3,0
				c-3.1,3.1-3.1,8.2,0,11.3C26.9,285.3,31.9,285.3,35.1,282.2z"/>
			<path opacity="0.2" fill="#7A7A7A" enable-background="new    " d="M73.3,244c3.1-3.1,3.1-8.2,0-11.3c-3.1-3.1-8.2-3.1-11.3,0
				c-3.1,3.1-3.1,8.2,0,11.3C65.1,247.1,70.1,247.1,73.3,244z"/>
			<path opacity="0.2" fill="#7A7A7A" enable-background="new    " d="M28.7,199.5c3.1-3.1,3.1-8.2,0-11.3c-3.1-3.1-8.2-3.1-11.3,0
				c-3.1,3.1-3.1,8.2,0,11.3C20.5,202.6,25.6,202.6,28.7,199.5z"/>
		</g>
	</g>
</g>
</svg>
