<svg width="169" height="310" viewBox="0 0 169 310" fill="none" xmlns="http://www.w3.org/2000/svg">
<g opacity="0.4">
<path opacity="0.2" d="M9.61375 303.349C12.7379 300.225 12.7379 295.159 9.61375 292.035C6.48955 288.911 1.42424 288.911 -1.69996 292.035C-4.82415 295.159 -4.82415 300.225 -1.69996 303.349C1.42424 306.473 6.48955 306.473 9.61375 303.349Z" fill="#7A7A7A"/>
<path opacity="0.2" d="M47.7975 265.165C50.9217 262.041 50.9217 256.976 47.7975 253.851C44.6733 250.727 39.608 250.727 36.4838 253.851C33.3596 256.976 33.3596 262.041 36.4838 265.165C39.608 268.289 44.6733 268.289 47.7975 265.165Z" fill="#7A7A7A"/>
<path opacity="0.2" d="M85.9813 226.981C89.1055 223.857 89.1055 218.792 85.9813 215.667C82.8571 212.543 77.7918 212.543 74.6676 215.667C71.5434 218.792 71.5434 223.857 74.6676 226.981C77.7918 230.105 82.8571 230.105 85.9813 226.981Z" fill="#7A7A7A"/>
<path opacity="0.2" d="M3.24973 220.617C6.37393 217.493 6.37393 212.428 3.24973 209.304C0.125541 206.18 -4.93978 206.18 -8.06397 209.304C-11.1882 212.428 -11.1882 217.493 -8.06397 220.617C-4.93978 223.742 0.125541 223.742 3.24973 220.617Z" fill="#7A7A7A"/>
<path opacity="0.2" d="M124.165 188.798C127.289 185.673 127.289 180.608 124.165 177.484C121.041 174.36 115.976 174.36 112.851 177.484C109.727 180.608 109.727 185.673 112.851 188.798C115.976 191.922 121.041 191.922 124.165 188.798Z" fill="#7A7A7A"/>
<path opacity="0.2" d="M41.4336 182.434C44.5578 179.309 44.5578 174.244 41.4336 171.12C38.3094 167.996 33.2441 167.996 30.1199 171.12C26.9957 174.244 26.9957 179.309 30.1199 182.434C33.2441 185.558 38.3094 185.558 41.4336 182.434Z" fill="#7A7A7A"/>
<path opacity="0.2" d="M162.349 150.614C165.473 147.49 165.473 142.424 162.349 139.3C159.225 136.176 154.159 136.176 151.035 139.3C147.911 142.424 147.911 147.49 151.035 150.614C154.159 153.738 159.225 153.738 162.349 150.614Z" fill="#7A7A7A"/>
<path opacity="0.2" d="M79.6173 144.25C82.7415 141.126 82.7415 136.06 79.6173 132.936C76.4931 129.812 71.4278 129.812 68.3036 132.936C65.1794 136.06 65.1794 141.126 68.3036 144.25C71.4278 147.374 76.4931 147.374 79.6173 144.25Z" fill="#7A7A7A"/>
<path opacity="0.2" d="M-3.11416 137.886C0.0100388 134.762 0.0100388 129.696 -3.11416 126.572C-6.23835 123.448 -11.3037 123.448 -14.4279 126.572C-17.5521 129.696 -17.5521 134.762 -14.4279 137.886C-11.3037 141.01 -6.23835 141.01 -3.11416 137.886Z" fill="#7A7A7A"/>
<path opacity="0.2" d="M117.801 106.066C120.925 102.942 120.925 97.8766 117.801 94.7525C114.677 91.6283 109.612 91.6283 106.487 94.7525C103.363 97.8766 103.363 102.942 106.487 106.066C109.612 109.19 114.677 109.19 117.801 106.066Z" fill="#7A7A7A"/>
<path opacity="0.2" d="M35.0696 99.7021C38.1938 96.5779 38.1938 91.5126 35.0696 88.3884C31.9454 85.2643 26.88 85.2643 23.7559 88.3884C20.6317 91.5126 20.6317 96.5779 23.7559 99.7021C26.88 102.826 31.9454 102.826 35.0696 99.7021Z" fill="#7A7A7A"/>
<path opacity="0.2" d="M73.2534 61.5183C76.3776 58.3941 76.3776 53.3288 73.2534 50.2046C70.1292 47.0804 65.0639 47.0804 61.9397 50.2046C58.8155 53.3288 58.8155 58.3941 61.9397 61.5183C65.0639 64.6425 70.1292 64.6425 73.2534 61.5183Z" fill="#7A7A7A"/>
<path opacity="0.2" d="M28.7057 16.9706C31.8299 13.8464 31.8299 8.78106 28.7057 5.65687C25.5815 2.53267 20.5162 2.53267 17.392 5.65687C14.2678 8.78106 14.2678 13.8464 17.392 16.9706C20.5162 20.0948 25.5815 20.0948 28.7057 16.9706Z" fill="#7A7A7A"/>
</g>
</svg>
