<?xml version="1.0" encoding="utf-8"?>
<!-- Generator: Adobe Illustrator 24.0.1, SVG Export Plug-In . SVG Version: 6.00 Build 0)  -->
<svg version="1.1" id="Layer_1" xmlns="http://www.w3.org/2000/svg" xmlns:xlink="http://www.w3.org/1999/xlink" x="0px" y="0px"
	 viewBox="0 0 750.6 744.9" enable-background="new 0 0 750.6 744.9" xml:space="preserve">
<g>
	<defs>
		<rect id="SVGID_1_" y="0" width="751.1" height="744.8"/>
	</defs>
	<clipPath id="SVGID_2_">
		<use xlink:href="#SVGID_1_"  overflow="visible"/>
	</clipPath>
	<g clip-path="url(#SVGID_2_)">
		
			<linearGradient id="SVGID_3_" gradientUnits="userSpaceOnUse" x1="512.5869" y1="1472.1455" x2="514.9578" y2="1960.6906" gradientTransform="matrix(1 0 0 1 0 -1224)">
			<stop  offset="0" style="stop-color:#FAFCFC"/>
			<stop  offset="1" style="stop-color:#FAFCFC;stop-opacity:0"/>
		</linearGradient>
		<path opacity="0.51" fill="url(#SVGID_3_)" enable-background="new    " d="M579.4,59.5c-58.9,22.2-125.6,30-184.8,8.6
			c-31.6-11.4-62.4-31.2-95.9-27.7C264.5,44,237.7,71,217.9,99s-36.5,59.4-64,79.9c-29.5,22-71.6,32.1-86.5,65.8
			c-12.3,27.8,0.1,60.4,17.2,85.6c17.1,25.2,39.3,47.6,49.4,76.3c9.2,25.9,7.6,54.2,9.9,81.6c2.3,27.4,9.9,56.8,31.7,73.5
			c26,19.9,62.7,15.3,94.6,8.1c66.3-15,137.4-36.8,199.9-10.2c32.8,14,63.3,41.1,98.6,36.3c36.2-4.9,58.9-41.4,71.1-75.9
			c12.2-34.4,20.3-72.7,47.3-97.4c42.4-38.7,105.2-26.1,157-35.7c57.8-10.7,97.9-57.6,112.6-114.6C988.8,148,887.5,36.7,774.6,5.7
			C693-16.7,651.1,32.5,579.4,59.5z"/>
		
			<linearGradient id="SVGID_4_" gradientUnits="userSpaceOnUse" x1="418.8635" y1="955.139" x2="563.0305" y2="1834.223" gradientTransform="matrix(1 0 0 1 0 -1224)">
			<stop  offset="0" style="stop-color:#F6F7F7"/>
			<stop  offset="1" style="stop-color:#FAFCFC;stop-opacity:0"/>
		</linearGradient>
		<path fill="url(#SVGID_4_)" d="M581.5,132.8c-58.9,22.2-125.6,30-184.8,8.6c-31.6-11.4-62.4-31.2-95.9-27.7
			c-34.1,3.6-60.9,30.6-80.7,58.6s-36.5,59.4-64,79.9c-29.5,22-71.6,32.1-86.5,65.8c-12.3,27.8,0.1,60.4,17.2,85.6
			c17.1,25.2,39.3,47.6,49.4,76.3c9.2,25.9,7.6,54.2,9.9,81.6c2.3,27.4,9.9,56.8,31.7,73.5c26,19.9,62.7,15.3,94.6,8.1
			c66.3-15,137.4-36.8,199.9-10.2c32.8,14,63.3,41.1,98.6,36.3c36.2-4.9,58.9-41.4,71.1-75.9c12.2-34.4,20.3-72.7,47.3-97.4
			c42.4-38.7,105.2-26.1,157-35.7c57.8-10.7,97.9-57.6,112.6-114.6C991,221.3,889.7,110,776.8,79
			C695.1,56.5,653.2,105.8,581.5,132.8z"/>
		
			<linearGradient id="SVGID_5_" gradientUnits="userSpaceOnUse" x1="117.1064" y1="1601.2012" x2="1644.5063" y2="1570.6732" gradientTransform="matrix(1 0 0 1 0 -1224)">
			<stop  offset="0" style="stop-color:#61ADEA"/>
			<stop  offset="1" style="stop-color:#522EB5"/>
		</linearGradient>
		<path fill="url(#SVGID_5_)" d="M1043.4,339.4c-4,15.6-10.1,30.6-18.1,44.5c-9.4,16.5-21.9,31-36.8,42.7
			c-11.8,9.2-25.1,16.2-39.4,20.8c-5.2,1.7-10.4,3-15.7,4c-21.9,4.1-45.7,4.1-69.1,5.8c-25.6,1.9-50.6,5.9-71.8,19.5
			c-4.4,2.8-8.6,6.1-12.5,9.6c-2.1,1.9-4.1,3.9-6,6c-21.7,24-29.3,58.2-40.3,89.1c-11.9,33.6-34.1,69.3-69.4,74.1
			c-23.2,3.2-44.3-7.8-65.4-19.5c-0.4-0.2-0.8-0.5-1.2-0.7c-9.8-5.5-19.6-11-29.7-15.3c-56.8-24.2-120.8-7.4-181.6,6.8
			c-4.6,1.1-9.1,2.1-13.6,3.1c-31.2,7-67,11.5-92.4-7.9c-11.9-9.1-19.5-22.1-24.3-36.4c-1.5-4.7-2.8-9.4-3.8-14.2
			c-0.1-0.4-0.2-0.7-0.2-1.1c0-0.1-0.1-0.3-0.1-0.4c-1.2-6.5-2.1-13-2.7-19.6c-1.3-15.8-1.3-32-2.9-47.8c-0.1-1.4-0.3-2.8-0.5-4.2
			c-0.4-3.6-1-7.1-1.7-10.7c0-0.3-0.1-0.5-0.1-0.7c-0.2-1.1-0.4-2.2-0.7-3.2c-0.5-2.4-1.1-4.7-1.8-7c-0.5-1.6-1-3.3-1.5-4.9
			c-0.1-0.4-0.3-0.8-0.4-1.2c-0.2-0.7-0.5-1.3-0.7-2c-4.4-11.8-10.9-22.5-18.2-32.8c-5.8-8.2-12-16.2-18.1-24.3
			c-3.9-5.1-7.7-10.2-11.2-15.5c-16.7-24.6-28.8-56.4-16.8-83.6c11.2-25.5,38.3-37.1,63.4-51c7.3-3.9,14.3-8.4,21.1-13.2
			c4.2-3.1,8.2-6.5,11.9-10.1c0.3-0.3,0.7-0.6,1-1c0.3-0.3,0.6-0.6,0.9-0.9c7.9-8.1,15.1-16.8,21.6-26c6.1-8.5,11.9-17.4,17.7-26.2
			c3.1-4.7,6.2-9.3,9.5-13.9c4.5-6.4,9.3-12.6,14.5-18.5c17.3-19.8,38.7-36.1,64.4-38.8c9.5-0.9,19-0.2,28.2,2.1
			c16.7,3.9,33,11.6,49.3,18.5c2.9,1.2,5.8,2.4,8.6,3.6c2.5,1,5,2,7.5,2.9c7.9,2.9,16,5.2,24.2,7c5.6,1.3,11.3,2.3,17.1,3.1
			c10.2,1.4,20.5,2.2,30.8,2.2c27.2,0.2,54.7-4.1,81.1-11.6c0.5-0.1,0.9-0.3,1.4-0.4c8.8-2.6,17.5-5.4,26.1-8.7
			c8.7-3.3,16.9-6.9,24.8-10.6c12.9-6.1,24.9-12.6,36.6-18.8c19.7-10.4,38.6-19.9,59.3-24.9c11.9-2.9,24.1-4.2,36.3-3.7
			c11.4,0.5,22.8,2.3,33.8,5.5c4.7,1.3,9.4,2.7,14,4.3c10.6,3.6,21,7.9,31.1,12.8C1000.9,139.8,1070.4,234.9,1043.4,339.4z"/>
		
			<linearGradient id="SVGID_6_" gradientUnits="userSpaceOnUse" x1="162.509" y1="1769.9817" x2="368.653" y2="1509.4006" gradientTransform="matrix(1 0 0 1 0 -1224)">
			<stop  offset="0" style="stop-color:#FAFCFC"/>
			<stop  offset="1" style="stop-color:#FAFCFC;stop-opacity:0.302"/>
		</linearGradient>
		<path opacity="0.2" fill="url(#SVGID_6_)" enable-background="new    " d="M518.2,146.9c-1.7,20.1-3.5,40.3-5.2,60.4
			c-4.6,53.5-11.9,112.5-52.3,147.8c-24.4,21.4-57,30.2-86.9,42.7c-48.9,20.3-92.7,51.7-129.5,89.9c0-0.3-0.1-0.5-0.1-0.7
			c-0.2-1.1-0.4-2.2-0.7-3.2c-0.5-2.4-1.1-4.7-1.8-7c-0.5-1.6-1-3.2-1.5-4.9c-0.1-0.4-0.3-0.8-0.4-1.2c-0.2-0.7-0.5-1.3-0.7-2
			c-4.4-11.8-10.9-22.5-18.2-32.8c20.4-38.5,25.1-84.3,22.3-128.2c-1-15.5-2.8-30.9-5.1-46.3c7.3-3.9,14.3-8.4,21.1-13.2
			c4.2-3.1,8.2-6.5,11.9-10.1c0.3-0.3,0.7-0.6,1-1c0.3-0.3,0.6-0.6,0.9-0.9c7.9-8.1,15.1-16.8,21.6-26c10.1,12.7,22.8,23,38,29.3
			c37.4,15.7,82.9,3.4,112.4-24.4c21.8-20.7,35.4-48.5,41.9-78c2.5,1,5,2,7.5,2.9C502,142.7,510,145.1,518.2,146.9z"/>
		<g opacity="0.4">
			<path opacity="0.25" fill="#FFFFFF" enable-background="new    " d="M485.6,470c-16,15.5-37,27.6-65.8,38.1
				c-18,6.6-36.9,11.7-55.1,16.7c-22.1,6-44.9,12.3-66.4,21c-16.4,6.6-31.8,15.2-46.1,25.7c-0.1-0.4-0.2-0.7-0.2-1.1
				c14.2-10.4,29.6-18.9,45.9-25.5c21.6-8.8,44.4-15,66.6-21.1c18.2-5,37-10.1,55-16.6c28.7-10.4,49.5-22.4,65.4-37.8
				c19.8-19.1,31-43.6,30.5-67.2c-0.6-32.3-21.5-63.6-62.2-92.8c-53.2-38.3-117-63.1-182.3-71.3c0.3-0.3,0.7-0.6,1-1
				c27.5,3.5,54.6,9.8,80.9,19c36,12.5,70.1,30.1,101.1,52.4c18.1,13,32.5,26.7,42.9,40.7c12.8,17.3,19.4,35.1,19.8,53
				C516.9,425.9,505.7,450.7,485.6,470z"/>
			<path opacity="0.25" fill="#FFFFFF" enable-background="new    " d="M763.2,406.5c-2.9,16.1-9.3,31.4-18.8,44.7
				c-9.5,13.4-21.9,24.4-36.2,32.4c-12.2,6.7-26,11.2-39.4,15.6c-23.6,7.7-45.9,15.1-60.9,33.4c-12.5,15.3-18.2,37.9-16.1,63.7
				c1.1,13.4,4,26.7,7.2,39.7c-0.4-0.2-0.8-0.5-1.2-0.7c-3.1-12.7-5.9-25.8-7-38.9c-2.2-26,3.6-48.9,16.3-64.4
				c15.2-18.6,38.7-26.3,61.4-33.7c13.3-4.4,27.1-8.9,39.2-15.5c28.2-15.4,49.1-44.7,54.5-76.4s-4.5-66.2-25.9-90.2
				c-12.2-13.6-28.1-24.5-43.5-35.1c-26-17.8-50.5-34.6-59.1-63.4c-7.8-26.3,1.4-53.7,13.5-77.1c0.5-0.1,0.9-0.3,1.4-0.4
				c-12.2,23.4-21.7,50.9-13.9,77.2c8.5,28.4,32.8,45.1,58.7,62.8c15.5,10.6,31.4,21.6,43.7,35.3c10.9,12.3,18.8,26.8,23.3,42.6
				C764.9,373.8,765.9,390.3,763.2,406.5z"/>
		</g>
		<g opacity="0.1">
			<path opacity="0.1" fill="#FFFFFF" enable-background="new    " d="M353.5,485.5c-0.6,0.7-1.2,2-1.8,2.6
				c-2.7,3.4-5.8,5.4-10.2,5.5c-4.4,0.2-7.7-1.7-10.7-4.8c-0.1-0.1-0.3-0.4-0.4-0.5c-2.2-2.3-4.6-3.6-7.9-3.5
				c-3.2,0.1-5.6,1.6-7.6,4.1c-0.1,0.2-0.3,0.5-0.5,0.7c-2.8,3.4-6,5.4-10.4,5.6s-7.9-1.6-10.9-4.8c-0.3-0.3-0.7-0.9-1-1.2
				c-1-1.1-2.2-2.1-3.6-2.7s-2.9-0.9-4.4-0.8s-3,0.5-4.3,1.2s-2.5,1.7-3.4,2.9c-0.2,0.2-0.4,0.7-0.6,0.9c-1.3,1.7-2.8,3-4.7,4
				c-1.8,1-3.9,1.5-5.9,1.7l0,0c-2.1,0-4.1-0.4-6-1.2c-1.9-0.8-3.6-2.1-5-3.6c-0.3-0.3-0.6-0.8-0.9-1.1c-1-1.2-2.3-2.1-3.7-2.7
				s-2.9-0.9-4.5-0.8c-0.4,0-0.7,0-1,0.1c-0.2-1.1-0.4-2.2-0.7-3.2c0.5-0.1,1.1-0.1,1.6-0.1c4.5-0.2,7.9,1.6,11.1,4.8
				c0.3,0.3,0.6,0.8,0.9,1.1c1,1.1,2.3,2.1,3.7,2.7s2.9,0.9,4.4,0.8s3-0.5,4.4-1.2c1.3-0.7,2.5-1.7,3.4-2.9c0.2-0.2,0.4-0.7,0.6-0.9
				c2.8-3.4,6.1-5.4,10.5-5.6c4.5-0.2,7.9,1.6,10.9,4.8c0.3,0.3,0.7,0.9,1,1.3c1,1.1,2.2,2.1,3.6,2.7c1.4,0.6,2.9,0.9,4.4,0.8
				c3.3-0.1,5.6-1.6,7.6-4.1c0.1-0.2,0.4-0.6,0.5-0.7c1.5-1.9,8.5-9.9,10.4-5.7c2,0,4.1,0.4,5.9,1.3c1.9,0.9,3.5,2.1,4.9,3.6
				c0.1,0.1,0.3,0.4,0.4,0.5c2.2,2.3,4.6,3.7,7.8,3.6c3.2-0.1,5.5-1.5,7.5-4.1c0.5-0.7,1.2-1.9,1.8-2.6
				C351.6,484.2,352.6,484.8,353.5,485.5z"/>
		</g>
		<g opacity="0.1">
			<path opacity="0.1" fill="#FFFFFF" enable-background="new    " d="M352.8,469.2c-0.5,0.7-1.2,1.9-1.8,2.6
				c-2.7,3.4-5.8,5.4-10.2,5.5c-4.4,0.2-7.7-1.7-10.7-4.8c-0.1-0.1-0.3-0.4-0.4-0.5c-2.2-2.3-4.7-3.6-7.9-3.5s-5.6,1.6-7.6,4.1
				c-0.1,0.2-0.3,0.5-0.5,0.7c-2.8,3.4-5.9,5.4-10.4,5.6c-4.4,0.2-7.9-1.6-10.9-4.8c-0.3-0.3-0.7-0.9-1-1.3c-1-1.1-2.2-2-3.6-2.7
				c-1.4-0.6-2.9-0.9-4.4-0.8s-3,0.5-4.3,1.2s-2.5,1.7-3.4,2.9c-0.2,0.2-0.5,0.7-0.6,0.9c-1.3,1.6-2.8,3-4.7,4
				c-1.8,1-3.8,1.5-5.9,1.7c-2.1,0-4.1-0.4-6-1.2c-1.9-0.8-3.6-2.1-5-3.6c-0.3-0.3-0.6-0.8-0.9-1.1c-1-1.1-2.2-2.1-3.6-2.7
				c-1.4-0.6-2.9-0.9-4.4-0.8c-1.6,0-3.1,0.4-4.5,1.2c-0.1-0.4-0.3-0.8-0.4-1.2c-0.2-0.7-0.5-1.3-0.7-2c1.7-0.8,3.6-1.3,5.5-1.3
				c4.5-0.2,7.9,1.6,11,4.8c0.3,0.3,0.6,0.8,0.9,1.1c1,1.1,2.2,2.1,3.6,2.7c1.4,0.6,2.9,0.9,4.4,0.8s3-0.5,4.3-1.2s2.5-1.7,3.4-2.9
				c0.2-0.2,0.5-0.7,0.6-0.9c2.8-3.4,6-5.4,10.5-5.6s7.9,1.6,10.9,4.8c0.3,0.3,0.7,0.9,1,1.3c1,1.1,2.2,2,3.6,2.6
				c1.4,0.6,2.9,0.9,4.4,0.8s3-0.5,4.3-1.2s2.5-1.7,3.3-2.9c0.1-0.2,0.4-0.6,0.5-0.7c1.5-1.9,8.5-9.9,10.4-5.7l0,0
				c2,0,4.1,0.4,5.9,1.2s3.5,2.1,4.9,3.6c0.1,0.1,0.3,0.4,0.4,0.5c2.2,2.3,4.6,3.7,7.9,3.5c1.5,0,2.9-0.4,4.2-1.1
				c1.3-0.7,2.4-1.7,3.3-2.9c0.5-0.7,1.2-1.9,1.8-2.6C351,467.9,351.9,468.6,352.8,469.2z"/>
		</g>
		
			<linearGradient id="SVGID_7_" gradientUnits="userSpaceOnUse" x1="245.9" y1="1768.8965" x2="774" y2="1768.8965" gradientTransform="matrix(1 0 0 1 0 -1224)">
			<stop  offset="9.800000e-02" style="stop-color:#000000"/>
			<stop  offset="1" style="stop-color:#FFFFFF;stop-opacity:0"/>
		</linearGradient>
		<path opacity="0.15" fill="url(#SVGID_7_)" enable-background="new    " d="M774,492.3c-21.7,24-29.3,58.2-40.3,89.1
			c-11.9,33.6-34.1,69.3-69.4,74.1c-23.2,3.2-44.3-7.8-65.4-19.5c-0.4-0.2-0.8-0.5-1.2-0.7c-9.8-5.5-19.6-11-29.7-15.3
			c-56.8-24.2-120.8-7.4-181.6,6.8c-4.6,1.1-9.1,2.1-13.6,3.1c-31.2,7-67,11.5-92.4-7.9c-11.9-9.1-19.5-22.1-24.3-36.4
			c-1.5-4.7-2.8-9.4-3.8-14.2c-0.1-0.4-0.2-0.7-0.2-1.1c0-0.1-0.1-0.3-0.1-0.4c-1.2-6.5-2.1-13-2.7-19.6c-1.3-15.8-1.3-32-2.9-47.8
			c-0.1-1.4-0.3-2.8-0.5-4.2c11.4-0.3,22.8,0.6,34,2.6c25.2,4.3,50.5,11.7,75.8,8.7c35.2-4.1,64.7-27.3,94.4-46.7
			c29.7-19.4,65.6-36.3,99.6-26.1c26.6,8,45.6,30.7,65,50.7s43.9,39.3,71.7,36.9c18-1.5,33.7-11.9,49.6-20.4
			C747.7,497.7,761,492.3,774,492.3z"/>
		<g opacity="0.1">
			<path opacity="0.1" fill="#FFFFFF" enable-background="new    " d="M715.1,327.2c-0.2-0.2-0.4-0.4-0.6-0.7
				c-0.1-0.3-0.2-0.5-0.3-0.8c0-0.3,0-0.6,0.1-0.9s0.2-0.5,0.4-0.8c0.2-0.2,0.4-0.4,0.7-0.6c0.3-0.1,0.5-0.2,0.8-0.3
				c0.3,0,0.6,0,0.9,0.1s0.5,0.2,0.8,0.4c0.2,0.2,0.4,0.4,0.6,0.7c0.1,0.3,0.2,0.5,0.3,0.8c0,0.3,0,0.6-0.1,0.9s-0.2,0.5-0.4,0.8
				c-0.4,0.5-0.9,0.7-1.5,0.8C716.2,327.7,715.6,327.6,715.1,327.2z"/>
			<g opacity="0.1">
				<g opacity="0.1">
					<g opacity="0.1">
						<path opacity="0.1" fill="#FFFFFF" enable-background="new    " d="M726.5,329.2c-0.2-0.2-0.4-0.4-0.6-0.6s-0.2-0.5-0.3-0.8
							c0-0.3,0-0.6,0.1-0.9s0.2-0.5,0.4-0.8c0.2-0.2,0.4-0.4,0.7-0.6c0.3-0.1,0.5-0.2,0.8-0.3c0.3,0,0.6,0,0.9,0.1s0.5,0.2,0.8,0.4
							c0.5,0.4,0.7,0.9,0.8,1.5c0.1,0.6-0.1,1.2-0.5,1.6c-0.4,0.5-0.9,0.7-1.5,0.8C727.5,329.7,727,329.5,726.5,329.2z M719.6,337.9
							c-0.2-0.2-0.4-0.4-0.6-0.7c-0.1-0.3-0.2-0.5-0.3-0.8c0-0.3,0-0.6,0.1-0.9s0.2-0.5,0.4-0.8c0.2-0.2,0.4-0.4,0.7-0.6
							c0.3-0.1,0.5-0.2,0.8-0.3c0.3,0,0.6,0,0.9,0.1s0.5,0.2,0.8,0.4c0.5,0.4,0.7,0.9,0.8,1.5c0.1,0.6-0.1,1.2-0.5,1.6
							c-0.4,0.5-0.9,0.7-1.5,0.8C720.6,338.4,720,338.3,719.6,337.9L719.6,337.9z"/>
					</g>
				</g>
				<g opacity="0.1">
					<g opacity="0.1">
						<path opacity="0.1" fill="#FFFFFF" enable-background="new    " d="M742.9,328c-0.2-0.2-0.4-0.4-0.6-0.7s-0.2-0.5-0.3-0.8
							c0-0.3,0-0.6,0.1-0.9s0.2-0.5,0.4-0.8c0.4-0.5,0.9-0.7,1.5-0.8c0.6-0.1,1.2,0.1,1.6,0.5c0.5,0.4,0.7,0.9,0.8,1.5
							c0.1,0.6-0.1,1.2-0.5,1.6c-0.4,0.5-0.9,0.7-1.5,0.8C743.9,328.5,743.4,328.3,742.9,328z M736,336.7c-0.2-0.2-0.4-0.4-0.6-0.7
							c-0.1-0.3-0.2-0.5-0.3-0.8c0-0.3,0-0.6,0.1-0.9s0.2-0.5,0.4-0.8c0.2-0.2,0.4-0.4,0.7-0.6c0.3-0.1,0.5-0.2,0.8-0.3
							c0.3,0,0.6,0,0.9,0.1s0.5,0.2,0.8,0.4c0.5,0.4,0.7,0.9,0.8,1.5c0.1,0.6-0.1,1.2-0.5,1.6c-0.4,0.5-0.9,0.7-1.5,0.8
							C737,337.2,736.4,337,736,336.7z M729,345.4c-0.2-0.2-0.4-0.4-0.6-0.7c-0.1-0.3-0.2-0.5-0.3-0.8c0-0.3,0-0.6,0.1-0.9
							s0.2-0.5,0.4-0.8c0.2-0.2,0.4-0.4,0.7-0.6c0.3-0.1,0.5-0.2,0.8-0.3c0.3,0,0.6,0,0.9,0.1s0.5,0.2,0.8,0.4
							c0.2,0.2,0.4,0.4,0.6,0.7c0.1,0.3,0.2,0.5,0.3,0.8c0,0.3,0,0.6-0.1,0.9s-0.2,0.5-0.4,0.8c-0.4,0.5-0.9,0.7-1.5,0.8
							C730,345.9,729.4,345.8,729,345.4L729,345.4z M722,354.1c-0.5-0.4-0.7-0.9-0.8-1.5c-0.1-0.6,0.1-1.2,0.5-1.6
							c0.2-0.2,0.4-0.4,0.7-0.6c0.3-0.1,0.5-0.2,0.8-0.3c0.3,0,0.6,0,0.9,0.1s0.5,0.2,0.8,0.4c0.5,0.4,0.7,0.9,0.8,1.5
							c0.1,0.6-0.1,1.2-0.5,1.6c-0.4,0.5-0.9,0.7-1.5,0.8C723.1,354.7,722.5,354.5,722,354.1L722,354.1z"/>
					</g>
				</g>
				<g opacity="0.1">
					<g opacity="0.1">
						<path opacity="0.1" fill="#FFFFFF" enable-background="new    " d="M759,326.5c-0.2-0.2-0.4-0.4-0.6-0.7
							c-0.1-0.3-0.2-0.5-0.3-0.8c0-0.3,0-0.6,0.1-0.9s0.2-0.5,0.4-0.8c0.4-0.5,0.9-0.7,1.5-0.8c0.6-0.1,1.2,0.1,1.6,0.5
							c0.2,0.2,0.4,0.4,0.6,0.7c0.1,0.3,0.2,0.5,0.3,0.8c0,0.3,0,0.6-0.1,0.9s-0.2,0.5-0.4,0.8c-0.2,0.2-0.4,0.4-0.7,0.6
							c-0.3,0.1-0.5,0.2-0.8,0.3c-0.3,0-0.6,0-0.9-0.1C759.5,326.8,759.2,326.7,759,326.5z M752,335.2c-0.2-0.2-0.4-0.4-0.6-0.7
							c-0.1-0.3-0.2-0.5-0.3-0.8c0-0.3,0-0.6,0.1-0.9s0.2-0.5,0.4-0.8c0.4-0.5,0.9-0.7,1.5-0.8c0.6-0.1,1.2,0.1,1.6,0.5
							c0.2,0.2,0.4,0.4,0.6,0.7c0.1,0.3,0.2,0.5,0.3,0.8c0,0.3,0,0.6-0.1,0.9s-0.2,0.5-0.4,0.8c-0.2,0.2-0.4,0.4-0.7,0.6
							c-0.3,0.1-0.5,0.2-0.8,0.3c-0.3,0-0.6,0-0.9-0.1C752.5,335.6,752.3,335.4,752,335.2L752,335.2z M745.1,344
							c-0.5-0.4-0.7-0.9-0.8-1.5c-0.1-0.6,0.1-1.2,0.5-1.6c0.2-0.2,0.4-0.4,0.7-0.6c0.3-0.1,0.5-0.2,0.8-0.3c0.3,0,0.6,0,0.9,0.1
							s0.5,0.2,0.8,0.4c0.2,0.2,0.4,0.4,0.6,0.7c0.1,0.3,0.2,0.5,0.3,0.8c0,0.3,0,0.6-0.1,0.9s-0.2,0.5-0.4,0.8
							c-0.2,0.2-0.4,0.4-0.7,0.6c-0.3,0.1-0.5,0.2-0.8,0.3c-0.3,0-0.6,0-0.9-0.1C745.6,344.3,745.3,344.2,745.1,344L745.1,344z
							 M738.1,352.7c-0.5-0.4-0.7-0.9-0.8-1.5c-0.1-0.6,0.1-1.2,0.5-1.6c0.4-0.5,0.9-0.7,1.5-0.8c0.6-0.1,1.2,0.1,1.6,0.5
							c0.2,0.2,0.4,0.4,0.6,0.7c0.1,0.3,0.2,0.5,0.3,0.8s0,0.6-0.1,0.9s-0.2,0.5-0.4,0.8c-0.2,0.2-0.4,0.4-0.7,0.6
							c-0.3,0.1-0.5,0.2-0.8,0.3c-0.3,0-0.6,0-0.9-0.1C738.6,353,738.3,352.9,738.1,352.7z M731.2,361.4c-0.5-0.4-0.7-0.9-0.8-1.5
							c-0.1-0.6,0.1-1.2,0.5-1.6c0.4-0.5,0.9-0.7,1.5-0.8c0.6-0.1,1.2,0.1,1.6,0.5c0.2,0.2,0.4,0.4,0.6,0.7c0.1,0.3,0.2,0.5,0.3,0.8
							c0,0.3,0,0.6-0.1,0.9s-0.2,0.5-0.4,0.8c-0.4,0.5-0.9,0.7-1.5,0.8C732.2,362,731.6,361.8,731.2,361.4L731.2,361.4z
							 M724.2,370.1c-0.5-0.4-0.7-0.9-0.8-1.5c-0.1-0.6,0.1-1.2,0.5-1.6c0.4-0.5,0.9-0.7,1.5-0.8c0.6-0.1,1.2,0.1,1.6,0.5
							c0.5,0.4,0.7,0.9,0.8,1.5c0.1,0.6-0.1,1.2-0.5,1.6c-0.4,0.5-0.9,0.7-1.5,0.8C725.2,370.7,724.7,370.5,724.2,370.1L724.2,370.1
							z"/>
					</g>
				</g>
				<g opacity="0.1">
					<g opacity="0.1">
						<path opacity="0.1" fill="#FFFFFF" enable-background="new    " d="M775.4,325.3c-0.2-0.2-0.4-0.4-0.6-0.7
							c-0.1-0.3-0.2-0.5-0.3-0.8c0-0.3,0-0.6,0.1-0.9s0.2-0.5,0.4-0.8c0.2-0.2,0.4-0.4,0.7-0.6c0.3-0.1,0.5-0.2,0.8-0.3
							c0.3,0,0.6,0,0.9,0.1s0.5,0.2,0.8,0.4c0.5,0.4,0.7,0.9,0.8,1.5c0.1,0.6-0.1,1.2-0.5,1.6c-0.4,0.5-0.9,0.7-1.5,0.8
							C776.4,325.9,775.8,325.7,775.4,325.3z M768.4,334c-0.2-0.2-0.4-0.4-0.6-0.7c-0.1-0.3-0.2-0.5-0.3-0.8c0-0.3,0-0.6,0.1-0.9
							s0.2-0.5,0.4-0.8c0.2-0.2,0.4-0.4,0.7-0.6c0.3-0.1,0.5-0.2,0.8-0.3c0.3,0,0.6,0,0.9,0.1s0.5,0.2,0.8,0.4
							c0.5,0.4,0.7,0.9,0.8,1.5c0.1,0.6-0.1,1.2-0.5,1.6c-0.2,0.2-0.4,0.4-0.7,0.6c-0.3,0.1-0.5,0.2-0.8,0.3c-0.3,0-0.6,0-0.9-0.1
							C768.9,334.4,768.7,334.2,768.4,334L768.4,334z M761.5,342.8c-0.2-0.2-0.4-0.4-0.6-0.7c-0.1-0.3-0.2-0.5-0.3-0.8
							c0-0.3,0-0.6,0.1-0.9s0.2-0.5,0.4-0.8c0.4-0.5,0.9-0.7,1.5-0.8s1.2,0.1,1.6,0.5c0.5,0.4,0.7,0.9,0.8,1.5
							c0.1,0.6-0.1,1.2-0.5,1.6c-0.2,0.2-0.4,0.4-0.7,0.6c-0.3,0.1-0.5,0.2-0.8,0.3c-0.3,0-0.6,0-0.9-0.1S761.7,343,761.5,342.8
							L761.5,342.8z M754.5,351.5c-0.5-0.4-0.7-0.9-0.8-1.5c-0.1-0.6,0.1-1.2,0.5-1.6c0.2-0.2,0.4-0.4,0.7-0.6
							c0.3-0.1,0.5-0.2,0.8-0.3c0.3,0,0.6,0,0.9,0.1s0.5,0.2,0.8,0.4c0.5,0.4,0.7,0.9,0.8,1.5c0.1,0.6-0.1,1.2-0.5,1.6
							c-0.4,0.5-0.9,0.7-1.5,0.8C755.5,352,755,351.9,754.5,351.5L754.5,351.5z M747.6,360.2c-0.5-0.4-0.7-0.9-0.8-1.5
							c-0.1-0.6,0.1-1.2,0.5-1.6c0.2-0.2,0.4-0.4,0.7-0.6c0.3-0.1,0.5-0.2,0.8-0.3c0.3,0,0.6,0,0.9,0.1s0.5,0.2,0.8,0.4
							c0.5,0.4,0.7,0.9,0.8,1.5c0.1,0.6-0.1,1.2-0.5,1.6c-0.4,0.5-0.9,0.7-1.5,0.8C748.6,360.8,748,360.6,747.6,360.2L747.6,360.2z
							 M740.6,368.9c-0.2-0.2-0.4-0.4-0.6-0.7c-0.1-0.3-0.2-0.5-0.3-0.8c0-0.3,0-0.6,0.1-0.9s0.2-0.5,0.4-0.8
							c0.2-0.2,0.4-0.4,0.7-0.6c0.3-0.1,0.5-0.2,0.8-0.3c0.3,0,0.6,0,0.9,0.1s0.5,0.2,0.8,0.4c0.5,0.4,0.7,0.9,0.8,1.5
							c0.1,0.6-0.1,1.2-0.5,1.6c-0.4,0.5-0.9,0.7-1.5,0.8C741.6,369.5,741.1,369.3,740.6,368.9L740.6,368.9z M733.6,377.7
							c-0.2-0.2-0.4-0.4-0.6-0.7c-0.1-0.3-0.2-0.5-0.3-0.8c0-0.3,0-0.6,0.1-0.9s0.2-0.5,0.4-0.8c0.2-0.2,0.4-0.4,0.7-0.6
							c0.3-0.1,0.5-0.2,0.8-0.3c0.3,0,0.6,0,0.9,0.1s0.5,0.2,0.8,0.4c0.5,0.4,0.7,0.9,0.8,1.5c0.1,0.6-0.1,1.2-0.5,1.6
							c-0.2,0.2-0.4,0.4-0.7,0.6c-0.3,0.1-0.5,0.2-0.8,0.3c-0.3,0-0.6,0-0.9-0.1C734.1,378,733.9,377.8,733.6,377.7L733.6,377.7z
							 M726.7,386.4c-0.2-0.2-0.4-0.4-0.6-0.7c-0.1-0.3-0.2-0.5-0.3-0.8c0-0.3,0-0.6,0.1-0.9s0.2-0.5,0.4-0.8
							c0.2-0.2,0.4-0.4,0.7-0.6c0.3-0.1,0.5-0.2,0.8-0.3c0.3,0,0.6,0,0.9,0.1s0.5,0.2,0.8,0.4c0.5,0.4,0.7,0.9,0.8,1.5
							c0.1,0.6-0.1,1.2-0.5,1.6c-0.2,0.2-0.4,0.4-0.7,0.6c-0.3,0.1-0.5,0.2-0.8,0.3c-0.3,0-0.6,0-0.9-0.1
							C727.2,386.7,726.9,386.6,726.7,386.4L726.7,386.4z"/>
					</g>
				</g>
				<g opacity="0.1">
					<g opacity="0.1">
						<path opacity="0.1" fill="#FFFFFF" enable-background="new    " d="M790.9,323.4c-0.5-0.4-0.7-0.9-0.8-1.5
							c-0.1-0.6,0.1-1.2,0.5-1.6c0.2-0.2,0.4-0.4,0.7-0.6c0.3-0.1,0.5-0.2,0.8-0.3c0.3,0,0.6,0,0.9,0.1s0.5,0.2,0.8,0.4
							c0.2,0.2,0.4,0.4,0.6,0.7c0.1,0.3,0.2,0.5,0.3,0.8c0,0.3,0,0.6-0.1,0.9s-0.2,0.5-0.4,0.8c-0.2,0.2-0.4,0.4-0.7,0.6
							s-0.5,0.2-0.8,0.3c-0.3,0-0.6,0-0.9-0.1C791.4,323.7,791.1,323.6,790.9,323.4z M784,332.2c-0.5-0.4-0.7-0.9-0.8-1.5
							c-0.1-0.6,0.1-1.2,0.5-1.6c0.2-0.2,0.4-0.4,0.7-0.6c0.3-0.1,0.5-0.2,0.8-0.3c0.3,0,0.6,0,0.9,0.1s0.5,0.2,0.8,0.4
							c0.2,0.2,0.4,0.4,0.6,0.7c0.1,0.3,0.2,0.5,0.3,0.8c0,0.3,0,0.6-0.1,0.9s-0.2,0.5-0.4,0.8c-0.2,0.2-0.4,0.4-0.7,0.6
							c-0.3,0.1-0.5,0.2-0.8,0.3c-0.3,0-0.6,0-0.9-0.1C784.4,332.5,784.2,332.3,784,332.2L784,332.2z M777,340.9
							c-0.5-0.4-0.7-0.9-0.8-1.5c-0.1-0.6,0.1-1.2,0.5-1.6c0.4-0.5,0.9-0.7,1.5-0.8c0.6-0.1,1.2,0.1,1.6,0.5
							c0.5,0.4,0.7,0.9,0.8,1.5c0.1,0.6-0.1,1.2-0.5,1.6c-0.2,0.2-0.4,0.4-0.7,0.6c-0.3,0.1-0.5,0.2-0.8,0.3c-0.3,0-0.6,0-0.9-0.1
							C777.5,341.2,777.2,341.1,777,340.9L777,340.9z M770,349.6c-0.2-0.2-0.4-0.4-0.6-0.7c-0.1-0.3-0.2-0.5-0.3-0.8
							c0-0.3,0-0.6,0.1-0.9s0.2-0.5,0.4-0.8c0.4-0.5,0.9-0.7,1.5-0.8c0.6-0.1,1.2,0.1,1.6,0.5c0.2,0.2,0.4,0.4,0.6,0.7
							c0.1,0.3,0.2,0.5,0.3,0.8c0,0.3,0,0.6-0.1,0.9s-0.2,0.5-0.4,0.8c-0.2,0.2-0.4,0.4-0.7,0.6c-0.3,0.1-0.5,0.2-0.8,0.3
							c-0.3,0-0.6,0-0.9-0.1C770.5,349.9,770.3,349.8,770,349.6L770,349.6z M763.1,358.3c-0.5-0.4-0.7-0.9-0.8-1.5
							c-0.1-0.6,0.1-1.2,0.5-1.6c0.4-0.5,0.9-0.7,1.5-0.8c0.6-0.1,1.2,0.1,1.6,0.5c0.2,0.2,0.4,0.4,0.6,0.6c0.1,0.3,0.2,0.5,0.3,0.8
							s0,0.6-0.1,0.9s-0.2,0.5-0.4,0.8c-0.2,0.2-0.4,0.4-0.7,0.6c-0.3,0.1-0.5,0.2-0.8,0.3c-0.3,0-0.6,0-0.9-0.1
							C763.6,358.6,763.3,358.5,763.1,358.3L763.1,358.3z M756.1,367.1c-0.5-0.4-0.7-0.9-0.8-1.5c-0.1-0.6,0.1-1.2,0.5-1.6
							c0.4-0.5,0.9-0.7,1.5-0.8s1.2,0.1,1.6,0.5c0.2,0.2,0.4,0.4,0.6,0.7c0.1,0.3,0.2,0.5,0.3,0.8c0,0.3,0,0.6-0.1,0.9
							s-0.2,0.5-0.4,0.8c-0.2,0.2-0.4,0.4-0.7,0.6c-0.3,0.1-0.5,0.2-0.8,0.3c-0.3,0-0.6,0-0.9-0.1
							C756.6,367.4,756.3,367.2,756.1,367.1L756.1,367.1z M749.2,375.8c-0.5-0.4-0.7-0.9-0.8-1.5c-0.1-0.6,0.1-1.2,0.5-1.6
							c0.2-0.2,0.4-0.4,0.7-0.6c0.3-0.1,0.5-0.2,0.8-0.3c0.3,0,0.6,0,0.9,0.1s0.5,0.2,0.8,0.4c0.2,0.2,0.4,0.4,0.6,0.7
							c0.1,0.3,0.2,0.5,0.3,0.8c0,0.3,0,0.6-0.1,0.9s-0.2,0.5-0.4,0.8c-0.4,0.5-0.9,0.7-1.5,0.8
							C750.2,376.3,749.6,376.1,749.2,375.8L749.2,375.8z M742.2,384.5c-0.2-0.2-0.4-0.4-0.6-0.7c-0.1-0.3-0.2-0.5-0.3-0.8
							c0-0.3,0-0.6,0.1-0.9s0.2-0.5,0.4-0.8c0.4-0.5,0.9-0.7,1.5-0.8c0.6-0.1,1.2,0.1,1.6,0.5c0.5,0.4,0.7,0.9,0.8,1.5
							c0.1,0.6-0.1,1.2-0.5,1.6c-0.2,0.2-0.4,0.4-0.7,0.6c-0.3,0.1-0.5,0.2-0.8,0.3c-0.3,0-0.6,0-0.9-0.1
							C742.7,384.8,742.4,384.7,742.2,384.5L742.2,384.5z M735.2,393.2c-0.2-0.2-0.4-0.4-0.6-0.7c-0.1-0.3-0.2-0.5-0.3-0.8
							c0-0.3,0-0.6,0.1-0.9s0.2-0.5,0.4-0.8c0.4-0.5,0.9-0.7,1.5-0.8s1.2,0.1,1.6,0.5c0.2,0.2,0.4,0.4,0.6,0.7
							c0.1,0.3,0.2,0.5,0.3,0.8c0,0.3,0,0.6-0.1,0.9s-0.2,0.5-0.4,0.8c-0.2,0.2-0.4,0.4-0.7,0.6c-0.3,0.1-0.5,0.2-0.8,0.3
							c-0.3,0-0.6,0-0.9-0.1C735.7,393.5,735.5,393.4,735.2,393.2L735.2,393.2z M728.3,401.9c-0.5-0.4-0.7-0.9-0.8-1.5
							c-0.1-0.6,0.1-1.2,0.5-1.6c0.4-0.5,0.9-0.7,1.5-0.8c0.6-0.1,1.2,0.1,1.6,0.5c0.2,0.2,0.4,0.4,0.6,0.7c0.1,0.3,0.2,0.5,0.3,0.8
							c0,0.3,0,0.6-0.1,0.9s-0.2,0.5-0.4,0.8c-0.2,0.2-0.4,0.4-0.7,0.5s-0.5,0.2-0.8,0.3c-0.3,0-0.6,0-0.8-0.1
							C728.8,402.3,728.5,402.1,728.3,401.9L728.3,401.9z"/>
					</g>
				</g>
			</g>
		</g>
		<g opacity="0.1">
			<path opacity="0.1" fill="#FFFFFF" enable-background="new    " d="M537.3,277.2c0.2,0.3,0.3,0.7,0.3,1.1s0,0.7-0.1,1.1
				s-0.3,0.7-0.6,1c-0.2,0.3-0.5,0.5-0.9,0.7c-0.3,0.2-0.7,0.3-1.1,0.3s-0.7,0-1.1-0.1s-0.7-0.3-1-0.6c-0.3-0.2-0.5-0.5-0.7-0.9
				c-0.2-0.3-0.3-0.7-0.3-1.1s0-0.7,0.1-1.1s0.3-0.7,0.6-1c0.2-0.3,0.5-0.5,0.9-0.7c0.7-0.3,1.5-0.4,2.2-0.1
				C536.4,276,537,276.5,537.3,277.2z"/>
			<g opacity="0.1">
				<g opacity="0.1">
					<g opacity="0.1">
						<path opacity="0.1" fill="#FFFFFF" enable-background="new    " d="M525,268.6c0.2,0.3,0.3,0.7,0.3,1.1s0,0.7-0.1,1.1
							s-0.3,0.7-0.5,1s-0.5,0.5-0.9,0.7c-0.3,0.2-0.7,0.3-1.1,0.3s-0.7,0-1.1-0.1s-0.7-0.3-1-0.6c-0.3-0.2-0.5-0.5-0.7-0.9
							c-0.3-0.7-0.4-1.5-0.1-2.2s0.8-1.3,1.4-1.6c0.7-0.3,1.5-0.4,2.2-0.1C524.1,267.5,524.7,268,525,268.6z M538,262.2
							c0.2,0.3,0.3,0.7,0.3,1.1s0,0.7-0.1,1.1s-0.3,0.7-0.6,1c-0.2,0.3-0.5,0.5-0.9,0.7c-0.3,0.2-0.7,0.3-1.1,0.3s-0.7,0-1.1-0.1
							s-0.7-0.3-1-0.6c-0.3-0.2-0.5-0.5-0.7-0.9c-0.3-0.7-0.4-1.5-0.1-2.2c0.2-0.7,0.8-1.3,1.4-1.6c0.7-0.3,1.5-0.4,2.2-0.1
							C537.1,261,537.7,261.6,538,262.2L538,262.2z"/>
					</g>
				</g>
				<g opacity="0.1">
					<g opacity="0.1">
						<path opacity="0.1" fill="#FFFFFF" enable-background="new    " d="M505.1,261c0.2,0.3,0.3,0.7,0.3,1.1s0,0.7-0.1,1.1
							s-0.3,0.7-0.6,1c-0.2,0.3-0.5,0.5-0.9,0.7c-0.7,0.3-1.5,0.4-2.2,0.1c-0.7-0.2-1.3-0.8-1.6-1.4c-0.3-0.7-0.4-1.5-0.1-2.2
							c0.2-0.7,0.8-1.3,1.4-1.6c0.7-0.3,1.5-0.4,2.2-0.1S504.8,260.3,505.1,261z M518.1,254.6c0.2,0.3,0.3,0.7,0.3,1.1
							c0,0.4,0,0.7-0.1,1.1s-0.3,0.7-0.6,1c-0.2,0.3-0.5,0.5-0.9,0.7c-0.3,0.2-0.7,0.3-1.1,0.3s-0.7,0-1.1-0.1s-0.7-0.3-1-0.6
							c-0.3-0.2-0.5-0.5-0.7-0.9c-0.3-0.7-0.4-1.5-0.1-2.2c0.2-0.7,0.8-1.3,1.4-1.6c0.7-0.3,1.5-0.4,2.2-0.1
							C517.2,253.4,517.7,253.9,518.1,254.6L518.1,254.6z M531.1,248.2c0.2,0.3,0.3,0.7,0.3,1.1c0,0.4,0,0.7-0.1,1.1
							c-0.1,0.4-0.3,0.7-0.6,1c-0.2,0.3-0.5,0.5-0.9,0.7c-0.3,0.2-0.7,0.3-1.1,0.3s-0.7,0-1.1-0.1s-0.7-0.3-1-0.6
							c-0.3-0.2-0.5-0.5-0.7-0.9c-0.2-0.3-0.3-0.7-0.3-1.1c0-0.4,0-0.7,0.1-1.1c0.1-0.4,0.3-0.7,0.6-1c0.2-0.3,0.5-0.5,0.9-0.7
							c0.7-0.3,1.5-0.4,2.2-0.1C530.1,247,530.7,247.5,531.1,248.2z M544,241.8c0.3,0.7,0.4,1.5,0.1,2.2c-0.2,0.7-0.8,1.3-1.4,1.6
							c-0.3,0.2-0.7,0.3-1.1,0.3s-0.7,0-1.1-0.1s-0.7-0.3-1-0.6c-0.3-0.2-0.5-0.5-0.7-0.9c-0.3-0.7-0.4-1.5-0.1-2.2
							c0.2-0.7,0.8-1.3,1.4-1.6c0.7-0.3,1.5-0.4,2.2-0.1C543.1,240.6,543.7,241.1,544,241.8L544,241.8z"/>
					</g>
				</g>
				<g opacity="0.1">
					<g opacity="0.1">
						<path opacity="0.1" fill="#FFFFFF" enable-background="new    " d="M485.4,253.8c0.2,0.3,0.3,0.7,0.3,1.1c0,0.4,0,0.7-0.1,1.1
							s-0.3,0.7-0.6,1c-0.2,0.3-0.5,0.5-0.9,0.7c-0.7,0.3-1.5,0.4-2.2,0.1c-0.7-0.2-1.3-0.8-1.6-1.4c-0.2-0.3-0.3-0.7-0.3-1.1
							c0-0.4,0-0.7,0.1-1.1c0.1-0.4,0.3-0.7,0.6-1c0.2-0.3,0.5-0.5,0.9-0.7c0.3-0.2,0.7-0.3,1.1-0.3s0.7,0,1.1,0.1s0.7,0.3,1,0.6
							C485,253.2,485.2,253.5,485.4,253.8z M498.4,247.4c0.2,0.3,0.3,0.7,0.3,1.1c0,0.4,0,0.7-0.1,1.1c-0.1,0.4-0.3,0.7-0.6,1
							c-0.2,0.3-0.5,0.5-0.9,0.7c-0.7,0.3-1.5,0.4-2.2,0.1c-0.7-0.2-1.3-0.8-1.6-1.4c-0.2-0.3-0.3-0.7-0.3-1.1c0-0.4,0-0.7,0.1-1.1
							c0.1-0.4,0.3-0.7,0.6-1c0.2-0.3,0.5-0.5,0.9-0.7c0.3-0.2,0.7-0.3,1.1-0.3s0.7,0,1.1,0.1s0.7,0.3,1,0.6
							C498,246.8,498.2,247.1,498.4,247.4L498.4,247.4z M511.4,241c0.3,0.7,0.4,1.5,0.1,2.2c-0.2,0.7-0.8,1.3-1.4,1.6
							c-0.3,0.2-0.7,0.3-1.1,0.3s-0.7,0-1.1-0.1s-0.7-0.3-1-0.6c-0.3-0.2-0.5-0.5-0.7-0.9c-0.2-0.3-0.3-0.7-0.3-1.1
							c0-0.4,0-0.7,0.1-1.1c0.1-0.4,0.3-0.7,0.6-1c0.2-0.3,0.5-0.5,0.9-0.7c0.3-0.2,0.7-0.3,1.1-0.3s0.7,0,1.1,0.1s0.7,0.3,1,0.6
							C511,240.4,511.2,240.7,511.4,241L511.4,241z M524.4,234.6c0.3,0.7,0.4,1.5,0.1,2.2c-0.2,0.7-0.8,1.3-1.4,1.6
							c-0.3,0.2-0.7,0.3-1.1,0.3s-0.7,0-1.1-0.1s-0.7-0.3-1-0.6s-0.5-0.5-0.7-0.9c-0.2-0.3-0.3-0.7-0.3-1.1c0-0.4,0-0.7,0.1-1.1
							c0.1-0.4,0.3-0.7,0.6-1c0.2-0.3,0.5-0.5,0.9-0.7c0.3-0.2,0.7-0.3,1.1-0.3s0.7,0,1.1,0.1s0.7,0.3,1,0.6
							C524,234,524.2,234.3,524.4,234.6L524.4,234.6z M537.3,228.2c0.3,0.7,0.4,1.5,0.1,2.2c-0.2,0.7-0.8,1.3-1.4,1.6
							c-0.7,0.3-1.5,0.4-2.2,0.1s-1.3-0.8-1.6-1.4c-0.2-0.3-0.3-0.7-0.3-1.1c0-0.4,0-0.7,0.1-1.1c0.1-0.4,0.3-0.7,0.6-1
							c0.2-0.3,0.5-0.5,0.9-0.7c0.7-0.3,1.5-0.4,2.2-0.1C536.4,227,537,227.5,537.3,228.2L537.3,228.2z M550.3,221.8
							c0.3,0.7,0.4,1.5,0.1,2.2c-0.2,0.7-0.8,1.3-1.4,1.6c-0.7,0.3-1.5,0.4-2.2,0.1c-0.7-0.2-1.3-0.8-1.6-1.4
							c-0.3-0.7-0.4-1.5-0.1-2.2c0.2-0.7,0.8-1.3,1.4-1.6c0.7-0.3,1.5-0.4,2.2-0.1C549.4,220.6,550,221.1,550.3,221.8L550.3,221.8z"
							/>
					</g>
				</g>
				<g opacity="0.1">
					<g opacity="0.1">
						<path opacity="0.1" fill="#FFFFFF" enable-background="new    " d="M465.5,246.2c0.2,0.3,0.3,0.7,0.3,1.1c0,0.4,0,0.7-0.1,1.1
							c-0.1,0.4-0.3,0.7-0.6,1c-0.2,0.3-0.5,0.5-0.9,0.7c-0.3,0.2-0.7,0.3-1.1,0.3s-0.7,0-1.1-0.1s-0.7-0.3-1-0.6s-0.5-0.5-0.7-0.9
							c-0.3-0.7-0.4-1.5-0.1-2.2c0.2-0.7,0.8-1.3,1.4-1.6c0.7-0.3,1.5-0.4,2.2-0.1C464.6,245,465.2,245.5,465.5,246.2z M478.5,239.8
							c0.2,0.3,0.3,0.7,0.3,1.1c0,0.4,0,0.7-0.1,1.1c-0.1,0.4-0.3,0.7-0.6,1c-0.2,0.3-0.5,0.5-0.9,0.7c-0.3,0.2-0.7,0.3-1.1,0.3
							s-0.7,0-1.1-0.1s-0.7-0.3-1-0.6c-0.3-0.2-0.5-0.5-0.7-0.9c-0.3-0.7-0.4-1.5-0.1-2.2c0.2-0.7,0.8-1.3,1.4-1.6
							c0.3-0.2,0.7-0.3,1.1-0.3s0.7,0,1.1,0.1s0.7,0.3,1,0.6S478.3,239.5,478.5,239.8L478.5,239.8z M491.4,233.4
							c0.2,0.3,0.3,0.7,0.3,1.1c0,0.4,0,0.7-0.1,1.1c-0.1,0.4-0.3,0.7-0.6,1s-0.5,0.5-0.9,0.7c-0.3,0.2-0.7,0.3-1.1,0.3
							s-0.7,0-1.1-0.1s-0.7-0.3-1-0.6c-0.3-0.2-0.5-0.5-0.7-0.9c-0.3-0.7-0.4-1.5-0.1-2.2c0.2-0.7,0.8-1.3,1.4-1.6
							c0.7-0.3,1.5-0.4,2.2-0.1C490.5,232.2,491.1,232.7,491.4,233.4z M504.4,227c0.2,0.3,0.3,0.7,0.3,1.1c0,0.4,0,0.7-0.1,1.1
							c-0.1,0.4-0.3,0.7-0.6,1c-0.2,0.3-0.5,0.5-0.9,0.7c-0.3,0.2-0.7,0.3-1.1,0.3s-0.7,0-1.1-0.1s-0.7-0.3-1-0.6
							c-0.3-0.2-0.5-0.5-0.7-0.9c-0.3-0.7-0.4-1.5-0.1-2.2c0.2-0.7,0.8-1.3,1.4-1.6c0.7-0.3,1.5-0.4,2.2-0.1
							C503.5,225.8,504.1,226.3,504.4,227L504.4,227z M517.4,220.6c0.3,0.7,0.4,1.5,0.1,2.2c-0.2,0.7-0.8,1.3-1.4,1.6
							c-0.3,0.2-0.7,0.3-1.1,0.3s-0.7,0-1.1-0.1s-0.7-0.3-1-0.6c-0.3-0.2-0.5-0.5-0.7-0.9c-0.3-0.7-0.4-1.5-0.1-2.2
							c0.2-0.7,0.8-1.3,1.4-1.6c0.7-0.3,1.5-0.4,2.2-0.1C516.5,219.4,517.1,219.9,517.4,220.6L517.4,220.6z M530.4,214.2
							c0.2,0.3,0.3,0.7,0.3,1.1c0,0.4,0,0.7-0.1,1.1c-0.1,0.4-0.3,0.7-0.6,1c-0.2,0.3-0.5,0.5-0.9,0.7c-0.3,0.2-0.7,0.3-1.1,0.3
							s-0.7,0-1.1-0.1s-0.7-0.3-1-0.6c-0.3-0.2-0.5-0.5-0.7-0.9c-0.3-0.7-0.4-1.5-0.1-2.2c0.2-0.7,0.8-1.3,1.4-1.6
							c0.7-0.3,1.5-0.4,2.2-0.1C529.5,213,530.1,213.5,530.4,214.2L530.4,214.2z M543.4,207.7c0.2,0.3,0.3,0.7,0.3,1.1
							c0,0.4,0,0.7-0.1,1.1c-0.1,0.4-0.3,0.7-0.6,1c-0.2,0.3-0.5,0.5-0.9,0.7c-0.3,0.2-0.7,0.3-1.1,0.3s-0.7,0-1.1-0.1
							s-0.7-0.3-1-0.6c-0.3-0.2-0.5-0.5-0.7-0.9c-0.3-0.7-0.4-1.5-0.1-2.2c0.2-0.7,0.8-1.3,1.4-1.6c0.3-0.2,0.7-0.3,1.1-0.3
							s0.7,0,1.1,0.1s0.7,0.3,1,0.6C543,207.1,543.2,207.4,543.4,207.7L543.4,207.7z M556.3,201.3c0.2,0.3,0.3,0.7,0.3,1.1
							c0,0.4,0,0.7-0.1,1.1s-0.3,0.7-0.6,1c-0.2,0.3-0.5,0.5-0.9,0.7c-0.3,0.2-0.7,0.3-1.1,0.3s-0.7,0-1.1-0.1s-0.7-0.3-1-0.6
							s-0.5-0.5-0.7-0.9c-0.3-0.7-0.4-1.5-0.1-2.2c0.2-0.7,0.8-1.3,1.4-1.6c0.3-0.2,0.7-0.3,1.1-0.3s0.7,0,1.1,0.1s0.7,0.3,1,0.6
							C556,200.7,556.2,201,556.3,201.3L556.3,201.3z"/>
					</g>
				</g>
				<g opacity="0.1">
					<g opacity="0.1">
						<path opacity="0.1" fill="#FFFFFF" enable-background="new    " d="M446.2,239.9c0.3,0.7,0.4,1.5,0.1,2.2
							c-0.2,0.7-0.8,1.3-1.4,1.6c-0.3,0.2-0.7,0.3-1.1,0.3s-0.7,0-1.1-0.1s-0.7-0.3-1-0.6c-0.3-0.2-0.5-0.5-0.7-0.9
							c-0.2-0.3-0.3-0.7-0.3-1.1s0-0.7,0.1-1.1c0.1-0.4,0.3-0.7,0.6-1c0.2-0.3,0.5-0.5,0.9-0.7c0.3-0.2,0.7-0.3,1.1-0.3
							s0.7,0,1.1,0.1s0.7,0.3,1,0.6C445.8,239.3,446.1,239.6,446.2,239.9z M459.2,233.5c0.3,0.7,0.4,1.5,0.1,2.2
							c-0.2,0.7-0.8,1.3-1.4,1.6c-0.3,0.2-0.7,0.3-1.1,0.3s-0.7,0-1.1-0.1s-0.7-0.3-1-0.6c-0.3-0.2-0.5-0.5-0.7-0.9
							c-0.2-0.3-0.3-0.7-0.3-1.1c0-0.4,0-0.7,0.1-1.1c0.1-0.4,0.3-0.7,0.6-1c0.2-0.3,0.5-0.5,0.9-0.7c0.3-0.2,0.7-0.3,1.1-0.3
							s0.7,0,1.1,0.1s0.7,0.3,1,0.6S459,233.1,459.2,233.5z M472.2,227.1c0.3,0.7,0.4,1.5,0.1,2.2c-0.2,0.7-0.8,1.3-1.4,1.6
							c-0.7,0.3-1.5,0.4-2.2,0.1c-0.7-0.2-1.3-0.8-1.6-1.4c-0.3-0.7-0.4-1.5-0.1-2.2c0.2-0.7,0.8-1.3,1.4-1.6
							c0.3-0.2,0.7-0.3,1.1-0.3s0.7,0,1.1,0.1s0.7,0.3,1,0.6C471.8,226.4,472,226.7,472.2,227.1L472.2,227.1z M485.2,220.7
							c0.2,0.3,0.3,0.7,0.3,1.1c0,0.4,0,0.7-0.1,1.1c-0.1,0.4-0.3,0.7-0.6,1c-0.2,0.3-0.5,0.5-0.9,0.7c-0.7,0.3-1.5,0.4-2.2,0.1
							c-0.7-0.2-1.3-0.8-1.6-1.4c-0.3-0.7-0.4-1.5-0.1-2.2c0.2-0.7,0.8-1.3,1.4-1.6c0.3-0.2,0.7-0.3,1.1-0.3s0.7,0,1.1,0.1
							s0.7,0.3,1,0.6S485,220.3,485.2,220.7z M498.1,214.2c0.3,0.7,0.4,1.5,0.1,2.2c-0.2,0.7-0.8,1.3-1.4,1.6
							c-0.7,0.3-1.5,0.4-2.2,0.1c-0.7-0.2-1.3-0.8-1.6-1.4c-0.2-0.3-0.3-0.7-0.3-1.1c0-0.4,0-0.7,0.1-1.1c0.1-0.4,0.3-0.7,0.6-1
							c0.2-0.3,0.5-0.5,0.9-0.7c0.3-0.2,0.7-0.3,1.1-0.3s0.7,0,1.1,0.1s0.7,0.3,1,0.6C497.7,213.6,498,213.9,498.1,214.2z
							 M511.1,207.8c0.3,0.7,0.4,1.5,0.1,2.2c-0.2,0.7-0.8,1.3-1.4,1.6c-0.7,0.3-1.5,0.4-2.2,0.1c-0.7-0.2-1.3-0.8-1.6-1.4
							c-0.2-0.3-0.3-0.7-0.3-1.1c0-0.4,0-0.7,0.1-1.1c0.1-0.4,0.3-0.7,0.6-1c0.2-0.3,0.5-0.5,0.9-0.7c0.7-0.3,1.5-0.4,2.2-0.1
							C510.2,206.6,510.8,207.2,511.1,207.8L511.1,207.8z M524.1,201.4c0.3,0.7,0.4,1.5,0.1,2.2c-0.2,0.7-0.8,1.3-1.4,1.6
							c-0.7,0.3-1.5,0.4-2.2,0.1s-1.3-0.8-1.6-1.4c-0.2-0.3-0.3-0.7-0.3-1.1c0-0.4,0-0.7,0.1-1.1c0.1-0.4,0.3-0.7,0.6-1
							c0.2-0.3,0.5-0.5,0.9-0.7c0.3-0.2,0.7-0.3,1.1-0.3s0.7,0,1.1,0.1s0.7,0.3,1,0.6C523.7,200.8,523.9,201.1,524.1,201.4
							L524.1,201.4z M537.1,195c0.2,0.3,0.3,0.7,0.3,1.1c0,0.4,0,0.7-0.1,1.1c-0.1,0.4-0.3,0.7-0.6,1c-0.2,0.3-0.5,0.5-0.9,0.7
							c-0.7,0.3-1.5,0.4-2.2,0.1c-0.7-0.2-1.3-0.8-1.6-1.4c-0.3-0.7-0.4-1.5-0.1-2.2c0.2-0.7,0.8-1.3,1.4-1.6
							c0.3-0.2,0.7-0.3,1.1-0.3s0.7,0,1.1,0.1s0.7,0.3,1,0.6C536.7,194.4,536.9,194.7,537.1,195L537.1,195z M550.1,188.6
							c0.3,0.7,0.4,1.5,0.1,2.2c-0.2,0.7-0.8,1.3-1.4,1.6c-0.7,0.3-1.5,0.4-2.2,0.1s-1.3-0.8-1.6-1.4c-0.2-0.3-0.3-0.7-0.3-1.1
							c0-0.4,0-0.7,0.1-1.1c0.1-0.4,0.3-0.7,0.6-1c0.2-0.3,0.5-0.5,0.9-0.7c0.3-0.2,0.7-0.3,1.1-0.3s0.7,0,1.1,0.1s0.7,0.3,1,0.6
							C549.7,188,549.9,188.3,550.1,188.6L550.1,188.6z M563,182.2c0.3,0.7,0.4,1.5,0.1,2.2c-0.2,0.7-0.8,1.3-1.4,1.6
							c-0.7,0.3-1.5,0.4-2.2,0.1c-0.7-0.2-1.3-0.8-1.6-1.4c-0.2-0.3-0.3-0.7-0.3-1.1c0-0.4,0-0.7,0.1-1.1c0.1-0.4,0.3-0.7,0.6-1
							c0.2-0.3,0.5-0.5,0.9-0.7c0.3-0.2,0.7-0.3,1.1-0.3s0.7,0,1.1,0.1s0.7,0.3,1,0.6C562.6,181.6,562.9,181.8,563,182.2L563,182.2z
							"/>
					</g>
				</g>
			</g>
		</g>
		
			<linearGradient id="SVGID_8_" gradientUnits="userSpaceOnUse" x1="448.1411" y1="1882.4531" x2="461.2921" y2="1871.9872" gradientTransform="matrix(1 0 0 1 0 -1224)">
			<stop  offset="0" style="stop-color:#FE7F40"/>
			<stop  offset="1" style="stop-color:#FE9640"/>
		</linearGradient>
		<path fill="url(#SVGID_8_)" d="M446.7,675c8.5,0,15.4-6.9,15.4-15.4s-6.9-15.4-15.4-15.4s-15.4,6.9-15.4,15.4
			C431.2,668.1,438.1,675,446.7,675z"/>
		
			<linearGradient id="SVGID_9_" gradientUnits="userSpaceOnUse" x1="196.3584" y1="1845.9415" x2="136.843" y2="1894.9905" gradientTransform="matrix(1 0 0 1 0 -1224)">
			<stop  offset="0" style="stop-color:#61ADEA"/>
			<stop  offset="1" style="stop-color:#522EB5"/>
		</linearGradient>
		<path fill="url(#SVGID_9_)" d="M179.3,655.1c10.5,0,19.1-8.6,19.1-19.1s-8.6-19.1-19.1-19.1s-19.1,8.6-19.1,19.1
			C160.2,646.6,168.7,655.1,179.3,655.1z"/>
		<path opacity="0.5" fill="#FAFCFC" enable-background="new    " d="M597.7,583.2c0,0-0.6,12.6,10.4,14c0,0-10.6,2.1-10.5,13
			c0,0,0.2-11.5-9.8-13.4C587.8,596.9,598.6,595.1,597.7,583.2z"/>
		<path opacity="0.5" fill="#FAFCFC" enable-background="new    " d="M280.1,541.3c0,0-0.6,12.6,10.4,14c0,0-10.6,2.1-10.5,13
			c0,0,0.2-11.5-9.8-13.4C270.1,555,281,553.3,280.1,541.3z"/>
		<path fill="#0084C4" d="M469,555.9l-7-4.7c-1.5-1-3-2.1-4.4-3.1c-0.8-0.6-1.6-1.2-2.4-1.7l0.9-1.3c0.8,0.6,1.6,1.2,2.4,1.7
			c1.4,1,2.9,2.1,4.4,3.1l7,4.7L469,555.9z"/>
		<path fill="#0084C4" d="M467.5,554c-1.8,1.4-3.7,2.7-5.7,3.8c-1.3,0.7-2.7,1.2-4.2,1.4c-0.3,0-0.6,0-0.8,0
			c-0.3-0.1-0.5-0.2-0.8-0.4c-0.2-0.2-0.4-0.4-0.6-0.6c-0.1-0.2-0.2-0.5-0.3-0.8c-0.2-1.1,0.5-1.8,1.6-2.3c0.6-0.3,1.3-0.5,2-0.6
			c0.8-0.2,1.5-0.3,2.3-0.3C463.2,553.9,465.4,553.8,467.5,554z"/>
		<path fill="#0084C4" d="M467,553.4c-1.7,1.4-3.4,2.6-5.3,3.7c-2.3,1.3-4.6,2-5.5,0.7c-1.1-1.7,1.3-2.4,4.3-2.7
			c2.3-0.3,4.7-0.3,7-0.2c0.2,0,0.4-0.1,0.6-0.2c0.2-0.1,0.2-0.3,0.3-0.5c0-0.2-0.1-0.4-0.2-0.6c-0.1-0.2-0.3-0.3-0.5-0.3
			c-2.8-0.2-5.7-0.1-8.5,0.3c-3.2,0.5-5.7,1.7-4.5,4.7c0.2,0.6,0.6,1,1.1,1.4c0.5,0.3,1.1,0.5,1.7,0.5c1.4,0,2.8-0.4,4-1
			c2.4-1.2,4.6-2.7,6.7-4.4C468.8,553.9,467.8,552.7,467,553.4z"/>
		<path fill="#0084C4" d="M467.5,554c0.6-2.2,1.1-4.4,1.3-6.7c0.2-1.4,0.2-2.9-0.2-4.3c-0.1-0.3-0.2-0.5-0.3-0.7
			c-0.2-0.2-0.4-0.4-0.6-0.5s-0.5-0.2-0.8-0.3s-0.5,0-0.8,0c-1.1,0.2-1.5,1.1-1.6,2.3c0,0.7,0,1.4,0.1,2c0.1,0.8,0.3,1.5,0.5,2.2
			C465.8,550,466.6,552,467.5,554"/>
		<path fill="#0084C4" d="M468.3,554.2c0.8-2.6,1.3-5.2,1.6-7.8c0.2-1.3,0-2.7-0.4-4c-0.2-0.5-0.5-1-1-1.3s-1-0.5-1.6-0.5
			c-3-0.1-3.4,2.6-2.9,5.8c0.6,2.7,1.6,5.4,2.8,7.9c0.1,0.2,0.3,0.3,0.4,0.4c0.2,0.1,0.4,0.1,0.6,0
			C468,554.6,468.2,554.4,468.3,554.2c0-0.2,0-0.4,0-0.6c-1-2.1-1.7-4.3-2.3-6.5c-0.7-2.7-0.8-5.3,1.1-4.9c1.5,0.3,1.6,2.7,1.2,5.2
			c-0.3,2.1-0.8,4.2-1.4,6.3C466.5,554.7,468,555.2,468.3,554.2z"/>
		<path fill="#0084C4" d="M455.2,546.4l-1.7-1.2l-5-3.8c-1.9-1.4-3.8-3-5.7-4.4l-0.9-0.8l1-1.2l0.9,0.8c1.8,1.5,3.7,3,5.6,4.4l5,3.8
			l1.7,1.2L455.2,546.4z"/>
		<path fill="#0084C4" d="M453.7,544.4c-1.8,1.3-3.8,2.5-5.8,3.5c-3,1.4-6.2,2-6.6-0.8c-0.3-2.2,2.8-2.8,6-2.9
			C449.5,544,451.6,544.1,453.7,544.4z"/>
		<path fill="#0084C4" d="M453.2,543.7c-1.7,1.3-3.5,2.4-5.5,3.4c-2.3,1.1-4.7,1.8-5.5,0.4c-1-1.7,1.5-2.3,4.4-2.5
			c2.3-0.1,4.7-0.1,7,0.1c0.2,0,0.4-0.1,0.6-0.2c0.2-0.1,0.2-0.3,0.3-0.5c0-0.2,0-0.4-0.2-0.6c-0.1-0.2-0.3-0.3-0.5-0.3
			c-2.8-0.4-5.6-0.4-8.4-0.2c-1.4,0.1-2.8,0.5-4,1.2c-0.5,0.4-0.8,0.9-1,1.5c-0.1,0.6,0,1.2,0.2,1.7c1,2.6,3.8,2.4,6.7,1.2
			c2.4-1.1,4.8-2.4,6.9-4.1c0.1-0.1,0.2-0.1,0.2-0.2c0.1-0.1,0.1-0.2,0.1-0.3s0-0.2,0-0.3s-0.1-0.2-0.2-0.3s-0.1-0.2-0.2-0.2
			c-0.1-0.1-0.2-0.1-0.3-0.1c-0.1,0-0.2,0-0.3,0C453.4,543.6,453.3,543.7,453.2,543.7z"/>
		<path fill="#0084C4" d="M453.7,544.4c0.7-2.2,1.3-4.4,1.7-6.6c0.5-3.2,0.4-6.3-2.3-6c-2.2,0.3-2.1,3.4-1.4,6.5
			C452.2,540.3,452.9,542.4,453.7,544.4"/>
		<path fill="#0084C4" d="M454.5,544.6c0.9-2.5,1.6-5.1,2-7.8c0.4-3,0-5.7-2.7-5.9c-0.6-0.1-1.2,0-1.7,0.3s-0.9,0.7-1.2,1.3
			c-0.4,1.3-0.5,2.7-0.3,4.1c0.5,2.8,1.3,5.5,2.4,8c0,0.1,0.1,0.2,0.2,0.3s0.2,0.1,0.3,0.2c0.1,0,0.2,0.1,0.3,0.1
			c0.1,0,0.2,0,0.3-0.1c0.1,0,0.2-0.1,0.3-0.2C454.4,544.8,454.4,544.7,454.5,544.6c0-0.1,0-0.2,0-0.3s0-0.2-0.1-0.3
			c-0.9-2.2-1.5-4.4-2-6.7c-0.5-2.8-0.5-5.3,1.3-4.8c1.5,0.4,1.5,2.8,1,5.3c-0.4,2.1-1,4.2-1.8,6.2c0,0.1-0.1,0.2,0,0.3
			c0,0.1,0,0.2,0.1,0.3c0,0.1,0.1,0.2,0.2,0.2c0.1,0.1,0.2,0.1,0.3,0.2c0.1,0,0.2,0.1,0.3,0.1s0.2,0,0.3-0.1c0.1,0,0.2-0.1,0.2-0.2
			C454.4,544.8,454.4,544.7,454.5,544.6z"/>
		<path fill="#0084C4" d="M441.9,536.2l-3.3-2.6l-4.1-3.5c-1.8-1.5-3.7-3.1-5.4-4.7l1.1-1.2c1.7,1.6,3.6,3.2,5.4,4.7l4.1,3.5
			l3.3,2.6L441.9,536.2z"/>
		<path fill="#0084C4" d="M440.5,534.1c0,0-0.7,0.5-1.9,1.1c-1.3,0.8-2.7,1.5-4.2,2c-3.1,1.2-6.2,1.7-6.5-1.2
			c-0.2-2.2,3-2.7,6.1-2.6c1.5,0,2.9,0.1,4.4,0.3C439.7,533.9,440.5,534.1,440.5,534.1z"/>
		<path fill="#0084C4" d="M440,533.4c-1.8,1.2-3.7,2.2-5.6,3.1c-2.4,1-4.8,1.5-5.5,0.1c-0.9-1.8,1.6-2.2,4.5-2.3
			c1.5,0,3,0.1,4.3,0.2c1.3,0.1,2.3,0.2,2.7,0.3c0.2,0,0.4,0,0.6-0.1s0.3-0.3,0.3-0.5s0-0.4-0.1-0.6c-0.1-0.2-0.3-0.3-0.5-0.3
			c-2.8-0.5-5.6-0.7-8.4-0.6c-3.2,0.2-5.9,1.2-4.9,4.2c0.9,2.7,3.7,2.6,6.6,1.6c2.5-1,4.9-2.2,7.1-3.7
			C441.8,534.1,440.9,532.9,440,533.4z"/>
		<path fill="#0084C4" d="M440.5,534.1c0,0,0.3-0.8,0.7-2c0.5-1.5,0.9-2.9,1.3-4.4c0.7-3.2,0.7-6.3-2-6.1c-2.2,0.2-2.2,3.3-1.7,6.4
			c0.3,1.4,0.6,2.9,1,4.3C440.2,533.3,440.5,534.1,440.5,534.1"/>
		<path fill="#0084C4" d="M441.2,534.4c1-2.5,1.8-5,2.3-7.6c0.5-3,0.3-5.7-2.4-6c-3-0.4-3.7,2.3-3.4,5.5c0.3,2.8,1,5.5,2,8.2
			c0.1,0.2,0.2,0.3,0.4,0.4c0.2,0.1,0.4,0.1,0.6,0C440.9,534.7,441.1,534.5,441.2,534.4c0-0.2,0.1-0.4,0-0.6
			c-0.1-0.4-0.5-1.3-0.8-2.6c-0.4-1.4-0.7-2.8-0.9-4.2c-0.4-2.8-0.2-5.3,1.6-4.7c1.5,0.5,1.3,2.8,0.7,5.4c-0.6,2.1-1.2,4.1-2.1,6.1
			C439.4,534.7,440.8,535.3,441.2,534.4z"/>
		<path fill="#0084C4" d="M429,525.3c-4.5-4-8.7-8-12.3-11.5l1.1-1.1c3.6,3.5,7.8,7.5,12.2,11.4L429,525.3z"/>
		<path fill="#0084C4" d="M427.8,523.1c-2,1.1-4,2.1-6.2,2.9c-0.8,0.3-1.5,0.5-2.3,0.6c-0.7,0.1-1.4,0.2-2,0.1
			c-0.3,0-0.6-0.1-0.8-0.2c-0.3-0.1-0.5-0.3-0.7-0.5s-0.3-0.4-0.4-0.7s-0.2-0.5-0.1-0.8c-0.1-2.2,3.1-2.5,6.3-2.3
			c1.6,0.1,3.2,0.3,4.4,0.5C427,522.9,427.8,523.1,427.8,523.1z"/>
		<path fill="#0084C4" d="M427.3,522.4c-1.8,1.1-3.8,2.1-5.8,2.9c-2.5,0.9-4.8,1.3-5.5-0.2c-0.8-1.8,1.7-2.1,4.6-2
			c1.4,0.1,3,0.2,4.3,0.4s2.3,0.3,2.7,0.4c0.2,0,0.4,0,0.6-0.1s0.3-0.3,0.3-0.5s0-0.4-0.1-0.6c-0.1-0.2-0.3-0.3-0.5-0.3
			c-0.7-0.1-2-0.4-3.5-0.6c-1.6-0.3-3.2-0.4-4.9-0.4c-3.2,0-5.9,0.9-5.1,4c0.7,2.7,3.5,2.8,6.5,1.9c2.5-0.8,5-2,7.3-3.4
			C429.1,523.3,428.2,521.9,427.3,522.4z"/>
		<path fill="#0084C4" d="M427.8,523.1c0.9-2.1,1.7-4.2,2.3-6.4c0.2-0.8,0.4-1.5,0.5-2.3c0.1-0.7,0.1-1.3,0-2c0-0.3-0.1-0.5-0.2-0.8
			c-0.1-0.2-0.3-0.5-0.5-0.6c-0.2-0.2-0.4-0.3-0.7-0.4c-0.3-0.1-0.5-0.1-0.8-0.1c-2.2,0.1-2.4,3.2-2,6.3c0.2,1.4,0.5,2.9,0.8,4.3
			C427.5,522.3,427.8,523.1,427.8,523.1"/>
		<path fill="#0084C4" d="M428.5,523.5c1.1-2.4,2-4.9,2.7-7.5c0.6-2.9,0.5-5.7-2.1-6.2c-3-0.5-3.8,2.1-3.7,5.3
			c0.1,1.6,0.3,3.2,0.7,4.8c0.3,1.5,0.7,2.7,1,3.4c0.1,0.2,0.2,0.3,0.4,0.4c0.2,0.1,0.4,0.1,0.6,0
			C428.2,523.8,428.3,523.6,428.5,523.5c0.1-0.2,0.1-0.4,0-0.6c-0.1-0.4-0.4-1.4-0.7-2.6c-0.3-1.4-0.5-2.8-0.7-4.2
			c-0.3-2.9,0-5.3,1.8-4.7c1.5,0.5,1.1,2.9,0.4,5.4c-0.6,2-1.4,4-2.3,6C426.6,523.7,428.1,524.4,428.5,523.5z"/>
		<path fill="#0084C4" d="M416.7,513.8l-5.9-6l-5.8-6.1l1.1-1.1l5.8,6.1l5.9,5.9L416.7,513.8z"/>
		<path fill="#0084C4" d="M415.6,511.5c-2,1-4.1,1.9-6.3,2.6c-3.2,0.9-6.4,1.1-6.4-1.8c0-2.2,3.2-2.3,6.4-2
			C411.4,510.6,413.5,511,415.6,511.5z"/>
		<path fill="#0084C4" d="M415.2,510.9c-1.9,1-3.9,1.9-5.9,2.6c-2.5,0.8-4.9,1.1-5.5-0.4c-0.7-1.9,1.8-2,4.7-1.8
			c2.3,0.2,4.7,0.6,6.9,1.1c0.2,0,0.4,0,0.6-0.1s0.3-0.3,0.4-0.5s0-0.4-0.1-0.6s-0.3-0.3-0.5-0.4c-0.7-0.2-2-0.5-3.5-0.8
			c-1.6-0.3-3.2-0.5-4.9-0.6c-3.2-0.1-5.9,0.6-5.3,3.7c0.6,2.8,3.4,2.9,6.4,2.2c2.6-0.7,5.1-1.7,7.4-3
			C416.9,511.8,416.1,510.4,415.2,510.9z"/>
		<path fill="#0084C4" d="M415.6,511.5c1-2,1.9-4.1,2.6-6.3c1-3.1,1.3-6.2-1.4-6.2c-2.2-0.1-2.6,3.1-2.3,6.2
			C414.7,507.4,415.1,509.5,415.6,511.5z"/>
		<path fill="#0084C4" d="M416.3,511.9c1.3-2.4,2.3-4.8,3.1-7.4c0.8-2.9,0.8-5.6-1.8-6.2c-3-0.7-3.9,1.9-4,5.1
			c0,1.6,0.1,3.2,0.4,4.8c0.3,1.5,0.6,2.8,0.8,3.5c0.1,0.2,0.2,0.4,0.4,0.5c0.2,0.1,0.4,0.1,0.6,0.1
			C416,512.2,416.2,512.1,416.3,511.9c0.1-0.2,0.1-0.4,0.1-0.6c-0.5-2.3-0.9-4.6-1-6.9c-0.1-2.9,0.3-5.3,2-4.6
			c1.4,0.6,1,2.9,0.2,5.4c-0.7,2-1.6,4-2.6,5.9C414.4,512,415.8,512.8,416.3,511.9z"/>
		<path fill="#0084C4" d="M405,501.7c-3.3-3.7-7.3-8.1-11.1-12.7l1.2-1c3.8,4.6,7.7,8.9,11,12.6L405,501.7z"/>
		<path fill="#0084C4" d="M404,499.4c-2.1,0.9-4.2,1.7-6.4,2.2c-3.2,0.8-6.4,0.7-6.3-2.1c0.1-1.1,0.9-1.7,2.1-1.9
			c1.5-0.2,2.9-0.1,4.4,0.2C399.9,498.2,402,498.8,404,499.4z"/>
		<path fill="#0084C4" d="M403.7,498.7c-1.9,0.9-4,1.7-6,2.3c-2.5,0.7-4.9,0.8-5.5-0.7c-0.7-1.9,1.9-2,4.8-1.6
			c2.3,0.3,4.6,0.8,6.9,1.5c0.2,0.1,0.4,0,0.6-0.1s0.3-0.3,0.4-0.5s0-0.4,0-0.6c-0.1-0.2-0.3-0.3-0.4-0.4c-2.7-0.9-5.4-1.5-8.3-1.8
			c-3.2-0.3-6,0.3-5.5,3.4c0.5,2.7,3.3,3.1,6.3,2.5c2.6-0.6,5.1-1.5,7.5-2.6C405.3,499.7,404.6,498.3,403.7,498.7z"/>
		<path fill="#0084C4" d="M404,499.4c1.1-2,2.1-4,3-6.1c1.1-3.1,1.6-6.1-1.1-6.3c-1.1-0.1-1.8,0.6-2.2,1.8c-0.4,1.4-0.5,2.8-0.4,4.3
			C403.3,495.2,403.6,497.3,404,499.4"/>
		<path fill="#0084C4" d="M404.7,499.8c1.4-2.3,2.5-4.7,3.5-7.2c0.9-2.9,1.1-5.6-1.5-6.3c-2.9-0.9-4,1.7-4.2,4.9
			c-0.1,2.8,0.2,5.6,0.8,8.4c0,0.2,0.2,0.4,0.3,0.5s0.4,0.2,0.6,0.1C404.4,500.1,404.5,500,404.7,499.8c0.1-0.2,0.1-0.4,0.1-0.6
			c-0.4-2.3-0.6-4.6-0.6-6.9c0-2.9,0.5-5.3,2.2-4.4c1.4,0.7,0.9,3-0.1,5.4c-0.8,2-1.8,3.9-2.9,5.7
			C402.8,499.8,404.2,500.7,404.7,499.8z"/>
		<path fill="#0084C4" d="M394,489.1c-1.6-1.8-3.1-3.7-4.6-5.6l-3.4-4.2l-2.5-3.4l1.3-0.9l2.5,3.4l3.3,4.2c1.5,1.8,3,3.7,4.5,5.5
			L394,489.1z"/>
		<path fill="#0084C4" d="M393,486.7c0,0-0.8,0.3-2.1,0.7c-1.5,0.5-3,0.9-4.5,1.2c-3.2,0.6-6.4,0.4-6.2-2.4c0.2-2.2,3.4-2,6.5-1.4
			c1.4,0.3,2.8,0.7,4.2,1.2L393,486.7z"/>
		<path fill="#0084C4" d="M392.7,486c-2,0.8-4,1.5-6.1,2c-2.5,0.5-5,0.6-5.4-1c-0.6-1.9,2-1.9,4.8-1.3c2.3,0.5,4.6,1.1,6.8,1.8
			c0.2,0.1,0.4,0.1,0.6,0s0.3-0.2,0.4-0.4c0.1-0.2,0.1-0.4,0-0.6s-0.2-0.3-0.4-0.4c-2.6-1-5.3-1.8-8.1-2.3c-3.2-0.4-6,0-5.6,3.2
			c0.3,2.8,3.1,3.2,6.1,2.8c2.6-0.5,5.2-1.2,7.7-2.3C394.3,487,393.6,485.6,392.7,486z"/>
		<path fill="#0084C4" d="M393,486.7c0,0,0.5-0.7,1.1-1.9c0.8-1.3,1.5-2.7,2.1-4.1c1.3-3,2-6.1-0.8-6.4c-2.2-0.2-2.8,2.8-2.9,5.9
			c0,1.5,0,2.9,0.2,4.4C392.9,485.9,393,486.7,393,486.7"/>
		<path fill="#0084C4" d="M393.7,487.2c1.5-2.2,2.8-4.6,3.8-7c1.1-2.8,1.4-5.5-1.2-6.4c-2.9-1-4.1,1.5-4.4,4.7
			c-0.2,2.8-0.1,5.6,0.4,8.4c0,0.2,0.2,0.4,0.3,0.5c0.2,0.1,0.4,0.2,0.6,0.1C393.4,487.4,393.5,487.3,393.7,487.2
			c0.1-0.2,0.2-0.4,0.1-0.6c-0.3-2.3-0.4-4.6-0.3-7c0.2-2.9,0.8-5.2,2.5-4.3c1.4,0.7,0.7,3-0.4,5.4c-1,1.9-2,3.8-3.2,5.6
			C391.8,487.1,393.1,488,393.7,487.2z"/>
		<path fill="#0084C4" d="M383.5,475.9l-0.7-1c-1.4-1.9-2.9-3.8-4.2-5.8L375,464l-1.2-1.8l1.3-0.9l1.2,1.7l3.6,5.1
			c1.3,2,2.8,3.9,4.2,5.8l0.7,1L383.5,475.9z"/>
		<path fill="#0084C4" d="M382.7,473.5c-2.2,0.7-4.4,1.3-6.6,1.6c-3.3,0.4-6.4,0.1-6-2.7c0.3-2.2,3.5-1.9,6.6-1c1.5,0.4,3,1,4.2,1.4
			C382,473.1,382.7,473.5,382.7,473.5z"/>
		<path fill="#0084C4" d="M382.4,472.7c-2,0.7-4.1,1.3-6.2,1.7c-2.6,0.4-5,0.3-5.4-1.3c-0.5-1.9,2.1-1.8,4.9-1.1
			c2.3,0.6,4.5,1.3,6.7,2.2c0.2,0.1,0.4,0.1,0.6,0s0.3-0.2,0.4-0.4s0.1-0.4,0-0.6s-0.2-0.3-0.4-0.4c-0.7-0.3-1.9-0.8-3.3-1.3
			c-1.5-0.6-3.1-1-4.7-1.4c-3.2-0.6-6-0.3-5.8,2.9c0.2,2.8,2.9,3.4,6,3.1c2.7-0.3,5.3-1,7.8-1.9C384,473.9,383.4,472.4,382.4,472.7z
			"/>
		<path fill="#0084C4" d="M382.7,473.5c1.3-1.8,2.5-3.8,3.5-5.8c1.4-2.9,2.3-6-0.4-6.4c-2.1-0.4-3,2.6-3.2,5.8
			c-0.1,1.5-0.1,2.9,0,4.4C382.6,472.7,382.7,473.5,382.7,473.5"/>
		<path fill="#0084C4" d="M383.4,474c1.6-2.1,3-4.4,4.1-6.8c1.2-2.8,1.7-5.5-0.8-6.4c-2.8-1.1-4.2,1.3-4.7,4.5
			c-0.2,1.6-0.3,3.2-0.3,4.8c0,1.5,0.2,2.8,0.3,3.6c0,0.2,0.1,0.4,0.3,0.5c0.2,0.1,0.4,0.2,0.6,0.2C383,474.2,383.2,474.1,383.4,474
			c0.1-0.2,0.2-0.4,0.2-0.6c-0.2-2.3-0.2-4.6,0-7c0.3-2.9,1.1-5.2,2.7-4.2c1.3,0.8,0.6,3.1-0.7,5.4c-1,1.9-2.2,3.7-3.5,5.4
			C381.5,473.8,382.8,474.8,383.4,474z"/>
		<path fill="#0084C4" d="M373.7,462.2c-0.5-0.8-1.1-1.6-1.6-2.5c-1-1.5-2-3-3-4.5l-4.5-7.1l1.3-0.8l4.4,7.1c1,1.5,2,3,3,4.5
			c0.6,0.8,1.1,1.7,1.7,2.5L373.7,462.2z"/>
		<path fill="#0084C4" d="M373.1,459.7c-2.2,0.6-4.4,1-6.7,1.3c-1.5,0.2-3,0.1-4.4-0.4c-0.3-0.1-0.5-0.2-0.8-0.4
			c-0.2-0.2-0.4-0.4-0.5-0.6s-0.2-0.5-0.3-0.8c0-0.3,0-0.6,0.1-0.8c0.5-2.2,3.6-1.7,6.6-0.7C369.1,458,371.1,458.8,373.1,459.7z"/>
		<path fill="#0084C4" d="M372.8,459c-2.1,0.6-4.2,1.1-6.3,1.4c-1.2,0.2-2.4,0.2-3.5,0c-1-0.2-1.6-0.7-1.8-1.5
			c-0.4-2,2.2-1.7,4.9-0.8c2.3,0.7,4.5,1.5,6.6,2.5c0.2,0.1,0.4,0.1,0.6,0s0.4-0.2,0.4-0.4c0.1-0.2,0.1-0.4,0-0.6s-0.2-0.4-0.4-0.5
			c-2.5-1.3-5.2-2.3-7.9-3c-3.1-0.8-5.9-0.6-5.9,2.6c0,0.6,0.1,1.2,0.4,1.7s0.8,0.9,1.3,1.1c1.3,0.5,2.7,0.7,4.1,0.6
			c2.7-0.2,5.3-0.7,7.9-1.5C374.3,460.2,373.8,458.7,372.8,459z"/>
		<path fill="#0084C4" d="M373.1,459.7c1.4-1.8,2.7-3.7,3.8-5.6c0.8-1.2,1.3-2.6,1.5-4c0.1-0.3,0.1-0.5,0-0.8s-0.2-0.5-0.3-0.7
			c-0.2-0.2-0.4-0.4-0.6-0.5s-0.5-0.2-0.8-0.3c-2.1-0.5-3.1,2.5-3.5,5.6C373,455.5,373,457.6,373.1,459.7"/>
		<path fill="#0084C4" d="M373.7,460.3c1.7-2.1,3.2-4.3,4.5-6.6c0.7-1.2,1.1-2.5,1.1-3.8c0-0.6-0.1-1.1-0.4-1.6s-0.7-0.8-1.3-1.1
			c-2.8-1.3-4.2,1.1-4.9,4.2c-0.5,2.8-0.7,5.6-0.5,8.4c0,0.2,0.1,0.4,0.3,0.5c0.2,0.1,0.4,0.2,0.6,0.2
			C373.3,460.5,373.5,460.4,373.7,460.3c0.1-0.2,0.2-0.4,0.2-0.6c-0.1-2.3,0-4.6,0.4-6.9c0.5-2.8,1.4-5.2,2.9-4.1
			c0.3,0.3,0.5,0.6,0.6,1s0.1,0.8-0.1,1.2c-0.3,1.1-0.8,2.2-1.4,3.1c-1.1,1.8-2.4,3.6-3.7,5.2C371.8,460,373,461.1,373.7,460.3z"/>
		<path fill="#0084C4" d="M366.6,449.6c-0.5-2.2-1.2-4.4-2-6.5c-0.5-1.4-1.3-2.6-2.2-3.7c-0.2-0.2-0.4-0.4-0.6-0.5s-0.5-0.2-0.8-0.2
			s-0.5,0-0.8,0.1s-0.5,0.2-0.7,0.4c-1.7,1.4,0,4,2.2,6.3C363.2,447,364.8,448.4,366.6,449.6"/>
		<path fill="#0084C4" d="M367.4,449.4c-0.6-2.6-1.4-5.2-2.4-7.6c-0.5-1.2-1.3-2.4-2.3-3.3c-0.4-0.4-0.9-0.6-1.5-0.7
			s-1.1,0.1-1.6,0.3c-2.7,1.4-1.7,4,0.3,6.4c1.8,2.1,4,4,6.3,5.5c0.2,0.1,0.4,0.2,0.6,0.1c0.2,0,0.4-0.1,0.5-0.3
			C367.3,449.9,367.4,449.7,367.4,449.4c0-0.2-0.2-0.4-0.3-0.5c-1.9-1.4-3.6-2.9-5.2-4.6c-1.9-2.1-3.2-4.3-1.4-4.8
			c0.7-0.2,1.4,0.2,2,0.9c0.7,0.9,1.2,2,1.6,3.1c0.7,2,1.3,4.1,1.8,6.2C366,450.7,367.6,450.4,367.4,449.4z"/>
		
			<linearGradient id="SVGID_10_" gradientUnits="userSpaceOnUse" x1="214.2588" y1="1685.8395" x2="234.8888" y2="1659.4926" gradientTransform="matrix(1 0 0 1 0 -1224)">
			<stop  offset="0" style="stop-color:#FE7F40"/>
			<stop  offset="1" style="stop-color:#FE9640"/>
		</linearGradient>
		<path fill="url(#SVGID_10_)" d="M225.8,472c13.7,0,24.9-11.1,24.9-24.9c0-13.7-11.1-24.9-24.9-24.9c-13.7,0-24.9,11.1-24.9,24.9
			C201,460.8,212.1,472,225.8,472z"/>
		<path fill="#FEA130" d="M544.8,549.2l7.5-5.6c1.6-1.2,3.2-2.5,4.8-3.7c0.9-0.7,1.7-1.4,2.6-2.1l-1.1-1.4c-0.9,0.7-1.7,1.4-2.6,2.1
			c-1.5,1.2-3.1,2.5-4.7,3.7l-7.5,5.6L544.8,549.2z"/>
		<path fill="#FEA130" d="M546.4,546.9c2.1,1.5,4.2,2.8,6.5,3.9c1.5,0.8,3.1,1.2,4.7,1.3c0.3,0,0.6,0,0.9-0.1s0.6-0.2,0.8-0.5
			c0.2-0.2,0.4-0.5,0.6-0.7c0.1-0.3,0.2-0.6,0.2-0.9c0.2-1.2-0.6-2-1.9-2.5c-0.7-0.3-1.5-0.4-2.2-0.5c-0.9-0.1-1.7-0.2-2.6-0.2
			C551.2,546.6,548.8,546.7,546.4,546.9z"/>
		<path fill="#FEA130" d="M546.9,546.2c1.9,1.4,3.9,2.7,6.1,3.8c2.6,1.3,5.2,2,6.2,0.4c1.1-1.9-1.6-2.5-4.9-2.8
			c-2.6-0.1-5.2-0.1-7.8,0.1c-0.2,0-0.5-0.1-0.6-0.2c-0.2-0.1-0.3-0.4-0.3-0.6c0-0.2,0-0.5,0.2-0.6c0.1-0.2,0.4-0.3,0.6-0.3
			c3.1-0.4,6.3-0.4,9.4-0.2c3.5,0.4,6.4,1.6,5.2,4.9c-0.2,0.6-0.6,1.2-1.1,1.6c-0.5,0.4-1.2,0.6-1.8,0.7c-1.5,0-3.1-0.3-4.5-0.9
			c-2.7-1.2-5.3-2.7-7.7-4.5C544.9,547,546,545.6,546.9,546.2z"/>
		<path fill="#FEA130" d="M546.4,546.9c-0.8-2.4-1.4-4.8-1.9-7.3c-0.3-1.6-0.3-3.2,0-4.8c0-0.3,0.2-0.6,0.3-0.8
			c0.2-0.3,0.4-0.5,0.6-0.6c0.2-0.2,0.5-0.3,0.8-0.3c0.3-0.1,0.6-0.1,0.9,0c1.2,0.2,1.8,1.1,1.9,2.4c0.1,0.8,0.1,1.5,0,2.3
			s-0.2,1.7-0.4,2.5C548.1,542.5,547.3,544.7,546.4,546.9"/>
		<path fill="#FEA130" d="M545.6,547.3c-1-2.8-1.7-5.7-2.2-8.6c-0.3-1.5-0.2-3,0.2-4.4c0.2-0.6,0.6-1.1,1-1.5
			c0.5-0.4,1.1-0.6,1.7-0.6c3.4-0.3,4,2.7,3.5,6.3c-0.5,3.1-1.5,6.1-2.7,8.9c-0.1,0.2-0.3,0.4-0.5,0.4c-0.2,0.1-0.4,0.1-0.7,0
			C545.9,547.6,545.7,547.4,545.6,547.3c-0.1-0.2-0.1-0.5,0-0.7c1-2.4,1.7-4.9,2.2-7.4c0.6-3.1,0.6-5.9-1.5-5.3
			c-1.7,0.4-1.6,3.1-1.1,5.9c0.5,2.3,1.1,4.6,1.9,6.9C547.6,547.7,545.9,548.3,545.6,547.3z"/>
		<path fill="#FEA130" d="M559.6,537.9l1.8-1.4l5.4-4.5c2.1-1.7,4.1-3.5,6.1-5.2l1-0.9l-1.2-1.3l-1,0.9c-1.9,1.7-4,3.5-6,5.2
			l-5.4,4.5l-1.8,1.4L559.6,537.9z"/>
		<path fill="#FEA130" d="M561.1,535.5c2.1,1.4,4.4,2.5,6.7,3.5c3.4,1.3,6.9,1.9,7.3-1.3c0.3-2.5-3.3-3-6.8-2.9
			C565.9,534.9,563.5,535.1,561.1,535.5z"/>
		<path fill="#FEA130" d="M561.6,534.8c2,1.3,4.1,2.5,6.2,3.5c2.6,1.1,5.3,1.7,6.2,0.1c1-1.9-1.8-2.5-5-2.5c-2.6,0-5.2,0.2-7.8,0.5
			c-0.2,0-0.5,0-0.6-0.2c-0.2-0.1-0.3-0.3-0.3-0.6c0-0.2,0-0.5,0.2-0.6c0.1-0.2,0.3-0.3,0.6-0.4c3.1-0.5,6.2-0.8,9.4-0.7
			c1.6,0,3.1,0.4,4.5,1.2c0.6,0.4,1,0.9,1.1,1.6c0.2,0.6,0.1,1.3-0.2,1.9c-1,2.9-4.1,2.8-7.3,1.7c-2.8-1.1-5.4-2.5-7.9-4.1
			c-0.1-0.1-0.2-0.1-0.2-0.2c-0.1-0.1-0.1-0.2-0.1-0.3s0-0.2,0-0.3s0.1-0.2,0.2-0.3s0.1-0.2,0.2-0.3s0.2-0.1,0.3-0.1
			c0.1,0,0.2,0,0.3,0C561.4,534.7,561.6,534.7,561.6,534.8z"/>
		<path fill="#FEA130" d="M561.1,535.5c-0.9-2.4-1.7-4.8-2.2-7.2c-0.8-3.6-0.8-7,2.3-6.7c2.4,0.2,2.5,3.7,1.9,7.1
			C562.6,531,561.9,533.3,561.1,535.5z"/>
		<path fill="#FEA130" d="M560.3,535.9c-1.1-2.7-2-5.6-2.6-8.5c-0.6-3.3-0.3-6.3,2.7-6.7c0.6-0.2,1.3-0.1,1.9,0.2s1.1,0.8,1.4,1.4
			c0.6,1.4,0.8,3,0.5,4.5c-0.4,3.1-1.1,6.1-2.2,9.1c-0.1,0.2-0.2,0.4-0.5,0.5c-0.2,0.1-0.4,0.1-0.7,0
			C560.6,536.2,560.5,536.1,560.3,535.9c-0.1-0.2-0.1-0.4,0-0.7c0.8-2.5,1.4-5,1.8-7.5c0.5-3.1,0.3-5.9-1.7-5.3
			c-1.7,0.5-1.5,3.1-0.8,5.9c0.6,2.3,1.4,4.6,2.3,6.8c0,0.1,0.1,0.2,0.1,0.3s0,0.2-0.1,0.3c0,0.1-0.1,0.2-0.2,0.3s-0.2,0.1-0.3,0.2
			c-0.1,0.1-0.2,0.1-0.3,0.1c-0.1,0-0.2,0-0.3-0.1c-0.1,0-0.2-0.1-0.3-0.2C560.4,536.1,560.4,536,560.3,535.9z"/>
		<path fill="#FEA130" d="M573.9,525.8l3.5-3.1l4.4-4.1c1.9-1.8,3.9-3.6,5.8-5.6l-1.2-1.2c-1.9,1.9-3.8,3.7-5.7,5.5l-4.4,4.1
			l-3.5,3.1L573.9,525.8z"/>
		<path fill="#FEA130" d="M575.3,523.3c0,0,0.8,0.5,2.1,1.2c1.5,0.8,3.1,1.5,4.7,2c3.5,1.2,7,1.5,7.2-1.6c0.1-2.5-3.4-2.8-7-2.6
			c-1.6,0.1-3.2,0.3-4.9,0.6C576.2,523.1,575.3,523.3,575.3,523.3z"/>
		<path fill="#FEA130" d="M575.8,522.6c2,1.2,4.2,2.3,6.4,3.2c2.7,1,5.4,1.4,6.1-0.2c0.9-2-1.9-2.4-5.1-2.3
			c-1.6,0.1-3.3,0.3-4.7,0.5c-1.4,0.2-2.6,0.4-3,0.5c-0.2,0-0.5,0-0.6-0.1c-0.2-0.1-0.3-0.3-0.4-0.5c0-0.2,0-0.5,0.1-0.6
			c0.1-0.2,0.3-0.3,0.5-0.4c3.1-0.7,6.2-1.1,9.3-1.1c3.6,0,6.6,1,5.7,4.4c-0.8,3-4,3.1-7.2,2.1c-2.8-0.9-5.6-2.2-8.1-3.8
			C573.8,523.5,574.8,522,575.8,522.6z"/>
		<path fill="#FEA130" d="M575.3,523.3c0,0-0.4-0.9-0.9-2.2c-0.6-1.6-1.2-3.2-1.6-4.9c-0.9-3.5-1.2-7,1.9-6.9c2.4,0.1,2.7,3.5,2.2,7
			c-0.2,1.6-0.5,3.2-0.9,4.8C575.6,522.5,575.3,523.3,575.3,523.3"/>
		<path fill="#FEA130" d="M574.5,523.7c-1.3-2.7-2.3-5.5-3-8.3c-0.7-3.3-0.6-6.3,2.3-6.8c3.4-0.6,4.2,2.3,4.1,5.9
			c-0.2,3.1-0.8,6.2-1.8,9.2c-0.1,0.2-0.2,0.4-0.4,0.5s-0.4,0.1-0.7,0.1C574.8,524.1,574.6,523.9,574.5,523.7s-0.1-0.4,0-0.7
			c0.1-0.4,0.4-1.5,0.8-2.9c0.3-1.5,0.6-3.1,0.7-4.7c0.3-3.2,0-5.9-2-5.2c-1.6,0.6-1.3,3.2-0.5,6c0.7,2.3,1.6,4.5,2.6,6.7
			C576.5,523.9,574.9,524.8,574.5,523.7z"/>
		<path fill="#FEA130" d="M587.5,513c4.8-4.6,9.2-9.4,13-13.4l-1.3-1.2c-3.8,4-8.2,8.8-13,13.4L587.5,513z"/>
		<path fill="#FEA130" d="M588.8,510.5c2.3,1.2,4.6,2.1,7,2.9c0.9,0.3,1.7,0.4,2.6,0.6c0.8,0.1,1.5,0.1,2.3,0c0.3,0,0.6-0.1,0.9-0.2
			c0.3-0.1,0.5-0.3,0.7-0.6c0.2-0.2,0.4-0.5,0.5-0.8s0.1-0.6,0.1-0.9c0-2.5-3.6-2.6-7.1-2.2c-1.7,0.2-3.5,0.5-4.8,0.8
			C589.7,510.2,588.8,510.5,588.8,510.5z"/>
		<path fill="#FEA130" d="M589.2,509.7c2.1,1.1,4.3,2.1,6.6,2.9c2.8,0.9,5.4,1.2,6.1-0.5c0.8-2-2-2.3-5.2-2
			c-1.6,0.2-3.3,0.4-4.7,0.7c-1.4,0.2-2.5,0.5-3,0.6c-0.2,0.1-0.5,0-0.7-0.1s-0.3-0.3-0.4-0.5s0-0.5,0.1-0.7s0.3-0.3,0.5-0.4
			c0.8-0.2,2.2-0.6,3.9-0.9c1.8-0.4,3.6-0.6,5.4-0.7c3.6-0.1,6.6,0.6,5.9,4.1c-0.7,3-3.8,3.3-7.1,2.5c-2.9-0.8-5.6-1.9-8.3-3.4
			C587.4,510.7,588.2,509.2,589.2,509.7z"/>
		<path fill="#FEA130" d="M588.8,510.5c-1.1-2.2-2.1-4.6-2.9-6.9c-0.3-0.8-0.5-1.7-0.6-2.5c-0.1-0.7-0.2-1.5-0.1-2.2
			c0-0.3,0.1-0.6,0.2-0.9s0.3-0.5,0.5-0.7s0.5-0.4,0.8-0.5s0.6-0.1,0.9-0.1c2.4,0,2.8,3.4,2.6,6.9c-0.1,1.6-0.4,3.2-0.7,4.8
			C589,509.6,588.8,510.5,588.8,510.5z"/>
		<path fill="#FEA130" d="M588,510.9c-1.4-2.6-2.5-5.3-3.4-8.2c-0.9-3.2-0.9-6.3,2-6.9c3.3-0.8,4.3,2.1,4.4,5.7
			c0,1.8-0.2,3.6-0.5,5.4c-0.3,1.7-0.7,3.1-0.9,3.9c-0.1,0.2-0.2,0.4-0.4,0.5c-0.2,0.1-0.4,0.1-0.7,0.1
			C588.4,511.2,588.2,511.1,588,510.9c-0.1-0.2-0.1-0.4-0.1-0.7c0.1-0.4,0.4-1.5,0.6-3c0.3-1.5,0.5-3.1,0.5-4.7
			c0.1-3.2-0.3-5.9-2.3-5.1c-1.6,0.7-1.1,3.3-0.2,6c0.8,2.2,1.8,4.4,2.9,6.5C590.1,511,588.5,511.9,588,510.9z"/>
		<path fill="#FEA130" d="M600.5,499.5l6.2-6.9l6.1-7.1l-1.3-1.1l-6,7.1l-6.2,6.9L600.5,499.5z"/>
		<path fill="#FEA130" d="M601.7,497c2.3,1,4.7,1.9,7.2,2.5c3.6,0.8,7.2,0.9,7-2.3c-0.1-2.5-3.7-2.4-7.2-1.9
			C606.3,495.7,603.9,496.2,601.7,497z"/>
		<path fill="#FEA130" d="M602.1,496.2c2.2,1,4.4,1.9,6.7,2.5c2.8,0.7,5.5,0.9,6.1-0.8c0.7-2.1-2.1-2.2-5.3-1.7
			c-2.6,0.4-5.1,0.9-7.7,1.6c-0.2,0.1-0.5,0-0.6-0.1c-0.2-0.1-0.3-0.3-0.4-0.5s0-0.4,0.1-0.7c0.1-0.2,0.3-0.4,0.5-0.4
			c0.8-0.2,2.2-0.7,3.8-1.1c1.8-0.4,3.6-0.8,5.4-1c3.5-0.3,6.6,0.3,6.1,3.8c-0.5,3.1-3.7,3.4-7,2.8c-2.9-0.7-5.7-1.6-8.4-2.9
			C600.2,497.3,601,495.7,602.1,496.2z"/>
		<path fill="#FEA130" d="M601.7,497c-1.3-2.2-2.4-4.5-3.3-6.8c-1.3-3.4-1.8-6.8,1.2-7c2.4-0.2,3,3.3,2.9,6.8
			C602.4,492.3,602.1,494.6,601.7,497z"/>
		<path fill="#FEA130" d="M600.9,497.4c-1.5-2.5-2.8-5.2-3.8-8c-1.1-3.2-1.2-6.2,1.6-7c3.3-0.9,4.4,1.9,4.7,5.4
			c0.1,1.8,0,3.6-0.2,5.4c-0.2,1.7-0.5,3.1-0.7,3.9c0,0.2-0.2,0.4-0.4,0.6c-0.2,0.1-0.4,0.2-0.7,0.1
			C601.3,497.8,601.1,497.6,600.9,497.4c-0.1-0.2-0.2-0.4-0.1-0.7c0.5-2.5,0.7-5.1,0.7-7.7c0-3.2-0.6-5.9-2.5-5
			c-1.5,0.8-1,3.3,0.1,6c0.9,2.2,2,4.3,3.3,6.4C603,497.4,601.5,498.4,600.9,497.4z"/>
		<path fill="#FEA130" d="M612.8,485.4c3.5-4.3,7.6-9.4,11.6-14.7l-1.4-1c-3.9,5.3-8,10.4-11.5,14.6L612.8,485.4z"/>
		<path fill="#FEA130" d="M613.9,482.8c2.3,0.9,4.8,1.6,7.3,2.1c3.6,0.7,7.2,0.5,6.9-2.7c-0.1-1.2-1.1-1.8-2.4-2
			c-1.6-0.1-3.3,0-4.9,0.4C618.4,481.3,616.1,482,613.9,482.8z"/>
		<path fill="#FEA130" d="M614.2,482c2.2,0.9,4.5,1.6,6.8,2.2c2.8,0.6,5.5,0.6,6.1-1.1c0.6-2.1-2.2-2.1-5.4-1.5
			c-2.6,0.5-5.1,1.2-7.5,2c-0.2,0.1-0.5,0.1-0.7,0s-0.4-0.3-0.4-0.5c-0.1-0.2-0.1-0.5,0-0.7s0.3-0.4,0.5-0.5c2.9-1.1,6-2,9.1-2.5
			c3.6-0.5,6.6-0.1,6.3,3.5c-0.4,3.1-3.5,3.6-6.9,3.1c-2.9-0.5-5.8-1.3-8.5-2.5C612.5,483.2,613.2,481.6,614.2,482z"/>
		<path fill="#FEA130" d="M613.9,482.8c-1.4-2.1-2.6-4.3-3.6-6.6c-1.4-3.4-2.2-6.7,0.9-7c1.2-0.1,2,0.6,2.5,1.9
			c0.5,1.5,0.8,3.1,0.7,4.7C614.4,478.1,614.2,480.5,613.9,482.8"/>
		<path fill="#FEA130" d="M613.2,483.4c-1.7-2.5-3.1-5.1-4.2-7.8c-1.2-3.2-1.5-6.1,1.3-7.1c3.2-1.1,4.5,1.7,4.9,5.2
			c0.2,3.1,0.1,6.2-0.4,9.3c0,0.1-0.1,0.2-0.1,0.3s-0.1,0.2-0.2,0.3c-0.1,0.1-0.2,0.1-0.3,0.1c-0.1,0-0.2,0-0.3,0
			c-0.1,0-0.2-0.1-0.3-0.1C613.3,483.5,613.2,483.4,613.2,483.4c-0.1-0.1-0.1-0.2-0.1-0.3c0-0.1,0-0.2,0-0.3
			c0.3-2.6,0.4-5.2,0.3-7.7c-0.2-3.2-0.9-5.8-2.7-4.8c-1.5,0.8-0.8,3.4,0.4,6c1.1,2.1,2.2,4.2,3.6,6.2
			C615.2,483.3,613.8,484.3,613.2,483.4z"/>
		<path fill="#FEA130" d="M624.4,470.8c1.6-2.1,3.2-4.3,4.7-6.5l3.5-4.9l2.6-3.9l-1.4-1l-2.6,3.9l-3.5,4.9c-1.5,2.1-3.1,4.3-4.7,6.4
			L624.4,470.8z"/>
		<path fill="#FEA130" d="M625.3,468.1c0,0,0.9,0.3,2.3,0.7c1.7,0.5,3.3,0.8,5,1.1c3.6,0.5,7.2,0.1,6.7-3c-0.4-2.4-3.9-2.1-7.3-1.1
			c-1.6,0.4-3.1,1-4.6,1.6L625.3,468.1z"/>
		<path fill="#FEA130" d="M625.7,467.3c2.2,0.8,4.6,1.4,6.9,1.8c2.8,0.5,5.6,0.4,6-1.4c0.5-2.1-2.3-2-5.5-1.2
			c-2.5,0.7-5,1.5-7.4,2.4c-0.2,0.1-0.5,0.1-0.7,0s-0.4-0.3-0.5-0.5s-0.1-0.5,0-0.7s0.3-0.4,0.5-0.5c2.9-1.3,5.8-2.3,8.9-3
			c3.5-0.7,6.7-0.3,6.4,3.2c-0.2,3.1-3.3,3.8-6.7,3.5c-3-0.4-5.9-1.1-8.7-2.1C623.9,468.6,624.6,466.9,625.7,467.3z"/>
		<path fill="#FEA130" d="M625.3,468.1c0,0-0.6-0.8-1.4-2c-0.9-1.4-1.8-2.9-2.6-4.5c-1.6-3.3-2.5-6.6,0.5-7.1
			c2.4-0.4,3.3,2.9,3.6,6.4c0.1,1.6,0.1,3.3,0,4.9C625.5,467.2,625.3,468.1,625.3,468.1"/>
		<path fill="#FEA130" d="M624.6,468.7c-1.8-2.4-3.3-4.9-4.6-7.6c-1.4-3.1-1.8-6.1,0.9-7.2c3.2-1.2,4.6,1.5,5.2,4.9
			c0.4,3.1,0.4,6.2,0.1,9.4c0,0.2-0.1,0.4-0.3,0.6c-0.2,0.1-0.4,0.2-0.6,0.2C625,469,624.8,468.9,624.6,468.7
			c-0.1-0.2-0.2-0.4-0.2-0.6c0.2-2.6,0.2-5.2,0-7.7c-0.3-3.2-1.2-5.8-3-4.7c-1.5,0.9-0.6,3.4,0.7,6c1.2,2.1,2.5,4.1,3.9,6
			C626.7,468.5,625.3,469.6,624.6,468.7z"/>
		<path fill="#FEA130" d="M635.3,455.5l0.8-1.1c1.5-2.2,3-4.4,4.4-6.7l3.7-5.9l1.2-2l-1.5-0.9l-1.2,2l-3.7,5.9
			c-1.4,2.2-2.9,4.5-4.3,6.6l-0.8,1.1L635.3,455.5z"/>
		<path fill="#FEA130" d="M636.1,452.9c2.4,0.7,4.9,1.2,7.5,1.4c3.6,0.3,7.2-0.3,6.5-3.4c-0.5-2.4-4-1.9-7.4-0.8
			c-1.7,0.6-3.3,1.3-4.6,1.8C636.9,452.5,636.1,452.9,636.1,452.9z"/>
		<path fill="#FEA130" d="M636.3,452c2.3,0.7,4.6,1.2,7,1.5c2.9,0.3,5.5,0.1,5.9-1.7c0.4-2.2-2.4-1.9-5.5-0.9
			c-2.5,0.8-4.9,1.7-7.3,2.8c-0.2,0.1-0.4,0.1-0.6,0s-0.4-0.2-0.5-0.4c-0.1-0.2-0.1-0.4,0-0.6s0.2-0.4,0.4-0.5
			c0.7-0.4,2.1-1,3.6-1.6c1.7-0.7,3.4-1.3,5.1-1.8c3.5-0.8,6.6-0.7,6.6,2.9c0,3.1-3.1,3.9-6.5,3.8c-3-0.2-5.9-0.8-8.8-1.7
			C634.7,453.4,635.3,451.7,636.3,452z"/>
		<path fill="#FEA130" d="M636.1,452.9c-1.6-2-3-4.1-4.2-6.2c-1.8-3.2-2.9-6.5,0.1-7.1c2.4-0.5,3.4,2.8,3.9,6.3
			c0.2,1.6,0.3,3.2,0.3,4.9C636.1,451.9,636.1,452.9,636.1,452.9"/>
		<path fill="#FEA130" d="M635.4,453.4c-1.9-2.3-3.5-4.7-5-7.3c-1.5-3-2.2-6,0.6-7.2c3.1-1.4,4.7,1.2,5.4,4.7
			c0.4,1.8,0.6,3.6,0.6,5.4c0.1,1.7,0,3.1-0.1,4c0,0.2-0.1,0.5-0.3,0.6c-0.2,0.2-0.4,0.2-0.6,0.2
			C635.8,453.7,635.6,453.6,635.4,453.4c-0.1-0.2-0.2-0.4-0.2-0.6c0.1-2.6,0-5.2-0.4-7.7c-0.5-3.1-1.5-5.7-3.2-4.5
			c-1.4,1-0.5,3.5,1,5.9c1.3,2,2.6,4,4.1,5.8C637.4,453.1,636.1,454.3,635.4,453.4z"/>
		<path fill="#FEA130" d="M645.4,439.8c0.6-0.9,1.1-1.9,1.7-2.8c1-1.7,2.1-3.5,3.1-5.2l4.5-8.2l-1.5-0.9l-4.5,8.1
			c-1,1.7-2,3.5-3,5.2c-0.6,0.9-1.1,1.9-1.7,2.8L645.4,439.8z"/>
		<path fill="#FEA130" d="M646,437.1c2.5,0.6,5,0.9,7.5,1c1.7,0.1,3.3-0.1,4.9-0.6c0.3-0.1,0.6-0.3,0.8-0.5c0.2-0.2,0.4-0.5,0.6-0.7
			s0.2-0.6,0.2-0.9s0-0.6-0.1-0.9c-0.6-2.4-4.1-1.7-7.4-0.4C650.3,434.9,648.1,435.9,646,437.1z"/>
		<path fill="#FEA130" d="M646.2,436.2c2.3,0.6,4.7,1,7.1,1.1c1.3,0.1,2.6,0,3.9-0.2c1.1-0.3,1.8-0.9,1.9-1.8
			c0.3-2.2-2.5-1.7-5.5-0.6c-2.5,0.9-4.9,1.9-7.2,3.1c-0.2,0.1-0.4,0.1-0.6,0s-0.4-0.2-0.5-0.4c-0.1-0.2-0.1-0.4-0.1-0.6
			c0.1-0.2,0.2-0.4,0.4-0.5c2.7-1.5,5.6-2.8,8.6-3.8c3.4-1,6.6-1,6.7,2.5c0.1,0.7-0.1,1.3-0.4,1.9s-0.8,1-1.4,1.3
			c-1.4,0.6-2.9,0.9-4.5,0.9c-3-0.1-5.9-0.5-8.8-1.2C644.7,437.7,645.2,436,646.2,436.2z"/>
		<path fill="#FEA130" d="M646,437.1c-1.7-1.9-3.2-3.9-4.5-6c-0.9-1.3-1.6-2.8-1.9-4.4c-0.1-0.3-0.1-0.6-0.1-0.9s0.1-0.6,0.3-0.8
			c0.2-0.3,0.4-0.5,0.6-0.6c0.2-0.2,0.5-0.3,0.8-0.3c2.3-0.6,3.6,2.6,4.2,6.1C645.9,432.3,646,434.7,646,437.1"/>
		<path fill="#FEA130" d="M645.4,437.7c-2-2.2-3.8-4.6-5.3-7.1c-0.8-1.3-1.3-2.7-1.5-4.2c-0.1-0.6,0-1.2,0.4-1.8
			c0.3-0.5,0.8-1,1.3-1.2c3-1.6,4.7,1,5.7,4.4c0.7,3,1,6.2,1,9.3c0,0.2-0.1,0.4-0.3,0.6c-0.2,0.2-0.4,0.2-0.6,0.2
			C645.8,437.9,645.6,437.8,645.4,437.7c-0.1-0.2-0.2-0.4-0.2-0.6c0-2.6-0.3-5.1-0.8-7.7c-0.7-3.1-1.8-5.7-3.5-4.4
			c-0.7,0.5-0.7,1.4-0.4,2.4c0.4,1.2,1,2.4,1.7,3.4c1.4,2,2.8,3.8,4.4,5.6C647.4,437.3,646.1,438.5,645.4,437.7z"/>
		<path fill="#FEA130" d="M652.7,425.4c0.5-2.5,1.1-4.9,1.9-7.3c0.5-1.5,1.3-3,2.3-4.2c0.2-0.2,0.4-0.4,0.7-0.6
			c0.3-0.2,0.6-0.2,0.8-0.3c0.3,0,0.6,0,0.9,0.1s0.6,0.2,0.8,0.4c1.9,1.4,0.2,4.4-2.1,7.1C656.3,422.4,654.5,424,652.7,425.4"/>
		<path fill="#FEA130" d="M651.8,425.3c0.5-2.9,1.2-5.8,2.3-8.6c0.5-1.4,1.3-2.7,2.4-3.8c0.4-0.4,1-0.7,1.6-0.8
			c0.6-0.1,1.2,0,1.8,0.3c3.1,1.4,2.2,4.3,0.1,7.2c-1.9,2.5-4.2,4.6-6.7,6.5c-0.2,0.1-0.4,0.2-0.6,0.2s-0.4-0.1-0.6-0.3
			C651.9,425.8,651.8,425.6,651.8,425.3c0.1-0.2,0.2-0.4,0.3-0.6c2-1.6,3.9-3.4,5.5-5.4c2-2.5,3.3-4.9,1.3-5.4
			c-0.8-0.2-1.6,0.3-2.2,1.2c-0.7,1.1-1.2,2.3-1.6,3.5c-0.7,2.3-1.2,4.6-1.6,6.9C653.3,426.7,651.6,426.4,651.8,425.3z"/>
		<path fill="#FEA130" d="M688.7,543.6C635.4,632.1,543,614,492.1,605.1l-3.2-8.8c0,0,50-25.3,101.1-43.6
			C641.1,534.4,688.7,543.6,688.7,543.6z"/>
		<path fill="#D77500" d="M494.8,599.7c18-1.4,36-3.9,53.7-7.6l8.9-20.8c0.1-0.3,0.4-0.5,0.7-0.7c0.3-0.1,0.6-0.1,0.9,0
			c0.1,0.1,0.3,0.2,0.4,0.3s0.2,0.3,0.3,0.4c0.1,0.2,0.1,0.3,0.1,0.5s0,0.3-0.1,0.5l-8.2,19.2c10.3-2.2,20.8-4.8,31.3-7.7l8.9-23
			c0.1-0.2,0.1-0.3,0.3-0.4c0.1-0.1,0.2-0.2,0.4-0.3c0.1-0.1,0.3-0.1,0.5-0.1s0.3,0,0.5,0.1s0.3,0.1,0.4,0.3
			c0.1,0.1,0.2,0.2,0.3,0.4c0.1,0.1,0.1,0.3,0.1,0.5s0,0.3-0.1,0.5l-8.2,21.3c8.9-2.5,17.8-5.3,26.8-8.4l9.5-19.1
			c0.1-0.3,0.4-0.5,0.7-0.6c0.3-0.1,0.6-0.1,0.9,0.1c0.1,0.1,0.3,0.2,0.4,0.3s0.2,0.3,0.2,0.4c0.1,0.2,0.1,0.3,0.1,0.5
			s-0.1,0.3-0.1,0.5l-8.4,16.8c9.1-3.2,18.2-6.6,27.3-10.2l7.6-12.9c0.1-0.1,0.2-0.3,0.3-0.4c0.1-0.1,0.3-0.2,0.4-0.2
			c0.2,0,0.3,0,0.5,0s0.3,0.1,0.5,0.2c0.1,0.1,0.3,0.2,0.4,0.3s0.2,0.3,0.2,0.4c0,0.2,0.1,0.3,0,0.5c0,0.2-0.1,0.3-0.2,0.5l-6,10.2
			c9.7-4,19.4-8.2,29.1-12.8c0.3-0.1,0.6-0.2,0.9,0c0.3,0.1,0.6,0.3,0.7,0.6s0.2,0.6,0,0.9s-0.3,0.6-0.6,0.7
			c-3.9,1.8-7.8,3.6-11.7,5.3l2.9,1c0.3,0.1,0.6,0.3,0.7,0.6s0.2,0.6,0,0.9c-0.1,0.3-0.3,0.6-0.6,0.7c-0.3,0.1-0.6,0.2-0.9,0
			l-5.3-1.9c-5.8,2.6-11.7,5-17.5,7.4c-0.1,0.1-0.2,0.1-0.3,0.1c-3.1,1.2-6.2,2.5-9.3,3.6l13.5,5.4c0.2,0.1,0.3,0.2,0.4,0.3
			s0.2,0.2,0.3,0.4c0.1,0.1,0.1,0.3,0.1,0.5s0,0.3-0.1,0.5c-0.1,0.1-0.2,0.3-0.3,0.4c-0.1,0.1-0.2,0.2-0.4,0.3
			c-0.1,0.1-0.3,0.1-0.5,0.1s-0.3,0-0.5-0.1l-16-6.4c-5.9,2.2-11.8,4.3-17.6,6.3c-0.1,0.1-0.3,0.1-0.5,0.2c-4,1.4-8,2.7-12,3.9
			l21.8,10.4c0.1,0.1,0.3,0.2,0.4,0.3s0.2,0.3,0.2,0.4c0.1,0.2,0.1,0.3,0.1,0.5s0,0.3-0.1,0.5c-0.1,0.1-0.2,0.3-0.3,0.4
			c-0.1,0.1-0.3,0.2-0.4,0.2s-0.3,0.1-0.5,0.1s-0.3,0-0.5-0.1L598,582.1c-4.6,1.4-9.3,2.8-13.9,4.1c-0.2,0.1-0.3,0.1-0.5,0.2
			c-7.1,2-14.1,3.8-21.1,5.4l24.5,13c0.1,0.1,0.3,0.2,0.4,0.3s0.2,0.3,0.2,0.4s0.1,0.3,0,0.5c0,0.2-0.1,0.3-0.1,0.5
			c-0.2,0.3-0.4,0.5-0.7,0.6c-0.3,0.1-0.7,0.1-0.9-0.1l-27-14.3c-3,0.7-6.1,1.3-9.1,2c-0.2,0.1-0.3,0.1-0.5,0.1
			c-17.9,3.7-36.1,6.3-54.4,7.7c-0.2,0-0.5,0-0.7-0.2c-0.2-0.1-0.3-0.2-0.4-0.4s-0.2-0.4-0.2-0.6c0-0.2,0-0.3,0.1-0.5
			c0-0.2,0.1-0.3,0.2-0.4c0.1-0.1,0.2-0.2,0.4-0.3C494.5,599.7,494.7,599.7,494.8,599.7z"/>
		
			<linearGradient id="SVGID_11_" gradientUnits="userSpaceOnUse" x1="477.763" y1="1894.0112" x2="650.126" y2="1670.5342" gradientTransform="matrix(1 0 0 1 0 -1224)">
			<stop  offset="0" style="stop-color:#006291"/>
			<stop  offset="1" style="stop-color:#0084C4"/>
		</linearGradient>
		<path fill="url(#SVGID_11_)" d="M528.6,531.4c1.1,0.1,2.2,0.1,3.3-0.1c8.2-1.2,13.2-9.7,20.6-13.5c12.3-6.3,28.6,1.7,40.6-5.2
			c8.8-5.1,12.4-16.7,21.6-21c7.4-3.5,15.9-2.7,23.5-5.8c16.2-6.7,17.2-29.8,36.8-31.4c6.6-0.5,11.9,1.7,18.1-1.7
			c5.6-3,9.5-7.7,15.8-9.5c5.6-1.7,14.1-1.7,15.8,5.3c2.9,11.7-12.8,18.6-12.3,29.7c0.2,3.9,1.1,7.9,0.3,11.8
			c-3.3,16-23.5,8.6-33.6,15.5c-7.4,5.1-8.4,15.2-13.2,22.2c-4.6,6.6-10.9,10.5-18.6,12.6c-10.5,2.8-20,1.8-27.4,11
			c-2.7,3.4-5,7.2-7.9,10.5c-9.5,10.7-22.5,8-33.3,15.2c-7.6,5.1-10.3,15-16.8,21.5c-4.6,4.6-10.9,7.1-17.2,8.6
			c-17.9,4.1-37.9,0-51.9-11.9c-11.6-9.8-25.7-34.9-16.5-50.1c7.3-12,26.9-20.4,40.7-16.6C520.8,529.4,524.7,531.1,528.6,531.4z"/>
		
			<linearGradient id="SVGID_12_" gradientUnits="userSpaceOnUse" x1="508.3999" y1="1736.9375" x2="699.9" y2="1736.9375" gradientTransform="matrix(1 0 0 1 0 -1224)">
			<stop  offset="0" style="stop-color:#FAFCFC"/>
			<stop  offset="1" style="stop-color:#FAFCFC;stop-opacity:0.302"/>
		</linearGradient>
		<path opacity="0.2" fill="url(#SVGID_12_)" enable-background="new    " d="M509.2,566.4c0.2,0.1,0.4,0.1,0.6,0
			c72.3-15.2,138.4-51.8,189.7-104.9c0.1-0.1,0.2-0.3,0.3-0.4s0.1-0.3,0.1-0.5s0-0.3-0.1-0.5c-0.1-0.1-0.2-0.3-0.3-0.4
			c-0.2-0.2-0.5-0.3-0.9-0.3c-0.3,0-0.6,0.1-0.8,0.4c-51,52.8-116.6,89.1-188.5,104.2c-0.2,0-0.3,0.1-0.4,0.2
			c-0.1,0.1-0.2,0.2-0.3,0.3s-0.1,0.3-0.2,0.4c0,0.2,0,0.3,0,0.5s0.1,0.4,0.3,0.6C508.8,566.3,509,566.4,509.2,566.4z"/>
		
			<linearGradient id="SVGID_13_" gradientUnits="userSpaceOnUse" x1="548.5388" y1="1531.75" x2="593.9588" y2="1453.3461" gradientTransform="matrix(1 0 0 1 0 -1224)">
			<stop  offset="0" style="stop-color:#006291"/>
			<stop  offset="1" style="stop-color:#0084C4"/>
		</linearGradient>
		<path fill="url(#SVGID_13_)" d="M466,541.4c-0.7,0.1-1.4,0-2-0.1c-5.1-0.8-8.2-6.1-12.9-8.5c-7.7-4-17.9,1-25.4-3.3
			c-5.5-3.2-7.8-10.5-13.5-13.2c-4.7-2.2-10-1.7-14.7-3.7c-10.1-4.2-10.8-18.7-23-19.6c-4.1-0.3-7.5,1-11.4-1.1
			c-3.5-1.9-5.9-4.8-9.9-6c-3.5-1-8.8-1.1-9.9,3.3c-1.8,7.3,8,11.6,7.7,18.6c-0.1,2.5-0.7,5-0.2,7.4c2.1,10,14.7,5.4,21,9.7
			c4.6,3.2,5.2,9.5,8.3,13.9c2.8,4,6.9,6.7,11.6,7.9c6.6,1.8,12.5,1.1,17.2,6.9c1.7,2.1,3.1,4.5,4.9,6.6c5.9,6.7,14.1,5,20.8,9.5
			c4.7,3.2,6.4,9.4,10.5,13.4c2.9,2.9,6.8,4.4,10.8,5.4c11.2,2.6,23.7,0,32.5-7.4c7.3-6.1,16.1-21.9,10.3-31.3
			c-4.6-7.5-16.8-12.8-25.4-10.4C470.9,540.2,468.4,541.2,466,541.4z"/>
		
			<linearGradient id="SVGID_14_" gradientUnits="userSpaceOnUse" x1="956.3135" y1="1753.9" x2="1076.1134" y2="1753.9" gradientTransform="matrix(1 0 0 1 0 -1224)">
			<stop  offset="0" style="stop-color:#FAFCFC"/>
			<stop  offset="1" style="stop-color:#FAFCFC;stop-opacity:0.302"/>
		</linearGradient>
		<path opacity="0.2" fill="url(#SVGID_14_)" enable-background="new    " d="M478.1,563.3c-0.1,0-0.3,0-0.4,0
			c-45.2-9.5-86.6-32.4-118.7-65.6c-0.1-0.1-0.1-0.2-0.2-0.2c0-0.1-0.1-0.2-0.1-0.3c0-0.1,0-0.2,0.1-0.3c0-0.1,0.1-0.2,0.2-0.2
			c0.1-0.1,0.3-0.2,0.5-0.2s0.4,0.1,0.5,0.2c31.9,33,73,55.8,117.9,65.2c0.2,0,0.4,0.2,0.5,0.3c0.1,0.2,0.1,0.4,0.1,0.6
			c0,0.1-0.1,0.3-0.2,0.4C478.4,563.2,478.3,563.3,478.1,563.3z"/>
		<path opacity="0.5" fill="#FAFCFC" enable-background="new    " d="M533.9,226.8c0,0-0.6,12.6,10.4,14c0,0-10.6,2.1-10.5,13
			c0,0,0.2-11.5-9.8-13.4C523.9,240.5,534.8,238.8,533.9,226.8z"/>
		
			<linearGradient id="SVGID_15_" gradientUnits="userSpaceOnUse" x1="219.999" y1="1377.913" x2="170.9501" y2="1428.757" gradientTransform="matrix(1 0 0 1 0 -1224)">
			<stop  offset="0" style="stop-color:#61ADEA"/>
			<stop  offset="1" style="stop-color:#522EB5"/>
		</linearGradient>
		<path fill="url(#SVGID_15_)" d="M201.2,192.5c10.5,0,19.1-8.6,19.1-19.1s-8.6-19.1-19.1-19.1s-19.1,8.6-19.1,19.1
			C182.1,184,190.7,192.5,201.2,192.5z"/>
		
			<linearGradient id="SVGID_16_" gradientUnits="userSpaceOnUse" x1="435.5374" y1="1218.4816" x2="489.1174" y2="1098.7505" gradientTransform="matrix(1 0 0 1 0 -1224)">
			<stop  offset="0" style="stop-color:#FAFCFC"/>
			<stop  offset="1" style="stop-color:#FAFCFC;stop-opacity:0.302"/>
		</linearGradient>
		<path opacity="0.2" fill="url(#SVGID_16_)" enable-background="new    " d="M350.1,376.5c6.7,7.7,15.1,13.7,24.7,17.4
			c4,1.6,1.9,7.5-1.8,7.7c-17.7,1-39.5-4.1-54.9-15.8c-15.2,5.6-31.7,9-46.5,0.6c-8.1-4.6-13.2-12.3-17.7-20.2
			c-6.3-11.1-12-22.6-17.4-34.2c-10.9-23.8-19.8-48.4-26.6-73.6c-4-14.8-11.1-36.4,4.3-47.3c8.9-6.3,21.4-9.2,31.6-12.8
			c13.3-4.6,26.7-8.8,40.2-12.6c12.9-3.6,25.8-6.8,38.9-9.7c9.8-2.1,20.7-5.3,30.7-2.7c18.5,4.7,23,26,27.3,41.8
			c6.9,25.7,13.9,51.4,20.9,77.1c5.2,19.1,11.5,42.2-1.4,59.7C391,367.2,369.3,373.7,350.1,376.5z"/>
		
			<linearGradient id="SVGID_17_" gradientUnits="userSpaceOnUse" x1="786.407" y1="1393.6708" x2="203.4169" y2="1567.0577" gradientTransform="matrix(1 0 0 1 0 -1224)">
			<stop  offset="0" style="stop-color:#D4D6D6"/>
			<stop  offset="1" style="stop-color:#FAFCFC"/>
		</linearGradient>
		<path fill="url(#SVGID_17_)" d="M339,391.7c6.7,7.7,15.1,13.7,24.7,17.4c4,1.6,1.9,7.5-1.8,7.7c-17.7,1-39.5-4.1-54.9-15.8
			c-15.2,5.6-31.7,9-46.5,0.6c-8.1-4.6-13.2-12.3-17.7-20.2c-6.3-11.1-12-22.6-17.4-34.2c-10.9-23.8-19.8-48.4-26.6-73.6
			c-4-14.8-11.1-36.4,4.3-47.3c8.9-6.3,21.4-9.2,31.6-12.8c13.3-4.6,26.7-8.8,40.2-12.6c12.9-3.6,25.8-6.8,38.9-9.7
			c9.8-2.1,20.7-5.3,30.7-2.7c18.5,4.7,23,26,27.3,41.8c6.9,25.7,13.9,51.4,20.9,77.1c5.2,19.1,11.5,42.2-1.4,59.7
			C379.8,382.4,358.1,388.9,339,391.7z"/>
		<path fill="#5E94DF" d="M325.8,299.4c-0.7,0.1-1.3,0.3-1.8,0.6c-0.5,0.3-0.8,0.8-1,1.4s-0.2,1.2,0,1.7c0.2,0.6,0.6,1,1.1,1.3
			s1.1,0.5,1.7,0.4c0.7-0.1,1.3-0.3,1.8-0.7c0.5-0.3,0.8-0.8,1-1.4s0.2-1.2,0-1.7s-0.6-1-1.1-1.3
			C326.9,299.5,326.4,299.4,325.8,299.4z"/>
		<path fill="#5E94DF" d="M284.1,292.6c-2.7-6.5-5.2-13.3-8.8-19.4c-0.9-1.5-3.5-0.5-3.2,1.2c1.4,7.4,4.4,14.4,7.2,21.3
			c0.3,0.7,0.5,1.3,0.8,2c-2.2,0.7-4.4,1.7-6.5,2.6c-2,0.8-4.1,1.5-6.1,2.5c-2.7-7.4-6-14.6-10-21.4c-1.2-2-3.8-0.1-3.3,1.7
			c1.9,7.3,4.8,14.4,7.3,21.5s4.6,14.5,7.3,21.5c1.3,3.3,5.8,1.4,5-1.8c-1.4-5.9-3-11.7-5-17.4c2.1-0.5,4.2-1.4,6.3-2
			c2.3-0.7,4.6-1.4,6.8-2.3c1.8,4.8,4,9.4,6.6,13.7c1.6,2.5,5.1,0.3,4.4-2.3C291,306.6,287.1,299.6,284.1,292.6z"/>
		<path fill="#5E94DF" d="M297,287.5c-2.6-6.6-4.7-14.3-8.9-20.1c-0.2-0.3-0.5-0.5-0.8-0.6s-0.7-0.1-1,0s-0.6,0.3-0.8,0.6
			c-0.2,0.3-0.3,0.6-0.3,1c0.7,7.1,4.1,14.2,6.6,20.9c2.8,7.5,5.6,15,8.4,22.5c1.3,3.4,6.7,1.5,5.4-2
			C302.7,302.4,299.9,295,297,287.5z"/>
		<path fill="#5E94DF" d="M308.8,257.4c-0.2-0.3-0.6-0.5-1-0.6s-0.8,0-1.2,0.2s-0.6,0.5-0.8,0.9c-0.1,0.4-0.2,0.8,0,1.2
			c3,10.7,8.6,21,12.3,31.5c1.2,3.4,6.6,1.5,5.3-2C319.6,278.1,315.6,266.3,308.8,257.4z"/>
		<path opacity="0.57" fill="#FFFFFF" enable-background="new    " d="M370.6,259c2.7,2.8,3.6,6.8,4.5,10.6l2.2,9.6
			c0.2,0.6,0.2,1.3,0.1,2c-0.4,1.1-1.7,1.6-2.9,1.7c-2.1,0.2-4.2-0.4-5.9-1.7c-3.3-2.3-4.6-6.5-5.1-10.5c-0.4-3-2.3-9.5-1-12.3
			C363.9,254.9,368.5,256.9,370.6,259z"/>
		<path opacity="0.57" fill="#FFFFFF" enable-background="new    " d="M353,213.3c6.5,7.3,9.3,17.2,11.7,26.7c0.4,1.5,0.7,3.2,0,4.5
			c-1.2,2.3-4.6,2.1-6.9,0.9c-7.4-4-8.6-14-13.3-20.9c-2-2.9-4.7-5.3-7.8-6.9c-3.1-1.6-6.6-2.5-10.1-2.5c-3.3,0-6.8,0.8-10-0.2
			c-4.7-1.3-6.2-5.6-2.8-8.5c3.2-2.7,9.7-3.4,13.6-3.5C336.9,202.5,346.6,206.2,353,213.3z"/>
		<path opacity="0.5" fill="#FAFCFC" enable-background="new    " d="M346.5,173.5c0,0-0.6,12.6,10.4,14c0,0-10.6,2.1-10.5,13
			c0,0,0.2-11.5-9.8-13.4C336.6,187.2,347.4,185.4,346.5,173.5z"/>
		
			<linearGradient id="SVGID_18_" gradientUnits="userSpaceOnUse" x1="694.9958" y1="1599.5306" x2="691.9377" y2="1100.5566" gradientTransform="matrix(1 0 0 1 0 -1224)">
			<stop  offset="0" style="stop-color:#FAFCFC"/>
			<stop  offset="1" style="stop-color:#FAFCFC;stop-opacity:0.302"/>
		</linearGradient>
		<path opacity="0.2" fill="url(#SVGID_18_)" enable-background="new    " d="M693.7,291.4c70.4,0,127.4-57,127.4-127.4
			s-57-127.4-127.4-127.4S566.3,93.6,566.3,164C566.2,234.4,623.3,291.4,693.7,291.4z"/>
		
			<linearGradient id="SVGID_19_" gradientUnits="userSpaceOnUse" x1="694.6282" y1="1539.5927" x2="692.4373" y2="1182.0128" gradientTransform="matrix(1 0 0 1 0 -1224)">
			<stop  offset="0" style="stop-color:#FAFCFC"/>
			<stop  offset="1" style="stop-color:#FAFCFC;stop-opacity:0.302"/>
		</linearGradient>
		<path opacity="0.2" fill="url(#SVGID_19_)" enable-background="new    " d="M693.7,255.3c50.4,0,91.3-40.9,91.3-91.3
			s-40.9-91.3-91.3-91.3s-91.3,40.9-91.3,91.3C602.3,214.4,643.2,255.3,693.7,255.3z"/>
		<path fill="#545454" d="M404.1,542.7l114.1-289.1c1-2.5,2.3-4.8,4-6.9c1.6-2,3.4-3.7,5.5-5.1c1.9-1.3,4.1-2.3,6.4-2.9
			c2.1-0.6,4.4-0.6,6.6-0.2l121.8,25.6c2.4,0.5,4.6,1.5,6.6,3.1c1.8,1.5,3.3,3.4,4.2,5.6c1,2.3,1.5,4.8,1.5,7.3
			c0,2.8-0.5,5.6-1.6,8.3L548.7,611.7c-1.1,2.8-2.6,5.3-4.5,7.6c-1.8,2-3.9,3.7-6.3,4.9c-2.2,1.1-4.7,1.8-7.2,1.8
			c-2.5,0.1-5-0.5-7.3-1.6l-112.6-55.8c-2-1-3.7-2.4-4.9-4.2c-1.3-1.9-2.3-4-2.9-6.3c-0.6-2.4-0.8-5-0.6-7.5
			C402.5,547.9,403.1,545.3,404.1,542.7z"/>
		<path fill="#545454" d="M532.4,627.2c2.5-0.4,4.8-1.2,6.9-2.5c2.3-1.4,4.3-3.1,6-5.2c1.8-2.3,3.3-4.8,4.4-7.5L674,289.2
			c0.8-2,1.3-4.1,1.6-6.2c0.2-1.9,0.2-3.9-0.1-5.9c-0.3-1.8-0.8-3.6-1.6-5.2c-0.8-1.6-1.8-3-3-4.3l3,3.1c1.2,1.3,2.2,2.7,3,4.3
			c0.8,1.6,1.3,3.4,1.6,5.2c0.3,1.9,0.3,3.9,0.1,5.8c-0.3,2.1-0.8,4.2-1.5,6.2L553.5,613.3c-1,2.7-2.5,5.2-4.3,7.5
			c-1.7,2-3.7,3.8-6,5.1c-2.1,1.3-4.5,2.1-6.9,2.5c-2.4,0.3-4.8,0.2-7.2-0.5l-3.9-1.2C527.6,627.4,530,627.5,532.4,627.2z"/>
		<path fill="#52504F" d="M662.5,263.2c2.6,0.5,5,1.7,7,3.3c2,1.6,3.5,3.7,4.5,6c1.1,2.5,1.6,5.2,1.6,7.9c0,3-0.6,6-1.7,8.9
			L549.7,612c-1.1,3-2.8,5.7-4.9,8.1c-1.9,2.2-4.2,4-6.8,5.3c-2.4,1.2-5,1.9-7.7,1.9c-2.7,0.1-5.4-0.5-7.8-1.8l-112.3-55.8
			c-2.1-1.1-3.9-2.6-5.3-4.6s-2.5-4.3-3.1-6.7c-0.7-2.6-0.9-5.3-0.7-8c0.2-2.9,0.9-5.7,1.9-8.4l113.7-288.2c1-2.6,2.5-5.1,4.3-7.3
			c1.7-2.1,3.7-4,5.9-5.5c2.1-1.4,4.4-2.5,6.9-3.1c2.3-0.6,4.7-0.7,7-0.2L662.5,263.2z M404.7,542.2c-1,2.5-1.6,5.2-1.8,7.9
			c-0.2,2.5,0,5,0.6,7.5c0.6,2.3,1.5,4.4,2.9,6.3c1.3,1.8,3,3.2,4.9,4.2l112.4,55.7c2.3,1.1,4.7,1.7,7.3,1.6c2.5-0.1,5-0.7,7.2-1.8
			c2.4-1.2,4.5-2.9,6.3-4.9c1.9-2.2,3.5-4.8,4.5-7.6l124.3-322.6c1-2.6,1.6-5.4,1.6-8.2c0-2.5-0.5-5-1.5-7.3
			c-0.9-2.2-2.4-4.1-4.2-5.6c-1.9-1.5-4.1-2.6-6.5-3.1l-121.6-25.5c-2.2-0.4-4.4-0.4-6.6,0.2c-2.3,0.6-4.4,1.6-6.4,2.9
			c-2.1,1.4-4,3.1-5.5,5.1c-1.7,2.1-3,4.4-4,6.8L404.7,542.2"/>
		<path fill="#606060" d="M539.5,241.7c-1.7-0.3-3.5-0.3-5.1,0.1c-1.8,0.5-3.5,1.2-5,2.3c-1.6,1.1-3.1,2.5-4.3,4
			c-1.3,1.6-2.4,3.4-3.1,5.4L408.4,541c-0.9,2.4-1.5,4.8-1.7,7.4c-0.2,2.4,0,4.7,0.6,7c0.5,2.1,1.4,4.1,2.7,5.9c1.2,1.7,2.8,3,4.6,4
			L521.8,618c2.1,1,4.4,1.6,6.8,1.5c2.3-0.1,4.6-0.7,6.7-1.7c2.2-1.1,4.2-2.7,5.9-4.6c1.8-2.1,3.2-4.5,4.2-7l123.3-319.8
			c0.8-2,1.2-4.2,1.2-6.4c0-2-0.4-3.9-1.2-5.7c-0.7-1.7-1.9-3.2-3.3-4.4c-1.5-1.2-3.2-2-5.1-2.4L539.5,241.7z"/>
		
			<linearGradient id="SVGID_20_" gradientUnits="userSpaceOnUse" x1="557.2427" y1="1474.0413" x2="555.5008" y2="1473.1063" gradientTransform="matrix(1 0 0 1 0 -1224)">
			<stop  offset="0" style="stop-color:#FAFCFC"/>
			<stop  offset="1" style="stop-color:#FAFCFC;stop-opacity:0.302"/>
		</linearGradient>
		<path opacity="0.65" fill="url(#SVGID_20_)" enable-background="new    " d="M556.6,250.8l-1.2-2.4l1.4,0.3L556.6,250.8z"/>
		
			<linearGradient id="SVGID_21_" gradientUnits="userSpaceOnUse" x1="431.6855" y1="1761.8309" x2="636.8525" y2="1543.469" gradientTransform="matrix(1 0 0 1 0 -1224)">
			<stop  offset="0" style="stop-color:#D4D6D6"/>
			<stop  offset="1" style="stop-color:#FAFCFC"/>
		</linearGradient>
		<path fill="url(#SVGID_21_)" d="M665.2,287.8l-12.8,33.1l-26.5,68.9L594.6,471l-5.6,14.6l0,0l-3.8,10l-6.7,17.5l-9.9,25.6
			l-2.2,5.7l-7.8,20.1l-0.6,1.6l0,0l-6.4,16.5l-1.2,3.1l-6.7,17.4c-0.8,2-1.8,3.8-3.2,5.4c-0.3,0.3-0.5,0.6-0.8,0.9
			c-1.6,1.8-3.6,3.2-5.7,4.4c-2,1-4.2,1.7-6.4,1.9c-2.1,0.2-4.2-0.2-6.1-1.1l-13.4-6.6l-11.8-5.8l-24.7-12.1l0,0l0,0l-25.1-12.3
			l-14.3-7l0,0l-6.5-3.2l-10.4-5.1c-1.5-0.8-2.8-2-3.6-3.4c-1-1.6-1.6-3.5-1.9-5.4c-0.4-2.1-0.4-4.3-0.1-6.5c0-0.1,0-0.1,0-0.2l0,0
			c0.1-1,0.3-1.9,0.5-2.9c0.3-1.3,0.7-2.6,1.2-3.8l0.1-0.2l0.9-2.4l0.3-0.8l2.1-5.3l9.4-23.9l28.9-73.2l0.3-0.8l0,0l0.2-0.6l0.1-0.2
			l0,0l2.5-6.5l29.7-75.4l11.3-28.7l0.2-0.5l6.1-15.5l19.9-50.4c0.7-1.9,1.7-3.7,3-5.3c1.1-1.4,2.4-2.7,4-3.7c1.4-0.9,3-1.6,4.7-1.9
			c1.7-0.3,3.4-0.3,5.1,0.1l15.2,3.3l1.4,0.3l-0.2,2.1l-0.1,0.7c-0.1,1.3,0,2.6,0.2,3.9c0.3,1.2,0.7,2.3,1.3,3.3
			c0.6,1,1.3,1.8,2.2,2.5c0.6,0.5,1.3,0.8,2,1.1c0.3,0.1,0.6,0.2,1,0.3l55.7,12.5c1.2,0.3,2.5,0.3,3.8,0.1c1.4-0.2,2.7-0.6,3.9-1.2
			c0.5-0.2,1-0.5,1.5-0.8c0.8-0.5,1.6-1,2.3-1.5c1.2-1,2.3-2.1,3.2-3.3l2-2.7l18.9,4.1h0.2c2.1,0.4,4,1.3,5.8,2.4
			c1.6,1.1,3,2.5,4,4.2c0.6,1,1,2,1.3,3.1c0.2,0.7,0.3,1.5,0.4,2.3C666.3,283.7,666,285.8,665.2,287.8z"/>
		
			<linearGradient id="SVGID_22_" gradientUnits="userSpaceOnUse" x1="615.8984" y1="1703.3544" x2="452.9464" y2="1642.1354" gradientTransform="matrix(1 0 0 1 0 -1224)">
			<stop  offset="0" style="stop-color:#FAFCFC"/>
			<stop  offset="1" style="stop-color:#FAFCFC;stop-opacity:0.302"/>
		</linearGradient>
		<path opacity="0.82" fill="url(#SVGID_22_)" enable-background="new    " d="M594.6,470.9l-9.5,24.6l-26.6,68.9l-7,18.1l-1.2,3.1
			l-94.2-159.3l29.7-75.4l17.6-44.7L594.6,470.9z"/>
		
			<linearGradient id="SVGID_23_" gradientUnits="userSpaceOnUse" x1="664.076" y1="1581.9368" x2="581.1839" y2="1522.4788" gradientTransform="matrix(1 0 0 1 0 -1224)">
			<stop  offset="0" style="stop-color:#FAFCFC"/>
			<stop  offset="1" style="stop-color:#FAFCFC;stop-opacity:0.302"/>
		</linearGradient>
		<path opacity="0.82" fill="url(#SVGID_23_)" enable-background="new    " d="M652.5,320.9L626,389.8l-63.6-127.6
			c0.3,0.1,0.6,0.2,1,0.3l55.7,12.5c1.2,0.3,2.5,0.3,3.8,0.1c1.4-0.2,2.7-0.6,3.9-1.2c0.5-0.2,1-0.5,1.5-0.8L652.5,320.9z"/>
		
			<linearGradient id="SVGID_24_" gradientUnits="userSpaceOnUse" x1="417.6437" y1="1744.3406" x2="344.9507" y2="1640.9775" gradientTransform="matrix(1 0 0 1 0 -1224)">
			<stop  offset="0" style="stop-color:#FCA464"/>
			<stop  offset="0.389" style="stop-color:#FCB064"/>
			<stop  offset="1" style="stop-color:#FCC064"/>
		</linearGradient>
		<path fill="url(#SVGID_24_)" d="M432,541.8c-23.6,0-51.7-4.2-73.6-20.2c-21.1-15.4-32.9-39-35-70c-0.1-1.2,0.1-2.5,0.5-3.6
			c0.4-1.2,1-2.3,1.8-3.2c0.8-0.9,1.8-1.7,2.9-2.2c1.1-0.5,2.3-0.9,3.5-1c2.5-0.2,4.9,0.7,6.8,2.3c1.9,1.6,3,4,3.2,6.5
			c1.7,25.2,10.8,44,27.2,56c38.3,28,104.4,12.1,105,11.9c2.4-0.6,5-0.2,7.1,1.1s3.7,3.4,4.3,5.8c0.6,2.4,0.2,5-1.1,7.1
			c-1.3,2.1-3.4,3.7-5.8,4.3C463.6,540.1,447.8,541.8,432,541.8z"/>
		
			<linearGradient id="SVGID_25_" gradientUnits="userSpaceOnUse" x1="609.0888" y1="1675.0378" x2="372.0767" y2="1685.7279" gradientTransform="matrix(1 0 0 1 0 -1224)">
			<stop  offset="0" style="stop-color:#FCA464"/>
			<stop  offset="0.389" style="stop-color:#FCB064"/>
			<stop  offset="1" style="stop-color:#FCC064"/>
		</linearGradient>
		<path fill="url(#SVGID_25_)" d="M589,485.6c-9.8,25.3-21.3,55.3-31,80.4l0,0c-22,20.7-55.5,31.3-86.5,24l0,0
			c-9.1-4.5-30.6-15-39.4-19.3c-3.2-2.5-6.2-5.2-9.1-8l0,0c-4.9-4.8-9.4-10.1-13.5-15.7l0,0c-0.6-0.9,0.1,0.3-3.3-4.9
			c-57.3-75.6,10.7-278.2,123.2-206.1c13.2,11.4,20.4,30.3,27.8,45.8C572.2,414.7,585.3,448.6,589,485.6z"/>
		<path fill="#EF994C" d="M521.7,529.4c4,0,7.2-3.4,7.2-7.6c0-4.2-3.2-7.6-7.2-7.6s-7.2,3.4-7.2,7.6
			C514.5,526,517.7,529.4,521.7,529.4z"/>
		<path fill="#EF994C" d="M437.1,520.8c3.8,0,6.8-3.2,6.8-7.2s-3.1-7.2-6.8-7.2s-6.8,3.2-6.8,7.2
			C430.3,517.6,433.4,520.8,437.1,520.8z"/>
		<path fill="#EF994C" d="M395.8,488.4c2.4,0,4.3-2.4,4.3-5.4s-1.9-5.4-4.3-5.4s-4.3,2.4-4.3,5.4S393.4,488.4,395.8,488.4z"/>
		<path fill="#EF994C" d="M549,473.5c6.4,0,11.5-6.9,11.5-15.3c0-8.5-5.2-15.3-11.5-15.3c-6.4,0-11.5,6.9-11.5,15.3
			C537.5,466.7,542.6,473.5,549,473.5z"/>
		
			<linearGradient id="SVGID_26_" gradientUnits="userSpaceOnUse" x1="464.4517" y1="1835.8291" x2="483.3188" y2="1656.4431" gradientTransform="matrix(1 0 0 1 0 -1224)">
			<stop  offset="9.800000e-02" style="stop-color:#000000"/>
			<stop  offset="1" style="stop-color:#FFFFFF;stop-opacity:0"/>
		</linearGradient>
		<path opacity="0.15" fill="url(#SVGID_26_)" enable-background="new    " d="M558.6,564.4L558,566l0,0l0,0
			c-0.6,0.5-1.2,1.1-1.8,1.6c-0.4,0.4-0.9,0.8-1.4,1.2c-0.3,0.3-0.6,0.5-1,0.8c-0.5,0.4-1,0.8-1.5,1.3c-0.5,0.4-1,0.8-1.6,1.2
			c-1,0.7-2,1.5-3,2.2c-0.2,0.1-0.4,0.3-0.5,0.4c-0.1,0-0.1,0.1-0.2,0.1c-0.9,0.6-1.8,1.3-2.8,1.9l0,0c-0.5,0.3-1,0.6-1.5,1
			c-0.6,0.4-1.3,0.8-2,1.2c-0.4,0.2-0.7,0.4-1.1,0.6c-0.1,0.1-0.2,0.1-0.3,0.2c-0.3,0.2-0.6,0.3-0.9,0.5c-0.8,0.5-1.7,0.9-2.5,1.3
			c-0.3,0.2-0.7,0.4-1,0.5c-0.1,0-0.2,0.1-0.2,0.1c-0.3,0.2-0.7,0.3-1,0.5c-0.4,0.2-0.9,0.4-1.3,0.6c-0.2,0.1-0.5,0.2-0.7,0.3
			s-0.5,0.2-0.7,0.3l-0.8,0.3c-0.1,0.1-0.2,0.1-0.4,0.1c-0.4,0.2-0.8,0.4-1.2,0.5c-0.7,0.3-1.3,0.5-2,0.8c-2.2,0.8-4.4,1.6-6.6,2.3
			c-1,0.3-2,0.6-3.1,0.9c-0.1,0-0.2,0-0.2,0.1c-0.4,0.1-0.7,0.2-1.1,0.3c-0.7,0.2-1.5,0.4-2.2,0.5c-2.2,0.5-4.4,0.9-6.5,1.3
			c-1,0.2-2.1,0.3-3.1,0.5c-3.9,0.5-7.9,0.8-11.9,0.8c-0.5,0-1,0-1.5,0c-0.2,0-0.3,0-0.5,0c-0.5,0-1,0-1.5,0H488h-1
			c-0.2,0-0.4,0-0.6,0c-0.4,0-0.9-0.1-1.3-0.1l-1-0.1H484c-0.3,0-0.5,0-0.8-0.1l0,0c-0.1,0-0.2,0-0.4,0c-0.7-0.1-1.3-0.1-2-0.2
			c-0.3,0-0.5-0.1-0.8-0.1h-0.1c-0.2,0-0.5-0.1-0.7-0.1h-0.1l-0.6-0.1c0,0,0,0-0.1,0c-0.2,0-0.5-0.1-0.7-0.1h-0.1
			c-0.2,0-0.4-0.1-0.6-0.1h-0.1c-0.1,0-0.3,0-0.4-0.1c-0.1,0-0.3-0.1-0.4-0.1l0,0H476c-0.1,0-0.2,0-0.3,0c-0.3,0-0.5-0.1-0.8-0.1
			c-0.1,0-0.1,0-0.2,0c0,0,0,0-0.1,0c-0.9-0.2-1.9-0.4-2.8-0.6l-0.4-0.1l0,0l0,0l-25.1-12.3l-14.3-7l0,0c-0.2-0.2-0.4-0.3-0.6-0.5
			l-0.2-0.1c0,0,0,0-0.1-0.1s-0.1-0.1-0.2-0.2c-0.1-0.1-0.2-0.1-0.2-0.2c-0.1,0-0.1-0.1-0.1-0.1s-0.1,0-0.1-0.1
			c-0.2-0.1-0.3-0.2-0.4-0.4c-0.2-0.2-0.4-0.4-0.7-0.6c-0.1-0.1-0.2-0.2-0.4-0.3c-0.1-0.1-0.2-0.1-0.3-0.2l0,0l-0.1-0.1l-0.1-0.1
			l-0.3-0.3c-0.3-0.3-0.6-0.6-1-0.8c-0.1-0.1-0.1-0.1-0.2-0.2c-0.7-0.6-1.4-1.3-2.1-2c-0.4-0.4-0.8-0.7-1.1-1.1
			c-0.3-0.2-0.5-0.5-0.8-0.8l0,0c-0.1-0.1-0.2-0.2-0.3-0.3l-0.3-0.3c-0.2-0.2-0.3-0.3-0.5-0.5s-0.4-0.4-0.6-0.6
			c-0.1-0.1-0.2-0.2-0.3-0.3c-0.3-0.3-0.5-0.5-0.8-0.8l-0.1-0.1c-0.1-0.1-0.1-0.1-0.2-0.2c-0.3-0.3-0.5-0.5-0.8-0.8
			c-0.2-0.2-0.4-0.4-0.5-0.6c-0.3-0.3-0.5-0.6-0.8-0.9c-0.1-0.1-0.2-0.2-0.3-0.3c-0.2-0.2-0.4-0.4-0.5-0.6c-0.3-0.3-0.5-0.6-0.8-0.9
			c-0.1-0.1-0.3-0.3-0.4-0.4c-0.1-0.1-0.3-0.3-0.4-0.4c-0.2-0.3-0.5-0.6-0.7-0.9c-0.2-0.3-0.5-0.6-0.7-0.8c-0.3-0.3-0.5-0.6-0.8-1
			c-0.1-0.1-0.2-0.2-0.3-0.4c-0.1-0.1-0.1-0.1-0.2-0.2c-0.1-0.1-0.1-0.2-0.2-0.2c-0.1-0.1-0.2-0.2-0.3-0.3c-0.1-0.2-0.3-0.3-0.4-0.5
			c-0.2-0.2-0.4-0.5-0.6-0.7s-0.3-0.4-0.5-0.7c-0.3-0.4-0.6-0.8-0.9-1.2c-0.2-0.2-0.3-0.5-0.5-0.7c0,0,0,0-0.1-0.1l0,0
			c-0.1-0.2-0.3-0.4-0.4-0.5c0,0,0-0.1-0.1-0.1c-0.3-0.4-0.6-0.8-0.8-1.2c-0.1-0.1-0.2-0.3-0.3-0.4c-0.1-0.2-0.3-0.4-0.4-0.6
			c-0.1-0.2-0.3-0.4-0.4-0.6c-0.3-0.5-0.6-1-1-1.4l0,0c-0.1-0.1-0.1-0.2-0.2-0.3c-0.1-0.2-0.2-0.3-0.3-0.5c-0.1-0.1-0.2-0.3-0.3-0.4
			c0-0.1-0.1-0.2-0.1-0.2c-0.3-0.5-0.6-1-0.9-1.5c-0.1-0.2-0.2-0.3-0.3-0.5c-0.2-0.3-0.4-0.7-0.6-1c-0.1-0.1-0.1-0.2-0.2-0.3
			s-0.2-0.3-0.2-0.4c-0.2-0.3-0.3-0.6-0.5-0.9c-0.2-0.4-0.5-0.8-0.7-1.2c0-0.1-0.1-0.1-0.1-0.2c-0.1-0.1-0.1-0.2-0.2-0.3
			c-0.2-0.3-0.4-0.7-0.5-1c0-0.1-0.1-0.2-0.1-0.2c-0.2-0.4-0.4-0.8-0.6-1.2l0,0c-0.3-0.6-0.6-1.1-0.9-1.7c-0.1-0.2-0.2-0.3-0.2-0.5
			c0-0.1-0.1-0.1-0.1-0.2c0-0.1-0.1-0.1-0.1-0.2c-0.1-0.1-0.1-0.2-0.2-0.3l0,0l0,0c-0.1-0.1-0.1-0.3-0.2-0.4c0-0.1-0.1-0.1-0.1-0.2
			c0-0.1-0.1-0.2-0.1-0.3c-0.1-0.3-0.3-0.5-0.4-0.8c-0.2-0.5-0.4-0.9-0.6-1.4c0-0.1-0.1-0.1-0.1-0.2c-0.1-0.2-0.2-0.4-0.3-0.6
			c-0.1-0.2-0.2-0.4-0.3-0.6c0,0,0-0.1-0.1-0.1v-0.1l-0.2-0.4c0,0,0,0,0-0.1s-0.1-0.2-0.1-0.2c-0.1-0.2-0.2-0.4-0.3-0.7
			c-0.2-0.3-0.3-0.7-0.5-1.1c0-0.1-0.1-0.2-0.1-0.3s-0.1-0.2-0.1-0.3l0,0l0,0l-0.3-0.8c-0.1-0.2-0.2-0.4-0.3-0.7
			c-0.2-0.5-0.4-1.1-0.6-1.6l0,0c-0.2-0.6-0.5-1.2-0.7-1.8c-0.3-0.8-0.6-1.5-0.8-2.3c-0.2-0.7-0.5-1.3-0.7-2s-0.5-1.4-0.7-2.1
			s-0.4-1.4-0.6-2.1c-0.2-0.6-0.4-1.3-0.6-1.9c0-0.1-0.1-0.2-0.1-0.3c-0.2-0.7-0.4-1.3-0.5-2c-0.2-0.6-0.3-1.3-0.5-2
			c0-0.2-0.1-0.4-0.1-0.5c-0.1-0.5-0.2-1-0.3-1.5c-0.1-0.2-0.1-0.5-0.1-0.7c-0.1-0.5-0.2-1-0.3-1.4c-0.1-0.6-0.2-1.1-0.3-1.7
			c-0.1-0.3-0.1-0.7-0.2-1v-0.1c-0.2-1.2-0.4-2.3-0.6-3.5l0,0c-0.1-0.5-0.2-1-0.2-1.5c0-0.1,0-0.2,0-0.4c-0.1-0.4-0.1-0.7-0.1-1.1
			c-0.1-0.6-0.2-1.2-0.2-1.8c-0.1-0.7-0.2-1.5-0.2-2.2c-0.1-0.6-0.1-1.2-0.2-1.9c-0.2-2.5-0.3-5-0.4-7.6c-0.1-4.1-0.1-8.2,0-12.5
			c0.1,3.1,0.3,6.1,0.6,9c1.5,15.8,5.9,31.2,13,45.3c2.4,4.8,5.1,9.5,8.2,14c1.6,2.4,3.3,4.8,5.1,7.1c0.4,0.6,0.9,1.1,1.3,1.7
			c6,7.4,12.8,14.1,20.4,19.8c2.3,1.7,4.7,3.4,7.1,5c5.8,3.7,12.1,6.8,18.6,9.3c20.3,7.6,43.2,8.4,66.9-0.7c4.7-1.8,9.2-4,13.5-6.5
			c9.9-5.8,18.8-13.2,26.2-21.9L558.6,564.4z"/>
		<path fill="#3A110C" d="M445,435.3c-4.8,0-9.6-0.7-14.3-2.1c-0.1,0-0.2-0.1-0.2-0.1c-0.1-0.1-0.1-0.1-0.2-0.2s-0.1-0.2-0.1-0.2
			c0-0.1,0-0.2,0-0.2c0.1-0.2,0.2-0.3,0.3-0.4c0.1-0.1,0.3-0.1,0.5,0c0.1,0,14.1,4.6,25.9,0c0.1,0,0.2,0,0.2,0c0.1,0,0.2,0,0.2,0.1
			c0.1,0,0.1,0.1,0.2,0.1c0.1,0.1,0.1,0.1,0.1,0.2s0,0.2,0,0.2c0,0.1,0,0.2-0.1,0.2c0,0.1-0.1,0.1-0.1,0.2c-0.1,0.1-0.1,0.1-0.2,0.1
			C453.5,434.6,449.3,435.3,445,435.3z"/>
		
			<linearGradient id="SVGID_27_" gradientUnits="userSpaceOnUse" x1="465.5135" y1="1654.1982" x2="481.3685" y2="1654.1982" gradientTransform="matrix(1 0 0 1 0 -1224)">
			<stop  offset="0" style="stop-color:#FAFCFC"/>
			<stop  offset="1" style="stop-color:#FAFCFC;stop-opacity:0.302"/>
		</linearGradient>
		<path opacity="0.43" fill="url(#SVGID_27_)" enable-background="new    " d="M481.4,430.2c0,2.5-3.6,4.5-7.9,4.5
			c-4.4,0-7.9-2-7.9-4.5s3.5-4.5,7.9-4.5C477.8,425.6,481.4,427.7,481.4,430.2z"/>
		
			<linearGradient id="SVGID_28_" gradientUnits="userSpaceOnUse" x1="406.4675" y1="1654.1982" x2="422.3235" y2="1654.1982" gradientTransform="matrix(1 0 0 1 0 -1224)">
			<stop  offset="0" style="stop-color:#FAFCFC"/>
			<stop  offset="1" style="stop-color:#FAFCFC;stop-opacity:0.302"/>
		</linearGradient>
		<path opacity="0.43" fill="url(#SVGID_28_)" enable-background="new    " d="M422.3,430.2c0,2.5-3.5,4.5-7.9,4.5s-7.9-2-7.9-4.5
			s3.5-4.5,7.9-4.5C418.8,425.6,422.3,427.7,422.3,430.2z"/>
		<path fill="#3A110C" d="M482.3,420.9c-0.2,0-0.4-0.1-0.6-0.2c-0.2-0.2-0.2-0.4-0.2-0.6c0-0.4-0.3-9.9-8-9.9h-0.1
			c-7.7,0.1-8.1,9.5-8.1,9.9c0,0.2-0.1,0.4-0.3,0.6c-0.2,0.2-0.4,0.2-0.6,0.2c-0.1,0-0.2,0-0.3-0.1c-0.1,0-0.2-0.1-0.3-0.2
			c-0.1-0.1-0.1-0.2-0.2-0.3c0-0.1-0.1-0.2-0.1-0.3c0.1-4,2.2-11.5,9.7-11.5h0.1c7.4,0,9.6,7.5,9.6,11.5c0,0.1,0,0.2-0.1,0.3
			c0,0.1-0.1,0.2-0.2,0.3c-0.1,0.1-0.2,0.1-0.3,0.2C482.6,420.9,482.5,420.9,482.3,420.9L482.3,420.9z"/>
		<path fill="#3A110C" d="M405.5,420.9L405.5,420.9c-0.1,0-0.2,0-0.3-0.1c-0.1,0-0.2-0.1-0.3-0.2c-0.1-0.1-0.1-0.2-0.2-0.3
			c0-0.1-0.1-0.2-0.1-0.3c0.1-4,2.2-11.5,9.7-11.5h0.1c7.4,0,9.6,7.5,9.6,11.5c0,0.1,0,0.2-0.1,0.3c0,0.1-0.1,0.2-0.2,0.3
			c-0.1,0.1-0.2,0.1-0.3,0.2c-0.1,0-0.2,0.1-0.3,0.1c-0.2,0-0.4-0.1-0.6-0.2c-0.2-0.2-0.3-0.4-0.3-0.6c0-0.4-0.3-9.9-8-9.9h-0.1
			c-7.8,0.1-8.1,9.5-8.1,9.9c0,0.2-0.1,0.4-0.3,0.6C405.9,420.8,405.7,420.9,405.5,420.9z"/>
		<path fill="#EF994C" d="M539.6,384.8c2.8,0,5-1.9,5-4.2c0-2.3-2.3-4.2-5-4.2c-2.8,0-5,1.9-5,4.2S536.9,384.8,539.6,384.8z"/>
		
			<linearGradient id="SVGID_29_" gradientUnits="userSpaceOnUse" x1="417.9035" y1="1583.7772" x2="434.4715" y2="1598.4532" gradientTransform="matrix(1 0 0 1 0 -1224)">
			<stop  offset="0" style="stop-color:#FAFCFC"/>
			<stop  offset="1" style="stop-color:#FAFCFC;stop-opacity:0.302"/>
		</linearGradient>
		<path opacity="0.43" fill="url(#SVGID_29_)" enable-background="new    " d="M423.5,372.2c-3.3,0.1-3.4-3.5-2.6-5.8
			c0.4-1.2,1.1-2.2,1.9-3.1c0.9-0.9,1.9-1.5,3.1-2c0.6-0.2,1.2-0.3,1.8-0.3c0.6,0,1.2,0.2,1.8,0.5c2.7,1.6,1.3,6.1-0.3,8
			c-0.7,0.8-1.6,1.5-2.6,2C425.7,371.9,424.6,372.2,423.5,372.2z"/>
		
			<linearGradient id="SVGID_30_" gradientUnits="userSpaceOnUse" x1="443.1947" y1="1556.061" x2="454.2708" y2="1579.14" gradientTransform="matrix(1 0 0 1 0 -1224)">
			<stop  offset="0" style="stop-color:#FAFCFC"/>
			<stop  offset="1" style="stop-color:#FAFCFC;stop-opacity:0.302"/>
		</linearGradient>
		<path opacity="0.43" fill="url(#SVGID_30_)" enable-background="new    " d="M456,333.4c4.1-1.4,8.3-1.4,11,2.3
			c4.1,5.7-3.2,11.2-7.8,13.6c-5.6,2.9-11.1,5.7-16.5,8.7c-1.9,1-6.2,2.8-8.2,1.1C426.2,352.2,450.8,335.2,456,333.4z"/>
		<path fill="#EF994C" d="M525.7,333c-2.5,6.4-7.6,10.8-13.4,10.8c-8.3,0-15.1-9-15.1-20.1c0-0.7,0-1.4,0.1-2
			c0.9,0.1,1.8,0.3,2.6,0.4C509.2,323.8,518,327.5,525.7,333z"/>
		
			<linearGradient id="SVGID_31_" gradientUnits="userSpaceOnUse" x1="527.0129" y1="1867.1316" x2="490.071" y2="1715.2385" gradientTransform="matrix(1 0 0 1 0 -1224)">
			<stop  offset="0" style="stop-color:#FABD55"/>
			<stop  offset="1" style="stop-color:#FACA78"/>
		</linearGradient>
		<path fill="url(#SVGID_31_)" d="M589,485.6L589,485.6c-35.9,89-24.3,73.8-37.5,85.9c-21.6,17.2-53.2,25.1-80,18.4
			c-10.3-5.1-30.5-14.9-39.3-19.2c-3.2-2.5-6.2-5.2-9.1-8l0,0c-4.9-4.8-9.4-10.1-13.5-15.7l0,0c-0.6-0.9,0.1,0.3-3.3-4.9
			c-4.9-7.5-8.9-15.4-12.2-23.7c62.5-22.8,126.3-42.6,189.8-63.1C586.4,465.2,588.1,475.4,589,485.6z"/>
		<path opacity="0.41" fill="#FFFFFF" enable-background="new    " d="M588.9,485.4c0,0.1,0,0.1,0,0.2l0,0
			c-2.4,6.2-8.2,21.2-10.6,27.4c-31,9.9-123.4,39.5-155.3,49.7c-6.3-6.2-12-13.1-16.8-20.6c-0.1-0.1-0.1-0.2-0.2-0.3
			c50-16,133-42.5,182.8-58.4C588.8,483.9,588.8,483.3,588.9,485.4z"/>
		<path opacity="0.41" fill="#FFFFFF" enable-background="new    " d="M568.5,538.6c-15.9,41-6.1,26.4-45.7,41
			c-48.7,14.7-35.6,18.1-76.4-1.9C470.6,569.9,544.9,546.2,568.5,538.6z"/>
		
			<linearGradient id="SVGID_32_" gradientUnits="userSpaceOnUse" x1="571.3549" y1="1712.3855" x2="442.7339" y2="1847.3784" gradientTransform="matrix(1 0 0 1 0 -1224)">
			<stop  offset="0" style="stop-color:#FCA464"/>
			<stop  offset="0.389" style="stop-color:#FCB064"/>
			<stop  offset="1" style="stop-color:#FCC064"/>
		</linearGradient>
		<path fill="url(#SVGID_32_)" d="M477.2,602.1c-2.3,0-4.5-0.8-6.2-2.3s-2.8-3.6-3.1-5.8c-0.3-2.5,0.3-5,1.9-7
			c1.5-2,3.8-3.3,6.2-3.6c34.1-4.5,55-14.8,60.5-29.8c7-19.3-11.8-45.8-19.6-54.3c-1.7-1.8-2.6-4.3-2.5-6.8s1.2-4.8,3-6.5
			s4.3-2.6,6.8-2.5s4.8,1.2,6.5,3c1.5,1.6,35.8,39.4,23.5,73.5c-8.1,22.3-33.6,36.5-75.7,42.1C478.1,602.1,477.7,602.1,477.2,602.1z
			"/>
		
			<linearGradient id="SVGID_33_" gradientUnits="userSpaceOnUse" x1="694.3302" y1="1490.9486" x2="692.8422" y2="1248.1218" gradientTransform="matrix(1 0 0 1 0 -1224)">
			<stop  offset="0" style="stop-color:#FAFCFC"/>
			<stop  offset="1" style="stop-color:#FAFCFC;stop-opacity:0.302"/>
		</linearGradient>
		<path opacity="0.2" fill="url(#SVGID_33_)" enable-background="new    " d="M693.7,226c34.2,0,62-27.8,62-62s-27.8-62-62-62
			s-62,27.8-62,62C631.6,198.3,659.4,226,693.7,226z"/>
	</g>
	<g clip-path="url(#SVGID_2_)">
		<g>
			<defs>
				<rect id="SVGID_34_" y="182.5" width="169" height="310"/>
			</defs>
			<clipPath id="SVGID_35_">
				<use xlink:href="#SVGID_34_"  overflow="visible"/>
			</clipPath>
			<g opacity="0.4" clip-path="url(#SVGID_35_)">
				<path opacity="0.2" fill="#7A7A7A" enable-background="new    " d="M9.6,485.8c3.1-3.1,3.1-8.2,0-11.3c-3.1-3.1-8.2-3.1-11.3,0
					s-3.1,8.2,0,11.3C1.4,489,6.5,489,9.6,485.8z"/>
				<path opacity="0.2" fill="#7A7A7A" enable-background="new    " d="M47.8,447.7c3.1-3.1,3.1-8.2,0-11.3c-3.1-3.1-8.2-3.1-11.3,0
					s-3.1,8.2,0,11.3S44.7,450.8,47.8,447.7z"/>
				<path opacity="0.2" fill="#7A7A7A" enable-background="new    " d="M86,409.5c3.1-3.1,3.1-8.2,0-11.3c-3.1-3.1-8.2-3.1-11.3,0
					c-3.1,3.1-3.1,8.2,0,11.3C77.8,412.6,82.9,412.6,86,409.5z"/>
				<path opacity="0.2" fill="#7A7A7A" enable-background="new    " d="M3.2,403.1c3.1-3.1,3.1-8.2,0-11.3c-3.1-3.1-8.2-3.1-11.3,0
					s-3.1,8.2,0,11.3C-4.9,406.2,0.1,406.2,3.2,403.1z"/>
				<path opacity="0.2" fill="#7A7A7A" enable-background="new    " d="M124.2,371.3c3.1-3.1,3.1-8.2,0-11.3
					c-3.1-3.1-8.2-3.1-11.3,0c-3.1,3.1-3.1,8.2,0,11.3C116,374.4,121,374.4,124.2,371.3z"/>
				<path opacity="0.2" fill="#7A7A7A" enable-background="new    " d="M41.4,364.9c3.1-3.1,3.1-8.2,0-11.3c-3.1-3.1-8.2-3.1-11.3,0
					s-3.1,8.2,0,11.3C33.2,368.1,38.3,368.1,41.4,364.9z"/>
				<path opacity="0.2" fill="#7A7A7A" enable-background="new    " d="M162.3,333.1c3.1-3.1,3.1-8.2,0-11.3
					c-3.1-3.1-8.2-3.1-11.3,0s-3.1,8.2,0,11.3C154.2,336.2,159.2,336.2,162.3,333.1z"/>
				<path opacity="0.2" fill="#7A7A7A" enable-background="new    " d="M79.6,326.8c3.1-3.1,3.1-8.2,0-11.3s-8.2-3.1-11.3,0
					c-3.1,3.1-3.1,8.2,0,11.3C71.4,329.9,76.5,329.9,79.6,326.8z"/>
				<path opacity="0.2" fill="#7A7A7A" enable-background="new    " d="M-3.1,320.4c3.1-3.1,3.1-8.2,0-11.3c-3.1-3.1-8.2-3.1-11.3,0
					s-3.1,8.2,0,11.3C-11.3,323.5-6.2,323.5-3.1,320.4z"/>
				<path opacity="0.2" fill="#7A7A7A" enable-background="new    " d="M117.8,288.6c3.1-3.1,3.1-8.2,0-11.3
					c-3.1-3.1-8.2-3.1-11.3,0c-3.1,3.1-3.1,8.2,0,11.3C109.6,291.7,114.7,291.7,117.8,288.6z"/>
				<path opacity="0.2" fill="#7A7A7A" enable-background="new    " d="M35.1,282.2c3.1-3.1,3.1-8.2,0-11.3c-3.1-3.1-8.2-3.1-11.3,0
					s-3.1,8.2,0,11.3S31.9,285.3,35.1,282.2z"/>
				<path opacity="0.2" fill="#7A7A7A" enable-background="new    " d="M73.3,244c3.1-3.1,3.1-8.2,0-11.3s-8.2-3.1-11.3,0
					c-3.1,3.1-3.1,8.2,0,11.3C65.1,247.1,70.1,247.1,73.3,244z"/>
				<path opacity="0.2" fill="#7A7A7A" enable-background="new    " d="M28.7,199.5c3.1-3.1,3.1-8.2,0-11.3s-8.2-3.1-11.3,0
					s-3.1,8.2,0,11.3S25.6,202.6,28.7,199.5z"/>
			</g>
		</g>
	</g>
</g>
</svg>
