<svg width="449" height="383" viewBox="0 0 449 383" fill="none" xmlns="http://www.w3.org/2000/svg">
<path opacity="0.1" d="M27.2389 260.948C18.4 253.68 11.2243 244.599 6.19623 234.319C-10.9295 198.201 9.77656 154.641 39.8102 132.403C57.3853 119.391 83.2351 117.631 102.839 108.486C144.754 88.9294 155.756 30.3177 196.561 8.53723C214.74 -1.16605 236.743 -1.97521 256.743 2.98742C278.943 8.49251 299.842 21.3539 312.169 40.628C327.744 64.9757 328.064 95.8382 337.603 123.129C355.622 174.689 405.764 211.611 417.723 264.901C421.203 280.41 421.124 296.947 415.753 311.908C404.919 342.067 374.019 361.377 342.531 367.374C302.191 375.058 263.901 366.497 225.943 354.047C180.95 339.235 137.208 320.862 95.1338 299.1C73.6273 287.908 47.0053 277.764 27.2389 260.948Z" fill="#606060"/>
<path d="M448.497 118.791C448.516 120.939 448.506 123.103 448.466 125.281V125.29C448.476 125.366 448.476 125.443 448.466 125.519C448.377 131.223 448.109 137.005 447.69 142.809C447.64 143.517 447.591 144.242 447.53 144.94C446.893 153.175 445.937 161.464 444.734 169.667C444.485 171.359 444.226 173.053 443.957 174.734C441.59 189.582 438.39 204.285 434.372 218.774C428.04 241.559 420.297 260.901 412.76 272.857C408.218 280.05 403.277 286.983 397.959 293.624C385.14 309.616 370.341 323.916 353.918 336.179L352.486 337.253C334.942 350.193 315.793 360.804 295.519 368.819C258.598 383.422 224.881 385.363 189.524 380.844C173.692 378.697 157.984 375.714 142.468 371.905C113.949 365.147 83.9152 352.166 66.6355 329.787C61.7173 323.465 57.9316 316.338 55.4463 308.723C51.7923 297.425 51.3157 285.668 51.8814 273.762C51.9119 273.136 51.9513 272.498 51.9925 271.861C52.0122 271.324 52.0539 270.787 52.0825 270.25C52.0825 270.171 52.0825 270.101 52.0825 270.021C52.172 268.777 52.2614 267.515 52.3509 266.261C52.3489 266.212 52.3522 266.162 52.3614 266.113C52.4097 265.475 52.4598 264.829 52.51 264.192C52.5601 263.554 52.6196 262.917 52.6787 262.271C52.8488 260.18 53.0361 258.091 53.2259 256.005C53.3262 254.889 53.4248 253.776 53.5161 252.661C53.5752 252.023 53.6347 251.377 53.6848 250.74C53.735 250.102 53.7938 249.465 53.8439 248.819C53.8941 248.212 53.9442 247.583 53.9925 246.977C54.0534 246.21 54.1129 245.433 54.163 244.667C54.2024 244.13 54.241 243.593 54.2714 243.056C54.3018 242.569 54.3415 242.1 54.3719 241.623C55.0397 230.314 54.9306 219.107 52.2416 208.217C47.0856 187.373 32.9065 169.445 21.6278 150.91C13.1365 136.925 6.29751 122.59 6.26707 106.385C6.25753 103.133 6.5477 99.8872 7.13249 96.6885C7.25244 95.9921 7.39213 95.3046 7.54072 94.6189C8.16573 91.8054 9.00343 89.0434 10.0469 86.3568C10.3942 85.4617 10.7625 84.5845 11.151 83.709C20.8471 61.848 43.672 45.245 67.7028 39.6504C76.7689 37.5933 86.0384 36.5722 95.3349 36.6068C95.8039 36.6068 96.2715 36.6068 96.7388 36.6158C113.024 37.0392 129.217 39.215 145.037 43.1055C151.518 44.5789 157.948 46.2009 164.32 47.8533C176.553 51.0292 188.917 54.3341 201.352 56.9622C218.001 60.4658 234.767 62.7555 251.551 61.8496C254.617 61.6909 257.683 61.4189 260.749 61.0334C280.895 58.484 299.801 50.9702 318.683 43.2345L326.777 39.9188C327.165 39.7595 327.562 39.6002 327.961 39.4319C339.908 34.3438 352.179 30.0509 364.692 26.5813C423.433 11.3318 445.255 53.4176 448.152 107.86C448.191 108.556 448.23 109.254 448.261 109.96C448.32 111.234 448.361 112.518 448.401 113.812C448.456 115.476 448.486 117.128 448.497 118.791Z" fill="url(#paint0_linear)"/>
<path opacity="0.2" d="M434.377 218.785C428.04 241.564 420.302 260.908 412.761 272.867C408.217 280.061 403.275 286.994 397.955 293.634C378.355 276.124 354.796 264.294 328.801 264.433C309.5 264.528 290.716 271.315 273.938 280.85C235.268 302.804 206.015 339.519 189.516 380.857C173.685 378.707 157.978 375.723 142.462 371.916C113.941 365.156 83.9026 352.175 66.6229 329.798C95.3622 307.998 131.252 297.376 164.569 282.961C200.311 267.491 236.487 244.055 248.739 207.084C261.216 169.436 245.593 128.559 247.294 88.9347C247.701 79.7851 249.131 70.7097 251.558 61.8783C254.62 61.7183 257.686 61.445 260.755 61.0583C280.904 58.5072 299.802 50.9989 318.695 43.2614C322.614 60.6879 331.376 77.3533 340.536 92.9305C367.186 138.144 398.649 180.341 434.377 218.785Z" fill="url(#paint1_linear)"/>
<g opacity="0.1">
<g opacity="0.1">
<path opacity="0.1" d="M427.346 173.051L426.95 170.247L429.751 169.851L429.459 167.786L426.656 168.181L426.26 165.378L424.194 165.67L424.59 168.473L421.786 168.869L422.078 170.935L424.88 170.539L425.276 173.343L427.346 173.051Z" fill="white"/>
</g>
<g opacity="0.1">
<path opacity="0.1" d="M414.758 163.578L414.362 160.775L417.163 160.379L416.871 158.313L414.068 158.709L413.673 155.905L411.606 156.197L412.002 159.001L409.199 159.396L409.49 161.462L412.294 161.067L412.689 163.87L414.758 163.578Z" fill="white"/>
</g>
<g opacity="0.1">
<path opacity="0.1" d="M435.886 161.701L435.489 158.897L438.292 158.501L438 156.435L435.197 156.831L434.801 154.027L432.735 154.319L433.131 157.123L430.327 157.518L430.619 159.585L433.423 159.189L433.819 161.992L435.886 161.701Z" fill="white"/>
</g>
<g opacity="0.1">
<path opacity="0.1" d="M402.174 154.106L401.778 151.303L404.582 150.907L404.29 148.841L401.486 149.236L401.091 146.433L399.026 146.725L399.421 149.528L396.619 149.924L396.911 151.99L399.714 151.594L400.11 154.398L402.174 154.106Z" fill="white"/>
</g>
<g opacity="0.1">
<path opacity="0.1" d="M423.301 152.228L422.905 149.425L425.708 149.029L425.416 146.963L422.615 147.359L422.22 144.555L420.153 144.847L420.549 147.651L417.746 148.046L418.037 150.112L420.841 149.716L421.236 152.52L423.301 152.228Z" fill="white"/>
</g>
<g opacity="0.1">
<path opacity="0.1" d="M447.532 144.94L445.812 145.189L446.209 147.985L444.138 148.284L443.74 145.477L440.944 145.874L440.655 143.805L443.452 143.406L443.055 140.609L445.126 140.31L445.523 143.117L447.693 142.809C447.641 143.517 447.591 144.234 447.532 144.94Z" fill="white"/>
</g>
<g opacity="0.1">
<path opacity="0.1" d="M389.59 144.632L389.192 141.828L391.996 141.433L391.704 139.367L388.903 139.762L388.505 136.959L386.441 137.251L386.836 140.054L384.034 140.45L384.326 142.516L387.13 142.12L387.526 144.924L389.59 144.632Z" fill="white"/>
</g>
<g opacity="0.1">
<path opacity="0.1" d="M410.717 142.756L410.323 139.952L413.125 139.556L412.833 137.491L410.029 137.886L409.634 135.083L407.568 135.375L407.964 138.178L405.16 138.574L405.452 140.64L408.256 140.244L408.651 143.048L410.717 142.756Z" fill="white"/>
</g>
<g opacity="0.1">
<path opacity="0.1" d="M433.62 138.518L433.225 135.715L436.026 135.319L435.736 133.253L432.933 133.649L432.537 130.845L430.471 131.137L430.866 133.94L428.063 134.336L428.355 136.402L431.158 136.006L431.554 138.81L433.62 138.518Z" fill="white"/>
</g>
<g opacity="0.1">
<path opacity="0.1" d="M398.129 133.285L397.733 130.482L400.537 130.086L400.246 128.02L397.444 128.416L397.048 125.612L394.982 125.904L395.378 128.708L392.576 129.103L392.868 131.169L395.671 130.773L396.067 133.577L398.129 133.285Z" fill="white"/>
</g>
<g opacity="0.1">
<path opacity="0.1" d="M421.036 129.046L420.641 126.242L423.444 125.847L423.152 123.781L420.349 124.176L419.954 121.373L417.889 121.664L418.285 124.468L415.48 124.864L415.772 126.93L418.576 126.534L418.972 129.338L421.036 129.046Z" fill="white"/>
</g>
<g opacity="0.1">
<path opacity="0.1" d="M443.18 125.816L442.785 123.012L445.588 122.617L445.296 120.551L442.495 120.947L442.099 118.143L440.033 118.435L440.428 121.238L437.625 121.634L437.917 123.7L440.72 123.304L441.116 126.108L443.18 125.816Z" fill="white"/>
</g>
<g opacity="0.1">
<path opacity="0.1" d="M408.452 119.572L408.056 116.768L410.86 116.373L410.568 114.306L407.764 114.702L407.371 111.899L405.304 112.19L405.7 114.994L402.897 115.39L403.188 117.456L405.992 117.06L406.387 119.863L408.452 119.572Z" fill="white"/>
</g>
<g opacity="0.1">
<path opacity="0.1" d="M430.594 116.344L430.199 113.54L433 113.145L432.709 111.079L429.907 111.474L429.509 108.671L427.443 108.963L427.839 111.766L425.035 112.162L425.327 114.228L428.129 113.832L428.527 116.636L430.594 116.344Z" fill="white"/>
</g>
<g opacity="0.1">
<path opacity="0.1" d="M418.01 106.872L417.615 104.068L420.417 103.672L420.127 101.606L417.323 102.002L416.927 99.1984L414.862 99.4904L415.258 102.294L412.456 102.69L412.747 104.755L415.549 104.36L415.947 107.163L418.01 106.872Z" fill="white"/>
</g>
<g opacity="0.1">
<path opacity="0.1" d="M440.915 102.632L440.519 99.8287L443.323 99.4329L443.033 97.3671L440.23 97.7626L439.834 94.9592L437.768 95.251L438.163 98.0544L435.36 98.4501L435.652 100.516L438.455 100.12L438.851 102.924L440.915 102.632Z" fill="white"/>
</g>
<g opacity="0.1">
<path opacity="0.1" d="M428.331 93.1617L427.935 90.3581L430.74 89.9623L430.448 87.8965L427.644 88.292L427.248 85.4886L425.183 85.7803L425.578 88.584L422.774 88.9795L423.066 91.0456L425.87 90.6498L426.266 93.4535L428.331 93.1617Z" fill="white"/>
</g>
</g>
<path opacity="0.2" d="M201.362 56.9909C187.464 70.6578 167.442 79.6359 151.198 91.4661C116.288 116.906 97.0694 158.288 81.87 198.73C72.4173 223.877 63.7275 249.782 51.8759 273.782C52.925 251.885 57.487 229.453 52.2343 208.246C47.0801 187.405 32.8992 169.479 21.6205 150.946C24.5947 149.872 27.5371 148.71 30.4468 147.46C52.682 137.945 72.3783 123.471 91.8529 109.134C108.86 96.6131 126.387 83.5226 136.644 65.0595C140.411 58.1623 143.231 50.7886 145.028 43.1377C151.507 44.6093 157.939 46.2259 164.311 47.8837C176.567 51.056 188.921 54.3627 201.362 56.9909Z" fill="url(#paint2_linear)"/>
<g opacity="0.46">
<path opacity="0.5" d="M353.915 336.191L352.483 337.265C332.568 334.165 312.583 331.594 292.644 329.555C279.527 328.212 265.019 325.833 258.796 314.488C254.276 306.252 255.573 295.219 262.669 281.701C271.084 265.676 282.386 251.087 293.328 236.974C305.734 220.966 318.571 204.416 327.1 185.794C340.781 155.948 344.079 118.947 336.655 78.7858C334.162 65.6516 330.869 52.6819 326.794 39.9494C327.183 39.7901 327.579 39.629 327.977 39.4715C332.087 52.284 335.406 65.3371 337.915 78.5567C345.391 118.974 342.052 156.237 328.265 186.331C319.672 205.088 306.783 221.701 294.34 237.766C283.436 251.828 272.162 266.376 263.803 282.3C256.921 295.416 255.611 306.045 259.917 313.879C265.844 324.682 279.982 326.984 292.775 328.287C313.149 330.367 333.528 333.002 353.915 336.191Z" fill="white"/>
<path opacity="0.5" d="M164.737 181.227C161.923 195.628 150.719 208.701 133.996 217.084C122.582 222.813 109.97 225.966 97.7748 229.018C94.5129 229.836 91.1367 230.682 87.8444 231.564C76.3818 234.559 65.1604 238.412 54.275 243.088C54.309 242.608 54.3416 242.136 54.3721 241.656C65.1274 237.077 76.2031 233.292 87.5113 230.331C90.8162 229.448 94.1999 228.598 97.4671 227.778C109.593 224.747 122.133 221.607 133.426 215.94C149.791 207.735 160.746 194.994 163.483 180.985C166.962 163.181 157.989 143.893 136.809 123.659C134.213 121.172 131.488 118.664 128.855 116.242C115.003 103.483 100.677 90.2973 94.8499 72.4232C91.2005 60.7478 91.3751 48.2117 95.349 36.6427C95.8163 36.6427 96.2893 36.6427 96.7494 36.6427C92.7887 48.0669 92.5513 60.4528 96.0711 72.0205C101.789 89.5741 115.993 102.652 129.728 115.295C132.363 117.724 135.099 120.238 137.704 122.726C159.205 143.284 168.305 162.968 164.737 181.227Z" fill="white"/>
</g>
<g opacity="0.1">
<path opacity="0.1" d="M86.187 92.0624L85.2613 93.3568C84.5452 94.3835 83.5904 95.2207 82.4789 95.7964C81.3674 96.3721 80.1326 96.669 78.8808 96.6616C77.6274 96.6702 76.3901 96.3739 75.2767 95.7981C74.1633 95.2224 73.2066 94.3846 72.489 93.3568L70.9959 91.2372C70.4705 90.4852 69.7706 89.872 68.9557 89.4507C68.1407 89.0293 67.2357 88.8124 66.3183 88.8184C65.4006 88.8104 64.4945 89.0265 63.6792 89.4481C62.864 89.8696 62.1647 90.4838 61.6407 91.2372L60.8636 92.3328C60.1449 93.3589 59.1878 94.1957 58.075 94.7712C56.9622 95.3468 55.7263 95.644 54.4735 95.6375C53.2202 95.6452 51.9844 95.3486 50.8711 94.773C49.7578 94.1973 48.8008 93.3599 48.0825 92.3328C47.5586 91.5793 46.8584 90.9651 46.0431 90.5436C45.2279 90.1221 44.3226 89.9061 43.4049 89.9142C42.4876 89.9083 41.5825 90.1253 40.7676 90.5466C39.9527 90.968 39.252 91.5808 38.7264 92.3328L37.7902 93.6576C37.074 94.6841 36.1193 95.5214 35.0078 96.0971C33.8963 96.6728 32.6615 96.9698 31.4098 96.9625C30.1563 96.9711 28.9199 96.6746 27.8065 96.0989C26.6931 95.5231 25.7364 94.6853 25.0188 93.6576L24.51 92.9307C23.983 92.1803 23.2825 91.5686 22.468 91.1474C21.6535 90.7263 20.7494 90.5083 19.8324 90.5121C18.9153 90.5073 18.0107 90.7247 17.196 91.1459C16.3813 91.5671 15.6802 92.1795 15.1539 92.9307L14.744 93.5072C14.0265 94.5351 13.0697 95.373 11.9563 95.9487C10.8428 96.5245 9.60646 96.8207 8.353 96.8119C7.94673 96.8125 7.54059 96.7827 7.13879 96.7226C7.25874 96.0261 7.39843 95.3387 7.54703 94.653C7.81372 94.6927 8.08336 94.7124 8.353 94.712C9.27074 94.7202 10.1768 94.5043 10.9921 94.0828C11.8073 93.6613 12.5067 93.047 13.0306 92.2934L13.4406 91.7259C14.1578 90.6982 15.1143 89.8603 16.2274 89.2846C17.3405 88.7088 18.5775 88.4125 19.8307 88.4211C21.0808 88.415 22.3135 88.7121 23.4235 89.2874C24.5354 89.8639 25.4919 90.7005 26.2111 91.7259L26.7278 92.442C27.2524 93.1948 27.953 93.8085 28.7681 94.2299C29.5831 94.6513 30.4887 94.8678 31.4063 94.8606C32.3236 94.8664 33.2287 94.6492 34.0436 94.2279C34.8584 93.8066 35.5582 93.1938 36.0839 92.442L37.0183 91.128C37.7347 90.1015 38.6902 89.2643 39.8017 88.6886C40.9131 88.1129 42.1471 87.8159 43.3988 87.823C44.652 87.8146 45.889 88.1111 47.0021 88.6869C48.1152 89.2626 49.0716 90.1003 49.7889 91.128C50.3156 91.8791 51.0159 92.4916 51.8309 92.9128C52.6459 93.334 53.5509 93.5514 54.4683 93.5465C55.3854 93.5514 56.29 93.334 57.1047 92.9128C57.9194 92.4915 58.6205 91.8791 59.1467 91.128L59.9239 90.0232C60.6413 88.9954 61.5972 88.1575 62.7107 87.5817C63.8241 87.006 65.0614 86.7098 66.3148 86.7185C67.5665 86.7114 68.8014 87.0084 69.9129 87.5841C71.0243 88.1598 71.979 88.9968 72.6953 90.0232L74.1971 92.1431C74.7221 92.8959 75.4229 93.5095 76.2383 93.9309C77.0536 94.3524 77.9595 94.5688 78.8773 94.5616C79.7947 94.5677 80.6998 94.3507 81.5147 93.9294C82.3296 93.5081 83.0295 92.8951 83.5549 92.1431L84.4719 90.8487L86.187 92.0624Z" fill="white"/>
</g>
<g opacity="0.1">
<path opacity="0.1" d="M86.1849 81.8184L85.2592 83.1128C84.543 84.1394 83.5882 84.9765 82.4767 85.5522C81.3652 86.1279 80.1304 86.4249 78.8787 86.4176C77.6252 86.4265 76.3889 86.1303 75.2754 85.5546C74.1619 84.9788 73.2051 84.1408 72.4877 83.1128L70.9947 80.9932C70.4675 80.2429 69.7672 79.6311 68.9526 79.2099C68.1381 78.7888 67.2331 78.5708 66.3162 78.5744C65.3988 78.5685 64.4937 78.7855 63.6789 79.2069C62.864 79.6282 62.1641 80.2413 61.6386 80.9932L60.8614 82.0977C60.1424 83.1239 59.1851 83.9606 58.072 84.5362C56.9589 85.1117 55.7235 85.4091 54.4705 85.4027C53.2172 85.4103 51.9805 85.1136 50.8672 84.5379C49.7539 83.9623 48.7969 83.1248 48.0787 82.0977C47.5547 81.3442 46.8554 80.73 46.0401 80.3085C45.2249 79.887 44.3188 79.6711 43.401 79.6791C42.4835 79.6732 41.578 79.8903 40.7628 80.3116C39.9477 80.7329 39.2476 81.3458 38.7217 82.0977L37.7863 83.4118C37.0701 84.4384 36.1154 85.2756 35.0039 85.8513C33.8924 86.427 32.6576 86.7238 31.4059 86.7165C30.1524 86.7253 28.916 86.429 27.8026 85.8533C26.6891 85.2776 25.7324 84.4396 25.0149 83.4118L24.5079 82.6956C23.9822 81.9439 23.2824 81.3312 22.4676 80.9099C21.6528 80.4887 20.7476 80.2714 19.8303 80.2771C18.9125 80.2701 18.0065 80.4866 17.1912 80.908C16.3759 81.3294 15.6761 81.9429 15.1509 82.6956L14.7427 83.2632C13.6292 84.8585 11.9545 85.9747 10.0537 86.3889C10.4028 85.4938 10.7702 84.6166 11.1586 83.7411C11.9 83.3268 12.5391 82.7519 13.0293 82.0584L13.4376 81.4801C14.155 80.4522 15.1118 79.6143 16.2253 79.0386C17.3387 78.4628 18.5751 78.1664 19.8285 78.1751C21.0787 78.1692 22.3113 78.4665 23.4213 79.0417C24.5332 79.6182 25.4897 80.4548 26.209 81.4801L26.7265 82.207C27.2531 82.9583 27.9535 83.5708 28.7685 83.992C29.5836 84.4132 30.4884 84.6305 31.4059 84.6255C32.3228 84.6292 33.2278 84.4112 34.0423 83.99C34.8568 83.5689 35.5572 82.9572 36.0843 82.207L37.0206 80.8822C37.7367 79.8555 38.6915 79.0181 39.803 78.4424C40.9145 77.8667 42.1493 77.5698 43.401 77.5772C44.6545 77.5686 45.8909 77.8652 47.0043 78.4409C48.1177 79.0166 49.0744 79.8544 49.792 80.8822C50.3166 81.635 51.0172 82.2486 51.8323 82.6701C52.6474 83.0915 53.5529 83.3079 54.4705 83.3008C55.388 83.3079 56.2936 83.0915 57.1087 82.6701C57.9238 82.2486 58.6235 81.635 59.1481 80.8822L59.9252 79.7864C60.6427 78.7586 61.5995 77.9207 62.7129 77.3449C63.8264 76.7692 65.0627 76.473 66.3162 76.4817C67.5679 76.4741 68.8036 76.7709 69.9151 77.3467C71.0266 77.9224 71.9807 78.7596 72.6967 79.7864L74.2011 81.9063C74.7273 82.6574 75.4275 83.2696 76.2422 83.6909C77.0569 84.1121 77.9615 84.3297 78.8787 84.3248C79.7956 84.3283 80.6998 84.1102 81.5143 83.6891C82.3288 83.268 83.0299 82.6564 83.5572 81.9063L84.4715 80.6119L86.1849 81.8184Z" fill="white"/>
</g>
<path d="M305.634 290.437C307.435 289.363 309.782 289.773 311.777 289.927C314.303 290.119 316.82 290.321 319.355 290.265C324.094 289.902 328.855 290.601 333.289 292.314C336.844 293.925 341.655 297.147 342.99 301.036C344.021 304.04 343.946 308.816 341.64 311.26C341.236 311.69 340.629 311.237 340.722 310.723C340.722 309.365 340.569 308.011 340.265 306.687C340.086 304.527 340.577 302.853 339.085 300.959C336.406 297.672 332.722 295.356 328.6 294.363C324.803 293.719 320.957 293.419 317.106 293.468C315.193 293.305 313.291 293.028 311.411 292.638C309.412 292.502 307.454 292.001 305.634 291.16C305.572 291.122 305.522 291.069 305.487 291.006C305.452 290.942 305.433 290.871 305.433 290.799C305.433 290.726 305.452 290.655 305.487 290.592C305.522 290.529 305.572 290.476 305.634 290.437Z" fill="#ACCADA"/>
<path d="M323.768 303.087C323.598 301.77 323.168 300.499 322.506 299.348C321.843 298.197 320.96 297.188 319.906 296.379C317.632 294.78 314.977 293.809 312.208 293.563C310.847 293.402 309.496 293.162 308.162 292.847C306.842 292.365 305.498 291.955 304.134 291.62C303.966 291.582 303.792 291.593 303.631 291.651C303.47 291.708 303.328 291.812 303.224 291.948C303.119 292.083 303.056 292.247 303.042 292.417C303.027 292.588 303.062 292.76 303.142 292.911C305.402 297.029 311.736 296.245 315.596 297.493C316.942 297.934 318.154 298.713 319.115 299.754C320.076 300.796 320.755 302.066 321.088 303.443C321.275 304.888 321.285 306.35 321.118 307.797C320.903 308.903 320.972 310.046 321.319 311.118C321.364 311.191 321.427 311.251 321.501 311.292C321.576 311.334 321.659 311.356 321.744 311.356C321.83 311.356 321.914 311.334 321.988 311.292C322.063 311.251 322.126 311.191 322.171 311.118C323.623 308.709 324.188 305.868 323.768 303.087Z" fill="#ACCADA"/>
<path d="M302.437 290.437C300.634 289.363 298.289 289.773 296.293 289.927C293.768 290.119 291.25 290.321 288.716 290.265C283.977 289.902 279.216 290.601 274.781 292.314C271.228 293.925 266.416 297.147 265.081 301.036C264.05 304.04 264.122 308.816 266.43 311.26C266.516 311.344 266.627 311.397 266.747 311.411C266.867 311.426 266.988 311.4 267.091 311.34C267.195 311.279 267.276 311.185 267.322 311.074C267.368 310.963 267.377 310.839 267.346 310.723C267.345 309.364 267.501 308.011 267.808 306.687C267.987 304.527 267.493 302.853 268.984 300.959C271.664 297.672 275.348 295.355 279.471 294.363C283.266 293.719 287.112 293.419 290.961 293.468C292.874 293.306 294.776 293.028 296.656 292.638C298.657 292.502 300.615 292.001 302.435 291.16C302.496 291.122 302.547 291.069 302.582 291.006C302.617 290.943 302.635 290.872 302.636 290.799C302.636 290.727 302.618 290.656 302.583 290.593C302.548 290.53 302.498 290.476 302.437 290.437Z" fill="#ACCADA"/>
<path d="M286.375 303.087C286.544 301.77 286.972 300.499 287.634 299.348C288.297 298.197 289.179 297.188 290.232 296.379C292.507 294.78 295.162 293.809 297.931 293.563C299.293 293.402 300.644 293.163 301.978 292.847C303.297 292.365 304.641 291.955 306.005 291.62C306.172 291.582 306.347 291.593 306.508 291.651C306.67 291.708 306.811 291.812 306.916 291.948C307.02 292.083 307.083 292.247 307.098 292.417C307.112 292.588 307.077 292.76 306.997 292.911C304.738 297.029 298.404 296.245 294.544 297.493C293.197 297.935 291.986 298.713 291.025 299.755C290.064 300.796 289.386 302.066 289.053 303.443C288.865 304.888 288.854 306.35 289.021 307.797C289.238 308.903 289.17 310.047 288.821 311.118C288.776 311.191 288.713 311.251 288.639 311.292C288.564 311.334 288.48 311.356 288.395 311.356C288.31 311.356 288.226 311.334 288.152 311.292C288.077 311.251 288.015 311.191 287.97 311.118C286.518 308.709 285.954 305.868 286.375 303.087Z" fill="#ACCADA"/>
<path d="M334.898 314.531C334.898 314.81 334.915 315.089 334.952 315.365C335.258 317.045 336.158 318.558 337.488 319.628C338.818 320.698 340.489 321.253 342.195 321.193C343.9 321.251 345.57 320.695 346.899 319.625C348.228 318.555 349.128 317.044 349.435 315.365C349.468 315.088 349.487 314.81 349.489 314.531C349.401 312.681 348.585 310.941 347.218 309.692C345.851 308.442 344.045 307.785 342.195 307.864C340.344 307.785 338.538 308.442 337.17 309.691C335.803 310.94 334.986 312.681 334.898 314.531Z" fill="#5E5E5E"/>
<path d="M314.397 314.531C314.397 314.81 314.417 315.089 314.455 315.365C314.76 317.044 315.659 318.557 316.988 319.627C318.318 320.698 319.988 321.253 321.693 321.193C323.398 321.253 325.068 320.697 326.397 319.627C327.726 318.557 328.626 317.044 328.931 315.365C328.968 315.089 328.987 314.81 328.988 314.531C328.901 312.681 328.084 310.941 326.717 309.691C325.35 308.442 323.544 307.785 321.693 307.864C319.843 307.785 318.036 308.442 316.669 309.691C315.301 310.941 314.485 312.681 314.397 314.531Z" fill="#5E5E5E"/>
<path d="M279.161 314.531C279.162 314.81 279.182 315.089 279.221 315.365C279.525 317.044 280.423 318.557 281.752 319.628C283.081 320.698 284.752 321.253 286.457 321.192C288.162 321.253 289.832 320.698 291.161 319.628C292.49 318.557 293.389 317.044 293.693 315.365C293.73 315.089 293.747 314.81 293.745 314.531C293.659 312.681 292.843 310.941 291.476 309.692C290.11 308.442 288.305 307.785 286.455 307.864C284.605 307.785 282.798 308.442 281.432 309.692C280.065 310.941 279.249 312.681 279.161 314.531Z" fill="#5E5E5E"/>
<path d="M274.854 314.531C274.853 314.81 274.833 315.089 274.793 315.365C274.489 317.044 273.591 318.557 272.262 319.627C270.934 320.697 269.263 321.253 267.558 321.193C265.853 321.254 264.183 320.698 262.853 319.628C261.523 318.558 260.623 317.045 260.319 315.365C260.284 315.088 260.267 314.81 260.265 314.531C260.353 312.681 261.169 310.941 262.536 309.691C263.904 308.442 265.71 307.785 267.56 307.864C269.41 307.785 271.217 308.442 272.584 309.692C273.951 310.941 274.767 312.681 274.854 314.531Z" fill="#5E5E5E"/>
<path d="M309.217 273.804C309.217 269.956 306.097 266.836 302.249 266.836C298.401 266.836 295.281 269.956 295.281 273.804V291.723C295.281 295.571 298.401 298.69 302.249 298.69C306.097 298.69 309.217 295.571 309.217 291.723V273.804Z" fill="url(#paint3_linear)"/>
<path d="M305.237 252.901H298.269V266.836H305.237V252.901Z" fill="#ACCADA"/>
<path d="M263.426 243.926C263.426 248.368 268.123 255.887 272.985 255.887H328.911C333.772 255.887 335.097 248.368 335.097 243.926V243.595C335.097 239.157 333.772 235.977 328.911 235.977H272.987C268.125 235.977 263.428 239.157 263.428 243.595L263.426 243.926Z" fill="url(#paint4_linear)"/>
<path d="M239.81 234.882C240.129 237.279 241.375 239.457 243.28 240.948C245.185 242.438 247.599 243.123 250.003 242.855C251.546 242.762 309.169 243.985 311.555 243.781C321.901 242.927 306.721 238.7 311.555 233.236C319.737 233.269 321.402 233.165 323.231 232.436C326.019 231.326 350.085 225.812 351.876 219.496C353.666 213.18 360.607 133.366 360.607 133.366C357.723 128.532 326.975 131.604 312.56 133.366C309.321 133.801 306.337 135.358 304.128 137.765C301.919 140.173 300.625 143.279 300.47 146.542C300.47 148.383 300.253 150.246 300.137 152.092C299.555 161.43 299.048 170.763 298.47 180.099C298.151 185.193 297.913 190.291 297.664 195.388C297.528 198.163 297.375 200.935 297.206 203.704C297.292 206.92 297.073 210.137 296.552 213.312C294.18 222.16 276.566 223.048 269.048 223.135C256.994 223.277 259.739 223.707 253.879 224.403C248.727 225.021 245.018 225.898 242.443 228.383C241.555 229.207 240.857 230.216 240.402 231.339C239.947 232.462 239.745 233.671 239.81 234.882Z" fill="url(#paint5_linear)"/>
<path d="M238.468 296.478C237.485 296.476 236.536 296.111 235.806 295.452C235.075 294.793 234.615 293.886 234.514 292.908C231.499 263.905 236.125 244.75 248.241 235.977C262.181 225.896 280.158 233.777 280.917 234.117C281.881 234.55 282.632 235.348 283.008 236.335C283.383 237.322 283.351 238.417 282.919 239.381C282.487 240.342 281.692 241.094 280.707 241.469C279.722 241.845 278.628 241.815 277.665 241.386C277.52 241.321 263.052 235.053 252.871 242.46C243.383 249.356 239.777 266.518 242.434 292.09C242.543 293.141 242.23 294.192 241.565 295.012C240.899 295.832 239.934 296.354 238.884 296.464C238.742 296.471 238.604 296.478 238.468 296.478Z" fill="url(#paint6_linear)"/>
<path d="M225.032 287.517H242.452V294.362C242.451 295.449 242.02 296.491 241.252 297.261C240.484 298.03 239.443 298.464 238.356 298.467H225.032C223.58 298.467 222.188 297.89 221.161 296.863C220.135 295.836 219.558 294.444 219.558 292.992V292.992C219.558 291.54 220.135 290.148 221.161 289.121C222.188 288.094 223.58 287.517 225.032 287.517V287.517Z" fill="url(#paint7_linear)"/>
<path d="M277.761 204.388C264.334 204.388 242.57 199.289 211.371 190.741C204.611 188.888 197.635 186.981 195.505 186.644C194.567 186.742 193.621 186.593 192.759 186.212C191.897 185.831 191.15 185.231 190.591 184.471C190.171 183.899 189.867 183.25 189.697 182.561C189.527 181.872 189.495 181.156 189.602 180.454C189.709 179.753 189.952 179.079 190.319 178.471C190.687 177.864 191.171 177.335 191.742 176.914C194.474 174.9 195.593 175.208 214.229 180.316C226.185 183.592 242.556 188.077 256.838 190.909C275.006 194.509 281.318 193.714 283.32 193.106C283.277 193.004 283.225 192.889 283.164 192.766C282.851 192.128 282.666 191.436 282.621 190.727C282.575 190.019 282.67 189.308 282.899 188.636C283.128 187.964 283.487 187.344 283.956 186.811C284.424 186.278 284.994 185.842 285.631 185.529C286.268 185.216 286.96 185.031 287.669 184.986C288.377 184.94 289.088 185.034 289.76 185.264C290.432 185.493 291.053 185.852 291.586 186.321C292.119 186.79 292.555 187.359 292.868 187.996C295.852 194.069 293.799 198 292.307 199.803C289.704 202.943 284.912 204.388 277.761 204.388Z" fill="url(#paint8_linear)"/>
<path d="M346.79 187.053C346.715 192.127 345.962 197.168 344.549 202.043C344.169 203.339 343.739 204.617 343.259 205.877C340.413 213.258 336.06 219.965 330.477 225.57C324.894 231.174 318.204 235.554 310.834 238.428C302.864 241.604 294.247 242.815 285.71 241.957C277.173 241.099 268.968 238.198 261.79 233.5C249.461 225.402 240.008 213.614 234.782 199.821C232.333 193.532 230.778 186.931 230.161 180.21C229.794 176.019 229.688 171.809 229.843 167.605C230.494 148.313 236.155 126.169 247.585 109.842C250.737 105.272 254.48 101.139 258.716 97.5516C263.87 93.181 269.884 89.9416 276.37 88.0434C282.101 86.4019 288.118 86.0116 294.013 86.8993C294.518 86.9691 295.021 87.0569 295.521 87.1517C300.861 88.1197 305.916 90.2713 310.317 93.4483C310.854 93.8332 311.363 94.2324 311.864 94.6531C312.685 95.3327 313.471 96.054 314.218 96.814C320.613 103.329 324.838 113.942 328.719 122.103C332.977 131.053 336.624 140.281 339.639 149.722C341.106 154.314 342.515 158.954 343.691 163.627C345.275 169.651 346.278 175.812 346.688 182.027C346.725 182.65 346.749 183.281 346.763 183.907C346.777 184.215 346.783 184.53 346.785 184.843C346.806 185.585 346.806 186.319 346.79 187.053Z" fill="url(#paint9_linear)"/>
<path d="M308.008 206.148C310.288 206.148 312.137 204.207 312.137 201.813C312.137 199.42 310.288 197.479 308.008 197.479C305.728 197.479 303.88 199.42 303.88 201.813C303.88 204.207 305.728 206.148 308.008 206.148Z" fill="#EF994C"/>
<path d="M259.501 201.194C261.667 201.194 263.423 199.346 263.423 197.066C263.423 194.786 261.667 192.937 259.501 192.937C257.335 192.937 255.578 194.786 255.578 197.066C255.578 199.346 257.335 201.194 259.501 201.194Z" fill="#EF994C"/>
<path d="M235.761 182.618C237.13 182.618 238.239 181.231 238.239 179.521C238.239 177.81 237.13 176.424 235.761 176.424C234.393 176.424 233.284 177.81 233.284 179.521C233.284 181.231 234.393 182.618 235.761 182.618Z" fill="#EF994C"/>
<path d="M323.696 174.086C327.345 174.086 330.302 170.142 330.302 165.277C330.302 160.413 327.345 156.469 323.696 156.469C320.048 156.469 317.09 160.413 317.09 165.277C317.09 170.142 320.048 174.086 323.696 174.086Z" fill="#EF994C"/>
<path style="mix-blend-mode:color-burn" opacity="0.15" d="M346.791 187.047C346.716 192.122 345.962 197.163 344.549 202.037C344.168 203.333 343.738 204.612 343.26 205.872C340.413 213.253 336.06 219.96 330.477 225.565C324.894 231.169 318.205 235.549 310.835 238.424C302.863 241.601 294.244 242.812 285.706 241.954C277.168 241.096 268.962 238.195 261.781 233.496C244.353 222.396 232.124 202.053 230.154 180.207C229.787 176.016 229.68 171.807 229.835 167.603C229.893 169.366 230.001 171.096 230.154 172.777C232.124 194.618 244.353 214.974 261.781 226.066C268.962 230.765 277.168 233.667 285.706 234.525C294.244 235.383 302.863 234.172 310.835 230.995C318.205 228.12 324.895 223.741 330.478 218.136C336.061 212.531 340.414 205.824 343.26 198.442C343.737 197.183 344.167 195.905 344.549 194.608C345.743 190.509 346.464 186.286 346.698 182.024C346.791 183.702 346.822 185.376 346.791 187.047Z" fill="url(#paint10_linear)"/>
<path d="M264.014 152.117C261.242 152.108 258.486 151.693 255.834 150.884C255.789 150.869 255.747 150.845 255.711 150.814C255.675 150.783 255.646 150.745 255.625 150.702C255.603 150.66 255.591 150.613 255.588 150.566C255.585 150.518 255.591 150.47 255.607 150.425C255.622 150.38 255.645 150.338 255.676 150.302C255.707 150.265 255.745 150.236 255.788 150.214C255.831 150.193 255.877 150.18 255.924 150.177C255.972 150.174 256.02 150.181 256.065 150.196C256.146 150.223 264.162 152.835 270.924 150.196C270.968 150.178 271.016 150.169 271.064 150.17C271.112 150.171 271.158 150.181 271.202 150.2C271.246 150.219 271.285 150.246 271.318 150.281C271.351 150.315 271.376 150.356 271.393 150.4C271.411 150.445 271.42 150.492 271.42 150.54C271.419 150.587 271.408 150.634 271.389 150.678C271.37 150.722 271.342 150.761 271.308 150.794C271.273 150.827 271.233 150.853 271.188 150.869C268.894 151.725 266.462 152.148 264.014 152.117Z" fill="#3A110C"/>
<path opacity="0.43" d="M284.881 149.183C284.881 150.615 282.844 151.775 280.331 151.775C277.817 151.775 275.781 150.615 275.781 149.183C275.781 147.751 277.819 146.592 280.331 146.592C282.842 146.592 284.881 147.752 284.881 149.183Z" fill="url(#paint11_linear)"/>
<path opacity="0.43" d="M250.995 149.183C250.995 150.615 248.959 151.775 246.444 151.775C243.929 151.775 241.895 150.615 241.895 149.183C241.895 147.751 243.934 146.592 246.444 146.592C248.954 146.592 250.995 147.752 250.995 149.183Z" fill="url(#paint12_linear)"/>
<path d="M285.438 143.891C285.313 143.891 285.192 143.842 285.103 143.754C285.013 143.667 284.961 143.547 284.958 143.422C284.958 143.189 284.779 137.741 280.38 137.741H280.334C275.892 137.779 275.708 143.191 275.703 143.422C275.698 143.548 275.645 143.668 275.553 143.755C275.462 143.843 275.341 143.891 275.214 143.891C275.151 143.889 275.089 143.876 275.031 143.85C274.974 143.825 274.921 143.788 274.878 143.743C274.834 143.697 274.8 143.644 274.777 143.585C274.754 143.526 274.743 143.463 274.745 143.4C274.793 141.125 276.025 136.817 280.329 136.776H280.382C284.647 136.776 285.87 141.098 285.92 143.4C285.921 143.463 285.91 143.526 285.888 143.585C285.865 143.644 285.831 143.697 285.787 143.743C285.744 143.788 285.691 143.825 285.633 143.85C285.576 143.876 285.514 143.889 285.451 143.891H285.438Z" fill="#3A110C"/>
<path d="M241.333 143.891H241.322C241.259 143.889 241.197 143.876 241.139 143.85C241.081 143.825 241.03 143.788 240.986 143.743C240.942 143.697 240.908 143.644 240.885 143.585C240.863 143.526 240.852 143.463 240.853 143.4C240.901 141.125 242.135 136.816 246.436 136.776H246.492C250.757 136.776 251.978 141.1 252.03 143.4C252.033 143.527 251.985 143.65 251.897 143.742C251.81 143.834 251.689 143.887 251.562 143.891C251.436 143.889 251.316 143.839 251.225 143.752C251.134 143.666 251.078 143.548 251.07 143.422C251.07 143.189 250.891 137.741 246.494 137.741H246.45C241.99 137.781 241.82 143.191 241.816 143.422C241.813 143.548 241.761 143.667 241.67 143.755C241.58 143.843 241.459 143.891 241.333 143.891Z" fill="#3A110C"/>
<path d="M318.329 123.167C319.925 123.167 321.219 122.085 321.219 120.752C321.219 119.418 319.925 118.337 318.329 118.337C316.733 118.337 315.44 119.418 315.44 120.752C315.44 122.085 316.733 123.167 318.329 123.167Z" fill="#EF994C"/>
<path opacity="0.43" d="M251.679 115.946C249.812 115.979 249.735 113.916 250.197 112.598C250.424 111.923 250.804 111.308 251.306 110.802C251.808 110.296 252.42 109.912 253.094 109.68C253.427 109.55 253.783 109.492 254.141 109.51C254.498 109.528 254.848 109.621 255.167 109.784C256.712 110.679 255.919 113.299 254.988 114.36C254.575 114.838 254.069 115.226 253.499 115.499C252.93 115.772 252.31 115.924 251.679 115.946Z" fill="url(#paint13_linear)"/>
<path opacity="0.43" d="M270.301 93.6684C272.629 92.8663 275.074 92.8699 276.594 94.9914C278.95 98.2819 274.761 101.417 272.109 102.795C268.923 104.453 265.768 106.064 262.621 107.786C261.547 108.379 259.076 109.41 257.91 108.422C253.236 104.458 267.322 94.6924 270.301 93.6684Z" fill="url(#paint14_linear)"/>
<path d="M310.32 93.45C308.866 97.1254 305.973 99.6353 302.639 99.6353C297.85 99.6353 293.97 94.4578 293.97 88.0754C293.97 87.678 293.985 87.2859 294.015 86.9028C294.518 86.9726 295.023 87.0587 295.523 87.1554C300.863 88.123 305.919 90.2738 310.32 93.45Z" fill="#EF994C"/>
<path d="M346.792 187.054C346.745 189.699 346.522 192.338 346.124 194.953C345.757 197.349 345.231 199.718 344.551 202.044C344.171 203.34 343.743 204.619 343.264 205.879C342.838 207 342.376 208.106 341.878 209.198C338.302 216.951 333.031 223.803 326.455 229.249C321.786 233.143 316.51 236.244 310.836 238.43C303.101 241.469 294.773 242.701 286.488 242.03C278.241 241.282 270.273 238.66 263.194 234.362C262.724 234.082 262.258 233.795 261.797 233.501C258.063 231.114 254.587 228.344 251.426 225.237C247.735 221.611 244.456 217.588 241.648 213.242C238.909 209.012 236.611 204.513 234.789 199.815C263.254 189.432 292.128 180.167 320.982 170.911L343.706 163.621C345.079 168.894 346.025 174.27 346.536 179.694C346.604 180.469 346.659 181.245 346.701 182.022C346.739 182.645 346.764 183.275 346.778 183.902C346.792 184.21 346.796 184.525 346.797 184.838C346.808 185.585 346.808 186.32 346.792 187.054Z" fill="url(#paint15_linear)"/>
<path d="M346.793 187.06C346.745 189.705 346.522 192.343 346.125 194.959L251.419 225.245C247.729 221.618 244.45 217.596 241.643 213.25L346.531 179.704C346.599 180.478 346.655 181.254 346.696 182.031C346.734 182.654 346.759 183.284 346.772 183.911C346.786 184.219 346.791 184.534 346.793 184.847C346.809 185.585 346.809 186.319 346.793 187.06Z" fill="#FFDEA6"/>
<path d="M341.878 209.198C338.302 216.951 333.032 223.803 326.457 229.249L286.488 242.03C278.24 241.282 270.272 238.66 263.192 234.362L341.878 209.198Z" fill="#FFDEA6"/>
<path d="M263.353 301.455C262.37 301.453 261.422 301.087 260.692 300.428C259.961 299.769 259.501 298.863 259.399 297.885C256.23 267.38 260.864 247.005 273.17 237.329C285.645 227.518 300.882 232.773 301.524 233C302.519 233.354 303.333 234.088 303.787 235.042C304.24 235.996 304.296 237.091 303.943 238.086C303.589 239.078 302.857 239.89 301.906 240.344C300.955 240.798 299.864 240.857 298.869 240.508C298.672 240.44 286.984 236.541 278.03 243.638C268.202 251.431 264.496 269.905 267.319 297.063C267.429 298.114 267.115 299.165 266.45 299.985C265.784 300.805 264.82 301.327 263.769 301.437C263.63 301.447 263.489 301.455 263.353 301.455Z" fill="url(#paint16_linear)"/>
<path d="M249.919 292.496H267.339V299.34C267.338 300.427 266.907 301.47 266.139 302.239C265.371 303.009 264.329 303.443 263.242 303.445H249.919C248.467 303.445 247.075 302.869 246.048 301.842C245.021 300.815 244.445 299.423 244.445 297.971V297.971C244.445 296.519 245.021 295.126 246.048 294.1C247.075 293.073 248.467 292.496 249.919 292.496V292.496Z" fill="url(#paint17_linear)"/>
<path d="M232.002 218.552C231.521 218.543 231.043 218.495 230.57 218.409C229.808 218.3 229.08 218.024 228.438 217.599C227.796 217.175 227.256 216.614 226.856 215.956C226.407 214.826 226.359 213.576 226.72 212.415C227.081 211.253 227.83 210.251 228.841 209.574C230.903 208.277 233.245 207.491 235.672 207.281C246.892 205.437 258.181 203.851 269.177 200.952C280.267 198.3 290.755 193.574 300.088 187.022C301.376 185.811 303.022 185.049 304.779 184.849C305.592 184.895 306.376 185.16 307.051 185.616C307.725 186.073 308.263 186.703 308.608 187.441C309.275 188.939 309.35 190.634 308.817 192.185C307.7 195.718 304.409 198.066 301.19 199.901C282.088 210.788 258.761 215.176 237.21 218.055C236.525 218.147 235.84 218.236 235.155 218.323C234.111 218.477 233.057 218.554 232.002 218.552Z" fill="url(#paint18_linear)"/>
<path d="M331.866 243.335C323.807 244.167 315.693 244.347 307.605 243.872C303.627 244.08 301.033 241.724 300.654 236.89C300.441 234.549 301.081 232.209 302.458 230.304C304.336 227.824 307.113 227.004 310.974 226.496C317.716 225.814 324.497 225.581 331.269 225.798C334.252 225.829 337.229 225.576 340.163 225.04C343.431 224.385 346.475 222.901 349.003 220.729C352.405 218.035 351.945 212.267 351.882 207.825C351.848 205.064 351.861 202.329 351.935 199.577C352.25 186.635 352.267 173.647 352.412 160.694C352.495 153.454 352.58 146.215 352.664 138.976C352.725 134.143 356.012 130.491 360.005 130.815C363.997 131.139 367.198 135.308 367.135 140.14L366.185 218.733C366.185 219.032 366.165 219.32 366.142 219.607C365.488 224.583 363.359 229.25 360.03 233.007C354.838 238.938 347.267 242.333 337.46 243.144C335.677 243.292 333.788 243.134 331.866 243.335Z" fill="url(#paint19_linear)"/>
<path opacity="0.5" d="M307.563 263.166C307.563 263.166 307.162 272.329 315.119 273.371C312.946 273.826 310.998 275.02 309.606 276.75C308.214 278.48 307.464 280.639 307.485 282.859C307.485 282.859 307.644 274.498 300.323 273.134C302.58 272.72 304.589 271.454 305.937 269.598C307.285 267.743 307.868 265.439 307.563 263.166Z" fill="#FAFCFC"/>
<path opacity="0.5" d="M362.335 122.144C362.335 122.144 361.988 130.073 368.873 130.978C366.993 131.372 365.308 132.404 364.104 133.9C362.899 135.397 362.249 137.263 362.265 139.184C362.265 139.184 362.405 131.95 356.075 130.77C358.026 130.411 359.764 129.314 360.93 127.709C362.095 126.103 362.598 124.111 362.335 122.144Z" fill="#FAFCFC"/>
<path opacity="0.49" d="M91.1466 145.164L247.198 92.2576L316.225 207.846L205.735 208.613L91.1466 145.164Z" fill="url(#paint20_linear)"/>
<path d="M106.551 208.958C106.497 209.998 106.656 211.037 107.015 212.014C107.374 212.991 107.927 213.885 108.641 214.642C109.355 215.4 110.215 216.005 111.169 216.421C112.123 216.838 113.151 217.056 114.192 217.065H221.518C222.559 217.057 223.588 216.838 224.543 216.422C225.497 216.006 226.356 215.401 227.071 214.643C227.785 213.886 228.339 212.992 228.698 212.015C229.058 211.038 229.215 209.998 229.162 208.958C229.162 208.838 229.149 209.1 229.143 209.1H106.566C106.566 209.1 106.551 208.84 106.551 208.958Z" fill="#F4F2F7"/>
<path d="M187.77 209.1H124.062C122.962 209.1 122.071 209.991 122.071 211.091C122.071 212.19 122.962 213.081 124.062 213.081H187.77C188.87 213.081 189.761 212.19 189.761 211.091C189.761 209.991 188.87 209.1 187.77 209.1Z" fill="url(#paint21_linear)"/>
<path d="M186.255 146.811L205.726 208.618H107.313L89.1024 150.812C88.7881 149.815 88.7127 148.758 88.883 147.726C89.0534 146.695 89.4641 145.718 90.0824 144.875C90.7006 144.031 91.5091 143.346 92.4417 142.873C93.3743 142.401 94.405 142.154 95.4506 142.154H179.905C181.322 142.154 182.701 142.606 183.843 143.443C184.985 144.281 185.83 145.46 186.255 146.811Z" fill="#F4F2F7"/>
<path d="M133.938 175.232C135.274 179.67 138.845 182.518 141.916 181.591C144.986 180.663 146.391 176.324 145.063 171.885C143.734 167.447 140.157 164.601 137.085 165.525C134.013 166.448 132.604 170.793 133.938 175.232Z" fill="#FEA130"/>
<path d="M79.658 310.277C79.8945 310.317 80.1345 310.331 80.3739 310.318C82.1964 310.213 83.4429 308.438 85.1311 307.749C87.9454 306.602 91.3595 308.662 94.1183 307.379C96.1377 306.439 97.1612 303.956 99.2505 303.189C100.942 302.57 102.79 302.899 104.495 302.361C108.163 301.199 108.834 296.164 113.147 296.195C114.606 296.205 115.721 296.786 117.151 296.173C118.295 295.445 119.516 294.845 120.791 294.383C122.054 294.127 123.912 294.276 124.155 295.844C124.558 298.452 120.99 299.664 120.901 302.11C120.956 302.977 120.903 303.848 120.742 304.702C119.714 308.149 115.442 306.134 113.095 307.447C111.379 308.41 110.974 310.621 109.773 312.055C108.677 313.351 107.144 314.202 105.465 314.448C103.118 314.862 101.048 314.457 99.2505 316.339C98.5863 317.034 98.0281 317.825 97.3317 318.487C95.0491 320.648 92.2618 319.803 89.7554 321.183C87.9973 322.152 87.2189 324.277 85.6775 325.559C84.5327 326.428 83.1689 326.962 81.7385 327.102C79.7311 327.396 77.683 327.226 75.7514 326.606C73.8199 325.985 72.056 324.93 70.5956 323.522C68.245 321.149 65.6437 315.383 67.9478 312.243C69.0514 310.938 70.5051 309.977 72.1376 309.472C73.7702 308.967 75.5132 308.94 77.1605 309.394C77.9633 309.767 78.7995 310.062 79.658 310.277Z" fill="url(#paint22_linear)"/>
<path opacity="0.2" d="M74.7313 317.569C74.7731 317.586 74.819 317.593 74.8641 317.588C90.9821 315.645 106.146 308.909 118.395 298.253C118.448 298.207 118.48 298.141 118.485 298.071C118.489 298 118.465 297.931 118.419 297.878C118.372 297.824 118.307 297.792 118.236 297.787C118.166 297.783 118.096 297.806 118.043 297.852C105.876 308.439 90.8131 315.132 74.8012 317.064C74.7313 317.073 74.6674 317.108 74.6238 317.164C74.5801 317.219 74.5606 317.289 74.5687 317.359C74.575 317.405 74.5934 317.449 74.622 317.486C74.6506 317.523 74.6881 317.551 74.7313 317.569Z" fill="url(#paint23_linear)"/>
<path d="M106.615 279.941C110.413 307.975 87.5975 319.971 75.2035 326.781L73.0128 325.435C77.2286 316.306 81.9366 307.413 87.1165 298.794C91.9949 291.025 98.6858 284.555 106.615 279.941Z" fill="#FEA130"/>
<path d="M74.8709 325.156C78.4835 321.764 81.8755 318.144 85.0268 314.319L83.3598 308.352C83.3361 308.266 83.3482 308.174 83.3922 308.097C83.4361 308.019 83.5089 307.961 83.595 307.937C83.6376 307.925 83.682 307.921 83.7261 307.926C83.7702 307.932 83.8124 307.946 83.8511 307.968C83.8897 307.989 83.9244 308.019 83.9516 308.054C83.9788 308.089 83.9986 308.129 84.0102 308.172L85.5496 313.684C87.3804 311.444 89.1707 309.104 90.9204 306.666L88.8705 300.23C88.8572 300.188 88.8527 300.143 88.8565 300.099C88.8604 300.055 88.8728 300.012 88.8932 299.973C88.9137 299.934 88.9415 299.899 88.9754 299.871C89.0093 299.842 89.0486 299.821 89.0908 299.808C89.1758 299.781 89.2678 299.789 89.3469 299.83C89.426 299.871 89.4855 299.941 89.513 300.026L91.4073 305.979C92.8717 303.913 94.3038 301.782 95.7038 299.587L94.4511 293.891C94.4413 293.847 94.44 293.803 94.4476 293.759C94.4552 293.715 94.471 293.673 94.4948 293.636C94.5186 293.599 94.5503 293.566 94.5866 293.541C94.6229 293.515 94.6639 293.497 94.7072 293.488C94.7948 293.469 94.8861 293.485 94.9616 293.533C95.0371 293.582 95.0901 293.658 95.1094 293.746L96.2125 298.773C97.6113 296.542 98.9704 294.251 100.29 291.9L99.6926 287.843C99.686 287.799 99.6888 287.754 99.6995 287.711C99.7103 287.668 99.729 287.628 99.7555 287.592C99.7819 287.557 99.8153 287.527 99.8534 287.504C99.8915 287.481 99.9336 287.466 99.9775 287.46C100.066 287.447 100.156 287.47 100.228 287.523C100.299 287.577 100.347 287.656 100.36 287.745L100.83 290.937C102.221 288.422 103.564 285.847 104.856 283.212C104.896 283.132 104.964 283.071 105.049 283.042C105.133 283.013 105.225 283.019 105.306 283.058C105.345 283.077 105.38 283.104 105.41 283.138C105.439 283.171 105.462 283.21 105.476 283.251C105.49 283.293 105.496 283.337 105.493 283.382C105.491 283.426 105.479 283.469 105.459 283.509C104.943 284.565 104.417 285.612 103.882 286.651L104.675 286.382C104.76 286.354 104.852 286.36 104.932 286.4C105.012 286.439 105.072 286.509 105.101 286.594C105.115 286.636 105.121 286.68 105.118 286.724C105.116 286.768 105.104 286.812 105.084 286.851C105.065 286.891 105.037 286.926 105.004 286.956C104.971 286.985 104.932 287.007 104.89 287.021L103.433 287.516C102.625 289.067 101.799 290.594 100.955 292.097C100.943 292.126 100.928 292.153 100.909 292.177C100.465 292.972 100.014 293.761 99.5571 294.544L103.367 293.388C103.452 293.362 103.545 293.371 103.624 293.414C103.702 293.456 103.761 293.528 103.787 293.613C103.813 293.699 103.803 293.791 103.761 293.87C103.719 293.949 103.647 294.008 103.562 294.034L99.0535 295.402C98.1775 296.885 97.2851 298.344 96.3769 299.779C96.3602 299.822 96.3352 299.861 96.3034 299.895C95.684 300.871 95.0567 301.837 94.4205 302.79L100.866 301.26C100.909 301.249 100.953 301.247 100.997 301.254C101.041 301.261 101.083 301.277 101.121 301.3C101.159 301.323 101.191 301.354 101.217 301.39C101.243 301.426 101.262 301.467 101.272 301.51C101.292 301.597 101.276 301.688 101.229 301.764C101.182 301.84 101.108 301.894 101.021 301.915L93.8742 303.614C93.1306 304.715 92.3786 305.8 91.6171 306.868C91.5973 306.915 91.5668 306.958 91.5288 306.992C90.3556 308.63 89.1621 310.226 87.9483 311.777L95.4013 310.345C95.4449 310.335 95.4904 310.335 95.5342 310.343C95.578 310.352 95.6197 310.369 95.6566 310.394C95.6935 310.42 95.7245 310.452 95.7484 310.49C95.7723 310.527 95.7886 310.57 95.7956 310.614C95.8124 310.701 95.794 310.792 95.744 310.866C95.694 310.941 95.6167 310.992 95.5289 311.009L87.3127 312.581C86.7757 313.249 86.2492 313.911 85.7122 314.563C85.6901 314.605 85.6593 314.643 85.6213 314.672C82.4341 318.547 79.0006 322.213 75.3429 325.647C75.2936 325.693 75.2318 325.723 75.1646 325.732C75.1106 325.741 75.0553 325.735 75.0037 325.717C74.9522 325.699 74.9061 325.669 74.8691 325.629C74.8068 325.566 74.7718 325.48 74.7721 325.392C74.7724 325.303 74.8081 325.218 74.8709 325.156Z" fill="#D77500"/>
<path d="M225.209 327.336L205.682 221.746H221L230.96 327.336H225.209Z" fill="url(#paint24_linear)"/>
<path d="M78.8077 327.336L98.3363 221.746H83.0185L73.0592 327.336H78.8077Z" fill="url(#paint25_linear)"/>
<path d="M258.963 215.668H29.9779C27.8046 215.668 26.0428 217.43 26.0428 219.602C26.0428 221.775 27.8046 223.536 29.9779 223.536H258.963C261.136 223.536 262.898 221.775 262.898 219.602C262.898 217.43 261.136 215.668 258.963 215.668Z" fill="#FEA130"/>
<path opacity="0.5" d="M70.6065 201.785C70.6065 201.785 70.0962 213.422 80.1951 214.741C80.1951 214.741 70.4003 216.68 70.5042 226.779C70.5042 226.779 70.7087 216.17 61.4243 214.426C64.2844 213.899 66.8326 212.293 68.5417 209.94C70.2508 207.587 70.9899 204.668 70.6065 201.785Z" fill="#FAFCFC"/>
<path opacity="0.5" d="M73.6145 51.8047C73.6145 51.8047 73.1581 62.2008 82.1883 63.386C82.1883 63.386 73.4341 65.1189 73.5254 74.1473C73.5254 74.1473 73.7041 64.6587 65.408 63.1119C67.9656 62.6404 70.2442 61.2037 71.7718 59.0989C73.2994 56.9941 73.9591 54.3825 73.6145 51.8047Z" fill="#FAFCFC"/>
<path d="M175.841 51.5988H206.329C211.415 51.5988 216.293 53.6193 219.89 57.2158C223.486 60.8122 225.507 65.6901 225.507 70.7762V90.3905C225.507 95.4763 223.486 100.354 219.89 103.95C216.294 107.547 211.417 109.567 206.331 109.568H171.188C166.102 109.568 161.224 107.547 157.628 103.951C154.031 100.354 152.011 95.4766 152.011 90.3905V75.4292C152.011 69.109 154.521 63.0476 158.99 58.5786C163.459 54.1095 169.521 51.5988 175.841 51.5988V51.5988Z" fill="white"/>
<path d="M223.77 93.3068L223.949 94.1017L230.894 125.507C230.99 125.944 230.935 126.402 230.738 126.805C230.541 127.207 230.213 127.531 229.808 127.722C229.403 127.914 228.944 127.962 228.508 127.859C228.072 127.756 227.683 127.508 227.406 127.155L204.238 97.6697" fill="white"/>
<path d="M189.179 87.4349H159.351C159.066 87.4349 158.835 86.9891 158.835 86.4395C158.835 85.8898 159.066 85.444 159.351 85.444H189.179C189.465 85.444 189.694 85.8898 189.694 86.4395C189.694 86.9891 189.465 87.4349 189.179 87.4349Z" fill="url(#paint26_linear)"/>
<path d="M217.567 80.467H159.831C159.7 80.4672 159.57 80.4415 159.449 80.3916C159.328 80.3417 159.218 80.2684 159.125 80.1759C159.033 80.0834 158.96 79.9738 158.909 79.8529C158.859 79.732 158.833 79.6024 158.833 79.4716C158.833 79.3407 158.859 79.2111 158.909 79.0902C158.96 78.9693 159.033 78.8594 159.125 78.767C159.218 78.6745 159.328 78.6012 159.449 78.5513C159.57 78.5014 159.7 78.4759 159.831 78.4761H217.567C217.831 78.4761 218.084 78.581 218.271 78.7676C218.457 78.9543 218.562 79.2076 218.562 79.4716C218.562 79.7355 218.457 79.9886 218.271 80.1752C218.084 80.3619 217.831 80.467 217.567 80.467Z" fill="url(#paint27_linear)"/>
<path d="M217.567 73.4976H159.831C159.7 73.4978 159.57 73.4721 159.449 73.4222C159.328 73.3723 159.218 73.2989 159.125 73.2065C159.033 73.114 158.96 73.0044 158.909 72.8835C158.859 72.7626 158.833 72.633 158.833 72.5021C158.833 72.3713 158.859 72.2417 158.909 72.1208C158.96 71.9999 159.033 71.89 159.125 71.7975C159.218 71.7051 159.328 71.6318 159.449 71.5819C159.57 71.5319 159.7 71.5064 159.831 71.5067H217.567C217.831 71.5067 218.084 71.6115 218.271 71.7982C218.457 71.9849 218.562 72.2381 218.562 72.5021C218.562 72.7661 218.457 73.0191 218.271 73.2058C218.084 73.3925 217.831 73.4976 217.567 73.4976Z" fill="url(#paint28_linear)"/>
<defs>
<linearGradient id="paint0_linear" x1="296.376" y1="1338.39" x2="347.287" y2="39.6632" gradientUnits="userSpaceOnUse">
<stop stop-color="#522EB5"/>
<stop offset="1" stop-color="#60A1E5"/>
</linearGradient>
<linearGradient id="paint1_linear" x1="274.036" y1="468.969" x2="265.653" y2="384.754" gradientUnits="userSpaceOnUse">
<stop stop-color="#FAFCFC"/>
<stop offset="1" stop-color="#FAFCFC" stop-opacity="0.302"/>
</linearGradient>
<linearGradient id="paint2_linear" x1="16.0485" y1="-5.52832" x2="28.2434" y2="5.9855" gradientUnits="userSpaceOnUse">
<stop stop-color="#FAFCFC"/>
<stop offset="1" stop-color="#FAFCFC" stop-opacity="0.302"/>
</linearGradient>
<linearGradient id="paint3_linear" x1="302.347" y1="288.561" x2="297.933" y2="238.545" gradientUnits="userSpaceOnUse">
<stop stop-color="#006291"/>
<stop offset="1" stop-color="#0084C4"/>
</linearGradient>
<linearGradient id="paint4_linear" x1="295.893" y1="265.105" x2="296.552" y2="212.962" gradientUnits="userSpaceOnUse">
<stop stop-color="#006291"/>
<stop offset="1" stop-color="#0084C4"/>
</linearGradient>
<linearGradient id="paint5_linear" x1="240.523" y1="150.438" x2="343.8" y2="220.76" gradientUnits="userSpaceOnUse">
<stop stop-color="#006291"/>
<stop offset="1" stop-color="#0084C4"/>
</linearGradient>
<linearGradient id="paint6_linear" x1="262.168" y1="255.404" x2="181.206" y2="282.74" gradientUnits="userSpaceOnUse">
<stop stop-color="#FCA464"/>
<stop offset="0.389" stop-color="#FCB064"/>
<stop offset="1" stop-color="#FCC064"/>
</linearGradient>
<linearGradient id="paint7_linear" x1="227.662" y1="316.916" x2="229.523" y2="260.191" gradientUnits="userSpaceOnUse">
<stop stop-color="#006291"/>
<stop offset="1" stop-color="#0084C4"/>
</linearGradient>
<linearGradient id="paint8_linear" x1="-10827" y1="-3617.94" x2="-10733.6" y2="-3617.94" gradientUnits="userSpaceOnUse">
<stop stop-color="#FCA464"/>
<stop offset="0.389" stop-color="#FCB064"/>
<stop offset="1" stop-color="#FCC064"/>
</linearGradient>
<linearGradient id="paint9_linear" x1="358.036" y1="158.878" x2="221.952" y2="165.041" gradientUnits="userSpaceOnUse">
<stop stop-color="#FCA464"/>
<stop offset="0.389" stop-color="#FCB064"/>
<stop offset="1" stop-color="#FCC064"/>
</linearGradient>
<linearGradient id="paint10_linear" x1="272.836" y1="255.579" x2="282.638" y2="137.409" gradientUnits="userSpaceOnUse">
<stop offset="0.098"/>
<stop offset="1" stop-color="white" stop-opacity="0"/>
</linearGradient>
<linearGradient id="paint11_linear" x1="275.781" y1="149.184" x2="284.881" y2="149.184" gradientUnits="userSpaceOnUse">
<stop stop-color="#FAFCFC"/>
<stop offset="1" stop-color="#FAFCFC" stop-opacity="0.302"/>
</linearGradient>
<linearGradient id="paint12_linear" x1="241.895" y1="149.184" x2="250.995" y2="149.184" gradientUnits="userSpaceOnUse">
<stop stop-color="#FAFCFC"/>
<stop offset="1" stop-color="#FAFCFC" stop-opacity="0.302"/>
</linearGradient>
<linearGradient id="paint13_linear" x1="248.701" y1="108.515" x2="258.213" y2="116.94" gradientUnits="userSpaceOnUse">
<stop stop-color="#FAFCFC"/>
<stop offset="1" stop-color="#FAFCFC" stop-opacity="0.302"/>
</linearGradient>
<linearGradient id="paint14_linear" x1="260.89" y1="93.8796" x2="267.246" y2="107.126" gradientUnits="userSpaceOnUse">
<stop stop-color="#FAFCFC"/>
<stop offset="1" stop-color="#FAFCFC" stop-opacity="0.302"/>
</linearGradient>
<linearGradient id="paint15_linear" x1="330.899" y1="266.648" x2="309.738" y2="179.403" gradientUnits="userSpaceOnUse">
<stop stop-color="#FABD55"/>
<stop offset="1" stop-color="#FACA78"/>
</linearGradient>
<linearGradient id="paint16_linear" x1="291.32" y1="264.251" x2="186.138" y2="270.704" gradientUnits="userSpaceOnUse">
<stop stop-color="#FCA464"/>
<stop offset="0.389" stop-color="#FCB064"/>
<stop offset="1" stop-color="#FCC064"/>
</linearGradient>
<linearGradient id="paint17_linear" x1="252.755" y1="320.515" x2="254.616" y2="263.79" gradientUnits="userSpaceOnUse">
<stop stop-color="#006291"/>
<stop offset="1" stop-color="#0084C4"/>
</linearGradient>
<linearGradient id="paint18_linear" x1="271.38" y1="212.115" x2="270.459" y2="196.081" gradientUnits="userSpaceOnUse">
<stop stop-color="#FCA464"/>
<stop offset="0.389" stop-color="#FCB064"/>
<stop offset="1" stop-color="#FCC064"/>
</linearGradient>
<linearGradient id="paint19_linear" x1="330.283" y1="185.649" x2="388.474" y2="197.3" gradientUnits="userSpaceOnUse">
<stop stop-color="#006291"/>
<stop offset="1" stop-color="#0084C4"/>
</linearGradient>
<linearGradient id="paint20_linear" x1="152.143" y1="206.518" x2="187.893" y2="128.762" gradientUnits="userSpaceOnUse">
<stop stop-color="#FAFCFC"/>
<stop offset="1" stop-color="#FAFCFC" stop-opacity="0"/>
</linearGradient>
<linearGradient id="paint21_linear" x1="172.432" y1="284.212" x2="172.331" y2="155.155" gradientUnits="userSpaceOnUse">
<stop stop-color="#522EB5"/>
<stop offset="1" stop-color="#60A1E5"/>
</linearGradient>
<linearGradient id="paint22_linear" x1="93.2773" y1="369.167" x2="105.457" y2="341.54" gradientUnits="userSpaceOnUse">
<stop stop-color="#006291"/>
<stop offset="1" stop-color="#0084C4"/>
</linearGradient>
<linearGradient id="paint23_linear" x1="85.4147" y1="359.612" x2="127.488" y2="359.612" gradientUnits="userSpaceOnUse">
<stop stop-color="#FAFCFC"/>
<stop offset="1" stop-color="#FAFCFC" stop-opacity="0.302"/>
</linearGradient>
<linearGradient id="paint24_linear" x1="218.094" y1="271.796" x2="193.433" y2="254.513" gradientUnits="userSpaceOnUse">
<stop stop-color="#FCA464"/>
<stop offset="0.389" stop-color="#FCB064"/>
<stop offset="1" stop-color="#FCC064"/>
</linearGradient>
<linearGradient id="paint25_linear" x1="75.1572" y1="293.97" x2="107.761" y2="287.668" gradientUnits="userSpaceOnUse">
<stop stop-color="#FCA464"/>
<stop offset="0.389" stop-color="#FCB064"/>
<stop offset="1" stop-color="#FCC064"/>
</linearGradient>
<linearGradient id="paint26_linear" x1="165.161" y1="117.471" x2="165.214" y2="74.2179" gradientUnits="userSpaceOnUse">
<stop stop-color="#522EB5"/>
<stop offset="1" stop-color="#60A1E5"/>
</linearGradient>
<linearGradient id="paint27_linear" x1="170.719" y1="140.696" x2="170.744" y2="64.3215" gradientUnits="userSpaceOnUse">
<stop stop-color="#522EB5"/>
<stop offset="1" stop-color="#60A1E5"/>
</linearGradient>
<linearGradient id="paint28_linear" x1="168.868" y1="140.141" x2="168.893" y2="63.7687" gradientUnits="userSpaceOnUse">
<stop stop-color="#522EB5"/>
<stop offset="1" stop-color="#60A1E5"/>
</linearGradient>
</defs>
</svg>
