<svg width="270" height="310" viewBox="0 0 270 310" fill="none" xmlns="http://www.w3.org/2000/svg">
<circle opacity="0.05" cx="106.5" cy="164.5" r="106.5" fill="#5E96E1"/>
<g opacity="0.4">
<path opacity="0.2" d="M258.614 303.349C261.738 300.225 261.738 295.159 258.614 292.035C255.489 288.911 250.424 288.911 247.3 292.035C244.176 295.159 244.176 300.225 247.3 303.349C250.424 306.473 255.489 306.473 258.614 303.349Z" fill="#7A7A7A"/>
<path opacity="0.2" d="M214.066 258.801C217.19 255.677 217.19 250.612 214.066 247.487C210.942 244.363 205.877 244.363 202.752 247.487C199.628 250.612 199.628 255.677 202.752 258.801C205.877 261.925 210.942 261.925 214.066 258.801Z" fill="#7A7A7A"/>
<path opacity="0.2" d="M252.25 220.617C255.374 217.493 255.374 212.428 252.25 209.304C249.126 206.18 244.06 206.18 240.936 209.304C237.812 212.428 237.812 217.493 240.936 220.617C244.06 223.742 249.126 223.742 252.25 220.617Z" fill="#7A7A7A"/>
<path opacity="0.2" d="M169.518 214.253C172.643 211.129 172.643 206.064 169.518 202.94C166.394 199.816 161.329 199.816 158.205 202.94C155.081 206.064 155.081 211.129 158.205 214.253C161.329 217.378 166.394 217.378 169.518 214.253Z" fill="#7A7A7A"/>
<path opacity="0.2" d="M207.702 176.07C210.826 172.945 210.826 167.88 207.702 164.756C204.578 161.632 199.512 161.632 196.388 164.756C193.264 167.88 193.264 172.945 196.388 176.07C199.512 179.194 204.578 179.194 207.702 176.07Z" fill="#7A7A7A"/>
<path opacity="0.2" d="M124.971 169.706C128.095 166.581 128.095 161.516 124.971 158.392C121.846 155.268 116.781 155.268 113.657 158.392C110.533 161.516 110.533 166.581 113.657 169.706C116.781 172.83 121.846 172.83 124.971 169.706Z" fill="#7A7A7A"/>
<path opacity="0.2" d="M245.886 137.886C249.01 134.762 249.01 129.696 245.886 126.572C242.762 123.448 237.696 123.448 234.572 126.572C231.448 129.696 231.448 134.762 234.572 137.886C237.696 141.01 242.762 141.01 245.886 137.886Z" fill="#7A7A7A"/>
<path opacity="0.2" d="M163.154 131.522C166.278 128.398 166.278 123.332 163.154 120.208C160.03 117.084 154.965 117.084 151.84 120.208C148.716 123.332 148.716 128.398 151.84 131.522C154.965 134.646 160.03 134.646 163.154 131.522Z" fill="#7A7A7A"/>
<path opacity="0.2" d="M284.07 99.7021C287.194 96.5779 287.194 91.5126 284.07 88.3884C280.945 85.2643 275.88 85.2643 272.756 88.3884C269.632 91.5126 269.632 96.5779 272.756 99.7021C275.88 102.826 280.945 102.826 284.07 99.7021Z" fill="#7A7A7A"/>
<path opacity="0.2" d="M201.338 93.3381C204.462 90.2139 204.462 85.1486 201.338 82.0244C198.214 78.9002 193.149 78.9002 190.025 82.0244C186.9 85.1486 186.9 90.2139 190.025 93.3381C193.149 96.4623 198.214 96.4623 201.338 93.3381Z" fill="#7A7A7A"/>
<path opacity="0.2" d="M239.522 55.1544C242.646 52.0302 242.646 46.9649 239.522 43.8407C236.398 40.7165 231.332 40.7165 228.208 43.8407C225.084 46.9649 225.084 52.0302 228.208 55.1544C231.332 58.2786 236.398 58.2786 239.522 55.1544Z" fill="#7A7A7A"/>
<path opacity="0.2" d="M277.706 16.9706C280.83 13.8464 280.83 8.78105 277.706 5.65685C274.581 2.53266 269.516 2.53266 266.392 5.65685C263.268 8.78105 263.268 13.8464 266.392 16.9706C269.516 20.0948 274.581 20.0948 277.706 16.9706Z" fill="#7A7A7A"/>
</g>
</svg>
