<svg width="86" height="86" viewBox="0 0 86 86" fill="none" xmlns="http://www.w3.org/2000/svg">
<path d="M29.7462 83.3646C22.4181 84.1101 15.0153 83.4786 7.91938 81.5027C6.83534 81.1566 5.77232 80.747 4.73637 80.2761C3.62331 79.7436 2.64389 78.9686 1.86938 78.008C1.09488 77.0475 0.545236 75.9257 0.260772 74.7251C-0.0236929 73.5244 -0.036012 72.2755 0.225205 71.0695C0.486423 69.8636 1.01433 68.7314 1.77014 67.7561C4.12244 64.8273 7.11193 62.4738 10.511 60.8745C12.9168 59.6064 15.3947 58.4689 17.8837 57.3728C18.8537 57.0267 19.7235 56.4466 20.416 55.6842C21.1085 54.9219 21.6023 54.0009 21.8539 53.0022C22.1055 52.0035 22.107 50.9582 21.8583 49.9587C21.6097 48.9593 21.1185 48.0367 20.4282 47.2723C17.8705 44.27 15.9808 40.7578 14.8843 36.9692C13.7878 33.1807 13.5096 29.2023 14.0683 25.2981C14.5908 21.346 16.6526 17.7603 19.8053 15.3206C22.958 12.8808 26.9466 11.7846 30.9033 12.2703C34.7746 12.4331 38.4447 14.0392 41.1911 16.7723C43.9376 19.5055 45.5616 23.1677 45.7433 27.0381C46.2225 34.1995 43.8798 41.2637 39.2167 46.7198C38.5033 47.5227 37.9663 48.4663 37.6403 49.4896C37.3143 50.5129 37.2066 51.5932 37.3242 52.6608C37.3447 53.7093 37.6936 54.7252 38.3218 55.565C38.95 56.4048 39.8262 57.0263 40.8263 57.342C45.7143 58.9398 50.2997 61.3458 54.3923 64.4596C56.0006 65.4943 57.2953 66.9495 58.1356 68.6673C58.9759 70.3851 59.33 72.3 59.1596 74.2048C59.0296 75.4377 58.5811 76.6155 57.8582 77.6226C57.1352 78.6296 56.1628 79.4315 55.0363 79.9489C51.0245 82.0217 46.5995 83.1697 42.0861 83.3091C37.9904 83.5644 33.8614 83.3646 29.7462 83.3646Z" fill="url(#paint0_linear)"/>
<path d="M47.4973 52.8721C47.1391 52.71 46.8172 52.4772 46.5509 52.1879C46.2846 51.8987 46.0794 51.559 45.9473 51.1887C45.8152 50.8183 45.7592 50.4251 45.7824 50.0326C45.8055 49.6401 45.9074 49.2562 46.0821 48.904C47.9225 45.4353 49.5707 41.8681 51.0187 38.2182C52.1908 35.1894 52.7527 31.9588 52.6727 28.7121C52.5927 25.4655 51.8721 22.2666 50.5523 19.2993C49.1511 16.6228 47.4575 14.1099 45.5022 11.807C45.1389 11.4817 44.908 11.0345 44.8532 10.5499C44.7985 10.0654 44.9235 9.57757 45.2052 9.17946C46.7354 6.48147 49.1017 4.3543 51.9468 3.11896C54.7919 1.88362 57.9616 1.60707 60.9776 2.33108C63.7994 2.88765 66.3755 4.31506 68.3432 6.41274C70.311 8.51042 71.5714 11.1727 71.9466 14.0243C72.5083 17.5388 72.3619 21.13 71.5161 24.5871C70.6703 28.0443 69.142 31.2976 67.0212 34.1558C66.2044 35.1912 65.5649 36.3547 65.1287 37.5993C64.4517 40.0689 65.1899 41.1651 67.5208 42.1918C70.7008 43.5931 73.9028 44.9666 76.9774 46.5705C78.6691 47.5627 80.2789 48.6882 81.7917 49.9364C83.2299 50.9973 84.3263 52.4558 84.9456 54.1322C85.5649 55.8086 85.68 57.6295 85.2769 59.3706C85.1096 60.3834 84.6687 61.3311 84.0016 62.1113C83.3344 62.8914 82.4665 63.4744 81.4919 63.7968C78.4396 64.9566 75.2265 65.7001 72.077 66.5963C71.6552 66.7157 71.1947 66.6825 70.759 66.763C67.4292 67.3901 64.8235 67.5953 62.5425 63.7493C59.2571 58.1996 53.28 55.4972 47.5305 52.8833L47.4973 52.8721Z" fill="#FEA130"/>
<defs>
<linearGradient id="paint0_linear" x1="22.5001" y1="21.2252" x2="37.8824" y2="81.2037" gradientUnits="userSpaceOnUse">
<stop stop-color="#61ADEA"/>
<stop offset="1" stop-color="#5F9BE3"/>
</linearGradient>
</defs>
</svg>
