<?xml version="1.0" encoding="utf-8"?>
<!-- Generator: Adobe Illustrator 24.0.1, SVG Export Plug-In . SVG Version: 6.00 Build 0)  -->
<svg version="1.1" id="Layer_1" xmlns="http://www.w3.org/2000/svg" xmlns:xlink="http://www.w3.org/1999/xlink" x="0px" y="0px"
	 viewBox="0 0 256 256" style="enable-background:new 0 0 256 256;" xml:space="preserve">
<style type="text/css">
	.st0{fill:#FFFFFF;}
</style>
<path class="st0" d="M77.2,122l89.6-89.6c1.6-1.6,3.7-2.5,6-2.5c2.3,0,4.4,0.9,6,2.5c3.3,3.3,3.3,8.6,0,11.8L95.1,128l83.7,83.7
	c1.6,1.6,2.5,3.7,2.5,5.9c0,2.2-1,4.4-2.6,5.9c-1.6,1.6-3.7,2.5-6,2.5c-2.3,0-4.4-0.9-6-2.5l-89.6-89.6
	C73.9,130.6,73.9,125.3,77.2,122z"/>
</svg>
