<svg width="224" height="32" viewBox="0 0 224 32" fill="none" xmlns="http://www.w3.org/2000/svg">
<path d="M76.16 18.22C75.7867 19.5533 75.0933 20.5533 74.08 21.22C73.0667 21.8733 71.8333 22.2 70.38 22.2C69.0467 22.2 67.8933 21.9333 66.92 21.4C65.9467 20.8533 65.2 20.0733 64.68 19.06C64.16 18.0333 63.9 16.8133 63.9 15.4C63.9 14 64.16 12.7867 64.68 11.76C65.2 10.7333 65.9467 9.95333 66.92 9.42C67.8933 8.87333 69.04 8.6 70.36 8.6C71.8 8.6 73.02 8.90667 74.02 9.52C75.02 10.12 75.68 11.0267 76 12.24L72.98 13.46C72.7933 12.66 72.5067 12.1 72.12 11.78C71.7333 11.46 71.1867 11.3 70.48 11.3C69.5067 11.3 68.7533 11.6533 68.22 12.36C67.6867 13.0533 67.42 14.0667 67.42 15.4C67.42 16.7333 67.6733 17.7533 68.18 18.46C68.7 19.1533 69.4467 19.5 70.42 19.5C71.1533 19.5 71.7333 19.3267 72.16 18.98C72.5867 18.6333 72.88 18.0867 73.04 17.34L76.16 18.22ZM84.3933 11.8C85.4466 11.8 86.2866 12.1067 86.9133 12.72C87.5399 13.3333 87.8533 14.2067 87.8533 15.34V22H84.4533V16.28C84.4533 15.0133 83.9799 14.38 83.0333 14.38C82.4999 14.38 82.0666 14.5733 81.7333 14.96C81.3999 15.3467 81.2333 15.94 81.2333 16.74V22H77.8333V7.76H81.2333V13.82C81.5266 13.1533 81.9399 12.6533 82.4733 12.32C83.0199 11.9733 83.6599 11.8 84.3933 11.8ZM99.8956 20.06C100.149 20.06 100.356 20.0333 100.516 19.98L100.256 21.88C99.869 22.0933 99.4156 22.2 98.8956 22.2C97.4556 22.2 96.5956 21.6867 96.3156 20.66C95.7156 21.6867 94.529 22.2 92.7556 22.2C91.7556 22.2 90.989 21.9867 90.4556 21.56C89.9223 21.1333 89.6556 20.5133 89.6556 19.7C89.6556 18.8467 89.9556 18.16 90.5556 17.64C91.169 17.1067 92.169 16.7 93.5556 16.42L95.8156 15.98V15.62C95.8156 15.1667 95.689 14.8067 95.4356 14.54C95.1823 14.2733 94.8356 14.14 94.3956 14.14C93.889 14.14 93.4756 14.26 93.1556 14.5C92.8356 14.74 92.629 15.1333 92.5356 15.68L89.7756 14.88C89.949 13.9067 90.429 13.1533 91.2156 12.62C92.0023 12.0733 93.0623 11.8 94.3956 11.8C95.9556 11.8 97.1423 12.12 97.9556 12.76C98.769 13.4 99.1756 14.36 99.1756 15.64V19.28C99.1756 19.8 99.4156 20.06 99.8956 20.06ZM93.9956 20C94.4623 20 94.8823 19.8733 95.2556 19.62C95.629 19.3533 95.8156 19.0067 95.8156 18.58V17.72L94.1956 18.1C93.769 18.2067 93.4623 18.34 93.2756 18.5C93.1023 18.6467 93.0156 18.86 93.0156 19.14C93.0156 19.42 93.1023 19.6333 93.2756 19.78C93.449 19.9267 93.689 20 93.9956 20ZM108.726 21.44C108.393 21.6667 107.966 21.8533 107.446 22C106.939 22.1333 106.426 22.2 105.906 22.2C104.719 22.2 103.813 21.9467 103.186 21.44C102.559 20.9333 102.239 20.12 102.226 19V14.42H100.506V12H102.226V9.76L105.626 8.82V12H108.626V14.42H105.626V18.44C105.626 19.3333 106.066 19.78 106.946 19.78C107.493 19.78 107.973 19.6333 108.386 19.34L108.726 21.44ZM122.984 21.44C122.651 21.6667 122.224 21.8533 121.704 22C121.197 22.1333 120.684 22.2 120.164 22.2C118.977 22.2 118.071 21.9467 117.444 21.44C116.817 20.9333 116.497 20.12 116.484 19V14.42H114.764V12H116.484V9.76L119.884 8.82V12H122.884V14.42H119.884V18.44C119.884 19.3333 120.324 19.78 121.204 19.78C121.751 19.78 122.231 19.6333 122.644 19.34L122.984 21.44ZM129.215 11.8C130.882 11.8 132.175 12.26 133.095 13.18C134.029 14.0867 134.495 15.36 134.495 17C134.495 18.64 134.029 19.92 133.095 20.84C132.175 21.7467 130.882 22.2 129.215 22.2C127.549 22.2 126.249 21.7467 125.315 20.84C124.395 19.92 123.935 18.64 123.935 17C123.935 15.36 124.395 14.0867 125.315 13.18C126.249 12.26 127.549 11.8 129.215 11.8ZM129.215 14.22C128.575 14.22 128.102 14.44 127.795 14.88C127.489 15.32 127.335 16.0267 127.335 17C127.335 17.9733 127.489 18.68 127.795 19.12C128.102 19.56 128.575 19.78 129.215 19.78C129.855 19.78 130.329 19.56 130.635 19.12C130.942 18.68 131.095 17.9733 131.095 17C131.095 16.0267 130.942 15.32 130.635 14.88C130.329 14.44 129.855 14.22 129.215 14.22ZM151.829 20.06C152.083 20.06 152.289 20.0333 152.449 19.98L152.189 21.88C151.803 22.0933 151.349 22.2 150.829 22.2C149.389 22.2 148.529 21.6867 148.249 20.66C147.649 21.6867 146.463 22.2 144.689 22.2C143.689 22.2 142.923 21.9867 142.389 21.56C141.856 21.1333 141.589 20.5133 141.589 19.7C141.589 18.8467 141.889 18.16 142.489 17.64C143.103 17.1067 144.103 16.7 145.489 16.42L147.749 15.98V15.62C147.749 15.1667 147.623 14.8067 147.369 14.54C147.116 14.2733 146.769 14.14 146.329 14.14C145.823 14.14 145.409 14.26 145.089 14.5C144.769 14.74 144.563 15.1333 144.469 15.68L141.709 14.88C141.883 13.9067 142.363 13.1533 143.149 12.62C143.936 12.0733 144.996 11.8 146.329 11.8C147.889 11.8 149.076 12.12 149.889 12.76C150.703 13.4 151.109 14.36 151.109 15.64V19.28C151.109 19.8 151.349 20.06 151.829 20.06ZM145.929 20C146.396 20 146.816 19.8733 147.189 19.62C147.563 19.3533 147.749 19.0067 147.749 18.58V17.72L146.129 18.1C145.703 18.2067 145.396 18.34 145.209 18.5C145.036 18.6467 144.949 18.86 144.949 19.14C144.949 19.42 145.036 19.6333 145.209 19.78C145.383 19.9267 145.623 20 145.929 20ZM165.637 8.8C167.277 8.8 168.537 9.18 169.417 9.94C170.297 10.6867 170.737 11.7667 170.737 13.18C170.737 14.5267 170.297 15.5733 169.417 16.32C168.537 17.0533 167.277 17.42 165.637 17.42H163.017V22H159.577V8.8H165.637ZM165.097 14.9C165.844 14.9 166.391 14.76 166.737 14.48C167.097 14.1867 167.277 13.74 167.277 13.14C167.277 12.5533 167.097 12.12 166.737 11.84C166.391 11.5467 165.844 11.4 165.097 11.4H163.017V14.9H165.097ZM177.184 11.8C178.851 11.8 180.144 12.26 181.064 13.18C181.997 14.0867 182.464 15.36 182.464 17C182.464 18.64 181.997 19.92 181.064 20.84C180.144 21.7467 178.851 22.2 177.184 22.2C175.517 22.2 174.217 21.7467 173.284 20.84C172.364 19.92 171.904 18.64 171.904 17C171.904 15.36 172.364 14.0867 173.284 13.18C174.217 12.26 175.517 11.8 177.184 11.8ZM177.184 14.22C176.544 14.22 176.071 14.44 175.764 14.88C175.457 15.32 175.304 16.0267 175.304 17C175.304 17.9733 175.457 18.68 175.764 19.12C176.071 19.56 176.544 19.78 177.184 19.78C177.824 19.78 178.297 19.56 178.604 19.12C178.911 18.68 179.064 17.9733 179.064 17C179.064 16.0267 178.911 15.32 178.604 14.88C178.297 14.44 177.824 14.22 177.184 14.22ZM191.597 21.44C191.264 21.6667 190.837 21.8533 190.317 22C189.811 22.1333 189.297 22.2 188.777 22.2C187.591 22.2 186.684 21.9467 186.057 21.44C185.431 20.9333 185.111 20.12 185.097 19V14.42H183.377V12H185.097V9.76L188.497 8.82V12H191.497V14.42H188.497V18.44C188.497 19.3333 188.937 19.78 189.817 19.78C190.364 19.78 190.844 19.6333 191.257 19.34L191.597 21.44ZM202.845 20.06C203.098 20.06 203.305 20.0333 203.465 19.98L203.205 21.88C202.818 22.0933 202.365 22.2 201.845 22.2C200.405 22.2 199.545 21.6867 199.265 20.66C198.665 21.6867 197.478 22.2 195.705 22.2C194.705 22.2 193.938 21.9867 193.405 21.56C192.872 21.1333 192.605 20.5133 192.605 19.7C192.605 18.8467 192.905 18.16 193.505 17.64C194.118 17.1067 195.118 16.7 196.505 16.42L198.765 15.98V15.62C198.765 15.1667 198.638 14.8067 198.385 14.54C198.132 14.2733 197.785 14.14 197.345 14.14C196.838 14.14 196.425 14.26 196.105 14.5C195.785 14.74 195.578 15.1333 195.485 15.68L192.725 14.88C192.898 13.9067 193.378 13.1533 194.165 12.62C194.952 12.0733 196.012 11.8 197.345 11.8C198.905 11.8 200.092 12.12 200.905 12.76C201.718 13.4 202.125 14.36 202.125 15.64V19.28C202.125 19.8 202.365 20.06 202.845 20.06ZM196.945 20C197.412 20 197.832 19.8733 198.205 19.62C198.578 19.3533 198.765 19.0067 198.765 18.58V17.72L197.145 18.1C196.718 18.2067 196.412 18.34 196.225 18.5C196.052 18.6467 195.965 18.86 195.965 19.14C195.965 19.42 196.052 19.6333 196.225 19.78C196.398 19.9267 196.638 20 196.945 20ZM211.675 21.44C211.342 21.6667 210.915 21.8533 210.395 22C209.889 22.1333 209.375 22.2 208.855 22.2C207.669 22.2 206.762 21.9467 206.135 21.44C205.509 20.9333 205.189 20.12 205.175 19V14.42H203.455V12H205.175V9.76L208.575 8.82V12H211.575V14.42H208.575V18.44C208.575 19.3333 209.015 19.78 209.895 19.78C210.442 19.78 210.922 19.6333 211.335 19.34L211.675 21.44ZM217.907 11.8C219.573 11.8 220.867 12.26 221.787 13.18C222.72 14.0867 223.187 15.36 223.187 17C223.187 18.64 222.72 19.92 221.787 20.84C220.867 21.7467 219.573 22.2 217.907 22.2C216.24 22.2 214.94 21.7467 214.007 20.84C213.087 19.92 212.627 18.64 212.627 17C212.627 15.36 213.087 14.0867 214.007 13.18C214.94 12.26 216.24 11.8 217.907 11.8ZM217.907 14.22C217.267 14.22 216.793 14.44 216.487 14.88C216.18 15.32 216.027 16.0267 216.027 17C216.027 17.9733 216.18 18.68 216.487 19.12C216.793 19.56 217.267 19.78 217.907 19.78C218.547 19.78 219.02 19.56 219.327 19.12C219.633 18.68 219.787 17.9733 219.787 17C219.787 16.0267 219.633 15.32 219.327 14.88C219.02 14.44 218.547 14.22 217.907 14.22Z" fill="#707070"/>
<path d="M47.9735 20.0432C47.9225 20.2652 47.8684 20.4863 47.8094 20.7043C47.0554 23.5173 45.1933 27.9514 41.5833 27.5354L40.7713 27.4412C41.7003 29.3912 43.7035 29.7415 45.8045 30.6565C44.0805 31.4495 42.6815 32.0652 41.0355 31.7502C40.5474 31.654 40.0666 31.5243 39.5965 31.3616C38.1193 30.6929 36.5837 30.1606 35.0093 29.7722C33.3783 29.5352 32.1094 30.5815 30.4864 30.5725C28.1724 30.5595 26.1514 28.9895 23.8104 28.8215C21.3813 28.8121 18.9613 29.1167 16.6104 29.7283C14.4029 30.2518 12.1207 30.3839 9.8675 30.1184C4.9425 29.3184 1.19551 24.4772 0.25251 19.7952C-0.267366 17.5976 0.0212171 15.2866 1.0655 13.2844C1.30695 12.8712 1.5991 12.4897 1.93537 12.1492C3.33252 10.9187 4.86268 9.8482 6.49738 8.95727C10.577 6.33408 14.8965 4.10441 19.3975 2.29761C25.8675 -0.415974 33.094 -0.729423 39.7745 1.41431C40.7857 1.73819 41.7435 2.20987 42.6165 2.81421C43.9009 3.71311 44.9933 4.85883 45.8304 6.18433C47.2675 8.51532 48.1299 11.1547 48.3465 13.8845C48.5436 15.9444 48.4177 18.0222 47.9735 20.0432Z" fill="url(#paint0_linear)"/>
<path style="mix-blend-mode:color-burn" opacity="0.15" d="M15.6629 24.7744C16.4173 24.7744 17.0289 24.1919 17.0289 23.4734C17.0289 22.7548 16.4173 22.1724 15.6629 22.1724C14.9085 22.1724 14.2969 22.7548 14.2969 23.4734C14.2969 24.1919 14.9085 24.7744 15.6629 24.7744Z" fill="url(#paint1_linear)"/>
<g style="mix-blend-mode:color-burn" opacity="0.15">
<path d="M41.7434 19.9622C42.4619 19.9622 43.0444 19.4089 43.0444 18.7262C43.0444 18.0436 42.4619 17.4902 41.7434 17.4902C41.0249 17.4902 40.4424 18.0436 40.4424 18.7262C40.4424 19.4089 41.0249 19.9622 41.7434 19.9622Z" fill="#FBA25A"/>
</g>
<path style="mix-blend-mode:color-burn" opacity="0.15" d="M28.9544 18.7854C29.3746 18.7854 29.7154 18.3775 29.7154 17.8744C29.7154 17.3712 29.3746 16.9634 28.9544 16.9634C28.5341 16.9634 28.1934 17.3712 28.1934 17.8744C28.1934 18.3775 28.5341 18.7854 28.9544 18.7854Z" fill="url(#paint2_linear)"/>
<path style="mix-blend-mode:color-burn" opacity="0.15" d="M9.6832 16.4423C11.2158 16.4423 12.4582 15.5106 12.4582 14.3613C12.4582 13.212 11.2158 12.2803 9.6832 12.2803C8.15061 12.2803 6.9082 13.212 6.9082 14.3613C6.9082 15.5106 8.15061 16.4423 9.6832 16.4423Z" fill="url(#paint3_linear)"/>
<path style="mix-blend-mode:color-burn" opacity="0.15" d="M47.9735 20.043C47.9225 20.265 47.8684 20.4861 47.8094 20.7041C47.0554 23.5171 45.1933 27.9512 41.5833 27.5352L40.7713 27.4409C41.7003 29.3909 43.7035 29.7408 45.8045 30.6558C44.0805 31.4488 42.6815 32.065 41.0355 31.75C40.5474 31.6538 40.0666 31.5236 39.5965 31.3608C38.1193 30.6921 36.5837 30.1604 35.0093 29.772C33.3783 29.535 32.1094 30.5808 30.4864 30.5718C28.1724 30.5588 26.1514 28.9888 23.8104 28.8208C21.3813 28.8114 18.9613 29.1165 16.6104 29.728C14.4029 30.2515 12.1207 30.3837 9.8675 30.1182C4.9425 29.3182 1.19551 24.4769 0.25251 19.7949C-0.267366 17.5974 0.0212171 15.2864 1.0655 13.2842C1.30695 12.871 1.5991 12.4894 1.93537 12.1489C4.03537 15.4489 5.74839 19.0771 8.72639 21.5781C11.3723 23.6177 14.4909 24.9548 17.7923 25.4658C26.0383 27.0658 35.0265 25.704 41.8555 20.813C44.3089 19.0456 46.4164 16.8423 48.0733 14.313C48.1673 14.171 48.2584 14.0278 48.3494 13.8838C48.5455 15.9438 48.4187 18.0221 47.9735 20.043Z" fill="url(#paint4_linear)"/>
<path style="mix-blend-mode:color-burn" opacity="0.15" d="M29.5808 7.08393C30.3353 7.08393 30.9468 6.50146 30.9468 5.78293C30.9468 5.06441 30.3353 4.48193 29.5808 4.48193C28.8264 4.48193 28.2148 5.06441 28.2148 5.78293C28.2148 6.50146 28.8264 7.08393 29.5808 7.08393Z" fill="url(#paint5_linear)"/>
<path style="mix-blend-mode:color-burn" opacity="0.15" d="M45.834 6.18115C45.2914 6.52008 44.6629 6.6956 44.0232 6.68701C42.4912 6.68701 41.248 5.75496 41.248 4.60596C41.2755 4.20472 41.4199 3.82043 41.6636 3.50049C41.9073 3.18055 42.2396 2.93921 42.6191 2.80615C43.9044 3.70631 44.9973 4.85367 45.834 6.18115Z" fill="url(#paint6_linear)"/>
<defs>
<linearGradient id="paint0_linear" x1="51.5368" y1="36.863" x2="28.4917" y2="-4.63034" gradientUnits="userSpaceOnUse">
<stop stop-color="#FCA464"/>
<stop offset="0.389" stop-color="#FCB064"/>
<stop offset="1" stop-color="#FCC064"/>
</linearGradient>
<linearGradient id="paint1_linear" x1="17.4633" y1="34.1806" x2="5.83831" y2="-41.975" gradientUnits="userSpaceOnUse">
<stop offset="0.098"/>
<stop offset="1" stop-color="white" stop-opacity="0"/>
</linearGradient>
<linearGradient id="paint2_linear" x1="33.4945" y1="44.86" x2="15.475" y2="-29.8812" gradientUnits="userSpaceOnUse">
<stop offset="0.098"/>
<stop offset="1" stop-color="white" stop-opacity="0"/>
</linearGradient>
<linearGradient id="paint3_linear" x1="14.1121" y1="40.6776" x2="6.8745" y2="-35.8036" gradientUnits="userSpaceOnUse">
<stop offset="0.098"/>
<stop offset="1" stop-color="white" stop-opacity="0"/>
</linearGradient>
<linearGradient id="paint4_linear" x1="36.2323" y1="48.6647" x2="33.5812" y2="6.25187" gradientUnits="userSpaceOnUse">
<stop offset="0.098"/>
<stop offset="1" stop-color="white" stop-opacity="0"/>
</linearGradient>
<linearGradient id="paint5_linear" x1="32.8838" y1="25.415" x2="21.2589" y2="-50.7406" gradientUnits="userSpaceOnUse">
<stop offset="0.098"/>
<stop offset="1" stop-color="white" stop-opacity="0"/>
</linearGradient>
<linearGradient id="paint6_linear" x1="47.7463" y1="30.4788" x2="38.7581" y2="-44.1802" gradientUnits="userSpaceOnUse">
<stop offset="0.098"/>
<stop offset="1" stop-color="white" stop-opacity="0"/>
</linearGradient>
</defs>
</svg>
